<svg version="1.2" xmlns="http://www.w3.org/2000/svg" viewBox="0 0 239 200" width="239" height="200">
	<title>2 504-svg</title>
	<defs>
		<clipPath clipPathUnits="userSpaceOnUse" id="cp1">
			<path d="m207.26 0.35l90.84 200.77-206.45 93.41-90.84-200.77z"/>
		</clipPath>
	</defs>
	<style>
		.s0 { fill: #e2ff6f } 
		.s1 { fill: #1a8244 } 
		.s2 { fill: #276f44 } 
		.s3 { fill: #0d5e2d } 
		.s4 { fill: #ffffff } 
		.s5 { opacity: .2;fill: #1a8244 } 
		.s6 { opacity: .2;fill: #ffffff } 
		.s7 { opacity: .2;fill: #fec110 } 
	</style>
	<g id="Clip-Path" clip-path="url(#cp1)">
		<g id="Layer">
			<path id="Layer" class="s0" d="m264.6 295q-1.9 0.9-3.9 1.6-2 0.7-4.1 1.3-2.1 0.5-4.2 0.9-2.2 0.4-4.3 0.6-2.2 0.2-4.5 0.3-2.2 0-4.5-0.1-2.3-0.1-4.6-0.3-2.3-0.3-4.7-0.8-2.3-0.4-4.7-1-2.4-0.6-4.8-1.4-2.4-0.7-4.8-1.7-2.5-0.9-4.9-2-2.4-1-4.9-2.3-2.4-1.2-4.8-2.6-2.5-1.4-4.9-3-2.4-1.5-4.8-3.2-2.5-1.7-4.8-3.5-2.4-1.8-4.8-3.8-2.4-2-4.7-4.1-2.4-2.1-4.7-4.3-2.3-2.2-4.5-4.6-2.3-2.3-4.5-4.8-2.2-2.4-4.4-5-2.2-2.6-4.3-5.3-2.1-2.7-4.1-5.4-2.1-2.8-4-5.7-2-2.8-3.9-5.8-1.9-3-3.7-6-1.9-3-3.6-6.1-1.8-3.1-3.4-6.3-1.7-3.1-3.3-6.4-1.5-3.2-3-6.4-1.5-3.3-2.9-6.6-1.3-3.3-2.6-6.6-1.3-3.4-2.5-6.7-1.1-3.4-2.2-6.8-1.1-3.3-2.1-6.7-0.9-3.4-1.8-6.8-0.8-3.3-1.6-6.7-0.7-3.4-1.3-6.7-0.6-3.4-1.1-6.7-0.5-3.3-0.9-6.6-0.4-3.3-0.7-6.6-0.3-3.2-0.4-6.4-0.2-3.2-0.2-6.4 0-3.1 0.1-6.2 0-3.1 0.3-6.1 0.2-3 0.5-5.9 0.3-2.9 0.8-5.8 0.4-2.8 1-5.6 0.5-2.7 1.2-5.4 0.7-2.6 1.5-5.2 0.8-2.5 1.7-4.9 0.9-2.5 1.9-4.8 1-2.3 2.1-4.5 1.1-2.2 2.4-4.2 1.2-2.1 2.5-4 1.3-1.9 2.8-3.7 1.4-1.8 2.9-3.4 1.5-1.7 3.2-3.2 1.6-1.5 3.3-2.8 1.7-1.4 3.5-2.6 1.7-1.2 3.6-2.2 1.9-1 3.8-1.9 1.9-0.9 4-1.6 2-0.7 4-1.3 2.1-0.5 4.2-0.9 2.2-0.4 4.4-0.6 2.2-0.2 4.4-0.3 2.2-0.1 4.5 0 2.3 0.2 4.6 0.4 2.3 0.3 4.7 0.7 2.4 0.5 4.7 1.1 2.4 0.6 4.8 1.3 2.4 0.8 4.9 1.7 2.4 1 4.8 2.1 2.4 1 4.9 2.3 2.4 1.2 4.9 2.6 2.4 1.4 4.8 2.9 2.4 1.6 4.9 3.3 2.4 1.7 4.8 3.5 2.4 1.8 4.7 3.8 2.4 1.9 4.7 4 2.4 2.1 4.7 4.4 2.3 2.2 4.6 4.5 2.2 2.4 4.4 4.9 2.3 2.4 4.4 5 2.2 2.6 4.3 5.3 2.1 2.6 4.1 5.4 2.1 2.8 4.1 5.7 1.9 2.8 3.8 5.8 1.9 2.9 3.8 6 1.8 3 3.5 6.1 1.8 3.1 3.4 6.3 1.7 3.1 3.3 6.3 1.5 3.3 3 6.5 1.5 3.3 2.9 6.6 1.4 3.3 2.6 6.6 1.3 3.4 2.5 6.7 1.2 3.4 2.2 6.7 1.1 3.4 2.1 6.8 0.9 3.4 1.8 6.7 0.8 3.4 1.6 6.8 0.7 3.4 1.3 6.7 0.7 3.4 1.2 6.7 0.5 3.3 0.9 6.6 0.3 3.3 0.6 6.5 0.3 3.3 0.4 6.5 0.2 3.2 0.2 6.3 0 3.2 0 6.3-0.1 3-0.3 6.1-0.2 3-0.6 5.9-0.3 2.9-0.7 5.8-0.5 2.8-1 5.5-0.6 2.8-1.3 5.4-0.7 2.7-1.5 5.2-0.7 2.6-1.6 5-1 2.4-2 4.8-1 2.3-2.1 4.5-1.1 2.1-2.3 4.2-1.3 2.1-2.6 4-1.3 1.9-2.8 3.7-1.4 1.8-2.9 3.4-1.5 1.7-3.1 3.2-1.6 1.5-3.4 2.8-1.7 1.4-3.4 2.6-1.8 1.1-3.7 2.2-1.8 1-3.8 1.9z"/>
			<path id="Layer" class="s1" d="m253.1 269.6q-1.5 0.7-3.2 1.3-1.6 0.6-3.3 1-1.6 0.5-3.4 0.8-1.7 0.3-3.5 0.5-1.7 0.2-3.5 0.2-1.9 0.1-3.7 0-1.9-0.1-3.7-0.3-1.9-0.2-3.8-0.6-1.9-0.4-3.9-0.8-1.9-0.5-3.8-1.2-2-0.6-3.9-1.3-2-0.8-4-1.6-1.9-0.9-3.9-1.9-2-1-3.9-2.2-2-1.1-4-2.3-2-1.3-3.9-2.6-2-1.4-3.9-2.9-1.9-1.5-3.9-3.1-1.9-1.6-3.8-3.2-1.9-1.7-3.7-3.5-1.9-1.9-3.7-3.8-1.9-1.9-3.6-3.8-1.8-2-3.6-4.1-1.7-2.1-3.4-4.3-1.8-2.1-3.4-4.4-1.7-2.2-3.3-4.6-1.6-2.3-3.1-4.7-1.5-2.4-3-4.8-1.5-2.5-2.9-5-1.4-2.5-2.8-5-1.3-2.6-2.6-5.2-1.2-2.6-2.4-5.2-1.2-2.7-2.4-5.4-1.1-2.6-2.1-5.3-1-2.7-2-5.4-0.9-2.8-1.8-5.5-0.9-2.7-1.7-5.5-0.7-2.7-1.4-5.4-0.7-2.8-1.3-5.5-0.6-2.7-1.1-5.4-0.5-2.7-0.9-5.4-0.4-2.7-0.7-5.4-0.4-2.6-0.6-5.3-0.2-2.6-0.3-5.2-0.1-2.6-0.2-5.1 0-2.6 0.1-5.1 0.1-2.4 0.2-4.9 0.2-2.4 0.5-4.8 0.2-2.4 0.6-4.7 0.3-2.3 0.8-4.5 0.5-2.2 1-4.3 0.5-2.2 1.2-4.2 0.6-2.1 1.4-4.1 0.7-1.9 1.5-3.8 0.8-1.9 1.7-3.6 0.9-1.8 1.9-3.5 1-1.7 2.1-3.2 1.1-1.6 2.2-3 1.2-1.5 2.4-2.8 1.2-1.3 2.6-2.5 1.3-1.2 2.6-2.3 1.4-1.1 2.9-2.1 1.4-1 2.9-1.8 1.5-0.8 3.1-1.5 1.6-0.7 3.2-1.3 1.6-0.6 3.3-1.1 1.7-0.4 3.4-0.7 1.7-0.3 3.5-0.5 1.8-0.2 3.6-0.2 1.8-0.1 3.6 0 1.9 0.1 3.8 0.3 1.8 0.2 3.7 0.6 1.9 0.3 3.9 0.8 1.9 0.5 3.9 1.1 1.9 0.7 3.9 1.4 1.9 0.8 3.9 1.6 2 0.9 3.9 1.9 2 1 4 2.1 1.9 1.2 3.9 2.4 2 1.3 3.9 2.6 2 1.4 3.9 2.9 2 1.5 3.9 3 1.9 1.6 3.8 3.3 1.9 1.7 3.7 3.5 1.9 1.8 3.7 3.7 1.9 1.9 3.7 3.9 1.8 2 3.5 4.1 1.8 2.1 3.5 4.3 1.7 2.1 3.3 4.4 1.7 2.2 3.3 4.5 1.6 2.4 3.1 4.8 1.6 2.3 3 4.8 1.5 2.4 2.9 5 1.4 2.5 2.8 5 1.3 2.6 2.6 5.2 1.3 2.6 2.5 5.2 1.2 2.7 2.3 5.3 1.1 2.7 2.1 5.4 1.1 2.7 2 5.4 1 2.7 1.8 5.5 0.9 2.7 1.7 5.4 0.8 2.8 1.4 5.5 0.7 2.7 1.3 5.5 0.6 2.7 1.1 5.4 0.5 2.7 0.9 5.4 0.4 2.7 0.8 5.4 0.3 2.6 0.5 5.3 0.2 2.6 0.3 5.2 0.2 2.6 0.2 5.1 0 2.6-0.1 5 0 2.5-0.2 5-0.2 2.4-0.4 4.8-0.3 2.3-0.7 4.6-0.3 2.3-0.8 4.6-0.4 2.2-1 4.3-0.5 2.2-1.2 4.2-0.6 2.1-1.3 4.1-0.8 1.9-1.6 3.8-0.8 1.9-1.7 3.6-0.9 1.8-1.9 3.5-1 1.6-2.1 3.2-1.1 1.6-2.2 3-1.2 1.4-2.4 2.8-1.2 1.3-2.5 2.5-1.3 1.2-2.7 2.3-1.4 1.1-2.8 2.1-1.5 0.9-3 1.8-1.5 0.8-3.1 1.5z"/>
			<path id="Layer" class="s2" d="m149.6 57.9c17-11.5 40.8-9.8 65.6 7.6 44 30.7 74.8 98.8 68.9 152.1-3.4 30.2-17.8 49.2-37.6 54.4 13.1-8.8 22.2-25.4 24.7-48.6 6-53.3-24.9-121.4-68.8-152.1-19.1-13.4-37.5-17.4-52.8-13.4z"/>
			<path id="Layer" class="s1" d="m264.6 295.1l-31.2 14.1c-20.2 9.1-46.3 5.3-73.5-13.7-54.3-38-92.4-122.2-85.1-188 3.7-33 18-55.1 38.2-64.3l31.3-14.1c-20.2 9.1-34.5 31.2-38.2 64.2-7.3 65.9 30.8 150.1 85.1 188.1 27.2 18.9 53.2 22.7 73.4 13.7z"/>
			<path id="Layer" class="s3" d="m76.5 153.7c-0.3-1.5-0.5-3.1-0.7-4.5l31.3-14.2c0.2 1.5 0.5 3 0.7 4.5z"/>
			<path id="Layer" class="s3" d="m79.3 167.7c-0.4-1.5-0.7-3-1-4.4l31.3-14.2c0.3 1.5 0.6 2.9 1 4.4z"/>
			<path id="Layer" class="s3" d="m92.5 207.5c-0.6-1.4-1.2-2.7-1.7-4.1l31.2-14.1c0.6 1.4 1.1 2.7 1.7 4.1z"/>
			<path id="Layer" class="s3" d="m83.7 74.3c1-2.3 2.1-4.4 3.3-6.4l31.2-14.2c-1.1 2.1-2.2 4.2-3.3 6.4z"/>
			<path id="Layer" class="s3" d="m82.9 181.4c-0.4-1.5-0.8-2.9-1.2-4.4l31.3-14.1c0.4 1.5 0.8 2.8 1.2 4.3z"/>
			<path id="Layer" class="s3" d="m87.3 194.6c-0.5-1.4-1-2.7-1.5-4.2l31.3-14.1c0.5 1.4 1 2.7 1.5 4.2z"/>
			<path id="Layer" class="s3" d="m77.5 92.3c0.4-1.9 1-3.8 1.5-5.6l31.2-14.1c-0.5 1.8-0.9 3.7-1.4 5.5z"/>
			<path id="Layer" class="s3" d="m74.8 107.5c0.2-1.4 0.3-2.6 0.5-3.9l31.3-14.1c-0.2 1.3-0.4 2.5-0.5 3.8 0 0.4-0.1 0.9-0.1 1.3l-31.3 14.2c0.1-0.5 0.1-0.9 0.1-1.3z"/>
			<path id="Layer" class="s3" d="m74 124.3c0-1.6 0-3.2 0-4.8l31.3-14.2c-0.1 1.6 0 3.2 0 4.9z"/>
			<path id="Layer" class="s3" d="m74.7 139.3c-0.2-1.6-0.3-3.2-0.4-4.7l31.3-14.2c0 1.6 0.2 3.1 0.4 4.7z"/>
			<path id="Layer" class="s4" d="m193.8 258.6c0 0-1-0.7-2.7-2.1-1.7-1.4-4.5-3-7.5-5.8-1.5-1.3-3.3-2.8-5.1-4.4-1.9-1.7-3.7-3.6-5.7-5.7-2-2-4-4.2-6.1-6.7-2.1-2.4-4.2-4.9-6.3-7.8-2.1-2.8-4.3-5.8-6.3-9-2.1-3.1-4.2-6.4-6.1-10-2.1-3.4-4.1-7.1-5.9-10.8-2-3.8-3.6-7.8-5.3-11.8-3.4-8.1-6.2-16.7-8.6-25.6-2.1-9-4.1-18.3-4.7-27.7-0.6-4.7-0.3-9.4-0.4-14.1 0-2.4 0.2-4.7 0.4-7 0.1-2.3 0.3-4.8 0.8-7 0.9-9 3.8-18.2 7.8-26.2 4.1-8.1 9.8-15.1 17-19.7 7.1-4.6 15-6.7 22.2-7.1 7.3-0.6 13.7 1.1 19.3 2.6 2.7 1 5.2 2 7.6 2.9 2.3 1 4.2 2.2 6.1 3.1 3.7 1.8 6.2 3.9 8.1 5 1.8 1.2 2.8 1.9 2.8 1.9 0 0-0.9-0.7-2.8-1.8-2-1.1-4.6-3.1-8.3-4.7-1.9-0.9-3.9-2-6.2-2.8-2.4-0.8-4.8-1.8-7.6-2.6-5.5-1.3-11.9-2.8-19-2.1-6.9 0.5-14.5 2.6-21.2 7.2-6.7 4.6-12 11.4-15.9 19.2-3.8 7.9-6.5 16.3-7.6 25.5-0.8 4.5-0.8 9.2-1.1 13.8 0.2 4.6 0 9.2 0.6 13.8 0.5 9.2 2.4 18.4 4.4 27.2 2.4 8.8 5 17.4 8.3 25.4 1.6 4 3.3 8 5.2 11.7 1.7 3.8 3.6 7.5 5.5 10.9 1.9 3.6 4 6.8 6 10.1 1.9 3.2 4 6.1 6 8.9 1.9 2.9 4 5.5 6.1 7.9 1.9 2.5 3.9 4.9 5.8 6.9 1.9 2.1 3.7 4.2 5.4 5.9 1.8 1.6 3.5 3.2 4.9 4.6 3 2.8 5.7 4.6 7.4 6 1.7 1.3 2.7 2 2.7 2z"/>
			<path id="Layer" class="s5" d="m250.2 128c0 0 1.2 2.1 3.2 5.9 1.9 3.8 4.8 9.1 7.4 15.9 2.7 6.7 5.6 14.7 7.8 23.6 2.1 8.8 3.8 18.4 4.5 28.1 0.4 9.8 0 19.7-1.6 28.7-1.6 9.1-4.7 17.3-8.3 23.8-3.6 6.6-8 11.2-11.3 14-1.6 1.4-3 2.4-4 3.1-0.9 0.6-1.5 1-1.5 1 0 0 0.6-0.4 1.5-1.1 0.9-0.8 2.2-1.9 3.7-3.3 3.2-3 7-7.9 10.2-14.3 6.8-13.1 10-32.6 8.6-51.7-0.4-9.6-2-19.1-4-27.9-2-8.7-4.5-16.8-6.9-23.6-2.5-6.8-4.7-12.3-6.4-16.2-1.8-3.8-2.9-6-2.9-6z"/>
			<path id="Layer" class="s6" d="m154.3 245.6c0 0-2.1-2.7-5.9-7.6-1.7-2.5-3.9-5.5-6.3-8.9-2.3-3.6-5-7.5-7.6-12.1-2.6-4.5-5.2-9.5-7.9-14.8-2.6-5.4-5.3-11.2-7.6-17.3-4.7-12.2-8.8-25.5-11.5-39.2-2.6-13.7-3.8-27.8-3.3-40.9 0.5-13.2 2.8-25.5 6.3-35.5 3.4-10.1 8.2-17.7 12.1-22.6 1.9-2.4 3.5-4.2 4.8-5.4 1.2-1.1 1.8-1.8 1.8-1.8 0 0-0.6 0.7-1.7 1.9-1.2 1.2-2.7 3.1-4.5 5.5-3.7 5.1-7.9 12.8-11.1 22.8-3.2 10-5 22.1-5.4 35.1-0.4 13 0.9 26.8 3.6 40.3 2.5 13.6 6.4 26.9 11 39 2.3 6.1 4.7 11.9 7.2 17.3 2.6 5.4 5 10.4 7.5 14.9 2.4 4.6 5 8.6 7 12.3 2.3 3.5 4.3 6.6 6 9.2 3.5 4.9 5.5 7.8 5.5 7.8z"/>
			<path id="Layer" class="s6" d="m105.6 105.9l-27 11.5 26.4-12.6z"/>
			<path id="Layer" class="s6" d="m109.9 149.7l-27 11.5 26.4-12.7z"/>
			<path id="Layer" class="s6" d="m110.5 73.2l-26.9 11.5 26.4-12.7z"/>
			<path id="Layer" class="s6" d="m92.2 206.9l21.9-9.1-21.3 10.4z"/>
			<path id="Layer" class="s6" d="m74.3 138.8l21.9-9.3-21.3 10.5z"/>
			<path id="Layer" class="s1" d="m209.5 193.8c0-16.9 0.4-33.9 0.8-50.8 0.3-16.9 0.8-33.7 1.4-50.7l0.8 0.4c-13.7 10.4-27.4 20.8-41.3 31 13.4-10.7 27.1-21.3 40.7-31.8l0.8-0.7v1.1c-0.3 16.9-0.7 33.8-1.3 50.7-0.5 17-1.1 33.9-1.9 50.8z"/>
			<path id="Layer" class="s1" d="m204.1 215.6c-2.5 7.5-5 15-7.7 22.5l-0.3 1.1-0.4-1c-5-12.5-10.2-24.9-14.9-37.5-4.7-12.5-9.7-25-14.2-37.6 5.4 12.3 10.3 24.8 15.3 37.2 5.1 12.4 9.7 25.1 14.6 37.6h-0.8c2.6-7.5 5.5-14.9 8.4-22.3z"/>
			<path id="Layer" class="s4" d="m151.5 26.5c19-5.5 42.2-0.5 66.3 16.3 6 4.2 11.9 9.1 17.5 14.4l68.2 150.9c0.4 7.8 0.2 15.4-0.7 22.7-3.2 29.2-14.9 49.9-31.5 60.6l-11.5-25.5c12.8-8.9 21.8-25.3 24.3-48.2 5.9-53.3-24.9-121.4-68.9-152.1-18.8-13.3-37.1-17.4-52.2-13.6z"/>
			<path id="Layer" class="s4" d="m121.4 48.5c4.7-6.6 10.1-11.8 16.3-15.8l11.5 25.5c-6.1 4.3-11.2 10.3-15.3 17.8z"/>
			<path id="Layer" class="s7" d="m264.7 295l-31.3 14.2c-20.2 9.1-46.2 5.3-73.4-13.7-30.3-21.1-55.5-56.7-70.7-95.4l45.9 16.6c14.8 26.2 34 49.2 56 64.7 27.2 18.9 53.2 22.7 73.5 13.6z"/>
			<path id="Layer" class="s0" d="m159.7 143.7l-4.3-6.3c-0.4-0.5-0.4-1.3-0.1-1.7l3.9-5.2c0.3-0.5 0.9-0.4 1.3 0.1l4.3 6.4c0.4 0.5 0.4 1.3 0.1 1.7l-3.9 5.2c-0.3 0.4-0.9 0.4-1.3-0.2z"/>
			<path id="Layer" class="s0" d="m172.6 148.4c0.4 0.6 0.5 1.5 0.1 2l-3.7 4.9c-0.3 0.6-1 0.5-1.4-0.2l-4.3-6.1c-0.3-0.5-0.4-1.3 0-1.8l3.8-5.2c0.4-0.4 0.9-0.3 1.3 0.2l4.2 6.2z"/>
			<path id="Layer" class="s0" d="m175.6 166.9l-4.3-6.3c-0.4-0.6-0.4-1.4-0.1-1.8l3.9-5.2c0.3-0.4 0.9-0.4 1.2 0.2l4.4 6.3c0.3 0.5 0.4 1.3 0 1.7l-3.8 5.2c-0.4 0.5-0.9 0.4-1.3-0.1z"/>
			<path id="Layer" class="s0" d="m183.6 178.4l-4.4-6.3c-0.3-0.5-0.4-1.3 0-1.7l3.8-5.2c0.4-0.5 0.9-0.4 1.3 0.1l4.3 6.4c0.4 0.5 0.4 1.3 0.1 1.7l-3.9 5.2c-0.3 0.5-0.9 0.4-1.2-0.2z"/>
			<path id="Layer" class="s0" d="m198.6 180.6l-4.4-6.3c-0.3-0.6-0.4-1.3 0-1.8l3.8-5.2c0.4-0.4 0.9-0.3 1.3 0.2l4.3 6.3c0.4 0.5 0.4 1.3 0.1 1.8l-3.9 5.2c-0.3 0.4-0.9 0.3-1.2-0.2z"/>
			<path id="Layer" class="s0" d="m190.6 169l-4.3-6.3c-0.4-0.6-0.4-1.3-0.1-1.8l3.9-5.2c0.3-0.4 0.9-0.3 1.2 0.2l4.4 6.3c0.3 0.5 0.4 1.3 0 1.8l-3.8 5.2c-0.4 0.4-0.9 0.3-1.3-0.2z"/>
			<path id="Layer" class="s0" d="m182.7 157.4l-4.4-6.3c-0.3-0.5-0.4-1.3 0-1.8l3.8-5.1c0.4-0.5 0.9-0.4 1.3 0.1l4.3 6.3c0.4 0.6 0.4 1.4 0.1 1.8l-3.9 5.2c-0.3 0.4-0.9 0.4-1.2-0.2z"/>
			<path id="Layer" class="s0" d="m170.5 139.7c-0.4-0.6-0.5-1.5-0.1-2.1l3.7-4.9c0.4-0.5 1-0.4 1.5 0.2l4.2 6.2c0.3 0.5 0.4 1.3 0 1.7l-3.8 5.2c-0.3 0.5-0.9 0.4-1.3-0.1l-4.2-6.2z"/>
			<path id="Layer" class="s0" d="m166.8 134.3l-4.4-6.3c-0.3-0.6-0.3-1.3 0-1.8l3.8-5.2c0.4-0.4 0.9-0.3 1.3 0.2l4.3 6.3c0.4 0.5 0.4 1.3 0.1 1.8l-3.9 5.2c-0.3 0.4-0.9 0.3-1.2-0.2z"/>
			<path id="Layer" class="s0" d="m173.7 124.7l-4.1-6c-0.4-0.6-0.5-1.6-0.1-2.1l3.7-4.9c0.4-0.5 1-0.4 1.5 0.2l4.1 6c0.4 0.6 0.4 1.5 0 2.1l-3.6 4.9c-0.4 0.5-1.1 0.4-1.5-0.2z"/>
			<path id="Layer" class="s0" d="m186.8 129.6c0.4 0.6 0.4 1.3 0.1 1.8l-3.9 5.2c-0.3 0.4-0.9 0.3-1.2-0.2l-4.2-6.1c-0.5-0.7-0.5-1.6-0.1-2.1l3.6-4.9c0.4-0.5 1.1-0.4 1.5 0.2l4.2 6.1z"/>
			<path id="Layer" class="s0" d="m191.6 150.1l-4.4-6.3c-0.3-0.5-0.4-1.3 0-1.7l3.8-5.2c0.3-0.5 0.9-0.4 1.3 0.1l4.3 6.3c0.4 0.6 0.4 1.4 0.1 1.8l-3.9 5.2c-0.3 0.4-0.9 0.4-1.2-0.2z"/>
			<path id="Layer" class="s0" d="m197.6 159.5l-4.3-6.3c-0.4-0.5-0.4-1.3-0.1-1.7l3.9-5.2c0.3-0.5 0.9-0.4 1.3 0.1l4.3 6.4c0.4 0.5 0.4 1.3 0.1 1.7l-3.9 5.2c-0.3 0.5-0.9 0.4-1.3-0.2z"/>
			<path id="Layer" class="s0" d="m205.6 171.1l-4.3-6.3c-0.4-0.5-0.4-1.3-0.1-1.7l3.9-5.2c0.3-0.5 0.9-0.4 1.2 0.1l4.4 6.4c0.3 0.5 0.4 1.3 0 1.7l-3.8 5.2c-0.4 0.5-0.9 0.4-1.3-0.2z"/>
			<path id="Layer" class="s0" d="m213.5 182.7l-4.3-6.3c-0.4-0.5-0.4-1.3-0.1-1.8l3.9-5.2c0.3-0.4 0.9-0.3 1.3 0.2l4.3 6.3c0.4 0.6 0.4 1.3 0.1 1.8l-3.9 5.2c-0.3 0.4-0.9 0.3-1.3-0.2z"/>
			<path id="Layer" class="s0" d="m220.6 173.3l-4.3-6.4c-0.4-0.5-0.4-1.3-0.1-1.7l3.9-5.2c0.3-0.4 0.8-0.4 1.2 0.2l4.3 6.3c0.4 0.5 0.4 1.3 0.1 1.7l-3.9 5.2c-0.3 0.5-0.8 0.4-1.2-0.1z"/>
			<path id="Layer" class="s0" d="m212.6 161.7l-4.3-6.3c-0.4-0.6-0.4-1.3-0.1-1.8l3.9-5.2c0.3-0.4 0.9-0.3 1.3 0.2l4.3 6.3c0.4 0.5 0.4 1.3 0.1 1.8l-3.9 5.2c-0.3 0.4-0.9 0.3-1.3-0.2z"/>
			<path id="Layer" class="s0" d="m204.7 150.1l-4.3-6.3c-0.4-0.5-0.4-1.3-0.1-1.8l3.8-5.2c0.4-0.4 0.9-0.3 1.3 0.2l4.3 6.3c0.4 0.5 0.4 1.3 0.1 1.8l-3.9 5.2c-0.3 0.4-0.8 0.3-1.2-0.2z"/>
			<path id="Layer" class="s0" d="m196.7 138.5l-4.3-6.3c-0.4-0.5-0.4-1.3-0.1-1.8l3.9-5.1c0.3-0.5 0.9-0.4 1.3 0.1l4.3 6.3c0.4 0.6 0.4 1.4 0.1 1.8l-3.9 5.2c-0.3 0.4-0.9 0.4-1.3-0.2z"/>
			<path id="Layer" class="s0" d="m184.6 120.8c-0.4-0.6-0.5-1.5-0.1-2.1l3.7-4.9c0.3-0.5 1-0.4 1.4 0.2l4.3 6.2c0.3 0.5 0.4 1.3 0 1.7l-3.8 5.2c-0.4 0.5-0.9 0.4-1.3-0.1l-4.2-6.2z"/>
			<path id="Layer" class="s0" d="m180.9 115.4l-4.4-6.3c-0.3-0.6-0.4-1.3 0-1.8l3.8-5.2c0.4-0.4 0.9-0.3 1.3 0.2l4.3 6.3c0.4 0.5 0.4 1.3 0.1 1.8l-3.9 5.2c-0.3 0.4-0.9 0.3-1.2-0.2z"/>
			<path id="Layer" class="s0" d="m187.9 105.9l-4.3-6.3c-0.4-0.5-0.4-1.3-0.1-1.7l3.9-5.2c0.3-0.5 0.8-0.4 1.2 0.1l4.3 6.4c0.4 0.5 0.4 1.3 0.1 1.7l-3.8 5.2c-0.4 0.5-0.9 0.4-1.3-0.2z"/>
			<path id="Layer" class="s0" d="m200.9 110.7c0.4 0.6 0.4 1.4 0.1 1.8l-3.9 5.2c-0.3 0.4-0.9 0.4-1.3-0.2l-4.2-6.1c-0.4-0.6-0.4-1.6-0.1-2.1l3.7-4.9c0.4-0.5 1-0.4 1.5 0.2l4.2 6.1z"/>
			<path id="Layer" class="s0" d="m203.8 129.1l-4.4-6.3c-0.3-0.6-0.4-1.4 0-1.8l3.8-5.2c0.4-0.4 0.9-0.4 1.3 0.2l4.3 6.3c0.4 0.5 0.4 1.3 0.1 1.8l-3.9 5.1c-0.3 0.5-0.9 0.4-1.2-0.1z"/>
			<path id="Layer" class="s0" d="m211.7 140.7l-4.3-6.4c-0.4-0.5-0.4-1.3-0.1-1.7l3.9-5.2c0.3-0.5 0.9-0.4 1.2 0.2l4.4 6.3c0.3 0.5 0.4 1.3 0 1.7l-3.8 5.2c-0.3 0.5-0.9 0.4-1.3-0.1z"/>
			<path id="Layer" class="s0" d="m219.7 152.2l-4.3-6.3c-0.4-0.5-0.4-1.3-0.1-1.7l3.8-5.2c0.4-0.5 0.9-0.4 1.3 0.1l4.3 6.4c0.4 0.5 0.4 1.3 0.1 1.7l-3.9 5.2c-0.3 0.5-0.9 0.4-1.2-0.2z"/>
			<path id="Layer" class="s0" d="m218.8 131.2l-4.4-6.3c-0.3-0.5-0.4-1.3 0-1.8l3.8-5.2c0.4-0.4 0.9-0.3 1.3 0.2l4.3 6.3c0.4 0.5 0.4 1.3 0.1 1.8l-3.9 5.2c-0.3 0.4-0.9 0.3-1.2-0.2z"/>
			<path id="Layer" class="s0" d="m210.8 119.6l-4.3-6.3c-0.4-0.5-0.4-1.3-0.1-1.7l3.9-5.2c0.3-0.5 0.9-0.4 1.2 0.1l4.4 6.3c0.3 0.6 0.4 1.4 0 1.8l-3.8 5.2c-0.4 0.4-0.9 0.4-1.3-0.2z"/>
			<path id="Layer" class="s0" d="m198.7 101.9c-0.5-0.6-0.5-1.5-0.1-2.1l3.6-4.9c0.4-0.5 1.1-0.4 1.5 0.2l4.2 6.2c0.4 0.5 0.4 1.3 0.1 1.7l-3.9 5.2c-0.3 0.5-0.9 0.4-1.2-0.1l-4.2-6.2z"/>
			<path id="Layer" class="s0" d="m194.9 96.5l-4.3-6.3c-0.4-0.6-0.4-1.3-0.1-1.8l3.9-5.2c0.3-0.4 0.9-0.3 1.3 0.2l4.3 6.3c0.4 0.5 0.4 1.3 0.1 1.8l-3.9 5.2c-0.3 0.4-0.9 0.3-1.3-0.2z"/>
			<g id="Layer">
			</g>
		</g>
	</g>
</svg>