<svg width="22" height="22" viewBox="0 0 22 22" fill="none" xmlns="http://www.w3.org/2000/svg">
<path d="M20.2659 14.4453L15.4177 12.3778C15.1676 12.2657 14.8929 12.2192 14.6198 12.2427C14.3467 12.2662 14.0841 12.359 13.8568 12.5122L11.2621 14.2385C9.68075 13.4705 8.4004 12.1974 7.62337 10.6205L9.33936 7.99479C9.49157 7.76725 9.58453 7.50528 9.6098 7.23269C9.63508 6.9601 9.59186 6.68551 9.48408 6.43386L7.40628 1.58566C7.26129 1.25829 7.01579 0.985613 6.70539 0.807176C6.39498 0.628739 6.03581 0.553816 5.67995 0.593273C4.28399 0.776144 3.00193 1.45972 2.07214 2.5169C1.14236 3.57408 0.628104 4.93294 0.625 6.34082C0.625 14.5487 7.30291 21.2266 15.5107 21.2266C16.9186 21.2235 18.2775 20.7092 19.3347 19.7794C20.3918 18.8496 21.0754 17.5676 21.2583 16.1716C21.2977 15.8158 21.2228 15.4566 21.0444 15.1462C20.8659 14.8358 20.5933 14.5903 20.2659 14.4453Z" fill="#555353"/>
</svg>
