<svg version="1.2" xmlns="http://www.w3.org/2000/svg" viewBox="0 0 161 161" width="161" height="161">
	<title>Group 1000001207-svg</title>
	<style>
		.s0 { fill: #faffc5 } 
		.s1 { fill: #d4f938 } 
		.s2 { fill: #2ca85e } 
		.s3 { fill: #1a8244 } 
		.s4 { opacity: .2;fill: #3ea668 } 
	</style>
	<path id="Layer" class="s0" d="m107.9 65.4c0.4 6-10.2 14.5-25.4 19.9-15 5.4-29.4 5.9-34.4 1.7 0.2-2 1.9-9.1 17.7-16.7 5-2.4 10.3-4.3 15.8-5.7 16.9-4.1 24.1-0.6 26.3 0.8z"/>
	<path id="Layer" fill-rule="evenodd" class="s1" d="m115.7 60c2.4 6.1-2.3 12.7-10.6 18.5h-0.1l-0.2 0.2c-6.2 4-13.1 7.4-20.5 10-10 3.6-19.8 5.5-27.8 5.8-8.8 0.1-15.8-2-18.4-7.3q0.1 0.5 0.2 1c-2.8-7.7 11.3-19.7 32.3-27.1 20.5-7.4 40-7.7 45.1-1.1zm-8.1 3.8c-1.7-3.4-7.6-4.9-15.5-4.4q-2.7 0.2-5.3 0.6c-10.1 1.6-19.8 5.1-28.2 10.1-2.8 1.6-5.4 3.5-7.7 5.5-2.7 2.6-4.2 5.1-4.4 7.3q-0.1 0.5 0 0.9 0 0.9 0.4 1.6 0.5 1 1.4 1.7c4.9 4.2 19.3 3.7 34.3-1.7 15.3-5.4 25.9-13.9 25.5-19.9q-0.1-0.9-0.5-1.7z"/>
	<path id="Layer" class="s2" d="m115.4 59.5c2.4 6.1-2.4 12.7-10.6 18.5h-0.1l-0.2 0.2c-12.7 8.7-33.2 15.6-48.3 15.8-8.8 0.1-15.9-2-18.4-7.3q0.1 0.5 0.2 1c6.4 26.4 87.5-0.6 79.7-23.6l-2.2-4.4q0-0.1-0.1-0.2z"/>
	<path id="Layer" class="s3" d="m107.6 63.8q0.4 0.8 0.5 1.7c-2.2-1.5-9.5-4.9-26.3-0.8-5.5 1.3-10.9 3.2-15.9 5.6-15.8 7.7-17.5 14.7-17.6 16.8-1.1-0.9-1.7-2-1.8-3.3q-0.1-0.5-0.1-0.9c0.3-2.3 1.9-4.8 4.5-7.3 2.3-2 4.9-3.9 7.7-5.5 8.4-5 18.1-8.5 28.2-10.1q2.6-0.4 5.2-0.6c8-0.5 13.9 0.9 15.6 4.4z"/>
	<path id="Layer" class="s1" d="m74.1 87l-13.2-7 22.7-6.8z"/>
	<path id="Layer" class="s3" d="m83.6 73.2l-22.7 6.8 20-14.3z"/>
	<path id="Layer" class="s1" d="m86 72.7l8.5-0.1-18.3 13.9z"/>
	<path id="Layer" class="s3" d="m83 65.2l11.5 7.4-8.5 0.1z"/>
	<path id="Layer" class="s4" d="m74.1 87l-2.1-10.3 8.9-11 2.7 7.5z"/>
	<g id="Layer">
	</g>
</svg>