<svg version="1.2" xmlns="http://www.w3.org/2000/svg" viewBox="0 0 112 84" width="112" height="84">
	<title>Group 1000001205-svg</title>
	<style>
		.s0 { fill: #faffc5 } 
		.s1 { fill: #d4f938 } 
		.s2 { fill: #2ca85e } 
		.s3 { fill: #1a8244 } 
		.s4 { opacity: .2;fill: #3ea668 } 
	</style>
	<path id="Layer" class="s0" d="m74 44c-4.6 1.7-14-2.3-22-9.7-7.9-7.3-11.9-15.4-9.7-19.3 1.7-0.4 7.8-1.2 17.7 6.1 3.1 2.2 5.9 4.8 8.3 7.7 7.4 8.6 6.4 13.6 5.7 15.2z"/>
	<path id="Layer" fill-rule="evenodd" class="s1" d="m80.3 47.2c-4.3 2.9-10.7 1.7-17.4-1.6l-0.2-0.1c-4.7-2.6-9.1-5.7-13-9.3-5.3-4.9-9.2-10.1-11.3-14.6-2.2-5-2.3-9.6 1.4-12.3q-0.4 0.2-0.8 0.4c5.4-3.5 18.5 1.7 29.5 11.9 10.8 10 15.8 21.1 11.8 25.6zm-5-3.7c2.3-1.8 2.1-5.6-0.3-10q-0.8-1.5-1.7-2.9c-3.8-5.4-8.9-10.1-14.9-13.7q-3-1.8-6.3-3.1c-2.7-0.9-5-1.2-6.9-0.8q-0.4 0.1-0.7 0.3-0.7 0.2-1.2 0.6-0.6 0.5-1 1.2c-2.2 3.9 1.8 12 9.7 19.3 8 7.4 17.3 11.4 22 9.8q0.7-0.3 1.3-0.7z"/>
	<path id="Layer" class="s2" d="m80.6 46.9c-4.3 2.8-10.7 1.7-17.4-1.6l-0.2-0.1c-10-5.2-20.4-15.3-24.3-23.9-2.2-5.1-2.2-9.6 1.4-12.3q-0.4 0.2-0.8 0.4c-19.6 10 21.7 50 38.2 40l2.9-2.4q0.1 0 0.2-0.1z"/>
	<path id="Layer" class="s3" d="m75.3 43.5q-0.5 0.4-1.3 0.6c0.7-1.6 1.7-6.6-5.7-15.2-2.4-2.9-5.2-5.5-8.3-7.7-9.9-7.3-16-6.5-17.7-6.1 0.5-0.9 1.2-1.5 2.2-1.9q0.3-0.1 0.7-0.2c1.9-0.4 4.3-0.1 7 0.8q3.2 1.2 6.2 3.1c6 3.6 11.2 8.3 14.9 13.7q0.9 1.4 1.8 2.9c2.3 4.4 2.5 8.2 0.2 10z"/>
	<path id="Layer" class="s1" d="m48.6 29.9l2.4-9.3 10.9 11.4z"/>
	<path id="Layer" class="s3" d="m61.9 32l-10.9-11.4 16.3 8z"/>
	<path id="Layer" class="s1" d="m62.9 33.2l2.2 4.9-15.6-7.1z"/>
	<path id="Layer" class="s3" d="m68.2 29.7l-3.1 8.4-2.2-4.9z"/>
	<path id="Layer" class="s4" d="m48.6 29.9l7.7-3.7 11 2.4-5.4 3.4z"/>
	<g id="Layer">
	</g>
</svg>