<svg version="1.2" xmlns="http://www.w3.org/2000/svg" viewBox="0 0 273 267" width="273" height="267">
	<title>Group 1000001206-svg</title>
	<style>
		.s0 { fill: #faffc5 } 
		.s1 { fill: #d4f938 } 
		.s2 { fill: #2ca85e } 
		.s3 { fill: #1a8244 } 
		.s4 { opacity: .2;fill: #3ea668 } 
	</style>
	<path id="Layer" class="s0" d="m174.7 97.4c3.9 10-9.5 28.4-32.4 43.5-22.5 14.8-46.6 21.3-57.3 16.1-0.9-3.6-1.8-16.2 21-35.2 7.1-6 15.2-11.3 23.8-15.7 26.3-13.4 40.4-10.3 44.9-8.7z"/>
	<path id="Layer" fill-rule="evenodd" class="s1" d="m185 85.2c7.4 9.4 2.9 22.4-8 35.4l-0.1 0.1-0.4 0.3c-8.2 9.3-18.1 17.7-29.2 24.9-15.1 9.9-30.7 17-44.1 20.4-14.8 3.7-27.8 2.8-35-5.2q0.4 0.8 0.9 1.7c-9-12 8.5-37.7 40.1-58.4 30.7-20.3 63.7-28.4 75.8-19.2zm-11.6 9.5c-4.7-5.1-15.6-5.3-28.8-1.4q-4.3 1.4-8.5 3.1c-16.2 6.6-30.9 16.2-42.4 27.9-3.9 3.8-7.3 7.9-10 12.2-3.2 5.4-4.5 10.3-3.7 14.1q0.2 0.8 0.5 1.6 0.6 1.4 1.6 2.5 1.4 1.4 3.3 2.3c10.6 5.3 34.7-1.2 57.2-16 22.9-15.1 36.3-33.5 32.4-43.5q-0.5-1.5-1.6-2.8z"/>
	<path id="Layer" class="s2" d="m184.2 84.6c7.3 9.3 2.8 22.4-8 35.3l-0.1 0.1-0.4 0.3c-16.7 19.7-47.8 39.1-73.3 45.3-14.9 3.6-27.9 2.7-35-5.2q0.4 0.8 0.9 1.6c24.9 42.3 147.8-34.7 122.3-70.5l-6-6.6c-0.1-0.2-0.2-0.3-0.4-0.3z"/>
	<path id="Layer" class="s3" d="m173.3 94.7q1.1 1.2 1.7 2.8c-4.5-1.7-18.6-4.7-44.9 8.7-8.7 4.4-16.7 9.7-23.8 15.6-22.8 19-21.9 31.6-21 35.2-2.3-1.1-4-2.8-4.8-4.8q-0.3-0.8-0.5-1.6c-0.8-3.9 0.5-8.8 3.6-14.1 2.8-4.3 6.2-8.4 10-12.2 11.6-11.7 26.2-21.4 42.5-28q4.2-1.7 8.5-3c13.1-3.9 24-3.7 28.7 1.4z"/>
	<path id="Layer" class="s1" d="m129 146.9l-26.1-6.7 34.9-20.2z"/>
	<path id="Layer" class="s3" d="m137.8 120l-34.9 20.2 26.2-31.9z"/>
	<path id="Layer" class="s1" d="m141.4 118.2l14.5-3.6-23.5 30.7z"/>
	<path id="Layer" class="s3" d="m132.5 106.6l23.4 8-14.5 3.6z"/>
	<path id="Layer" class="s4" d="m129 146.9l-9.1-16.6 9.2-22 8.7 11.7z"/>
	<g id="Layer">
	</g>
</svg>