<svg width="27" height="21" viewBox="0 0 27 21" fill="none" xmlns="http://www.w3.org/2000/svg">
<path d="M25.6713 0.834961H1.67126C1.40605 0.834961 1.15169 0.940318 0.964158 1.12785C0.776621 1.31539 0.671265 1.56974 0.671265 1.83496V18.835C0.671265 19.3654 0.881978 19.8741 1.25705 20.2492C1.63212 20.6242 2.14083 20.835 2.67126 20.835H24.6713C25.2017 20.835 25.7104 20.6242 26.0855 20.2492C26.4606 19.8741 26.6713 19.3654 26.6713 18.835V1.83496C26.6713 1.56974 26.5659 1.31539 26.3784 1.12785C26.1908 0.940318 25.9365 0.834961 25.6713 0.834961ZM24.6713 18.835H2.67126V4.10996L12.9963 13.5725C13.1806 13.7411 13.4214 13.8346 13.6713 13.8346C13.9211 13.8346 14.1619 13.7411 14.3463 13.5725L24.6713 4.10996V18.835Z" fill="#555353"/>
</svg>
