<svg width="294" height="226" viewBox="0 0 294 226" fill="none" xmlns="http://www.w3.org/2000/svg">
<rect x="79" width="215" height="215" rx="20" fill="#333333"/>
<g opacity="0.1">
<path d="M219.441 146.929C223.177 148.786 224.596 153.338 222.154 155.937C217.131 161.285 196.449 158.643 195.476 155.018C194.517 151.447 211.646 143.053 219.441 146.929Z" stroke="url(#paint0_linear_930_1786)" stroke-miterlimit="10"/>
<path d="M210.184 135.034C201.651 131.486 187.322 156.752 193.236 162.717C196.873 166.385 205.676 165.926 212.855 164.721C219.594 163.589 229.224 158.963 231.6 151.279C232.858 147.2 232.103 141.389 229.438 139.354C227.376 137.779 224.593 138.488 223.979 138.226C221.051 139.667 220.622 140.228 218.289 140.566C215.241 141.008 212.531 136.01 210.184 135.034Z" stroke="url(#paint1_linear_930_1786)" stroke-miterlimit="10"/>
<path d="M201.526 122.607C191.615 124.486 180.845 161.39 191.596 169.883C198.443 175.292 210.38 172.903 218.7 170.044C226.343 167.417 239.069 158.652 241.644 146.089C243.14 138.79 241.322 128.522 236.111 125.552C231.957 123.185 226.605 125.22 225.663 125.377C220.093 128.934 219.642 130.744 215.495 131.962C210.003 133.573 205.668 121.818 201.526 122.607Z" stroke="url(#paint2_linear_930_1786)" stroke-miterlimit="10"/>
<path d="M193.495 110.263C182.552 113.726 174.995 166.081 190.583 177.131C200.643 184.261 215.717 179.984 225.172 175.449C233.726 171.347 249.495 158.44 252.315 140.981C254.016 130.452 251.178 115.749 243.412 111.831C237.172 108.682 229.202 111.914 227.976 112.61C219.402 117.475 219.294 121.342 213.325 123.44C205.396 126.235 199.226 108.453 193.495 110.263Z" stroke="url(#paint3_linear_930_1786)" stroke-miterlimit="10"/>
<path d="M185.947 98.4801C173.828 103.476 169.648 171.28 190.053 184.941C203.34 193.757 221.545 187.637 232.127 181.417C241.601 175.849 260.394 158.802 263.473 136.434C265.366 122.685 261.52 103.542 251.198 98.6701C242.868 94.7414 232.345 99.3496 230.774 100.4C219.723 107.794 219.437 112.517 211.648 115.481C201.281 119.46 193.201 95.4906 185.947 98.4801Z" stroke="url(#paint4_linear_930_1786)" stroke-miterlimit="10"/>
<path d="M259.324 85.6656C248.908 80.9587 235.837 86.9365 233.911 88.3492C220.412 98.2547 219.913 103.814 210.307 107.671C197.499 112.813 187.462 82.5956 178.745 86.8464C165.355 93.376 164.603 176.717 189.868 192.9C206.354 203.459 227.725 195.447 239.428 187.533C249.821 180.505 271.624 159.318 274.97 132.037C277.05 115.069 272.203 91.4846 259.324 85.6656Z" stroke="url(#paint5_linear_930_1786)" stroke-miterlimit="10"/>
<path d="M146.607 77.0783C150.71 77.0375 155.631 68.5907 151.951 67.1803C149.826 66.3645 144.199 67.6547 141.988 69.9508C138.875 73.1817 143.783 77.1072 146.607 77.0783Z" stroke="url(#paint6_linear_930_1786)" stroke-miterlimit="10"/>
<path d="M157.758 68.3632C157.356 67.2296 155.476 66.7262 153.76 65.3458C150.28 62.5442 149.781 61.2131 147.31 59.5236C146.346 58.8634 145.049 57.9961 143.783 58.3932C141.844 59.0019 141.36 61.636 138.899 66.2754C135.708 72.3037 134.5 73.8623 135.412 77.0568C135.624 77.7996 135.899 80.2051 137.436 81.6725C139.564 83.7012 142.058 82.1341 145.176 83.4769C148.921 85.087 150.778 87.9531 152.403 86.6864C153.548 85.7944 153.59 83.3513 154.448 79.0974C155.101 75.8567 155.511 73.7303 156.305 71.9956C157.258 69.9304 158.205 69.6234 157.758 68.3632Z" stroke="url(#paint7_linear_930_1786)" stroke-miterlimit="10"/>
<path d="M164.03 70.7258C163.96 68.7163 161.301 67.7438 159.11 64.8402C154.616 58.8838 156.698 54.6277 153.096 50.2761C151.567 48.4287 149.169 46.6393 146.765 46.986C143.354 47.4787 142.208 51.6618 136.956 60.1429C130.09 71.2313 127.166 73.4029 127.807 79.312C127.938 80.5164 128.065 85.1407 130.749 87.9241C134.327 91.636 138.617 88.259 144.219 91.0488C150.479 94.1617 152.819 100.817 154.93 99.4397C156.396 98.4833 155.834 94.6319 156.961 87.1201C157.759 81.7809 158.252 78.6605 159.846 76.1047C161.858 72.8812 164.105 72.908 164.03 70.7258Z" stroke="url(#paint8_linear_930_1786)" stroke-miterlimit="10"/>
<path d="M170.308 73.0626C170.579 70.1826 167.136 68.7346 164.466 64.3078C158.967 55.1945 163.708 48.0712 158.888 41.0017C156.825 37.9768 153.288 35.2707 149.754 35.553C144.857 35.9437 143.047 41.6436 135.013 53.9847C124.45 70.1096 119.901 72.9488 120.199 81.5415C120.258 83.2171 120.231 90.0484 124.059 94.1531C129.089 99.5449 135.183 94.3517 143.259 98.5971C152.04 103.213 154.855 113.654 157.458 112.17C159.244 111.144 158.1 105.889 159.475 95.1192C160.425 87.6815 160.997 83.5821 163.388 80.1901C166.471 75.8191 170.017 76.1648 170.308 73.0626Z" stroke="url(#paint9_linear_930_1786)" stroke-miterlimit="10"/>
<path d="M176.6 75.393C177.209 71.6457 172.992 69.7167 169.836 63.77C163.344 51.4944 170.754 41.532 164.694 31.722C162.104 27.5249 157.418 23.9011 152.757 24.1136C146.37 24.4056 143.925 31.6415 133.087 47.8211C118.861 69.0104 112.669 72.5098 112.614 83.7657C112.603 85.9125 112.424 94.9442 117.393 100.376C123.881 107.441 131.767 100.435 142.322 106.14C153.627 112.252 156.916 126.489 160 124.896C162.107 123.803 160.38 117.139 162.004 103.113C163.108 93.5756 163.757 88.5027 166.944 84.2702C171.099 78.7571 175.946 79.4226 176.6 75.393Z" stroke="url(#paint10_linear_930_1786)" stroke-miterlimit="10"/>
<path d="M182.905 77.7223C181.886 82.6815 175.741 81.6939 170.515 88.3491C166.529 93.4232 165.805 99.4676 164.546 111.106C162.677 128.388 164.985 136.461 162.556 137.619C158.987 139.323 155.224 121.289 141.394 113.682C128.366 106.516 118.671 115.35 110.736 106.597C104.619 99.8487 104.959 88.6164 105.038 85.9876C105.46 72.0718 113.284 67.9091 131.175 41.6554C144.817 21.6372 147.894 12.8674 155.774 12.6731C161.562 12.5303 167.399 17.0741 170.515 22.4412C177.81 35.0002 167.718 47.8072 175.218 63.2311C178.852 70.7054 183.853 73.1087 182.905 77.7223Z" stroke="url(#paint11_linear_930_1786)" stroke-miterlimit="10"/>
<path d="M130.763 157.542C131.834 156.898 134.082 158.139 134.281 160.072C134.506 162.265 131.962 164.079 130.845 163.515C129.522 162.848 129.342 158.394 130.763 157.542Z" stroke="url(#paint12_linear_930_1786)" stroke-miterlimit="10"/>
<path d="M127.746 169.194C125.921 167.168 125.124 163.451 124.211 157.079C123.307 150.761 123.449 146.238 124.244 145.909C124.677 145.732 125.904 147.118 126.957 148.133C128.927 150.029 132.301 149.819 133.165 150.024C136.331 150.775 137.26 152.17 138.583 154.843C139.196 156.078 140.624 158.815 141.252 162.035C142.211 166.912 146.507 168.414 145.984 170.369C145.543 172.001 141.286 172.397 138.526 172.443C134.571 172.51 130.568 172.322 127.746 169.194Z" stroke="url(#paint13_linear_930_1786)" stroke-miterlimit="10"/>
<path d="M124.583 174.639C121.583 171.02 120.403 164.945 118.585 153.585C116.738 142.17 116.75 134.341 117.66 134.049C118.343 133.826 120.554 136.648 122.433 138.665C125.975 142.483 132.317 141.855 133.624 142.1C139.584 143.192 141.052 145.81 143.362 150.759C144.324 152.82 146.964 157.843 148.167 163.776C150.018 172.865 158.795 175.245 158.069 178.614C157.462 181.42 149.323 181.85 144.201 181.62C136.97 181.286 129.652 180.758 124.583 174.639Z" stroke="url(#paint14_linear_930_1786)" stroke-miterlimit="10"/>
<path d="M121.436 180.049C117.259 174.837 115.71 166.401 112.977 150.056C110.201 133.541 110.072 122.424 111.094 122.147C112.03 121.889 115.223 126.14 117.924 129.164C123.029 134.914 132.347 133.857 134.097 134.134C142.849 135.521 144.865 139.399 148.155 146.634C149.468 149.52 153.318 156.831 155.097 165.473C157.838 178.775 171.096 182.03 170.169 186.815C169.395 190.795 157.372 191.277 149.891 190.75C139.386 190.047 128.741 189.165 121.436 180.049Z" stroke="url(#paint15_linear_930_1786)" stroke-miterlimit="10"/>
<path d="M118.3 185.456C112.943 178.651 111.026 167.852 107.378 146.522C103.67 124.91 103.399 110.508 104.536 110.24C105.727 109.958 109.904 115.62 113.424 119.653C120.102 127.323 132.385 125.847 134.578 126.164C146.123 127.826 148.701 132.974 152.957 142.503C154.627 146.213 159.681 155.814 162.035 167.166C165.668 184.68 183.408 188.81 182.277 195.012C181.337 200.164 165.43 200.678 155.588 199.877C141.814 198.775 127.837 197.572 118.3 185.456Z" stroke="url(#paint16_linear_930_1786)" stroke-miterlimit="10"/>
<path d="M135.064 118.19C149.401 120.122 152.518 126.563 157.763 138.37C159.78 142.91 166.049 154.794 168.977 168.856C173.499 190.584 195.722 195.589 194.39 203.205C193.283 209.538 173.492 210.075 161.29 209.001C144.241 207.499 126.934 205.977 115.167 190.861C108.63 182.461 106.347 169.303 101.783 142.986C97.1495 116.275 96.7363 98.5917 97.9843 98.332C99.4313 98.0314 104.586 105.094 108.927 110.14C117.179 119.727 132.426 117.835 135.064 118.19Z" stroke="url(#paint17_linear_930_1786)" stroke-miterlimit="10"/>
<path d="M251.637 66.5587C250.009 73.9653 238.325 70.4864 224.415 87.1684C219.431 93.1463 216.09 99.3989 209.493 100.371C208.828 100.469 202.219 101.327 197.556 96.2924C191.688 89.9593 195.269 81.1733 188.421 68.9203C185.899 64.4065 185.479 65.7172 183.628 62.1577C175.728 46.9635 187.778 31.5384 180.825 16.108C177.624 9.00522 172.866 7.3747 173.318 6.44726C175.27 2.4681 256.036 46.6007 251.637 66.5587Z" stroke="url(#paint18_linear_930_1786)" stroke-miterlimit="10"/>
<path d="M207.685 90.2459C207.285 90.1815 202.928 90.5679 199.939 87.0084C196.159 82.514 198.853 76.3258 194.523 67.9714C192.93 64.8949 192.708 65.729 191.574 63.2955C186.736 52.9113 195.419 42.4648 191.167 32.2995C189.199 27.5936 186.093 26.5148 186.555 26.0554C188.645 23.9601 241.955 54.9143 237.768 68.3836C236.198 73.4351 227.627 71.6425 217.82 82.5226C214.254 86.476 211.839 90.9146 207.685 90.2459Z" stroke="url(#paint19_linear_930_1786)" stroke-miterlimit="10"/>
<path d="M205.876 80.1193C205.762 79.779 203.631 79.7865 202.322 77.7245C200.621 75.0495 202.432 71.4857 200.625 67.0235C199.962 65.3855 199.935 65.7354 199.519 64.4334C197.733 58.8333 203.069 53.3976 201.509 48.4899C200.779 46.1799 199.422 45.7859 199.784 45.6625C202.428 46.108 227.819 63.258 223.903 70.2084C222.373 72.9241 216.899 72.7942 211.229 77.8769C209.074 79.809 207.663 81.2238 205.876 80.1193Z" stroke="url(#paint20_linear_930_1786)" stroke-miterlimit="10"/>
<path d="M204.067 69.9937C205.471 65.1257 210.996 63.4705 213.02 65.2706C216.005 67.9284 213.459 71.3891 210.036 72.0332C207.477 72.5108 202.461 75.5647 204.067 69.9937Z" stroke="url(#paint21_linear_930_1786)" stroke-miterlimit="10"/>
</g>
<g filter="url(#filter0_d_930_1786)">
<rect x="22" y="31" width="221" height="48" rx="8" fill="#424242" shape-rendering="crispEdges"/>
<path d="M44.5091 47.0698V37.2698H46.1261V45.5088H50.8931V47.0698H44.5091ZM55.1764 47.2378C54.4998 47.2378 53.9164 47.0815 53.4264 46.7688C52.9364 46.4562 52.5608 46.0198 52.2994 45.4598C52.0381 44.8952 51.9074 44.2372 51.9074 43.4858C51.9074 42.7065 52.0428 42.0392 52.3134 41.4838C52.5841 40.9238 52.9644 40.4945 53.4544 40.1958C53.9444 39.8972 54.5184 39.7478 55.1764 39.7478C55.7411 39.7478 56.2544 39.8692 56.7164 40.1118C57.1831 40.3545 57.5541 40.7278 57.8294 41.2318C58.1048 41.7312 58.2424 42.3682 58.2424 43.1428C58.2424 43.2642 58.2401 43.4088 58.2354 43.5768C58.2308 43.7402 58.2168 43.9058 58.1934 44.0738H53.4684C53.4964 44.4378 53.5828 44.7552 53.7274 45.0258C53.8768 45.2965 54.0751 45.5088 54.3224 45.6628C54.5698 45.8122 54.8614 45.8868 55.1974 45.8868C55.5241 45.8868 55.8134 45.8332 56.0654 45.7258C56.3174 45.6138 56.5578 45.4365 56.7864 45.1938L57.6964 46.1528C57.4024 46.4748 57.0431 46.7362 56.6184 46.9368C56.1984 47.1375 55.7178 47.2378 55.1764 47.2378ZM53.4754 42.8068H56.7024C56.6884 42.4662 56.6184 42.1675 56.4924 41.9108C56.3711 41.6542 56.1984 41.4558 55.9744 41.3158C55.7504 41.1712 55.4774 41.0988 55.1554 41.0988C54.7074 41.0988 54.3248 41.2388 54.0074 41.5188C53.6948 41.7988 53.5174 42.2282 53.4754 42.8068ZM61.6616 47.0698L59.0436 39.9158H60.6606L62.2286 44.3398C62.2659 44.4472 62.3033 44.5592 62.3406 44.6758C62.3779 44.7925 62.4106 44.9115 62.4386 45.0328C62.4713 44.9115 62.5039 44.7948 62.5366 44.6828C62.5739 44.5662 62.6136 44.4518 62.6556 44.3398L64.2026 39.9158H65.8126L63.1946 47.0698H61.6616ZM70.0925 47.2378C69.4158 47.2378 68.8325 47.0815 68.3425 46.7688C67.8525 46.4562 67.4768 46.0198 67.2155 45.4598C66.9541 44.8952 66.8235 44.2372 66.8235 43.4858C66.8235 42.7065 66.9588 42.0392 67.2295 41.4838C67.5001 40.9238 67.8805 40.4945 68.3705 40.1958C68.8605 39.8972 69.4345 39.7478 70.0925 39.7478C70.6571 39.7478 71.1705 39.8692 71.6325 40.1118C72.0991 40.3545 72.4701 40.7278 72.7455 41.2318C73.0208 41.7312 73.1585 42.3682 73.1585 43.1428C73.1585 43.2642 73.1561 43.4088 73.1515 43.5768C73.1468 43.7402 73.1328 43.9058 73.1095 44.0738H68.3845C68.4125 44.4378 68.4988 44.7552 68.6435 45.0258C68.7928 45.2965 68.9911 45.5088 69.2385 45.6628C69.4858 45.8122 69.7775 45.8868 70.1135 45.8868C70.4401 45.8868 70.7295 45.8332 70.9815 45.7258C71.2335 45.6138 71.4738 45.4365 71.7025 45.1938L72.6125 46.1528C72.3185 46.4748 71.9591 46.7362 71.5345 46.9368C71.1145 47.1375 70.6338 47.2378 70.0925 47.2378ZM68.3915 42.8068H71.6185C71.6045 42.4662 71.5345 42.1675 71.4085 41.9108C71.2871 41.6542 71.1145 41.4558 70.8905 41.3158C70.6665 41.1712 70.3935 41.0988 70.0715 41.0988C69.6235 41.0988 69.2408 41.2388 68.9235 41.5188C68.6108 41.7988 68.4335 42.2282 68.3915 42.8068ZM74.9948 47.0698V39.9158H76.5628V40.7418C76.7028 40.4338 76.9128 40.1912 77.1928 40.0138C77.4774 39.8365 77.7901 39.7478 78.1308 39.7478C78.6114 39.7478 79.0174 39.9042 79.3488 40.2168L79.1318 41.6658C78.9544 41.5258 78.7771 41.4255 78.5998 41.3648C78.4224 41.3042 78.2264 41.2738 78.0118 41.2738C77.7131 41.2738 77.4564 41.3485 77.2418 41.4978C77.0271 41.6472 76.8591 41.8595 76.7378 42.1348C76.6211 42.4102 76.5628 42.7368 76.5628 43.1148V47.0698H74.9948ZM82.6045 47.2378C81.8205 47.2378 81.2045 47.0255 80.7565 46.6008C80.3085 46.1762 80.0845 45.5998 80.0845 44.8718C80.0845 44.3958 80.1989 43.9828 80.4275 43.6328C80.6562 43.2782 80.9782 43.0052 81.3935 42.8138C81.8089 42.6178 82.2942 42.5198 82.8495 42.5198C83.1762 42.5198 83.4865 42.5525 83.7805 42.6178C84.0792 42.6785 84.3452 42.7718 84.5785 42.8978V42.4358C84.5785 41.9785 84.4619 41.6402 84.2285 41.4208C83.9952 41.1968 83.6429 41.0848 83.1715 41.0848C82.8262 41.0848 82.4692 41.1478 82.1005 41.2738C81.7319 41.3998 81.3702 41.5818 81.0155 41.8198L80.5465 40.5668C80.9385 40.3055 81.3795 40.1048 81.8695 39.9648C82.3595 39.8202 82.8519 39.7478 83.3465 39.7478C84.2659 39.7478 84.9542 39.9718 85.4115 40.4198C85.8735 40.8632 86.1045 41.5305 86.1045 42.4218V47.0698H84.5785V46.4678C84.3265 46.7152 84.0302 46.9065 83.6895 47.0418C83.3489 47.1725 82.9872 47.2378 82.6045 47.2378ZM82.9265 45.9008C83.2299 45.9008 83.5239 45.8355 83.8085 45.7048C84.0979 45.5742 84.3545 45.3875 84.5785 45.1448V44.1718C84.3685 44.0552 84.1305 43.9665 83.8645 43.9058C83.6032 43.8405 83.3465 43.8078 83.0945 43.8078C82.6279 43.8078 82.2615 43.9035 81.9955 44.0948C81.7295 44.2815 81.5965 44.5405 81.5965 44.8718C81.5965 45.1892 81.7132 45.4412 81.9465 45.6278C82.1799 45.8098 82.5065 45.9008 82.9265 45.9008ZM90.6851 50.0518L89.8451 48.7568C90.5125 48.7148 91.0375 48.6355 91.4201 48.5188C91.8075 48.4022 92.0805 48.2388 92.2391 48.0288C92.4025 47.8235 92.4841 47.5552 92.4841 47.2238V46.5518C92.1015 47.0092 91.5555 47.2378 90.8461 47.2378C90.2348 47.2378 89.7075 47.0862 89.2641 46.7828C88.8208 46.4748 88.4778 46.0408 88.2351 45.4808C87.9971 44.9208 87.8781 44.2558 87.8781 43.4858C87.8781 42.7298 88.0018 42.0718 88.2491 41.5118C88.4965 40.9518 88.8441 40.5178 89.2921 40.2098C89.7401 39.9018 90.2675 39.7478 90.8741 39.7478C91.2055 39.7478 91.5088 39.8038 91.7841 39.9158C92.0641 40.0232 92.2975 40.1772 92.4841 40.3778V39.9158H94.0591V46.5798C94.0591 47.1678 93.9961 47.6718 93.8701 48.0918C93.7488 48.5165 93.5528 48.8642 93.2821 49.1348C93.0161 49.4102 92.6685 49.6202 92.2391 49.7648C91.8098 49.9095 91.2918 50.0052 90.6851 50.0518ZM91.1191 45.7468C91.3851 45.7468 91.6395 45.6792 91.8821 45.5438C92.1248 45.4038 92.3255 45.2172 92.4841 44.9838V41.9738C92.3441 41.7545 92.1481 41.5772 91.8961 41.4418C91.6441 41.3018 91.3921 41.2318 91.1401 41.2318C90.5941 41.2318 90.1765 41.4255 89.8871 41.8128C89.5978 42.1955 89.4531 42.7532 89.4531 43.4858C89.4531 43.9572 89.5208 44.3608 89.6561 44.6968C89.7915 45.0328 89.9828 45.2918 90.2301 45.4738C90.4775 45.6558 90.7738 45.7468 91.1191 45.7468ZM99.0495 47.2378C98.3728 47.2378 97.7895 47.0815 97.2995 46.7688C96.8095 46.4562 96.4338 46.0198 96.1725 45.4598C95.9112 44.8952 95.7805 44.2372 95.7805 43.4858C95.7805 42.7065 95.9158 42.0392 96.1865 41.4838C96.4572 40.9238 96.8375 40.4945 97.3275 40.1958C97.8175 39.8972 98.3915 39.7478 99.0495 39.7478C99.6142 39.7478 100.127 39.8692 100.589 40.1118C101.056 40.3545 101.427 40.7278 101.702 41.2318C101.978 41.7312 102.115 42.3682 102.115 43.1428C102.115 43.2642 102.113 43.4088 102.108 43.5768C102.104 43.7402 102.09 43.9058 102.066 44.0738H97.3415C97.3695 44.4378 97.4558 44.7552 97.6005 45.0258C97.7498 45.2965 97.9482 45.5088 98.1955 45.6628C98.4428 45.8122 98.7345 45.8868 99.0705 45.8868C99.3972 45.8868 99.6865 45.8332 99.9385 45.7258C100.19 45.6138 100.431 45.4365 100.659 45.1938L101.569 46.1528C101.275 46.4748 100.916 46.7362 100.491 46.9368C100.071 47.1375 99.5908 47.2378 99.0495 47.2378ZM97.3485 42.8068H100.575C100.561 42.4662 100.491 42.1675 100.365 41.9108C100.244 41.6542 100.071 41.4558 99.8475 41.3158C99.6235 41.1712 99.3505 41.0988 99.0285 41.0988C98.5805 41.0988 98.1978 41.2388 97.8805 41.5188C97.5678 41.7988 97.3905 42.2282 97.3485 42.8068Z" fill="#FCFCFC"/>
<rect x="41.3982" y="55.2996" width="193.543" height="8.07702" rx="4" fill="url(#paint22_linear_930_1786)"/>
<mask id="mask0_930_1786" style="mask-type:alpha" maskUnits="userSpaceOnUse" x="41" y="55" width="110" height="9">
<rect x="41.3982" y="55.5029" width="108.78" height="8.27174" rx="4" fill="#FCFCFC"/>
</mask>
<g mask="url(#mask0_930_1786)">
<rect x="41.3982" y="55.5029" width="244.383" height="8.27174" rx="4" fill="#00BD84"/>
</g>
<path d="M46.1638 99.2939V91.4819H44.5258V90.6559C44.8478 90.6559 45.1395 90.6209 45.4008 90.5509C45.6622 90.4763 45.8862 90.3549 46.0728 90.1869C46.2595 90.0189 46.4018 89.7879 46.4998 89.4939H47.3818V99.2939H46.1638ZM49.7205 99.2939L52.1145 95.5699L49.9025 92.1399H51.2605L52.3945 93.8759C52.4738 93.9926 52.5461 94.1093 52.6115 94.2259C52.6815 94.3426 52.7445 94.4546 52.8005 94.5619C52.8658 94.4499 52.9335 94.3379 53.0035 94.2259C53.0735 94.1093 53.1458 93.9926 53.2205 93.8759L54.3405 92.1399H55.7125L53.4865 95.5699L55.8945 99.2939H54.5225L53.2065 97.2639C53.1318 97.1426 53.0618 97.0259 52.9965 96.9139C52.9311 96.8019 52.8658 96.6899 52.8005 96.5779C52.7445 96.6899 52.6815 96.8019 52.6115 96.9139C52.5461 97.0259 52.4738 97.1426 52.3945 97.2639L51.0785 99.2939H49.7205Z" fill="white"/>
<path d="M104.47 98.4859C103.904 98.4859 103.395 98.4273 102.942 98.3099C102.488 98.1979 102.094 98.0539 101.758 97.8779C101.422 97.6966 101.147 97.5153 100.934 97.3339L102.046 95.7099C102.238 95.8539 102.451 95.9899 102.686 96.1179C102.926 96.2406 103.19 96.3419 103.478 96.4219C103.771 96.5019 104.099 96.5419 104.462 96.5419C104.894 96.5419 105.272 96.4619 105.598 96.3019C105.928 96.1419 106.187 95.9153 106.374 95.6219C106.56 95.3286 106.654 94.9819 106.654 94.5819C106.654 94.2353 106.587 93.9313 106.454 93.6699C106.326 93.4033 106.139 93.1953 105.894 93.0459C105.654 92.8913 105.358 92.8139 105.006 92.8139C104.563 92.8139 104.192 92.8939 103.894 93.0539C103.595 93.2086 103.336 93.4113 103.118 93.6619L101.278 92.7739L101.662 87.0939H108.014V89.0699H103.55L103.35 91.2779C103.606 91.1499 103.875 91.0486 104.158 90.9739C104.44 90.8939 104.742 90.8539 105.062 90.8539C105.846 90.8539 106.51 91.0193 107.054 91.3499C107.603 91.6806 108.019 92.1259 108.302 92.6859C108.59 93.2459 108.734 93.8699 108.734 94.5579C108.734 95.3366 108.55 96.0219 108.182 96.6139C107.819 97.2006 107.318 97.6593 106.678 97.9899C106.038 98.3206 105.302 98.4859 104.47 98.4859ZM110.227 98.2939L113.203 94.0539L110.427 90.1179H112.731L113.859 91.7339C113.95 91.8619 114.04 91.9953 114.131 92.1339C114.227 92.2726 114.302 92.3979 114.355 92.5099C114.419 92.3979 114.494 92.2726 114.579 92.1339C114.67 91.9899 114.758 91.8566 114.843 91.7339L115.987 90.1179H118.299L115.515 94.0539L118.499 98.2939H116.187L114.835 96.3899C114.75 96.2673 114.664 96.1366 114.579 95.9979C114.494 95.8539 114.419 95.7259 114.355 95.6139C114.302 95.7259 114.227 95.8539 114.131 95.9979C114.035 96.1366 113.944 96.2646 113.859 96.3819L112.531 98.2939H110.227Z" fill="#EBFF25"/>
<path d="M165.164 99.2939V91.4819H163.526V90.6559C163.848 90.6559 164.139 90.6209 164.401 90.5509C164.662 90.4763 164.886 90.3549 165.073 90.1869C165.259 90.0189 165.402 89.7879 165.5 89.4939H166.382V99.2939H165.164ZM172.682 99.4619C172.024 99.4619 171.474 99.3149 171.03 99.0209C170.592 98.7269 170.242 98.3349 169.98 97.8449C169.719 97.3503 169.532 96.8043 169.42 96.2069C169.308 95.6049 169.252 95.0006 169.252 94.3939C169.252 93.9646 169.283 93.5166 169.343 93.0499C169.409 92.5786 169.516 92.1236 169.665 91.6849C169.815 91.2416 170.02 90.8426 170.281 90.4879C170.543 90.1333 170.869 89.8509 171.261 89.6409C171.658 89.4309 172.132 89.3259 172.682 89.3259C173.34 89.3259 173.889 89.4753 174.327 89.7739C174.771 90.0679 175.123 90.4623 175.384 90.9569C175.646 91.4516 175.832 91.9976 175.944 92.5949C176.056 93.1923 176.112 93.7919 176.112 94.3939C176.112 94.8233 176.08 95.2736 176.014 95.7449C175.949 96.2116 175.839 96.6666 175.685 97.1099C175.536 97.5486 175.331 97.9453 175.069 98.2999C174.808 98.6546 174.481 98.9369 174.089 99.1469C173.697 99.3569 173.228 99.4619 172.682 99.4619ZM172.682 98.3139C173.126 98.3139 173.487 98.1949 173.767 97.9569C174.047 97.7143 174.264 97.3993 174.418 97.0119C174.572 96.6199 174.677 96.1953 174.733 95.7379C174.794 95.2806 174.824 94.8326 174.824 94.3939C174.824 93.9086 174.792 93.4349 174.726 92.9729C174.661 92.5063 174.549 92.0839 174.39 91.7059C174.236 91.3233 174.019 91.0199 173.739 90.7959C173.464 90.5719 173.112 90.4599 172.682 90.4599C172.234 90.4599 171.868 90.5813 171.583 90.8239C171.299 91.0619 171.079 91.3769 170.925 91.7689C170.771 92.1609 170.664 92.5879 170.603 93.0499C170.543 93.5073 170.512 93.9553 170.512 94.3939C170.512 94.8746 170.545 95.3483 170.61 95.8149C170.676 96.2816 170.788 96.7039 170.946 97.0819C171.11 97.4553 171.331 97.7539 171.611 97.9779C171.896 98.2019 172.253 98.3139 172.682 98.3139ZM177.703 99.2939L180.097 95.5699L177.885 92.1399H179.243L180.377 93.8759C180.456 93.9926 180.529 94.1093 180.594 94.2259C180.664 94.3426 180.727 94.4546 180.783 94.5619C180.848 94.4499 180.916 94.3379 180.986 94.2259C181.056 94.1093 181.128 93.9926 181.203 93.8759L182.323 92.1399H183.695L181.469 95.5699L183.877 99.2939H182.505L181.189 97.2639C181.114 97.1426 181.044 97.0259 180.979 96.9139C180.914 96.8019 180.848 96.6899 180.783 96.5779C180.727 96.6899 180.664 96.8019 180.594 96.9139C180.529 97.0259 180.456 97.1426 180.377 97.2639L179.061 99.2939H177.703Z" fill="white"/>
<path d="M151.396 59.338C151.396 63.2271 148.172 66.415 144.15 66.415C140.128 66.415 136.904 63.2271 136.904 59.338C136.904 55.4489 140.128 52.261 144.15 52.261C148.172 52.261 151.396 55.4489 151.396 59.338Z" fill="url(#paint23_linear_930_1786)" stroke="#FCFCFC" stroke-width="2"/>
</g>
<path d="M248.752 186.64L262.155 180.052L283.349 144.013L281.545 142.83L260.789 177.551L248.752 186.64Z" fill="#EBFF25"/>
<path d="M274.1 142.58L282.122 143.421L285.33 148.927L285.404 148.428L287.093 136.732L274.1 142.58Z" fill="#EBFF25"/>
<path d="M242.888 221.088L237.201 220.391V209.515L242.888 210.212V221.088Z" fill="#EBFF25"/>
<path d="M242.889 221.088L248.578 220.391V209.515L242.889 210.212V221.088Z" fill="#92A83B"/>
<path d="M242.888 208.769L237.201 209.515L242.888 210.212L248.577 209.515L242.888 208.769Z" fill="#485945"/>
<path d="M257.782 221.088L252.094 219.549V195.544L257.782 197.083V221.088Z" fill="#EBFF25"/>
<path d="M257.782 221.088L263.471 219.549V195.544L257.782 197.083V221.088Z" fill="#92A83B"/>
<path d="M257.782 193.897L252.094 195.544L257.782 197.083L263.471 195.544L257.782 193.897Z" fill="#485945"/>
<path d="M272.676 220.827L266.988 218.241V177.887L272.676 180.474V220.827Z" fill="#EBFF25"/>
<path d="M272.676 220.827L278.365 218.241V177.887L272.676 180.474V220.827Z" fill="#92A83B"/>
<path d="M272.676 175.119L266.988 177.887L272.676 180.474L278.365 177.887L272.676 175.119Z" fill="#485945"/>
<path d="M288.311 220.618L282.624 218.031V177.678L288.311 180.265V220.618Z" fill="#EBFF25"/>
<path d="M288.311 220.618L294 218.031V177.678L288.311 180.265V220.618Z" fill="#92A83B"/>
<path d="M288.311 174.909L282.624 177.678L288.311 180.265L294 177.678L288.311 174.909Z" fill="#485945"/>
<path d="M210.743 131.984C210.743 131.589 210.441 131.59 210.439 131.195C210.437 130.799 210.734 130.795 210.73 130.4C210.727 130.004 210.428 130.006 210.424 129.61C210.421 129.215 210.719 129.213 210.717 128.817C210.715 128.422 210.415 128.423 210.411 128.028C210.407 127.632 210.706 127.63 210.702 127.235L206.852 127.212C206.852 127.608 206.557 127.61 206.561 128.005C206.565 128.401 206.863 128.399 206.865 128.795C206.867 129.19 206.57 129.192 206.574 129.588C206.578 129.984 206.876 129.982 206.88 130.377C206.884 130.773 206.585 130.777 206.587 131.172C206.589 131.568 206.89 131.566 206.893 131.962L210.743 131.984Z" fill="#838383"/>
<path d="M206.852 127.212C206.993 127.319 207.14 127.417 207.293 127.507C207.443 127.591 207.6 127.662 207.763 127.718C207.925 127.77 208.092 127.822 208.261 127.865C208.431 127.908 208.601 127.962 208.769 128.002C209.103 128.097 209.45 128.123 209.812 128.25C210.158 128.38 210.467 128.591 210.714 128.866C210.409 128.694 210.084 128.562 209.745 128.474C209.581 128.436 209.411 128.416 209.234 128.394C209.056 128.371 208.875 128.334 208.698 128.291C208.345 128.203 208.002 128.082 207.672 127.931C207.505 127.85 207.349 127.748 207.209 127.626C207.073 127.504 206.953 127.365 206.852 127.212ZM210.701 130.245C210.389 130.046 210.057 129.882 209.71 129.756C209.536 129.704 209.359 129.666 209.18 129.642C208.993 129.61 208.806 129.571 208.62 129.523C208.25 129.422 207.89 129.286 207.547 129.116C207.199 128.936 206.91 128.661 206.714 128.323C206.987 128.572 207.303 128.769 207.647 128.903C207.815 128.966 207.989 129.026 208.168 129.078C208.347 129.131 208.523 129.19 208.7 129.235C208.877 129.28 209.054 129.325 209.237 129.366C209.43 129.403 209.617 129.461 209.797 129.538C209.975 129.618 210.141 129.723 210.292 129.847C210.44 129.967 210.576 130.1 210.701 130.245ZM206.576 129.614C206.852 129.846 207.168 130.027 207.509 130.146C207.677 130.204 207.849 130.26 208.024 130.308C208.2 130.357 208.373 130.415 208.547 130.458C208.72 130.501 208.896 130.542 209.077 130.581C209.266 130.622 209.449 130.684 209.624 130.767C209.968 130.93 210.268 131.172 210.501 131.473C210.201 131.269 209.877 131.105 209.536 130.982C209.368 130.928 209.196 130.888 209.021 130.864C208.834 130.835 208.648 130.797 208.472 130.752C208.11 130.655 207.757 130.525 207.418 130.364C207.071 130.201 206.778 129.94 206.576 129.614Z" fill="#4E4F50"/>
<path d="M215.32 129.138C214.386 128.595 211.718 127.193 208.302 127.699C207.012 127.894 205.77 128.332 204.643 128.991C203.481 125.315 203.1 121.438 203.523 117.606C206.246 116.826 209.211 116.608 213.244 116.619L215.32 129.138Z" fill="#EBFF25"/>
<path d="M215.195 129.175C214.261 128.63 211.595 127.229 208.177 127.737C206.887 127.93 205.645 128.368 204.518 129.026C203.356 125.351 202.975 121.473 203.398 117.642C206.121 116.862 209.086 116.645 213.119 116.655L215.195 129.175Z" fill="#EBFF25"/>
<path d="M207.884 127.035C206.44 127.035 205.27 125.864 205.27 124.42C205.27 122.976 206.44 121.805 207.884 121.805C209.328 121.805 210.499 122.976 210.499 124.42C210.499 125.864 209.328 127.035 207.884 127.035Z" fill="#30302F"/>
<path d="M215.32 129.138L213.267 116.843C213.218 116.768 213.172 116.694 213.123 116.623C212.41 116.623 211.726 116.63 211.07 116.643C210.533 117.305 209.939 117.918 209.295 118.476C211.811 121.218 212.313 125.669 212.518 127.966C213.5 128.231 214.442 128.626 215.32 129.138Z" fill="#EBFF25"/>
<path d="M210.103 118.247C210.103 118.247 212.602 116.123 212.705 114.783C212.705 114.783 219.466 122.121 215.765 130.902C215.765 130.902 213.617 130.351 213.431 128.849C213.244 127.346 213.147 121.554 210.103 118.247Z" fill="#EBFF25"/>
<path d="M213.638 120.966C213.155 120.966 212.763 120.574 212.763 120.091C212.763 119.607 213.155 119.215 213.638 119.215C214.122 119.215 214.513 119.607 214.513 120.091C214.513 120.574 214.122 120.966 213.638 120.966Z" fill="#30302F"/>
<path d="M209.064 126.697C207.62 126.697 206.449 125.526 206.449 124.082C206.449 122.638 207.62 121.468 209.064 121.468C210.508 121.468 211.678 122.638 211.678 124.082C211.678 125.526 210.508 126.697 209.064 126.697Z" fill="#4E4F50"/>
<path d="M209.064 125.639C208.204 125.639 207.507 124.942 207.507 124.082C207.507 123.223 208.204 122.526 209.064 122.526C209.923 122.526 210.62 123.223 210.62 124.082C210.62 124.942 209.923 125.639 209.064 125.639Z" fill="#30302F"/>
<path d="M182.027 165.073C182.027 165.073 177.921 166.94 181.741 168.47L182.027 165.073Z" fill="#4E4F50"/>
<path d="M184.711 164.708C183.885 164.708 183.216 164.038 183.216 163.213C183.216 162.387 183.885 161.718 184.711 161.718C185.537 161.718 186.206 162.387 186.206 163.213C186.206 164.038 185.537 164.708 184.711 164.708Z" fill="#4E4F50"/>
<path d="M181.745 168.478L184.255 168.689C184.921 168.745 185.582 168.534 186.093 168.103C186.603 167.672 186.921 167.056 186.977 166.39C187.033 165.724 186.823 165.063 186.391 164.553C185.96 164.042 185.344 163.724 184.678 163.668L183.59 163.576C183.213 163.545 182.838 163.664 182.549 163.908C182.26 164.153 182.079 164.502 182.048 164.879L181.745 168.478Z" fill="#A9BE54"/>
<path d="M184.599 162.656C185.053 162.782 185.539 162.723 185.949 162.492C186.36 162.261 186.662 161.876 186.788 161.422L190.915 146.633L187.499 145.68L183.373 160.469C183.246 160.921 183.305 161.406 183.535 161.816C183.764 162.225 184.147 162.527 184.599 162.656Z" fill="#EBFF25"/>
<path d="M184.599 162.656C185.053 162.782 185.539 162.723 185.949 162.492C186.36 162.261 186.662 161.876 186.788 161.422L190.915 146.633L187.499 145.68L183.373 160.469C183.246 160.921 183.305 161.406 183.535 161.816C183.764 162.225 184.147 162.527 184.599 162.656Z" fill="#EBFF25"/>
<path d="M190.255 149.023C189.947 149.119 189.663 149.278 189.421 149.491C189.179 149.704 188.984 149.965 188.85 150.259C188.229 151.479 185.832 160.732 185.319 162.722" stroke="#EBFF25" stroke-opacity="0.56" stroke-width="2" stroke-miterlimit="10"/>
<path d="M190.612 143.877C190.767 144.324 191.094 144.692 191.52 144.898C191.947 145.105 192.437 145.133 192.885 144.978L207.453 139.916L206.281 136.542L191.712 141.604C191.265 141.759 190.898 142.086 190.691 142.512C190.485 142.939 190.456 143.43 190.612 143.877Z" fill="#EBFF25"/>
<path d="M189.569 147.877C187.619 147.877 186.039 146.297 186.039 144.348C186.039 142.399 187.619 140.819 189.569 140.819C191.518 140.819 193.098 142.399 193.098 144.348C193.098 146.297 191.518 147.877 189.569 147.877Z" fill="#4E4F50"/>
<path d="M189.574 146.298C188.49 146.298 187.611 145.419 187.611 144.335C187.611 143.251 188.49 142.372 189.574 142.372C190.659 142.372 191.538 143.251 191.538 144.335C191.538 145.419 190.659 146.298 189.574 146.298Z" fill="#30302F"/>
<path d="M211.555 158.698C211.555 158.021 211.04 158.026 211.034 157.349C211.029 156.671 211.538 156.669 211.533 155.992C211.527 155.314 211.018 155.32 211.014 154.644C211.01 153.969 211.518 153.965 211.512 153.29C211.507 152.614 210.997 152.618 210.992 151.942C210.986 151.267 211.495 151.263 211.492 150.587L204.917 150.546C204.917 151.222 204.413 151.225 204.419 151.901C204.424 152.577 204.934 152.573 204.939 153.249C204.945 153.924 204.435 153.928 204.439 154.602C204.443 155.275 204.954 155.273 204.96 155.951C204.965 156.628 204.456 156.63 204.461 157.308C204.467 157.985 204.977 157.98 204.982 158.655L211.555 158.698Z" fill="#838383"/>
<path d="M204.919 150.544C205.157 150.727 205.406 150.896 205.665 151.048C205.921 151.191 206.189 151.311 206.466 151.407C206.746 151.5 207.026 151.593 207.319 151.662C207.612 151.731 207.899 151.828 208.187 151.896C208.746 152.058 209.347 152.103 209.965 152.321C210.555 152.542 211.082 152.902 211.503 153.37C210.982 153.078 210.427 152.853 209.849 152.702C209.561 152.641 209.269 152.595 208.976 152.564C208.672 152.521 208.364 152.461 208.062 152.388C207.46 152.237 206.874 152.031 206.311 151.772C205.739 151.503 205.255 151.078 204.913 150.546L204.919 150.544ZM211.484 155.736C210.924 155.415 210.364 155.079 209.792 154.9C209.495 154.816 209.194 154.754 208.888 154.714C208.571 154.661 208.246 154.592 207.929 154.51C207.297 154.337 206.683 154.103 206.096 153.812C205.503 153.508 205.01 153.038 204.678 152.459C205.142 152.884 205.679 153.221 206.264 153.452C206.554 153.56 206.848 153.663 207.154 153.751C207.461 153.838 207.761 153.937 208.063 154.019C208.366 154.102 208.668 154.172 208.98 154.242C209.307 154.306 209.627 154.406 209.933 154.538C210.238 154.675 210.523 154.853 210.781 155.066C211.034 155.269 211.27 155.493 211.484 155.736ZM204.445 154.647C204.917 155.044 205.458 155.352 206.04 155.555C206.328 155.654 206.621 155.742 206.921 155.833C207.222 155.925 207.515 156.02 207.813 156.089C208.112 156.158 208.407 156.233 208.717 156.3C209.038 156.367 209.351 156.47 209.65 156.608C210.234 156.89 210.745 157.303 211.143 157.815C210.632 157.468 210.079 157.186 209.497 156.977C209.211 156.884 208.917 156.816 208.62 156.774C208.312 156.722 207.992 156.66 207.686 156.587C207.068 156.42 206.465 156.199 205.885 155.925C205.292 155.646 204.792 155.203 204.445 154.647Z" fill="#4E4F50"/>
<path d="M213.612 150.309L203.422 152.215C203.264 152.244 203.1 152.212 202.965 152.124C202.83 152.037 202.734 151.901 202.696 151.745L199.021 136.404C198.999 136.311 198.998 136.215 199.019 136.122C199.039 136.03 199.08 135.943 199.139 135.868L203.011 130.969C203.07 130.894 203.145 130.833 203.231 130.792C203.317 130.75 203.411 130.729 203.506 130.73C204.947 130.741 206.518 130.82 208.2 130.999C210.057 131.198 211.901 131.505 213.722 131.919C213.822 131.942 213.915 131.989 213.992 132.056C214.07 132.123 214.129 132.208 214.166 132.304C216.365 137.977 216.336 144.272 214.084 149.925C214.045 150.024 213.98 150.111 213.898 150.178C213.815 150.246 213.717 150.291 213.612 150.309Z" fill="#EBFF25"/>
<path d="M200.783 133.944L199.264 135.866C199.205 135.941 199.164 136.028 199.143 136.12C199.123 136.213 199.124 136.309 199.146 136.402L202.825 151.744C202.863 151.901 202.959 152.037 203.094 152.124C203.229 152.212 203.393 152.244 203.551 152.215L213.741 150.309C213.845 150.29 213.942 150.245 214.024 150.177C214.106 150.11 214.17 150.023 214.209 149.925C214.332 149.613 214.459 149.275 214.582 148.917C205.159 145.931 201.826 137.648 200.783 133.944Z" fill="#A9BE54"/>
<path d="M203.323 130.728C203.323 130.728 199.076 143.589 205.904 151.774M204.678 130.835C204.678 130.835 204.549 131.225 204.374 131.911" stroke="#4E4F50" stroke-width="2" stroke-miterlimit="10"/>
<path d="M203.922 134.018C203.245 137.82 202.802 144.339 206.1 149.695" stroke="#4E4F50" stroke-width="2" stroke-miterlimit="10" stroke-dasharray="11.55 11.55"/>
<path d="M206.697 150.587C206.914 150.886 207.141 151.182 207.384 151.472" stroke="#4E4F50" stroke-width="2" stroke-miterlimit="10"/>
<path d="M215.404 145.951L213.325 146.421C212.656 146.574 212.064 146.962 211.658 147.516C211.253 148.069 211.061 148.75 211.117 149.434L211.229 150.777L214.075 150.245C214.649 148.858 215.094 147.421 215.404 145.951V145.951Z" stroke="#EBFF25" stroke-opacity="0.56" stroke-width="2" stroke-miterlimit="10"/>
<path d="M203.616 152.582L213.806 150.677C213.972 150.646 214.128 150.574 214.259 150.467C214.389 150.359 214.49 150.22 214.552 150.063C216.839 144.323 216.869 137.93 214.636 132.169C214.577 132.016 214.482 131.88 214.358 131.773C214.234 131.666 214.085 131.591 213.925 131.555C212.091 131.136 210.233 130.824 208.362 130.622C206.798 130.456 205.206 130.364 203.631 130.351C203.479 130.349 203.329 130.382 203.192 130.446C203.055 130.511 202.935 130.606 202.84 130.724L198.971 135.622C198.877 135.74 198.812 135.879 198.78 136.027C198.747 136.174 198.749 136.327 198.784 136.474L202.451 151.83C202.503 152.049 202.628 152.244 202.804 152.383C202.981 152.523 203.199 152.599 203.424 152.599C203.488 152.599 203.553 152.594 203.616 152.582ZM203.616 131.103C205.165 131.116 206.733 131.206 208.282 131.37C210.124 131.568 211.954 131.873 213.761 132.283C213.803 132.291 213.842 132.309 213.874 132.336C213.907 132.363 213.932 132.398 213.948 132.438C216.116 138.025 216.088 144.227 213.867 149.794C213.852 149.834 213.827 149.869 213.795 149.896C213.762 149.923 213.723 149.941 213.681 149.949L203.489 151.856C203.426 151.868 203.36 151.856 203.306 151.821C203.251 151.786 203.212 151.732 203.196 151.67L199.52 136.327C199.511 136.29 199.511 136.251 199.519 136.213C199.528 136.176 199.544 136.141 199.568 136.11L203.437 131.213C203.46 131.183 203.49 131.159 203.524 131.142C203.559 131.125 203.596 131.116 203.635 131.116L203.616 131.103Z" fill="#EBFF25"/>
<path d="M209.726 140.966C207.777 140.966 206.197 139.386 206.197 137.437C206.197 135.488 207.777 133.908 209.726 133.908C211.675 133.908 213.255 135.488 213.255 137.437C213.255 139.386 211.675 140.966 209.726 140.966Z" fill="#30302F"/>
<path d="M245.563 147.887C245.563 147.887 249.039 150.772 248.735 146.663L245.563 147.887Z" fill="#4E4F50"/>
<path d="M242.72 147.776C241.895 147.776 241.225 147.107 241.225 146.282C241.225 145.456 241.895 144.787 242.72 144.787C243.546 144.787 244.215 145.456 244.215 146.282C244.215 147.107 243.546 147.776 242.72 147.776Z" fill="#4E4F50"/>
<path d="M248.752 146.656L247.848 144.304C247.608 143.68 247.13 143.178 246.52 142.906C245.909 142.635 245.216 142.617 244.592 142.857C243.968 143.096 243.465 143.574 243.194 144.185C242.923 144.795 242.905 145.489 243.145 146.112L243.536 147.131C243.672 147.485 243.943 147.77 244.289 147.924C244.635 148.077 245.028 148.088 245.381 147.952L248.752 146.656Z" fill="#A9BE54"/>
<path d="M242.199 147.518C242.114 147.056 241.85 146.647 241.463 146.381C241.077 146.114 240.6 146.012 240.138 146.097L225.092 148.861L225.73 152.336L240.778 149.572C241.24 149.487 241.649 149.222 241.916 148.835C242.182 148.449 242.285 147.972 242.2 147.511L242.199 147.518Z" fill="#EBFF25"/>
<path d="M242.199 147.518C242.114 147.056 241.85 146.647 241.463 146.381C241.077 146.114 240.6 146.012 240.138 146.097L225.092 148.861L225.73 152.336L240.778 149.572C241.24 149.487 241.649 149.222 241.916 148.835C242.182 148.449 242.285 147.972 242.2 147.511L242.199 147.518Z" fill="#EBFF25"/>
<path d="M227.534 147.476C227.754 147.712 228.021 147.899 228.318 148.024C228.615 148.149 228.935 148.21 229.257 148.202C230.627 148.23 240.001 146.353 242.015 145.948" stroke="#EBFF25" stroke-opacity="0.56" stroke-width="2" stroke-miterlimit="10"/>
<path d="M222.748 149.399C223.083 149.064 223.271 148.61 223.271 148.136C223.271 147.663 223.083 147.208 222.748 146.873L211.837 135.962L209.312 138.488L220.222 149.399C220.557 149.734 221.012 149.922 221.485 149.922C221.959 149.922 222.413 149.734 222.748 149.399Z" fill="#EBFF25"/>
<path d="M223.624 153.661C221.675 153.661 220.095 152.081 220.095 150.132C220.095 148.183 221.675 146.603 223.624 146.603C225.574 146.603 227.154 148.183 227.154 150.132C227.154 152.081 225.574 153.661 223.624 153.661Z" fill="#4E4F50"/>
<path d="M223.611 152.095C222.527 152.095 221.648 151.216 221.648 150.132C221.648 149.048 222.527 148.169 223.611 148.169C224.695 148.169 225.574 149.048 225.574 150.132C225.574 151.216 224.695 152.095 223.611 152.095Z" fill="#30302F"/>
<path d="M210.93 140.983C208.972 140.983 207.384 139.396 207.384 137.438C207.384 135.479 208.972 133.892 210.93 133.892C212.888 133.892 214.476 135.479 214.476 137.438C214.476 139.396 212.888 140.983 210.93 140.983Z" fill="#4E4F50"/>
<path d="M210.93 139.41C209.84 139.41 208.957 138.527 208.957 137.437C208.957 136.348 209.84 135.465 210.93 135.465C212.019 135.465 212.903 136.348 212.903 137.437C212.903 138.527 212.019 139.41 210.93 139.41Z" fill="#30302F"/>
<path d="M246.703 203.55L244.73 204.149C244.279 204.285 243.854 204.493 243.47 204.767L242.091 204.496C241.83 204.445 241.583 204.334 241.371 204.173C241.159 204.011 240.987 203.802 240.869 203.563L240.574 202.968L233.951 204.961C233.728 206.212 233.757 207.495 234.036 208.735C234.509 210.618 234.998 211.932 234.998 211.932L238.107 210.999L238.017 210.696L241.83 209.539L252.094 206.449C251.764 205.35 251.01 204.427 249.999 203.883C248.988 203.34 247.802 203.22 246.703 203.55Z" fill="#A9BE54"/>
<path d="M230.431 183.456L206.916 171.15L208.105 163.526C222.4 168.177 232.553 173.781 232.228 175.267C232.199 175.383 232.133 175.486 232.041 175.562C230.778 178.124 231.704 180.894 230.431 183.456Z" fill="#BEC85A"/>
<path d="M214.332 165.836C214.332 165.836 214.103 167.036 215.359 167.919C216.615 168.802 229.625 174.182 229.625 174.182" stroke="#EBFF25" stroke-opacity="0.56" stroke-width="3" stroke-miterlimit="10"/>
<path d="M232.286 183.725C229.445 183.725 227.142 181.422 227.142 178.581C227.142 175.741 229.445 173.438 232.286 173.438C235.126 173.438 237.429 175.741 237.429 178.581C237.429 181.422 235.126 183.725 232.286 183.725Z" fill="#4E4F50"/>
<path d="M231.416 179.141C231.416 179.141 235.815 175.595 236.56 173.542C236.56 173.542 240.581 176.571 240.367 183.842C240.152 191.113 240.574 202.968 240.574 202.968L233.951 204.961L231.416 179.141Z" fill="#BEC85A"/>
<path d="M233.878 181.038C233.304 181.038 232.838 180.572 232.838 179.998C232.838 179.424 233.304 178.958 233.878 178.958C234.452 178.958 234.917 179.424 234.917 179.998C234.917 180.572 234.452 181.038 233.878 181.038Z" fill="#30302F"/>
<path d="M211.6 170.997C211.171 170.997 210.823 170.649 210.823 170.22C210.823 169.792 211.171 169.444 211.6 169.444C212.029 169.444 212.376 169.792 212.376 170.22C212.376 170.649 212.029 170.997 211.6 170.997Z" fill="#30302F"/>
<path d="M220.413 177.01C220.522 176.768 220.53 176.493 220.437 176.244C220.343 175.996 220.154 175.795 219.912 175.685L208.761 170.646C208.641 170.592 208.512 170.562 208.38 170.558C208.248 170.553 208.117 170.575 207.994 170.622C207.871 170.669 207.758 170.739 207.662 170.829C207.566 170.92 207.489 171.028 207.434 171.148L207.337 171.365L219.976 177.975L220.413 177.01Z" fill="#EBFF25" fill-opacity="0.56"/>
<path d="M236.003 174.56L236.839 211.372" stroke="#4E4F50" stroke-width="2" stroke-miterlimit="10"/>
<path d="M236.961 173.893L236.985 175.013" stroke="#4E4F50" stroke-width="2" stroke-miterlimit="10"/>
<path d="M237.038 177.342L237.75 208.796" stroke="#4E4F50" stroke-width="2" stroke-miterlimit="10" stroke-dasharray="12.49 12.49"/>
<path d="M237.777 209.963L237.803 211.083" stroke="#4E4F50" stroke-width="2" stroke-miterlimit="10"/>
<path d="M241.83 209.539C241.568 208.671 241.586 207.744 241.88 206.886C242.174 206.029 242.729 205.286 243.469 204.761L242.089 204.491C241.912 204.455 241.741 204.392 241.584 204.304C240.75 204.797 240.106 205.555 239.753 206.456C239.401 207.358 239.36 208.352 239.639 209.28L239.895 210.121L250.159 207.033L241.83 209.539Z" fill="#EBFF25"/>
<path d="M234.789 198.967L233.805 189.701C233.792 189.576 233.73 189.461 233.632 189.382C233.534 189.303 233.409 189.266 233.284 189.279L232.419 189.37L233.432 199.588L234.365 199.484C234.427 199.478 234.487 199.46 234.542 199.43C234.596 199.401 234.645 199.361 234.684 199.313C234.723 199.265 234.753 199.21 234.771 199.15C234.789 199.091 234.795 199.029 234.789 198.967ZM240.337 182.154L239.443 182.182C239.381 182.183 239.32 182.197 239.263 182.223C239.207 182.248 239.156 182.285 239.113 182.33C239.071 182.375 239.037 182.428 239.016 182.487C238.994 182.545 238.984 182.607 238.986 182.669L239.271 191.983C239.275 192.109 239.329 192.227 239.42 192.313C239.511 192.4 239.633 192.446 239.759 192.442L240.332 192.426C240.296 189.469 240.292 186.373 240.367 183.841C240.386 183.247 240.373 182.687 240.337 182.154Z" fill="#EBFF25" fill-opacity="0.56"/>
<path d="M204.505 189.079L206.307 166.811L213.705 166.753C215.004 181.732 214.907 189.362 213.412 189.645C213.296 189.664 213.176 189.645 213.071 189.592L204.505 189.079Z" fill="#A9BE54"/>
<path d="M214.022 173.675C214.022 173.675 213.089 173.921 212.809 175.214C212.529 176.508 212.354 186.64 212.354 186.64" stroke="#EBFF25" stroke-opacity="0.56" stroke-width="3" stroke-miterlimit="10"/>
<path d="M209.071 194.797C206.231 194.797 203.928 192.495 203.928 189.654C203.928 186.813 206.231 184.51 209.071 184.51C211.912 184.51 214.215 186.813 214.215 189.654C214.215 192.495 211.912 194.797 209.071 194.797Z" fill="#4E4F50"/>
<path d="M205.342 192.485C205.342 192.485 210.114 189.471 211.09 187.508C211.09 187.508 214.741 190.975 213.703 198.175C212.666 205.376 211.9 218.206 211.9 218.206L204.926 218.426L205.342 192.485Z" fill="#BEC85A"/>
<path d="M207.69 194.663C207.116 194.663 206.651 194.198 206.651 193.623C206.651 193.049 207.116 192.584 207.69 192.584C208.265 192.584 208.73 193.049 208.73 193.623C208.73 194.198 208.265 194.663 207.69 194.663Z" fill="#30302F"/>
<path d="M208.989 171.536C208.56 171.536 208.213 171.189 208.213 170.76C208.213 170.331 208.56 169.984 208.989 169.984C209.418 169.984 209.766 170.331 209.766 170.76C209.766 171.189 209.418 171.536 208.989 171.536Z" fill="#30302F"/>
<path d="M204.98 218.128C204.394 219.256 204.038 220.489 203.933 221.756C203.821 223.693 203.894 225.093 203.894 225.093L207.141 225.13V224.815L221.846 224.981L212.888 220.129C212.653 220.002 212.451 219.822 212.297 219.604C212.143 219.387 212.041 219.136 211.999 218.873L211.897 218.216L204.98 218.128Z" fill="#BEC85A"/>
<path d="M219.834 223.887L212.888 220.119C212.728 220.033 212.584 219.921 212.46 219.789C211.518 220.01 210.676 220.541 210.07 221.296C209.465 222.052 209.129 222.988 209.118 223.956V224.835L219.836 224.957L219.847 224.078C219.838 224.014 219.836 223.951 219.834 223.887Z" fill="#EBFF25"/>
<path d="M206.184 181.523C206.316 181.526 206.447 181.503 206.569 181.456C206.692 181.408 206.805 181.337 206.9 181.246C206.995 181.156 207.072 181.047 207.125 180.927C207.178 180.806 207.207 180.676 207.21 180.545L207.49 168.317C207.494 168.185 207.471 168.054 207.423 167.931C207.376 167.808 207.304 167.696 207.213 167.6C207.122 167.505 207.014 167.429 206.893 167.375C206.772 167.322 206.642 167.293 206.511 167.291H206.274L205.122 181.508L206.184 181.523Z" fill="#EBFF25" fill-opacity="0.56"/>
<path d="M210.421 188.461L207.061 225.13" stroke="#4E4F50" stroke-width="2" stroke-miterlimit="10"/>
<path d="M211.447 187.909L211.344 189.023" stroke="#4E4F50" stroke-width="2" stroke-miterlimit="10"/>
<path d="M211.134 191.326L208.284 222.402" stroke="#4E4F50" stroke-width="2" stroke-miterlimit="10" stroke-dasharray="12.39 12.39"/>
<path d="M208.179 223.553L208.077 224.667" stroke="#4E4F50" stroke-width="2" stroke-miterlimit="10"/>
<path d="M211.137 224.869L221.856 224.991C221.869 223.843 221.426 222.736 220.623 221.915C219.82 221.094 218.724 220.625 217.576 220.612L215.523 220.589C214.955 220.582 214.39 220.688 213.863 220.9C213.335 221.111 212.854 221.425 212.447 221.822C212.041 222.22 211.717 222.693 211.493 223.216C211.269 223.739 211.151 224.301 211.145 224.869L211.137 224.869Z" fill="#A9BE54"/>
<path d="M206.436 212.572L206.516 203.253C206.517 203.128 206.468 203.008 206.38 202.918C206.291 202.829 206.171 202.779 206.046 202.778H205.176L205.01 213.042H205.958C206.021 213.043 206.082 213.031 206.14 213.007C206.198 212.984 206.25 212.95 206.295 212.906C206.339 212.862 206.374 212.81 206.399 212.753C206.423 212.696 206.436 212.634 206.436 212.572ZM213.862 196.498L212.972 196.423C212.91 196.418 212.848 196.424 212.788 196.443C212.729 196.462 212.674 196.492 212.627 196.532C212.579 196.572 212.54 196.621 212.512 196.677C212.483 196.732 212.466 196.792 212.46 196.854L211.684 206.141C211.679 206.203 211.686 206.265 211.704 206.324C211.723 206.383 211.753 206.438 211.794 206.486C211.834 206.533 211.883 206.572 211.938 206.601C211.993 206.629 212.053 206.647 212.115 206.652L212.686 206.7C212.989 203.759 213.338 200.684 213.7 198.172C213.786 197.591 213.836 197.035 213.862 196.498Z" fill="#EBFF25" fill-opacity="0.56"/>
<path d="M208.448 169.987C204.615 169.987 201.507 166.88 201.507 163.047C201.507 159.213 204.615 156.106 208.448 156.106C212.281 156.106 215.389 159.213 215.389 163.047C215.389 166.88 212.281 169.987 208.448 169.987Z" fill="#4E4F50"/>
<path d="M208.448 166.318C206.641 166.318 205.176 164.853 205.176 163.046C205.176 161.24 206.641 159.775 208.448 159.775C210.255 159.775 211.719 161.24 211.719 163.046C211.719 164.853 210.255 166.318 208.448 166.318Z" fill="#BEC85A"/>
<defs>
<filter id="filter0_d_930_1786" x="0" y="19" width="289.483" height="130.147" filterUnits="userSpaceOnUse" color-interpolation-filters="sRGB">
<feFlood flood-opacity="0" result="BackgroundImageFix"/>
<feColorMatrix in="SourceAlpha" type="matrix" values="0 0 0 0 0 0 0 0 0 0 0 0 0 0 0 0 0 0 127 0" result="hardAlpha"/>
<feOffset dx="3" dy="13"/>
<feGaussianBlur stdDeviation="12.5"/>
<feComposite in2="hardAlpha" operator="out"/>
<feColorMatrix type="matrix" values="0 0 0 0 0.075 0 0 0 0 0.075 0 0 0 0 0.075 0 0 0 0.74 0"/>
<feBlend mode="normal" in2="BackgroundImageFix" result="effect1_dropShadow_930_1786"/>
<feBlend mode="normal" in="SourceGraphic" in2="effect1_dropShadow_930_1786" result="shape"/>
</filter>
<linearGradient id="paint0_linear_930_1786" x1="247.256" y1="35.9987" x2="186.407" y2="209.439" gradientUnits="userSpaceOnUse">
<stop stop-color="#E2FF6F"/>
<stop offset="1" stop-color="#E2FF6F" stop-opacity="0"/>
</linearGradient>
<linearGradient id="paint1_linear_930_1786" x1="247.256" y1="35.9987" x2="186.407" y2="209.439" gradientUnits="userSpaceOnUse">
<stop stop-color="#E2FF6F"/>
<stop offset="1" stop-color="#E2FF6F" stop-opacity="0"/>
</linearGradient>
<linearGradient id="paint2_linear_930_1786" x1="247.256" y1="35.9987" x2="186.407" y2="209.439" gradientUnits="userSpaceOnUse">
<stop stop-color="#E2FF6F"/>
<stop offset="1" stop-color="#E2FF6F" stop-opacity="0"/>
</linearGradient>
<linearGradient id="paint3_linear_930_1786" x1="247.256" y1="35.9987" x2="186.407" y2="209.439" gradientUnits="userSpaceOnUse">
<stop stop-color="#E2FF6F"/>
<stop offset="1" stop-color="#E2FF6F" stop-opacity="0"/>
</linearGradient>
<linearGradient id="paint4_linear_930_1786" x1="247.256" y1="35.9987" x2="186.407" y2="209.439" gradientUnits="userSpaceOnUse">
<stop stop-color="#E2FF6F"/>
<stop offset="1" stop-color="#E2FF6F" stop-opacity="0"/>
</linearGradient>
<linearGradient id="paint5_linear_930_1786" x1="247.256" y1="35.9987" x2="186.407" y2="209.439" gradientUnits="userSpaceOnUse">
<stop stop-color="#E2FF6F"/>
<stop offset="1" stop-color="#E2FF6F" stop-opacity="0"/>
</linearGradient>
<linearGradient id="paint6_linear_930_1786" x1="247.256" y1="35.9987" x2="186.407" y2="209.439" gradientUnits="userSpaceOnUse">
<stop stop-color="#E2FF6F"/>
<stop offset="1" stop-color="#E2FF6F" stop-opacity="0"/>
</linearGradient>
<linearGradient id="paint7_linear_930_1786" x1="247.256" y1="35.9987" x2="186.407" y2="209.439" gradientUnits="userSpaceOnUse">
<stop stop-color="#E2FF6F"/>
<stop offset="1" stop-color="#E2FF6F" stop-opacity="0"/>
</linearGradient>
<linearGradient id="paint8_linear_930_1786" x1="247.256" y1="35.9987" x2="186.407" y2="209.439" gradientUnits="userSpaceOnUse">
<stop stop-color="#E2FF6F"/>
<stop offset="1" stop-color="#E2FF6F" stop-opacity="0"/>
</linearGradient>
<linearGradient id="paint9_linear_930_1786" x1="247.256" y1="35.9987" x2="186.407" y2="209.439" gradientUnits="userSpaceOnUse">
<stop stop-color="#E2FF6F"/>
<stop offset="1" stop-color="#E2FF6F" stop-opacity="0"/>
</linearGradient>
<linearGradient id="paint10_linear_930_1786" x1="247.256" y1="35.9987" x2="186.407" y2="209.439" gradientUnits="userSpaceOnUse">
<stop stop-color="#E2FF6F"/>
<stop offset="1" stop-color="#E2FF6F" stop-opacity="0"/>
</linearGradient>
<linearGradient id="paint11_linear_930_1786" x1="247.256" y1="35.9987" x2="186.407" y2="209.439" gradientUnits="userSpaceOnUse">
<stop stop-color="#E2FF6F"/>
<stop offset="1" stop-color="#E2FF6F" stop-opacity="0"/>
</linearGradient>
<linearGradient id="paint12_linear_930_1786" x1="247.256" y1="35.9987" x2="186.407" y2="209.439" gradientUnits="userSpaceOnUse">
<stop stop-color="#E2FF6F"/>
<stop offset="1" stop-color="#E2FF6F" stop-opacity="0"/>
</linearGradient>
<linearGradient id="paint13_linear_930_1786" x1="247.256" y1="35.9987" x2="186.407" y2="209.439" gradientUnits="userSpaceOnUse">
<stop stop-color="#E2FF6F"/>
<stop offset="1" stop-color="#E2FF6F" stop-opacity="0"/>
</linearGradient>
<linearGradient id="paint14_linear_930_1786" x1="247.256" y1="35.9987" x2="186.407" y2="209.439" gradientUnits="userSpaceOnUse">
<stop stop-color="#E2FF6F"/>
<stop offset="1" stop-color="#E2FF6F" stop-opacity="0"/>
</linearGradient>
<linearGradient id="paint15_linear_930_1786" x1="247.256" y1="35.9987" x2="186.407" y2="209.439" gradientUnits="userSpaceOnUse">
<stop stop-color="#E2FF6F"/>
<stop offset="1" stop-color="#E2FF6F" stop-opacity="0"/>
</linearGradient>
<linearGradient id="paint16_linear_930_1786" x1="247.256" y1="35.9987" x2="186.407" y2="209.439" gradientUnits="userSpaceOnUse">
<stop stop-color="#E2FF6F"/>
<stop offset="1" stop-color="#E2FF6F" stop-opacity="0"/>
</linearGradient>
<linearGradient id="paint17_linear_930_1786" x1="247.256" y1="35.9987" x2="186.407" y2="209.439" gradientUnits="userSpaceOnUse">
<stop stop-color="#E2FF6F"/>
<stop offset="1" stop-color="#E2FF6F" stop-opacity="0"/>
</linearGradient>
<linearGradient id="paint18_linear_930_1786" x1="247.256" y1="35.9987" x2="186.407" y2="209.439" gradientUnits="userSpaceOnUse">
<stop stop-color="#E2FF6F"/>
<stop offset="1" stop-color="#E2FF6F" stop-opacity="0"/>
</linearGradient>
<linearGradient id="paint19_linear_930_1786" x1="247.256" y1="35.9987" x2="186.407" y2="209.439" gradientUnits="userSpaceOnUse">
<stop stop-color="#E2FF6F"/>
<stop offset="1" stop-color="#E2FF6F" stop-opacity="0"/>
</linearGradient>
<linearGradient id="paint20_linear_930_1786" x1="247.256" y1="35.9987" x2="186.407" y2="209.439" gradientUnits="userSpaceOnUse">
<stop stop-color="#E2FF6F"/>
<stop offset="1" stop-color="#E2FF6F" stop-opacity="0"/>
</linearGradient>
<linearGradient id="paint21_linear_930_1786" x1="247.256" y1="35.9987" x2="186.407" y2="209.439" gradientUnits="userSpaceOnUse">
<stop stop-color="#E2FF6F"/>
<stop offset="1" stop-color="#E2FF6F" stop-opacity="0"/>
</linearGradient>
<linearGradient id="paint22_linear_930_1786" x1="138.17" y1="55.2996" x2="138.17" y2="63.3766" gradientUnits="userSpaceOnUse">
<stop stop-color="#08E4A2" stop-opacity="0.43"/>
<stop offset="1" stop-color="#7ACCB3" stop-opacity="0.46"/>
</linearGradient>
<linearGradient id="paint23_linear_930_1786" x1="136.126" y1="59.338" x2="152.396" y2="59.338" gradientUnits="userSpaceOnUse">
<stop stop-color="#01B448"/>
<stop offset="1" stop-color="#E2FF6F"/>
</linearGradient>
</defs>
</svg>
