<svg width="372" height="263" viewBox="0 0 372 263" fill="none" xmlns="http://www.w3.org/2000/svg">
<rect x="38.7998" y="47.0879" width="215" height="215" rx="20" fill="#333333"/>
<g opacity="0.1">
<path d="M183.925 194.017C187.661 195.874 189.08 200.426 186.638 203.025C181.614 208.373 160.932 205.731 159.959 202.106C159 198.535 176.129 190.141 183.925 194.017Z" stroke="url(#paint0_linear_937_1079)" stroke-miterlimit="10"/>
<path d="M174.668 182.122C166.134 178.573 151.805 203.84 157.72 209.805C161.356 213.472 170.159 213.014 177.338 211.809C184.078 210.677 193.707 206.051 196.083 198.367C197.341 194.288 196.586 188.477 193.922 186.442C191.86 184.867 189.076 185.575 188.462 185.313C185.535 186.755 185.105 187.315 182.773 187.654C179.724 188.096 177.014 183.098 174.668 182.122Z" stroke="url(#paint1_linear_937_1079)" stroke-miterlimit="10"/>
<path d="M166.009 169.695C156.098 171.574 145.328 208.478 156.079 216.971C162.926 222.38 174.863 219.991 183.183 217.132C190.826 214.505 203.552 205.74 206.127 193.177C207.624 185.878 205.805 175.61 200.594 172.64C196.44 170.273 191.088 172.308 190.146 172.465C184.576 176.022 184.126 177.832 179.978 179.05C174.487 180.661 170.151 168.906 166.009 169.695Z" stroke="url(#paint2_linear_937_1079)" stroke-miterlimit="10"/>
<path d="M157.978 157.351C147.035 160.814 139.479 213.169 155.066 224.218C165.127 231.349 180.201 227.072 189.656 222.536C198.209 218.435 213.979 205.528 216.799 188.069C218.5 177.54 215.661 162.837 207.895 158.919C201.655 155.77 193.686 159.002 192.459 159.697C183.886 164.563 183.777 168.43 177.809 170.528C169.88 173.323 163.709 155.541 157.978 157.351Z" stroke="url(#paint3_linear_937_1079)" stroke-miterlimit="10"/>
<path d="M150.43 145.568C138.312 150.564 134.132 218.368 154.536 232.029C167.823 240.845 186.028 234.725 196.61 228.505C206.085 222.937 224.877 205.89 227.957 183.522C229.85 169.773 226.003 150.63 215.682 145.758C207.352 141.829 196.828 146.437 195.257 147.488C184.206 154.882 183.92 159.605 176.132 162.569C165.764 166.548 157.684 142.579 150.43 145.568Z" stroke="url(#paint4_linear_937_1079)" stroke-miterlimit="10"/>
<path d="M223.808 132.754C213.391 128.047 200.32 134.024 198.395 135.437C184.895 145.343 184.396 150.902 174.791 154.759C161.982 159.901 151.945 129.684 143.228 133.934C129.838 140.464 129.086 223.805 154.352 239.988C170.838 250.547 192.209 242.535 203.911 234.621C214.304 227.593 236.107 206.406 239.453 179.125C241.533 162.157 236.687 138.573 223.808 132.754Z" stroke="url(#paint5_linear_937_1079)" stroke-miterlimit="10"/>
<path d="M111.09 124.166C115.193 124.125 120.114 115.679 116.434 114.268C114.309 113.452 108.682 114.743 106.472 117.039C103.359 120.27 108.267 124.195 111.09 124.166Z" stroke="url(#paint6_linear_937_1079)" stroke-miterlimit="10"/>
<path d="M122.241 115.451C121.84 114.318 119.959 113.814 118.244 112.434C114.764 109.632 114.265 108.301 111.793 106.611C110.829 105.951 109.532 105.084 108.266 105.481C106.327 106.09 105.843 108.724 103.382 113.363C100.192 119.392 98.9835 120.95 99.8951 124.145C100.108 124.887 100.383 127.293 101.919 128.76C104.047 130.789 106.541 129.222 109.66 130.565C113.405 132.175 115.261 135.041 116.886 133.774C118.031 132.882 118.074 130.439 118.931 126.185C119.584 122.945 119.995 120.818 120.789 119.084C121.741 117.018 122.688 116.711 122.241 115.451Z" stroke="url(#paint7_linear_937_1079)" stroke-miterlimit="10"/>
<path d="M128.513 117.814C128.443 115.804 125.785 114.832 123.593 111.928C119.099 105.972 121.181 101.716 117.579 97.3639C116.051 95.5166 113.652 93.7272 111.249 94.0739C107.837 94.5666 106.691 98.7497 101.44 107.231C94.5738 118.319 91.649 120.491 92.2902 126.4C92.4214 127.604 92.5489 132.229 95.2322 135.012C98.8108 138.724 103.1 135.347 108.703 138.137C114.963 141.25 117.302 147.905 119.413 146.528C120.879 145.571 120.318 141.72 121.444 134.208C122.242 128.869 122.735 125.748 124.329 123.193C126.342 119.969 128.588 119.996 128.513 117.814Z" stroke="url(#paint8_linear_937_1079)" stroke-miterlimit="10"/>
<path d="M134.791 120.15C135.062 117.27 131.62 115.822 128.949 111.396C123.45 102.282 128.191 95.1591 123.372 88.0896C121.309 85.0647 117.771 82.3586 114.238 82.6409C109.34 83.0316 107.531 88.7315 99.4963 101.073C88.9332 117.198 84.3842 120.037 84.6827 128.629C84.7414 130.305 84.7143 137.136 88.5425 141.241C93.5726 146.633 99.6663 141.44 107.742 145.685C116.524 150.301 119.338 160.742 121.941 159.258C123.727 158.232 122.583 152.977 123.959 142.207C124.908 134.769 125.481 130.67 127.872 127.278C130.954 122.907 134.501 123.253 134.791 120.15Z" stroke="url(#paint9_linear_937_1079)" stroke-miterlimit="10"/>
<path d="M141.084 122.481C141.692 118.734 137.475 116.805 134.319 110.858C127.828 98.5823 135.237 88.6199 129.178 78.8099C126.588 74.6128 121.901 70.989 117.24 71.2015C110.853 71.4935 108.409 78.7294 97.5709 94.909C83.3442 116.098 77.1529 119.598 77.0977 130.854C77.0868 133 76.9078 142.032 81.8764 147.464C88.3643 154.529 96.2505 147.523 106.805 153.228C118.11 159.34 121.399 173.577 124.483 171.984C126.59 170.891 124.863 164.227 126.487 150.201C127.591 140.664 128.24 135.591 131.428 131.358C135.582 125.845 140.429 126.51 141.084 122.481Z" stroke="url(#paint10_linear_937_1079)" stroke-miterlimit="10"/>
<path d="M147.388 124.81C146.369 129.769 140.225 128.782 134.998 135.437C131.013 140.511 130.288 146.556 129.029 158.194C127.16 175.476 129.468 183.549 127.04 184.707C123.47 186.411 119.707 168.377 105.878 160.77C92.8491 153.604 83.1543 162.438 75.2193 153.685C69.1022 146.937 69.4422 135.704 69.5218 133.076C69.9432 119.16 77.7669 114.997 95.6581 88.7433C109.301 68.7251 112.377 59.9553 120.257 59.761C126.045 59.6182 131.883 64.162 134.998 69.5291C142.294 82.0881 132.201 94.8951 139.701 110.319C143.336 117.793 148.337 120.197 147.388 124.81Z" stroke="url(#paint11_linear_937_1079)" stroke-miterlimit="10"/>
<path d="M95.2466 204.63C96.3174 203.986 98.5657 205.226 98.7646 207.16C98.9898 209.353 96.4458 211.167 95.328 210.603C94.0058 209.936 93.8259 205.482 95.2466 204.63Z" stroke="url(#paint12_linear_937_1079)" stroke-miterlimit="10"/>
<path d="M92.2296 216.282C90.4046 214.256 89.607 210.539 88.6944 204.167C87.7901 197.849 87.9321 193.325 88.727 192.997C89.1602 192.82 90.3875 194.206 91.4401 195.221C93.4108 197.117 96.7841 196.906 97.6487 197.111C100.814 197.863 101.744 199.258 103.067 201.931C103.679 203.166 105.107 205.903 105.736 209.123C106.694 214 110.991 215.502 110.467 217.457C110.027 219.089 105.77 219.485 103.01 219.531C99.054 219.597 95.0513 219.41 92.2296 216.282Z" stroke="url(#paint13_linear_937_1079)" stroke-miterlimit="10"/>
<path d="M89.0662 221.727C86.0664 218.107 84.8862 212.033 83.0684 200.673C81.2216 189.258 81.2334 181.429 82.1432 181.137C82.826 180.914 85.0372 183.736 86.9165 185.752C90.4589 189.571 96.8003 188.943 98.1072 189.187C104.067 190.28 105.536 192.898 107.845 197.847C108.808 199.908 111.448 204.931 112.65 210.864C114.502 219.953 123.279 222.332 122.552 225.702C121.945 228.508 113.806 228.938 108.685 228.708C101.453 228.374 94.1352 227.846 89.0662 221.727Z" stroke="url(#paint14_linear_937_1079)" stroke-miterlimit="10"/>
<path d="M85.9199 227.137C81.7426 221.925 80.1934 213.489 77.4604 197.144C74.6848 180.629 74.5555 169.512 75.5775 169.235C76.5135 168.977 79.7068 173.228 82.4073 176.252C87.5124 182.002 96.8302 180.945 98.5802 181.222C107.333 182.608 109.348 186.487 112.639 193.722C113.952 196.608 117.802 203.919 119.581 212.561C122.322 225.863 135.58 229.118 134.653 233.903C133.879 237.883 121.855 238.365 114.374 237.838C103.869 237.135 93.2245 236.253 85.9199 227.137Z" stroke="url(#paint15_linear_937_1079)" stroke-miterlimit="10"/>
<path d="M82.7835 232.544C77.426 225.738 75.5096 214.94 71.8614 193.61C68.1535 171.998 67.8822 157.596 69.0199 157.328C70.21 157.046 74.3873 162.708 77.9071 166.741C84.585 174.411 96.8682 172.935 99.0613 173.251C110.606 174.914 113.185 180.062 117.441 189.591C119.11 193.301 124.165 202.901 126.518 214.254C130.152 231.768 147.891 235.898 146.761 242.099C145.821 247.252 129.913 247.766 120.072 246.965C106.297 245.863 92.3201 244.66 82.7835 232.544Z" stroke="url(#paint16_linear_937_1079)" stroke-miterlimit="10"/>
<path d="M99.5469 165.278C113.884 167.21 117.001 173.651 122.247 185.458C124.263 189.998 130.532 201.882 133.461 215.943C137.983 237.672 160.206 242.677 158.874 250.293C157.767 256.626 137.975 257.163 125.774 256.089C108.724 254.587 91.4175 253.064 79.6507 237.949C73.113 229.549 70.8304 216.391 66.266 190.074C61.6329 163.363 61.2197 145.68 62.4677 145.42C63.9147 145.119 69.0696 152.182 73.4106 157.227C81.6621 166.815 96.9098 164.923 99.5469 165.278Z" stroke="url(#paint17_linear_937_1079)" stroke-miterlimit="10"/>
<path d="M216.12 113.647C214.493 121.053 202.808 117.574 188.899 134.256C183.915 140.234 180.573 146.487 173.977 147.459C173.311 147.557 166.703 148.415 162.039 143.38C156.171 137.047 159.753 128.261 152.905 116.008C150.383 111.494 149.963 112.805 148.112 109.246C140.211 94.0514 152.261 78.6263 145.308 63.1959C142.108 56.0931 137.35 54.4626 137.802 53.5352C139.753 49.556 220.519 93.6885 216.12 113.647Z" stroke="url(#paint18_linear_937_1079)" stroke-miterlimit="10"/>
<path d="M172.168 137.334C171.768 137.269 167.411 137.656 164.422 134.096C160.643 129.602 163.337 123.414 159.007 115.059C157.413 111.983 157.192 112.817 156.057 110.383C151.219 99.9992 159.903 89.5527 155.65 79.3874C153.683 74.6815 150.576 73.6027 151.038 73.1433C153.128 71.048 206.438 102.002 202.251 115.471C200.681 120.523 192.11 118.73 182.303 129.611C178.737 133.564 176.323 138.003 172.168 137.334Z" stroke="url(#paint19_linear_937_1079)" stroke-miterlimit="10"/>
<path d="M170.359 127.207C170.245 126.867 168.115 126.874 166.805 124.812C165.105 122.137 166.915 118.574 165.108 114.111C164.446 112.473 164.418 112.823 164.002 111.521C162.216 105.921 167.552 100.485 165.992 95.5778C165.262 93.2678 163.906 92.8738 164.267 92.7504C166.912 93.1959 192.303 110.346 188.386 117.296C186.857 120.012 181.383 119.882 175.712 124.965C173.557 126.897 172.146 128.312 170.359 127.207Z" stroke="url(#paint20_linear_937_1079)" stroke-miterlimit="10"/>
<path d="M168.55 117.082C169.954 112.214 175.48 110.558 177.504 112.359C180.488 115.016 177.942 118.477 174.519 119.121C171.961 119.599 166.944 122.653 168.55 117.082Z" stroke="url(#paint21_linear_937_1079)" stroke-miterlimit="10"/>
</g>
<path d="M212.327 217.588H194.327C190.185 217.588 186.827 220.946 186.827 225.088V243.088C186.827 247.23 190.185 250.588 194.327 250.588H212.327C216.469 250.588 219.827 247.23 219.827 243.088V225.088C219.827 220.946 216.469 217.588 212.327 217.588Z" fill="#424242"/>
<path d="M193.747 233.114C193.631 233.151 193.507 233.156 193.388 233.129C193.269 233.102 193.159 233.045 193.069 232.962C192.98 232.879 192.913 232.775 192.877 232.658C192.841 232.542 192.836 232.418 192.863 232.299C193.266 230.62 194.801 226.513 200.392 224.787C202.629 224.039 205.047 224.026 207.292 224.749C208.573 225.186 209.763 225.853 210.806 226.715C210.949 226.828 211.041 226.994 211.062 227.175C211.083 227.356 211.032 227.538 210.918 227.681L210.914 227.686C210.798 227.83 210.63 227.922 210.446 227.942C210.263 227.963 210.078 227.911 209.933 227.797C208.69 226.744 207.193 226.033 205.591 225.736C203.988 225.439 202.336 225.565 200.798 226.102C195.897 227.615 194.567 231.156 194.221 232.605C194.195 232.724 194.137 232.835 194.053 232.924C193.97 233.014 193.864 233.079 193.746 233.114H193.747Z" fill="#EBFF25"/>
<path d="M208.985 242.624C208.929 242.642 208.871 242.653 208.813 242.656C204.445 242.892 201.666 239.263 201.552 239.112L201.531 239.076C201.462 238.969 199.78 236.41 200.52 234.379C200.711 233.899 201.014 233.473 201.404 233.136C201.794 232.799 202.26 232.561 202.761 232.443C203.2 232.27 203.674 232.207 204.143 232.259C204.611 232.311 205.06 232.477 205.449 232.743C206.021 233.21 206.491 233.79 206.83 234.446C207.619 235.741 208.105 236.401 209.601 236.021C209.862 235.949 210.101 235.812 210.294 235.623C210.488 235.434 210.63 235.198 210.708 234.939C210.872 234.299 210.882 233.629 210.735 232.985C210.588 232.341 210.29 231.741 209.864 231.236C208.719 229.777 205.514 227.352 201.56 228.574C199.92 229.06 198.505 230.11 197.564 231.538C196.792 232.73 196.369 234.113 196.341 235.532C196.326 238.066 198.402 241.398 198.422 241.428C198.518 241.582 198.55 241.769 198.509 241.946C198.468 242.124 198.358 242.278 198.204 242.374L198.197 242.378C198.04 242.476 197.851 242.508 197.671 242.468C197.491 242.427 197.334 242.318 197.234 242.163C197.14 242.013 194.923 238.457 194.941 235.529C194.963 234.091 195.337 232.68 196.03 231.421C196.723 230.161 197.715 229.09 198.918 228.302C200.121 227.514 201.499 227.033 202.931 226.901C204.363 226.769 205.806 226.991 207.132 227.545C208.623 228.154 209.938 229.127 210.957 230.373C211.527 231.058 211.921 231.871 212.105 232.742C212.289 233.614 212.258 234.516 212.015 235.373C211.864 235.853 211.594 236.286 211.229 236.632C210.865 236.978 210.419 237.227 209.932 237.353C207.367 238.006 206.362 236.362 205.629 235.164C204.879 233.936 204.461 233.36 203.16 233.761C202.866 233.821 202.591 233.95 202.357 234.139C202.124 234.327 201.94 234.569 201.82 234.844C201.646 235.585 201.728 236.363 202.052 237.052L202.059 237.071C202.373 237.864 202.862 238.576 203.49 239.152C204.182 239.837 205.003 240.377 205.905 240.742C206.807 241.107 207.773 241.289 208.746 241.279C208.928 241.267 209.107 241.329 209.244 241.449C209.381 241.57 209.464 241.74 209.475 241.922V241.929C209.481 242.083 209.436 242.235 209.346 242.361C209.257 242.487 209.129 242.58 208.981 242.626L208.985 242.624Z" fill="#EBFF25"/>
<path d="M203.689 243.928C203.598 243.956 203.502 243.966 203.408 243.956C203.313 243.946 203.221 243.917 203.138 243.871C201.037 242.708 199.368 240.897 198.382 238.708L198.378 238.693C197.949 237.781 197.711 236.791 197.678 235.783C197.646 234.776 197.82 233.772 198.189 232.834C198.555 232.084 199.08 231.422 199.728 230.896C200.375 230.369 201.13 229.99 201.939 229.786C202.936 229.449 204.008 229.402 205.03 229.65C206.052 229.899 206.983 230.432 207.714 231.188C208.459 231.916 209.065 232.773 209.502 233.719C209.538 233.803 209.557 233.894 209.557 233.986C209.558 234.077 209.541 234.169 209.507 234.254C209.472 234.339 209.422 234.417 209.357 234.482C209.293 234.548 209.216 234.6 209.132 234.636C209.047 234.672 208.957 234.691 208.865 234.692C208.773 234.692 208.682 234.675 208.597 234.641C208.512 234.607 208.434 234.556 208.368 234.491C208.303 234.427 208.251 234.351 208.215 234.266C207.845 233.477 207.334 232.762 206.708 232.156C206.156 231.584 205.452 231.181 204.678 230.995C203.905 230.809 203.094 230.847 202.342 231.106C201.723 231.257 201.145 231.54 200.646 231.936C200.148 232.333 199.741 232.833 199.455 233.402C199.17 234.161 199.04 234.97 199.073 235.781C199.105 236.591 199.299 237.387 199.644 238.121C200.51 240.052 201.979 241.649 203.832 242.672C203.91 242.716 203.979 242.775 204.034 242.846C204.09 242.917 204.131 242.998 204.155 243.085C204.179 243.171 204.186 243.262 204.175 243.351C204.164 243.44 204.136 243.527 204.092 243.605L204.087 243.614C203.998 243.765 203.856 243.877 203.689 243.928Z" fill="#EBFF25"/>
<path d="M203.916 237.05C204.408 237.05 204.807 236.651 204.807 236.159C204.807 235.667 204.408 235.268 203.916 235.268C203.424 235.268 203.025 235.667 203.025 236.159C203.025 236.651 203.424 237.05 203.916 237.05Z" fill="#EBFF25"/>
<path d="M248.327 218.03H230.113C225.921 218.03 222.523 221.311 222.523 225.358V242.945C222.523 246.991 225.921 250.272 230.113 250.272H248.327C252.519 250.272 255.917 246.991 255.917 242.945V225.358C255.917 221.311 252.519 218.03 248.327 218.03Z" fill="#424242"/>
<path d="M230.913 233.2C230.796 233.235 230.67 233.24 230.55 233.214C230.429 233.188 230.318 233.132 230.227 233.051C230.137 232.97 230.07 232.868 230.033 232.754C229.996 232.64 229.991 232.519 230.019 232.403C230.427 230.762 231.98 226.751 237.638 225.064C239.901 224.333 242.348 224.32 244.62 225.026C245.916 225.454 247.12 226.105 248.175 226.948C248.32 227.058 248.413 227.22 248.435 227.397C248.456 227.574 248.404 227.752 248.289 227.891L248.285 227.897C248.167 228.037 247.997 228.127 247.811 228.147C247.626 228.167 247.439 228.116 247.292 228.005C246.034 226.976 244.519 226.282 242.898 225.991C241.277 225.701 239.605 225.824 238.048 226.348C233.089 227.827 231.743 231.286 231.393 232.702C231.366 232.819 231.308 232.927 231.223 233.014C231.139 233.102 231.032 233.166 230.913 233.2H230.913Z" fill="#EBFF25"/>
<path d="M240.974 243.765C240.882 243.793 240.785 243.802 240.689 243.792C240.593 243.783 240.5 243.754 240.416 243.709C238.29 242.573 236.602 240.804 235.603 238.665L235.599 238.651C235.165 237.759 234.924 236.792 234.891 235.807C234.858 234.823 235.034 233.843 235.408 232.926C235.779 232.193 236.31 231.547 236.965 231.032C237.621 230.518 238.384 230.148 239.203 229.948C240.212 229.619 241.296 229.573 242.331 229.816C243.365 230.058 244.307 230.579 245.047 231.318C245.801 232.029 246.414 232.867 246.856 233.79C246.892 233.873 246.911 233.961 246.912 234.051C246.913 234.141 246.895 234.23 246.861 234.313C246.826 234.396 246.775 234.472 246.71 234.536C246.644 234.6 246.567 234.651 246.481 234.686C246.396 234.721 246.304 234.74 246.211 234.741C246.118 234.742 246.026 234.725 245.94 234.691C245.854 234.658 245.775 234.608 245.709 234.545C245.642 234.483 245.59 234.408 245.553 234.325C245.179 233.554 244.662 232.856 244.029 232.264C243.47 231.704 242.757 231.311 241.975 231.129C241.192 230.947 240.372 230.985 239.611 231.238C238.984 231.385 238.399 231.662 237.894 232.049C237.39 232.436 236.979 232.925 236.69 233.481C236.401 234.223 236.27 235.013 236.302 235.805C236.335 236.597 236.531 237.374 236.88 238.092C237.756 239.978 239.244 241.539 241.118 242.538C241.197 242.581 241.267 242.639 241.323 242.708C241.379 242.777 241.421 242.856 241.445 242.941C241.47 243.026 241.477 243.114 241.466 243.201C241.455 243.289 241.426 243.373 241.381 243.45L241.376 243.458C241.286 243.606 241.143 243.715 240.974 243.765Z" fill="#EBFF25"/>
<path d="M241.203 237.045C241.701 237.045 242.105 236.656 242.105 236.175C242.105 235.694 241.701 235.304 241.203 235.304C240.705 235.304 240.302 235.694 240.302 236.175C240.302 236.656 240.705 237.045 241.203 237.045Z" fill="#EBFF25"/>
<path d="M284.286 218.03H266.699C262.652 218.03 259.371 221.311 259.371 225.358V242.945C259.371 246.991 262.652 250.272 266.699 250.272H284.286C288.333 250.272 291.613 246.991 291.613 242.945V225.358C291.613 221.311 288.333 218.03 284.286 218.03Z" fill="#424242"/>
<path d="M275.493 237.045C275.973 237.045 276.363 236.656 276.363 236.175C276.363 235.694 275.973 235.304 275.493 235.304C275.012 235.304 274.622 235.694 274.622 236.175C274.622 236.656 275.012 237.045 275.493 237.045Z" fill="#EBFF25"/>
<g filter="url(#filter0_bd_937_1079)">
<path d="M45.7779 27.7112C45.7779 27.7112 21.5215 37.7002 18.9209 38.7864C17.72 39.3282 16.7076 40.2169 16.0131 41.3387C15.3186 42.4604 14.9736 43.7644 15.0221 45.0838C15.0221 47.6899 13.0731 81.6928 45.7779 98.134C45.7779 98.134 48.7463 98.9578 50.9983 98.134C53.2504 97.3103 81.8402 83.4123 81.8402 44.9754C81.8402 44.9754 81.8402 41.0664 77.2919 38.8948C72.7437 36.7231 50.7522 27.7112 50.7522 27.7112C50.7522 27.7112 48.052 26.5159 45.7779 27.7112Z" fill="#EBFF25"/>
</g>
<path d="M41.7411 76.642L29.8875 64.0277L32.2775 61.7698L41.8093 71.9149L64.6302 49.0378L66.9527 51.3664L41.7411 76.642Z" fill="black"/>
<g clip-path="url(#clip0_937_1079)">
<path d="M58.7873 82.9412H77.1656C77.3886 82.9242 77.8434 82.9199 78.3156 83.1633C79.2164 83.6246 79.4132 84.577 79.4394 84.7094V97.9879C79.3957 98.1417 79.2908 98.4364 79.0153 98.6926C78.5387 99.1454 77.9265 99.1325 77.804 99.1283H58.7829C58.6124 99.1112 58.2232 99.0471 57.8472 98.761C57.3968 98.4193 57.2525 97.9708 57.2087 97.8214V84.3165C57.2612 84.1414 57.3793 83.8253 57.6635 83.5306C58.0877 83.0907 58.6036 82.9797 58.7829 82.9498L58.7873 82.9412Z" fill="#8ECFA7" stroke="black" stroke-miterlimit="10"/>
<path d="M62.8057 82.9413C62.762 80.9767 62.7227 79.0163 62.6789 77.0516C62.727 76.5647 62.9194 75.2835 63.9558 74.1773C65.2894 72.755 67.0735 72.6483 67.69 72.6098C68.1798 72.5799 69.8764 72.4988 71.4462 73.5964C72.9066 74.6129 73.72 75.9839 73.72 77.0175V82.9456H77.1612V77.1883C77.1088 76.3085 76.842 74.0406 75.0624 72.1186C72.395 69.2315 68.429 69.5048 67.3271 69.5774C66.199 69.6543 63.8464 69.8081 61.7738 71.6104C59.793 73.3316 59.277 75.5141 59.1371 76.2786C59.1283 78.4995 59.1196 80.7247 59.1108 82.9456H62.8057V82.9413Z" fill="#50E281" stroke="#231F20" stroke-miterlimit="10"/>
<path d="M64.9309 79.4946L66.6669 81.5404" stroke="#231F20" stroke-miterlimit="10"/>
<path d="M67.9919 78.1365V81.0664" stroke="#231F20" stroke-miterlimit="10"/>
<path d="M69.4436 81.4765L71.4463 79.405" stroke="#231F20" stroke-miterlimit="10"/>
<path d="M67.8289 97.1593V96.0913C67.2729 95.9672 66.8029 95.7272 66.4189 95.3712C66.0389 95.0112 65.7629 94.5772 65.5909 94.0692L66.8629 93.6012C67.0269 93.9692 67.2589 94.2712 67.5589 94.5072C67.8629 94.7432 68.2109 94.8612 68.6029 94.8612C69.0029 94.8612 69.3229 94.7612 69.5629 94.5612C69.8029 94.3612 69.9229 94.0712 69.9229 93.6912C69.9229 93.4232 69.8469 93.1992 69.6949 93.0192C69.5429 92.8352 69.3409 92.6772 69.0889 92.5452C68.8409 92.4132 68.5669 92.2892 68.2669 92.1732C67.9829 92.0612 67.6989 91.9412 67.4149 91.8132C67.1349 91.6812 66.8789 91.5232 66.6469 91.3392C66.4189 91.1512 66.2349 90.9212 66.0949 90.6492C65.9589 90.3772 65.8909 90.0472 65.8909 89.6592C65.8909 89.1552 66.0589 88.7052 66.3949 88.3092C66.7309 87.9092 67.2089 87.6572 67.8289 87.5532V86.5992H69.1909V87.5652C69.6749 87.6692 70.0689 87.8732 70.3729 88.1772C70.6769 88.4772 70.8869 88.8312 71.0029 89.2392L69.7549 89.6532C69.6589 89.4132 69.4989 89.2112 69.2749 89.0472C69.0509 88.8792 68.7629 88.7952 68.4109 88.7952C68.0669 88.7952 67.7989 88.8712 67.6069 89.0232C67.4149 89.1712 67.3189 89.3832 67.3189 89.6592C67.3189 89.8712 67.3889 90.0512 67.5289 90.1992C67.6729 90.3472 67.8629 90.4792 68.0989 90.5952C68.3349 90.7072 68.5929 90.8152 68.8729 90.9192C69.1489 91.0232 69.4309 91.1452 69.7189 91.2852C70.0109 91.4252 70.2789 91.5972 70.5229 91.8012C70.7709 92.0052 70.9709 92.2592 71.1229 92.5632C71.2749 92.8672 71.3509 93.2372 71.3509 93.6732C71.3509 94.1372 71.2549 94.5392 71.0629 94.8792C70.8749 95.2192 70.6189 95.4952 70.2949 95.7072C69.9709 95.9152 69.6029 96.0533 69.1909 96.1213V97.1593H67.8289Z" fill="black"/>
</g>
<g clip-path="url(#clip1_937_1079)" filter="url(#filter1_d_937_1079)">
<path fill-rule="evenodd" clip-rule="evenodd" d="M83.5273 205.987C83.059 205.987 82.5908 206.174 82.2162 206.549C81.8416 206.924 81.6543 207.299 81.6543 207.862C81.6543 208.331 81.8416 208.799 82.2162 209.174C82.5908 209.549 82.9654 209.737 83.5273 209.737C83.9955 209.737 84.4637 209.549 84.8383 209.174C85.2129 208.799 85.4002 208.331 85.4002 207.862C85.4002 207.393 85.2129 206.924 84.8383 206.549C84.4637 206.174 83.9955 205.987 83.5273 205.987Z" fill="white"/>
<path fill-rule="evenodd" clip-rule="evenodd" d="M13.572 217.237C12.261 219.581 13.1038 222.393 15.445 223.706C17.7862 225.018 20.6893 224.174 21.9067 221.831C23.2178 219.487 22.375 216.674 20.0338 215.362C17.7862 214.143 14.8831 214.987 13.572 217.237Z" fill="white"/>
<path fill-rule="evenodd" clip-rule="evenodd" d="M11.5117 228.862C11.2307 229.049 10.9498 229.237 10.6688 229.424C10.4815 229.518 10.4815 229.799 10.5752 229.987C11.3244 230.737 12.0736 231.487 12.8227 232.143C13.6656 232.893 14.7894 233.174 15.9131 232.893C17.0369 232.612 18.1607 232.331 19.2845 231.956C20.8765 231.393 22.3749 230.643 23.7796 229.799C24.0605 229.612 24.3415 229.518 24.5288 229.331C24.7161 229.237 24.7161 229.049 24.5288 228.956C20.7828 226.518 15.7258 226.424 11.5117 228.862Z" fill="white"/>
<path fill-rule="evenodd" clip-rule="evenodd" d="M8.42134 213.381C8.23404 213.1 8.04674 212.819 7.85945 212.538C7.7658 212.35 7.48485 212.35 7.29756 212.538C6.54837 213.194 5.89283 213.944 5.14365 214.788C4.39446 215.631 4.11352 216.756 4.39446 217.881C4.67541 219.006 4.95635 220.131 5.33094 221.256C5.89283 222.85 6.64202 224.35 7.48485 225.756C7.67215 226.038 7.7658 226.319 7.95309 226.506C8.04674 226.694 8.23404 226.694 8.32769 226.506C10.7625 222.569 10.9498 217.506 8.42134 213.381Z" fill="#828282"/>
<path fill-rule="evenodd" clip-rule="evenodd" d="M23.8732 210.206C24.1541 210.018 24.4351 209.831 24.716 209.643C24.9033 209.55 24.9033 209.268 24.8097 209.081C24.0605 208.331 23.3113 207.581 22.5621 206.925C21.7193 206.175 20.5955 205.893 19.4717 206.175C18.3479 206.456 17.2242 206.737 16.1004 207.112C14.5084 207.675 13.01 208.425 11.6053 209.268C11.2307 209.456 10.9497 209.643 10.6688 209.831C10.4815 209.925 10.4815 210.112 10.6688 210.206C14.602 212.55 19.659 212.737 23.8732 210.206Z" fill="#828282"/>
<path fill-rule="evenodd" clip-rule="evenodd" d="M27.1403 225.756C27.3276 226.038 27.5149 226.319 27.7022 226.6C27.7958 226.788 28.0768 226.788 28.2641 226.694C29.0133 225.944 29.7624 225.194 30.418 224.444C31.1672 223.6 31.4481 222.475 31.1672 221.35C30.8862 220.225 30.6053 219.1 30.2307 217.975C29.5751 216.288 28.9196 214.788 28.0768 213.381C27.8895 213.1 27.7022 212.913 27.5149 212.631C27.4212 212.444 27.2339 212.444 27.1403 212.631C24.7991 216.569 24.6118 221.538 27.1403 225.756Z" fill="#828282"/>
<path fill-rule="evenodd" clip-rule="evenodd" d="M63.2055 211.987C61.0516 211.987 59.5532 212.831 58.6167 214.424V212.456H56.1819V226.706H58.6167V219.299C58.6167 217.799 58.9913 216.581 59.7405 215.737C60.4897 214.893 61.5198 214.424 62.8309 214.424C63.9547 214.424 64.7975 214.799 65.4531 215.456C66.1086 216.206 66.3895 217.237 66.3895 218.737V226.799H68.8244V218.362C68.8244 216.299 68.3562 214.799 67.326 213.768C66.3895 212.549 64.9848 211.987 63.2055 211.987Z" fill="white"/>
<path fill-rule="evenodd" clip-rule="evenodd" d="M116.863 219.558C116.863 222.464 114.615 224.808 111.806 224.808C108.996 224.808 106.749 222.464 106.749 219.558C106.749 216.652 108.996 214.308 111.806 214.308C114.615 214.308 116.863 216.652 116.863 219.558ZM111.806 212.058C107.685 212.058 104.314 215.433 104.314 219.558C104.314 223.683 107.685 227.058 111.806 227.058C115.926 227.058 119.297 223.683 119.297 219.558C119.297 215.433 115.926 212.058 111.806 212.058Z" fill="white"/>
<path fill-rule="evenodd" clip-rule="evenodd" d="M51.4994 219.581C51.4994 222.487 49.2519 224.831 46.4424 224.831C43.633 224.831 41.3854 222.487 41.3854 219.581C41.3854 216.674 43.633 214.331 46.4424 214.331C49.1582 214.331 51.4994 216.674 51.4994 219.581ZM46.3488 211.987C42.2283 211.987 38.8569 215.362 38.8569 219.487C38.8569 223.612 42.2283 226.987 46.3488 226.987C50.4693 226.987 53.8406 223.612 53.8406 219.487C53.8406 215.362 50.563 211.987 46.3488 211.987Z" fill="white"/>
<path fill-rule="evenodd" clip-rule="evenodd" d="M99.6347 219.581C99.6347 222.487 97.3871 224.831 94.5777 224.831C91.7682 224.831 89.5206 222.487 89.5206 219.581C89.5206 216.674 91.7682 214.331 94.5777 214.331C97.2935 214.331 99.6347 216.674 99.6347 219.581ZM99.7283 214.424C98.3236 212.924 96.4506 212.081 94.3904 212.081C90.3635 212.081 87.1794 215.456 87.1794 219.581C87.1794 223.706 90.4571 227.081 94.3904 227.081C96.357 227.081 98.3236 226.237 99.7283 224.737V226.706H102.163V206.643H99.7283V214.424Z" fill="white"/>
<path fill-rule="evenodd" clip-rule="evenodd" d="M82.3098 226.706H84.7447V212.456H82.3098V226.706Z" fill="white"/>
<path fill-rule="evenodd" clip-rule="evenodd" d="M75.4734 212.456V209.643C75.4734 208.987 76.0353 208.424 76.7845 208.424H79.5939V206.174H76.5035C74.6306 206.174 73.0386 207.674 73.0386 209.549V212.456H70.3228V214.706H73.0386V226.706H75.4734V214.706H79.5939V212.456H75.4734Z" fill="white"/>
</g>
<g clip-path="url(#clip2_937_1079)" filter="url(#filter2_d_937_1079)">
<path d="M179.846 86.6799C179.846 89.7299 182.117 91.7549 184.863 91.7549C186.36 91.7549 187.808 91.3549 189.081 90.5549V93.5049C188.507 93.8549 186.785 94.5049 184.863 94.5049C180.395 94.5049 176.851 91.1049 176.851 86.6799C176.851 82.2549 180.42 78.8549 184.888 78.8549C186.81 78.8549 188.532 79.5049 189.106 79.8549V82.8049C187.833 82.0299 186.36 81.6049 184.888 81.6049C182.117 81.6049 179.846 83.6299 179.846 86.6799ZM202.26 86.8549V94.2799H199.514V87.7299C199.514 86.4299 198.94 85.4549 197.467 85.4549C196.045 85.4549 195.196 86.3549 195.196 87.9799V94.2549H192.451V78.1799H195.196V85.0799C195.396 84.5799 196.169 83.0299 198.466 83.0299C200.837 83.0299 202.26 84.4549 202.26 86.8549ZM217.185 91.9549V94.2799H213.641C213.416 94.3049 213.217 94.1299 213.192 93.8799V93.8549V91.8799C212.817 93.1799 211.819 94.5049 209.698 94.5049C206.827 94.5049 204.756 92.3549 204.756 88.7799C204.756 85.1299 207.027 83.0549 209.847 83.0549C212.443 83.0549 212.967 85.2049 212.967 85.2049V83.2799H215.713V91.9799H217.185V91.9549ZM213.067 88.7799C213.067 86.7049 212.069 85.4049 210.421 85.4049C208.824 85.4049 207.626 86.5799 207.626 88.7549C207.626 90.9299 208.624 92.1049 210.297 92.1049C211.994 92.1299 213.067 91.0299 213.067 88.7799ZM223.475 83.7049V94.2799H220.73V85.5799H218.733V83.2549H223.051C223.275 83.2549 223.475 83.4299 223.475 83.6549C223.475 83.6799 223.475 83.6799 223.475 83.7049ZM223.4 80.9549H220.43V78.1799H223.4V80.9549ZM226.695 83.2549H229.415V85.2049C229.515 84.9049 230.164 83.0299 232.735 83.0299C235.106 83.0299 236.529 84.4549 236.529 86.8549V94.2799H233.783V87.7299C233.783 86.4299 233.209 85.4549 231.737 85.4549C230.314 85.4549 229.465 86.3549 229.465 87.9799V94.2549H226.72L226.695 83.2549ZM251.43 91.9549V94.2799H247.886C247.661 94.3049 247.461 94.1299 247.436 93.8799V93.8549V91.8799C247.062 93.1799 246.063 94.5049 243.942 94.5049C241.072 94.5049 239 92.3549 239 88.7799C239 85.1299 241.271 83.0549 244.092 83.0549C246.687 83.0549 247.212 85.2049 247.212 85.2049V83.2799H249.957V91.9799H251.43V91.9549ZM247.311 88.7799C247.311 86.7049 246.313 85.4049 244.666 85.4049C243.068 85.4049 241.87 86.5799 241.87 88.7549C241.87 90.9299 242.869 92.1049 244.541 92.1049C246.238 92.1299 247.311 91.0299 247.311 88.7799ZM257.046 78.8549V94.2799H254.3V80.5049H252.578V78.1799H256.397C256.746 78.1799 257.046 78.4799 257.046 78.8549ZM262.013 99.3549H259.267V97.0299H261.289C262.013 97.0299 262.337 96.8049 262.612 96.1549L263.435 94.0799L259.192 83.2549H262.262L264.833 91.0299L267.504 83.2549H270.574L265.157 97.2049C264.558 98.7049 263.61 99.3549 262.013 99.3549ZM272.071 93.5799V90.9049C272.446 91.1549 273.968 92.1549 275.665 92.1549C276.963 92.1549 277.537 91.7799 277.537 91.0549C277.537 88.8799 271.921 90.4799 271.921 86.3299C271.921 84.4549 273.494 83.0299 276.414 83.0299C278.012 83.0299 279.16 83.4549 279.609 83.7049V86.3549C279.06 86.0049 277.962 85.3049 276.464 85.3049C275.166 85.3049 274.692 85.7049 274.692 86.3299C274.692 88.1049 280.283 86.8799 280.283 90.9299C280.283 93.1299 278.461 94.5299 275.79 94.5299C274.018 94.5049 272.57 93.9049 272.071 93.5799ZM286.847 83.7049V94.2799H284.102V85.5799H282.105V83.2549H286.423C286.648 83.2549 286.847 83.4299 286.847 83.6549C286.847 83.6799 286.847 83.6799 286.847 83.7049ZM286.747 80.9549H283.777V78.1799H286.747V80.9549ZM289.792 93.5799V90.9049C290.167 91.1549 291.689 92.1549 293.387 92.1549C294.685 92.1549 295.259 91.7799 295.259 91.0549C295.259 88.8799 289.643 90.4799 289.643 86.3299C289.643 84.4549 291.215 83.0299 294.135 83.0299C295.733 83.0299 296.881 83.4549 297.33 83.7049V86.3549C296.407 85.7049 295.309 85.3299 294.185 85.3049C292.887 85.3049 292.388 85.7049 292.388 86.3299C292.388 88.1049 297.979 86.8799 297.979 90.9299C297.979 93.1299 296.157 94.5299 293.486 94.5299C291.739 94.5049 290.292 93.9049 289.792 93.5799Z" fill="white"/>
<path d="M156.459 74.355C156.734 74.355 157.058 74.38 157.058 74.38C156.11 75.505 155.56 76.905 155.436 78.355C151.817 78.955 148.996 81.855 148.472 85.505C146.85 85.68 145.028 86.43 143.979 87.48C143.73 80.23 149.296 74.355 156.459 74.355ZM158.256 96.155C157.932 96.205 157.582 96.23 157.258 96.23C156.684 96.23 156.11 96.18 155.536 96.08C155.086 97.155 154.512 98.155 153.788 99.08C149.221 98.08 145.602 94.58 144.404 90.055C145.527 88.73 148.123 87.93 149.745 87.93C153.189 87.93 155.011 89.755 155.66 92.605C153.589 92.055 152.366 90.88 151.542 89.155C151.068 88.98 150.569 88.905 150.069 88.905C149.62 88.905 149.171 88.98 148.722 89.105C149.645 92.605 153.015 95.205 157.133 95.205C160.927 95.205 162.549 93.28 162.549 93.28V90.33C162.549 90.33 160.677 92.28 158.356 92.655C157.832 88.93 154.887 86.03 151.193 85.505C151.792 82.555 154.038 80.88 157.083 80.88C160.128 80.88 162.599 83.105 162.599 83.105V80.205C162.599 80.205 161.027 78.73 158.206 78.405C158.281 77.105 159.13 75.48 160.028 74.88C163.847 76.08 167.541 79.33 168.589 84.03C168.589 84.03 166.892 85.73 163.747 85.73C161.151 85.73 159.504 84.43 158.581 82.13C158.106 81.955 157.582 81.88 157.083 81.88C156.609 81.88 156.135 81.955 155.685 82.13C156.709 85.805 159.928 88.255 163.523 88.255C167.042 88.255 168.939 86.63 168.939 86.63C168.939 93.955 163.348 99.205 156.709 99.33C157.482 98.605 158.081 96.955 158.256 96.155Z" fill="white"/>
</g>
<defs>
<filter id="filter0_bd_937_1079" x="7" y="19.1799" width="82.8401" height="87.3203" filterUnits="userSpaceOnUse" color-interpolation-filters="sRGB">
<feFlood flood-opacity="0" result="BackgroundImageFix"/>
<feGaussianBlur in="BackgroundImageFix" stdDeviation="4"/>
<feComposite in2="SourceAlpha" operator="in" result="effect1_backgroundBlur_937_1079"/>
<feColorMatrix in="SourceAlpha" type="matrix" values="0 0 0 0 0 0 0 0 0 0 0 0 0 0 0 0 0 0 127 0" result="hardAlpha"/>
<feOffset dy="4"/>
<feGaussianBlur stdDeviation="2"/>
<feComposite in2="hardAlpha" operator="out"/>
<feColorMatrix type="matrix" values="0 0 0 0 0 0 0 0 0 0 0 0 0 0 0 0 0 0 0.25 0"/>
<feBlend mode="normal" in2="effect1_backgroundBlur_937_1079" result="effect2_dropShadow_937_1079"/>
<feBlend mode="normal" in="SourceGraphic" in2="effect2_dropShadow_937_1079" result="shape"/>
</filter>
<filter id="filter1_d_937_1079" x="0.297363" y="206" width="123" height="35" filterUnits="userSpaceOnUse" color-interpolation-filters="sRGB">
<feFlood flood-opacity="0" result="BackgroundImageFix"/>
<feColorMatrix in="SourceAlpha" type="matrix" values="0 0 0 0 0 0 0 0 0 0 0 0 0 0 0 0 0 0 127 0" result="hardAlpha"/>
<feOffset dy="4"/>
<feGaussianBlur stdDeviation="2"/>
<feComposite in2="hardAlpha" operator="out"/>
<feColorMatrix type="matrix" values="0 0 0 0 0 0 0 0 0 0 0 0 0 0 0 0 0 0 0.25 0"/>
<feBlend mode="normal" in2="BackgroundImageFix" result="effect1_dropShadow_937_1079"/>
<feBlend mode="normal" in="SourceGraphic" in2="effect1_dropShadow_937_1079" result="shape"/>
</filter>
<filter id="filter2_d_937_1079" x="139.979" y="74.355" width="162" height="33" filterUnits="userSpaceOnUse" color-interpolation-filters="sRGB">
<feFlood flood-opacity="0" result="BackgroundImageFix"/>
<feColorMatrix in="SourceAlpha" type="matrix" values="0 0 0 0 0 0 0 0 0 0 0 0 0 0 0 0 0 0 127 0" result="hardAlpha"/>
<feOffset dy="4"/>
<feGaussianBlur stdDeviation="2"/>
<feComposite in2="hardAlpha" operator="out"/>
<feColorMatrix type="matrix" values="0 0 0 0 0 0 0 0 0 0 0 0 0 0 0 0 0 0 0.25 0"/>
<feBlend mode="normal" in2="BackgroundImageFix" result="effect1_dropShadow_937_1079"/>
<feBlend mode="normal" in="SourceGraphic" in2="effect1_dropShadow_937_1079" result="shape"/>
</filter>
<linearGradient id="paint0_linear_937_1079" x1="211.74" y1="83.0866" x2="150.89" y2="256.527" gradientUnits="userSpaceOnUse">
<stop stop-color="#E2FF6F"/>
<stop offset="1" stop-color="#E2FF6F" stop-opacity="0"/>
</linearGradient>
<linearGradient id="paint1_linear_937_1079" x1="211.74" y1="83.0866" x2="150.89" y2="256.527" gradientUnits="userSpaceOnUse">
<stop stop-color="#E2FF6F"/>
<stop offset="1" stop-color="#E2FF6F" stop-opacity="0"/>
</linearGradient>
<linearGradient id="paint2_linear_937_1079" x1="211.74" y1="83.0866" x2="150.89" y2="256.527" gradientUnits="userSpaceOnUse">
<stop stop-color="#E2FF6F"/>
<stop offset="1" stop-color="#E2FF6F" stop-opacity="0"/>
</linearGradient>
<linearGradient id="paint3_linear_937_1079" x1="211.74" y1="83.0866" x2="150.89" y2="256.527" gradientUnits="userSpaceOnUse">
<stop stop-color="#E2FF6F"/>
<stop offset="1" stop-color="#E2FF6F" stop-opacity="0"/>
</linearGradient>
<linearGradient id="paint4_linear_937_1079" x1="211.74" y1="83.0866" x2="150.89" y2="256.527" gradientUnits="userSpaceOnUse">
<stop stop-color="#E2FF6F"/>
<stop offset="1" stop-color="#E2FF6F" stop-opacity="0"/>
</linearGradient>
<linearGradient id="paint5_linear_937_1079" x1="211.74" y1="83.0866" x2="150.89" y2="256.527" gradientUnits="userSpaceOnUse">
<stop stop-color="#E2FF6F"/>
<stop offset="1" stop-color="#E2FF6F" stop-opacity="0"/>
</linearGradient>
<linearGradient id="paint6_linear_937_1079" x1="211.74" y1="83.0866" x2="150.89" y2="256.527" gradientUnits="userSpaceOnUse">
<stop stop-color="#E2FF6F"/>
<stop offset="1" stop-color="#E2FF6F" stop-opacity="0"/>
</linearGradient>
<linearGradient id="paint7_linear_937_1079" x1="211.74" y1="83.0866" x2="150.89" y2="256.527" gradientUnits="userSpaceOnUse">
<stop stop-color="#E2FF6F"/>
<stop offset="1" stop-color="#E2FF6F" stop-opacity="0"/>
</linearGradient>
<linearGradient id="paint8_linear_937_1079" x1="211.74" y1="83.0866" x2="150.89" y2="256.527" gradientUnits="userSpaceOnUse">
<stop stop-color="#E2FF6F"/>
<stop offset="1" stop-color="#E2FF6F" stop-opacity="0"/>
</linearGradient>
<linearGradient id="paint9_linear_937_1079" x1="211.74" y1="83.0866" x2="150.89" y2="256.527" gradientUnits="userSpaceOnUse">
<stop stop-color="#E2FF6F"/>
<stop offset="1" stop-color="#E2FF6F" stop-opacity="0"/>
</linearGradient>
<linearGradient id="paint10_linear_937_1079" x1="211.74" y1="83.0866" x2="150.89" y2="256.527" gradientUnits="userSpaceOnUse">
<stop stop-color="#E2FF6F"/>
<stop offset="1" stop-color="#E2FF6F" stop-opacity="0"/>
</linearGradient>
<linearGradient id="paint11_linear_937_1079" x1="211.74" y1="83.0866" x2="150.89" y2="256.527" gradientUnits="userSpaceOnUse">
<stop stop-color="#E2FF6F"/>
<stop offset="1" stop-color="#E2FF6F" stop-opacity="0"/>
</linearGradient>
<linearGradient id="paint12_linear_937_1079" x1="211.74" y1="83.0866" x2="150.89" y2="256.527" gradientUnits="userSpaceOnUse">
<stop stop-color="#E2FF6F"/>
<stop offset="1" stop-color="#E2FF6F" stop-opacity="0"/>
</linearGradient>
<linearGradient id="paint13_linear_937_1079" x1="211.74" y1="83.0866" x2="150.89" y2="256.527" gradientUnits="userSpaceOnUse">
<stop stop-color="#E2FF6F"/>
<stop offset="1" stop-color="#E2FF6F" stop-opacity="0"/>
</linearGradient>
<linearGradient id="paint14_linear_937_1079" x1="211.74" y1="83.0866" x2="150.89" y2="256.527" gradientUnits="userSpaceOnUse">
<stop stop-color="#E2FF6F"/>
<stop offset="1" stop-color="#E2FF6F" stop-opacity="0"/>
</linearGradient>
<linearGradient id="paint15_linear_937_1079" x1="211.74" y1="83.0866" x2="150.89" y2="256.527" gradientUnits="userSpaceOnUse">
<stop stop-color="#E2FF6F"/>
<stop offset="1" stop-color="#E2FF6F" stop-opacity="0"/>
</linearGradient>
<linearGradient id="paint16_linear_937_1079" x1="211.74" y1="83.0866" x2="150.89" y2="256.527" gradientUnits="userSpaceOnUse">
<stop stop-color="#E2FF6F"/>
<stop offset="1" stop-color="#E2FF6F" stop-opacity="0"/>
</linearGradient>
<linearGradient id="paint17_linear_937_1079" x1="211.74" y1="83.0866" x2="150.89" y2="256.527" gradientUnits="userSpaceOnUse">
<stop stop-color="#E2FF6F"/>
<stop offset="1" stop-color="#E2FF6F" stop-opacity="0"/>
</linearGradient>
<linearGradient id="paint18_linear_937_1079" x1="211.74" y1="83.0866" x2="150.89" y2="256.527" gradientUnits="userSpaceOnUse">
<stop stop-color="#E2FF6F"/>
<stop offset="1" stop-color="#E2FF6F" stop-opacity="0"/>
</linearGradient>
<linearGradient id="paint19_linear_937_1079" x1="211.74" y1="83.0866" x2="150.89" y2="256.527" gradientUnits="userSpaceOnUse">
<stop stop-color="#E2FF6F"/>
<stop offset="1" stop-color="#E2FF6F" stop-opacity="0"/>
</linearGradient>
<linearGradient id="paint20_linear_937_1079" x1="211.74" y1="83.0866" x2="150.89" y2="256.527" gradientUnits="userSpaceOnUse">
<stop stop-color="#E2FF6F"/>
<stop offset="1" stop-color="#E2FF6F" stop-opacity="0"/>
</linearGradient>
<linearGradient id="paint21_linear_937_1079" x1="211.74" y1="83.0866" x2="150.89" y2="256.527" gradientUnits="userSpaceOnUse">
<stop stop-color="#E2FF6F"/>
<stop offset="1" stop-color="#E2FF6F" stop-opacity="0"/>
</linearGradient>
<clipPath id="clip0_937_1079">
<rect width="43" height="42" fill="white" transform="translate(46.824 66.7712)"/>
</clipPath>
<clipPath id="clip1_937_1079">
<rect width="115" height="27" fill="white" transform="translate(4.29736 206)"/>
</clipPath>
<clipPath id="clip2_937_1079">
<rect width="154" height="25" fill="white" transform="translate(143.979 74.355)"/>
</clipPath>
</defs>
</svg>
