<svg width="312" height="269" viewBox="0 0 312 269" fill="none" xmlns="http://www.w3.org/2000/svg">
<rect x="30.8506" y="38.0879" width="215" height="215" rx="20" fill="#333333"/>
<g opacity="0.1">
<path d="M176.646 184.7C180.382 186.557 181.801 191.109 179.359 193.708C174.335 199.056 153.653 196.414 152.68 192.789C151.721 189.218 168.85 180.823 176.646 184.7Z" stroke="url(#paint0_linear_1015_1581)" stroke-miterlimit="10"/>
<path d="M167.389 172.805C158.855 169.256 144.526 194.522 150.441 200.487C154.077 204.155 162.88 203.697 170.059 202.492C176.799 201.36 186.428 196.734 188.804 189.05C190.062 184.971 189.307 179.16 186.643 177.124C184.581 175.55 181.797 176.258 181.183 175.996C178.255 177.438 177.826 177.998 175.494 178.336C172.445 178.779 169.735 173.781 167.389 172.805Z" stroke="url(#paint1_linear_1015_1581)" stroke-miterlimit="10"/>
<path d="M158.73 160.378C148.819 162.257 138.049 199.161 148.8 207.654C155.647 213.063 167.584 210.674 175.904 207.815C183.547 205.188 196.273 196.422 198.848 183.86C200.345 176.561 198.526 166.293 193.315 163.322C189.161 160.956 183.809 162.991 182.867 163.147C177.297 166.705 176.846 168.515 172.699 169.733C167.208 171.344 162.872 159.589 158.73 160.378Z" stroke="url(#paint2_linear_1015_1581)" stroke-miterlimit="10"/>
<path d="M150.699 148.034C139.756 151.497 132.199 203.852 147.787 214.901C157.847 222.032 172.922 217.754 182.377 213.219C190.93 209.118 206.7 196.211 209.52 178.752C211.221 168.223 208.382 153.52 200.616 149.602C194.376 146.453 186.407 149.685 185.18 150.38C176.607 155.246 176.498 159.113 170.529 161.211C162.601 164.006 156.43 146.224 150.699 148.034Z" stroke="url(#paint3_linear_1015_1581)" stroke-miterlimit="10"/>
<path d="M143.151 136.251C131.033 141.247 126.853 209.051 147.257 222.712C160.544 231.528 178.749 225.408 189.331 219.188C198.806 213.62 217.598 196.573 220.678 174.205C222.571 160.455 218.724 141.313 208.403 136.441C200.073 132.512 189.549 137.12 187.978 138.171C176.927 145.565 176.641 150.288 168.853 153.252C158.485 157.231 150.405 133.261 143.151 136.251Z" stroke="url(#paint4_linear_1015_1581)" stroke-miterlimit="10"/>
<path d="M216.528 123.436C206.112 118.729 193.041 124.707 191.116 126.12C177.616 136.025 177.117 141.585 167.512 145.441C154.703 150.584 144.666 120.366 135.949 124.617C122.559 131.147 121.807 214.488 147.073 230.671C163.559 241.23 184.93 233.218 196.632 225.304C207.025 218.276 228.828 197.089 232.174 169.808C234.254 152.839 229.408 129.255 216.528 123.436Z" stroke="url(#paint5_linear_1015_1581)" stroke-miterlimit="10"/>
<path d="M103.811 114.849C107.914 114.808 112.835 106.361 109.155 104.951C107.03 104.135 101.403 105.425 99.1926 107.722C96.0798 110.952 100.988 114.878 103.811 114.849Z" stroke="url(#paint6_linear_1015_1581)" stroke-miterlimit="10"/>
<path d="M114.962 106.134C114.561 105 112.68 104.497 110.965 103.117C107.485 100.315 106.986 98.9839 104.514 97.2943C103.55 96.6342 102.253 95.7668 100.987 96.164C99.0479 96.7726 98.5641 99.4068 96.1033 104.046C92.9127 110.074 91.7045 111.633 92.6161 114.828C92.8286 115.57 93.1035 117.976 94.64 119.443C96.768 121.472 99.2623 119.905 102.381 121.248C106.126 122.858 107.982 125.724 109.607 124.457C110.752 123.565 110.795 121.122 111.652 116.868C112.305 113.627 112.716 111.501 113.51 109.766C114.462 107.701 115.409 107.394 114.962 106.134Z" stroke="url(#paint7_linear_1015_1581)" stroke-miterlimit="10"/>
<path d="M121.234 108.497C121.164 106.487 118.505 105.515 116.314 102.611C111.82 96.6546 113.902 92.3984 110.3 88.0468C108.772 86.1994 106.373 84.4101 103.97 84.7568C100.558 85.2495 99.4124 89.4326 94.1607 97.9137C87.2947 109.002 84.37 111.174 85.0112 117.083C85.1423 118.287 85.2698 122.911 87.9531 125.695C91.5317 129.407 95.8211 126.03 101.424 128.82C107.684 131.932 110.023 138.588 112.134 137.21C113.6 136.254 113.039 132.403 114.165 124.891C114.963 119.552 115.456 116.431 117.05 113.875C119.063 110.652 121.309 110.679 121.234 108.497Z" stroke="url(#paint8_linear_1015_1581)" stroke-miterlimit="10"/>
<path d="M127.512 110.833C127.783 107.953 124.34 106.505 121.67 102.079C116.171 92.9652 120.912 85.842 116.093 78.7725C114.03 75.7476 110.492 73.0415 106.958 73.3238C102.061 73.7145 100.252 79.4144 92.2172 91.7555C81.6542 107.88 77.1052 110.72 77.4036 119.312C77.4624 120.988 77.4353 127.819 81.2635 131.924C86.2936 137.316 92.3872 132.122 100.463 136.368C109.245 140.984 112.059 151.425 114.662 149.941C116.448 148.915 115.304 143.66 116.68 132.89C117.629 125.452 118.202 121.353 120.593 117.961C123.675 113.59 127.222 113.936 127.512 110.833Z" stroke="url(#paint9_linear_1015_1581)" stroke-miterlimit="10"/>
<path d="M133.805 113.164C134.413 109.416 130.196 107.487 127.04 101.541C120.548 89.2651 127.958 79.3027 121.899 69.4927C119.309 65.2957 114.622 61.6718 109.961 61.8843C103.574 62.1763 101.13 69.4122 90.2918 85.5919C76.0651 106.781 69.8738 110.281 69.8186 121.536C69.8078 123.683 69.6287 132.715 74.5973 138.146C81.0853 145.212 88.9714 138.206 99.5263 143.911C110.831 150.023 114.12 164.26 117.204 162.667C119.311 161.574 117.584 154.91 119.208 140.884C120.312 131.346 120.961 126.273 124.149 122.041C128.303 116.528 133.15 117.193 133.805 113.164Z" stroke="url(#paint10_linear_1015_1581)" stroke-miterlimit="10"/>
<path d="M140.109 115.493C139.09 120.452 132.946 119.465 127.719 126.12C123.734 131.194 123.009 137.238 121.75 148.876C119.881 166.158 122.189 174.232 119.761 175.39C116.191 177.093 112.428 159.06 98.5984 151.453C85.5701 144.286 75.8752 153.121 67.9403 144.368C61.8231 137.619 62.1632 126.387 62.2427 123.758C62.6642 109.843 70.4879 105.68 88.3791 79.4262C102.022 59.408 105.098 50.6381 112.978 50.4438C118.766 50.3011 124.604 54.8449 127.719 60.212C135.015 72.771 124.922 85.5779 132.422 101.002C136.057 108.476 141.058 110.88 140.109 115.493Z" stroke="url(#paint11_linear_1015_1581)" stroke-miterlimit="10"/>
<path d="M87.9676 195.313C89.0384 194.668 91.2866 195.909 91.4856 197.843C91.7108 200.036 89.1668 201.85 88.049 201.286C86.7268 200.618 86.5468 196.165 87.9676 195.313Z" stroke="url(#paint12_linear_1015_1581)" stroke-miterlimit="10"/>
<path d="M84.9506 206.964C83.1256 204.939 82.3279 201.222 81.4154 194.85C80.511 188.532 80.653 184.008 81.448 183.68C81.8812 183.503 83.1084 184.889 84.1611 185.904C86.1317 187.8 89.505 187.589 90.3696 187.794C93.5349 188.546 94.4646 189.941 95.7877 192.614C96.3999 193.848 97.8279 196.586 98.4565 199.806C99.4151 204.682 103.712 206.185 103.188 208.14C102.748 209.771 98.4908 210.168 95.7307 210.214C91.775 210.28 87.7722 210.092 84.9506 206.964Z" stroke="url(#paint13_linear_1015_1581)" stroke-miterlimit="10"/>
<path d="M81.7871 212.41C78.7873 208.79 77.6071 202.716 75.7893 191.356C73.9426 179.941 73.9544 172.112 74.8642 171.82C75.547 171.596 77.7581 174.418 79.6374 176.435C83.1798 180.253 89.5213 179.626 90.8281 179.87C96.7879 180.963 98.2566 183.581 100.566 188.53C101.529 190.591 104.168 195.614 105.371 201.547C107.223 210.636 115.999 213.015 115.273 216.385C114.666 219.191 106.527 219.621 101.406 219.39C94.1743 219.057 86.8561 218.528 81.7871 212.41Z" stroke="url(#paint14_linear_1015_1581)" stroke-miterlimit="10"/>
<path d="M78.6408 217.82C74.4635 212.607 72.9143 204.171 70.1813 187.826C67.4058 171.312 67.2765 160.195 68.2984 159.918C69.2344 159.66 72.4278 163.911 75.1282 166.935C80.2334 172.685 89.5511 171.628 91.3011 171.904C100.054 173.291 102.069 177.17 105.36 184.404C106.673 187.291 110.523 194.602 112.301 203.244C115.043 216.546 128.301 219.8 127.374 224.586C126.6 228.566 114.576 229.048 107.095 228.521C96.5899 227.818 85.9454 226.935 78.6408 217.82Z" stroke="url(#paint15_linear_1015_1581)" stroke-miterlimit="10"/>
<path d="M75.5044 223.227C70.1469 216.421 68.2306 205.623 64.5824 184.293C60.8744 162.681 60.6031 148.278 61.7408 148.011C62.931 147.729 67.1083 153.391 70.6281 157.424C77.3059 165.094 89.5891 163.618 91.7822 163.934C103.327 165.597 105.906 170.745 110.162 180.274C111.831 183.984 116.886 193.584 119.239 204.937C122.873 222.451 140.612 226.581 139.481 232.782C138.542 237.935 122.634 238.449 112.793 237.648C99.0181 236.546 85.041 235.342 75.5044 223.227Z" stroke="url(#paint16_linear_1015_1581)" stroke-miterlimit="10"/>
<path d="M92.2679 155.961C106.605 157.893 109.722 164.334 114.968 176.141C116.984 180.681 123.253 192.565 126.182 206.626C130.704 228.355 152.927 233.36 151.595 240.976C150.488 247.309 130.696 247.846 118.495 246.772C101.445 245.269 84.1385 243.747 72.3717 228.631C65.834 220.232 63.5513 207.074 58.987 180.757C54.3539 154.046 53.9406 136.362 55.1886 136.103C56.6356 135.802 61.7905 142.865 66.1315 147.91C74.383 157.498 89.6307 155.606 92.2679 155.961Z" stroke="url(#paint17_linear_1015_1581)" stroke-miterlimit="10"/>
<path d="M208.841 104.329C207.213 111.736 195.529 108.257 181.62 124.939C176.636 130.917 173.294 137.17 166.698 138.142C166.032 138.24 159.424 139.098 154.76 134.063C148.892 127.73 152.474 118.944 145.626 106.691C143.103 102.177 142.684 103.488 140.833 99.9285C132.932 84.7342 144.982 69.3092 138.029 53.8788C134.828 46.776 130.071 45.1454 130.523 44.218C132.474 40.2388 213.24 84.3714 208.841 104.329Z" stroke="url(#paint18_linear_1015_1581)" stroke-miterlimit="10"/>
<path d="M164.889 128.017C164.489 127.952 160.132 128.339 157.143 124.779C153.364 120.285 156.058 114.097 151.728 105.742C150.134 102.666 149.912 103.5 148.778 101.066C143.94 90.682 152.624 80.2355 148.371 70.0702C146.404 65.3644 143.297 64.2856 143.759 63.8262C145.849 61.7308 199.159 92.685 194.972 106.154C193.402 111.206 184.831 109.413 175.024 120.293C171.458 124.247 169.044 128.685 164.889 128.017Z" stroke="url(#paint19_linear_1015_1581)" stroke-miterlimit="10"/>
<path d="M163.08 117.89C162.966 117.55 160.835 117.557 159.526 115.495C157.826 112.82 159.636 109.256 157.829 104.794C157.166 103.156 157.139 103.506 156.723 102.204C154.937 96.6041 160.273 91.1683 158.713 86.2606C157.983 83.9506 156.627 83.5567 156.988 83.4332C159.633 83.8787 185.024 101.029 181.107 107.979C179.578 110.695 174.104 110.565 168.433 115.648C166.278 117.58 164.867 118.995 163.08 117.89Z" stroke="url(#paint20_linear_1015_1581)" stroke-miterlimit="10"/>
<path d="M161.271 107.764C162.675 102.896 168.201 101.241 170.225 103.041C173.209 105.699 170.663 109.16 167.24 109.804C164.682 110.282 159.665 113.335 161.271 107.764Z" stroke="url(#paint21_linear_1015_1581)" stroke-miterlimit="10"/>
</g>
<g clip-path="url(#clip0_1015_1581)" filter="url(#filter0_d_1015_1581)">
<g filter="url(#filter1_d_1015_1581)">
<path d="M47.0208 82.0549C64.0678 82.0549 77.8871 68.624 77.8871 52.0561C77.8871 35.4883 64.0678 22.0574 47.0208 22.0574C29.9738 22.0574 16.1545 35.4883 16.1545 52.0561C16.1545 68.624 29.9738 82.0549 47.0208 82.0549Z" fill="#50E281" stroke="#231F20" stroke-miterlimit="10"/>
<path d="M47.0205 76.0158C60.6356 76.0158 71.6728 65.2888 71.6728 52.0563C71.6728 38.8239 60.6356 28.0969 47.0205 28.0969C33.4054 28.0969 22.3682 38.8239 22.3682 52.0563C22.3682 65.2888 33.4054 76.0158 47.0205 76.0158Z" fill="#EBFF25" stroke="#231F20" stroke-miterlimit="10"/>
<path d="M42.114 9.2085H50.8457V14.9562H48.7458L48.8315 21.485H44.6532V15.3415H42.114V9.2085Z" fill="black" stroke="black" stroke-miterlimit="10"/>
<path d="M62.7593 25.952L66.5734 19.2566L71.6731 24.5462L65.9091 28.451" fill="black"/>
<path d="M62.7593 25.952L66.5734 19.2566L71.6731 24.5462L65.9091 28.451" stroke="black" stroke-miterlimit="10"/>
<path d="M31.3145 25.7229L27.5111 19.0276L22.4006 24.3172L28.1646 28.222" fill="black"/>
<path d="M31.3145 25.7229L27.5111 19.0276L22.4006 24.3172L28.1646 28.222" stroke="black" stroke-miterlimit="10"/>
<line x1="46.9797" y1="28.2219" x2="46.9797" y2="33.4282" stroke="black"/>
<line x1="71.6729" y1="51.4048" x2="66.316" y2="51.4048" stroke="black"/>
<line x1="27.7576" y1="51.4048" x2="22.4007" y2="51.4048" stroke="black"/>
<line x1="47.3032" y1="76.0168" x2="47.3032" y2="71.5507" stroke="black"/>
</g>
<circle cx="47.0208" cy="52.0562" r="2.51154" fill="black"/>
<line x1="39.8231" y1="49.311" x2="45.1297" y2="51.8652" stroke="black" stroke-linecap="round"/>
<line x1="57.4741" y1="35.734" x2="48.4812" y2="52.3313" stroke="black" stroke-linecap="round"/>
</g>
<g filter="url(#filter2_d_1015_1581)">
<path d="M78.78 56.5894H64.3218L53.2859 71.9511H61.541C62.5493 72.1034 62.8076 72.441 62.417 73.7336L54.5836 93.6184L80.4793 67.7362H72.7736C72.1435 67.7362 71.6302 67.5337 72.1435 66.3665L78.78 56.5894Z" fill="#2AB763"/>
<path d="M78.78 56.5894H64.3218L53.2859 71.9511H61.541C62.5493 72.1034 62.8076 72.441 62.417 73.7336L54.5836 93.6184L80.4793 67.7362H72.7736C72.1435 67.7362 71.6302 67.5337 72.1435 66.3665L78.78 56.5894Z" stroke="black"/>
</g>
<g filter="url(#filter3_d_1015_1581)">
<rect x="7.27271" y="184.721" width="100" height="23" rx="11.5" fill="#EBFF25"/>
<path d="M28.2427 198.291V192.946H27.1377V192.071C27.3644 192.071 27.5677 192.047 27.7477 192.001C27.9277 191.951 28.081 191.869 28.2077 191.756C28.3377 191.642 28.436 191.487 28.5027 191.291H29.3977V198.291H28.2427ZM33.939 198.411C33.4523 198.411 33.0456 198.306 32.719 198.096C32.3923 197.882 32.134 197.601 31.944 197.251C31.754 196.897 31.6173 196.507 31.534 196.081C31.454 195.651 31.414 195.221 31.414 194.791C31.414 194.461 31.4373 194.126 31.484 193.786C31.534 193.442 31.6156 193.116 31.729 192.806C31.8423 192.492 31.9956 192.214 32.189 191.971C32.3823 191.724 32.6223 191.529 32.909 191.386C33.199 191.242 33.5423 191.171 33.939 191.171C34.429 191.171 34.8356 191.276 35.159 191.486C35.4856 191.696 35.744 191.977 35.934 192.331C36.1273 192.681 36.264 193.069 36.344 193.496C36.4273 193.922 36.469 194.354 36.469 194.791C36.469 195.117 36.444 195.452 36.394 195.796C36.344 196.136 36.2606 196.462 36.144 196.776C36.0306 197.086 35.8773 197.364 35.684 197.611C35.4906 197.857 35.2506 198.052 34.964 198.196C34.6773 198.339 34.3356 198.411 33.939 198.411ZM33.939 197.321C34.209 197.321 34.4323 197.247 34.609 197.101C34.7856 196.951 34.9223 196.752 35.019 196.506C35.119 196.259 35.189 195.987 35.229 195.691C35.269 195.391 35.289 195.091 35.289 194.791C35.289 194.477 35.2673 194.171 35.224 193.871C35.184 193.567 35.114 193.294 35.014 193.051C34.914 192.807 34.7756 192.614 34.599 192.471C34.4256 192.324 34.2056 192.251 33.939 192.251C33.669 192.251 33.444 192.326 33.264 192.476C33.0873 192.626 32.949 192.824 32.849 193.071C32.749 193.317 32.6773 193.591 32.634 193.891C32.594 194.191 32.574 194.491 32.574 194.791C32.574 195.104 32.5956 195.412 32.639 195.716C32.6823 196.016 32.754 196.287 32.854 196.531C32.9573 196.771 33.0973 196.962 33.274 197.106C33.4506 197.249 33.6723 197.321 33.939 197.321ZM37.5324 198.291L39.3424 195.641L37.6574 193.181H38.9374L39.6824 194.271C39.7391 194.347 39.7941 194.429 39.8474 194.516C39.9041 194.602 39.9491 194.682 39.9824 194.756C40.0257 194.679 40.0741 194.599 40.1274 194.516C40.1807 194.429 40.2341 194.347 40.2874 194.271L41.0324 193.181H42.3174L40.6274 195.641L42.4424 198.291H41.1574L40.2824 197.011C40.2291 196.931 40.1757 196.849 40.1224 196.766C40.0724 196.679 40.0257 196.599 39.9824 196.526C39.9491 196.599 39.9041 196.679 39.8474 196.766C39.7907 196.849 39.7357 196.931 39.6824 197.011L38.8124 198.291H37.5324ZM46.1 198.291V191.291H47.255V197.176H50.66V198.291H46.1ZM53.7195 198.411C53.2362 198.411 52.8195 198.299 52.4695 198.076C52.1195 197.852 51.8512 197.541 51.6645 197.141C51.4778 196.737 51.3845 196.267 51.3845 195.731C51.3845 195.174 51.4812 194.697 51.6745 194.301C51.8678 193.901 52.1395 193.594 52.4895 193.381C52.8395 193.167 53.2495 193.061 53.7195 193.061C54.1228 193.061 54.4895 193.147 54.8195 193.321C55.1528 193.494 55.4178 193.761 55.6145 194.121C55.8112 194.477 55.9095 194.932 55.9095 195.486C55.9095 195.572 55.9078 195.676 55.9045 195.796C55.9012 195.912 55.8912 196.031 55.8745 196.151H52.4995C52.5195 196.411 52.5812 196.637 52.6845 196.831C52.7912 197.024 52.9328 197.176 53.1095 197.286C53.2862 197.392 53.4945 197.446 53.7345 197.446C53.9678 197.446 54.1745 197.407 54.3545 197.331C54.5345 197.251 54.7062 197.124 54.8695 196.951L55.5195 197.636C55.3095 197.866 55.0528 198.052 54.7495 198.196C54.4495 198.339 54.1062 198.411 53.7195 198.411ZM52.5045 195.246H54.8095C54.7995 195.002 54.7495 194.789 54.6595 194.606C54.5728 194.422 54.4495 194.281 54.2895 194.181C54.1295 194.077 53.9345 194.026 53.7045 194.026C53.3845 194.026 53.1112 194.126 52.8845 194.326C52.6612 194.526 52.5345 194.832 52.5045 195.246ZM58.3518 198.291L56.4818 193.181H57.6368L58.7568 196.341C58.7834 196.417 58.8101 196.497 58.8368 196.581C58.8634 196.664 58.8868 196.749 58.9068 196.836C58.9301 196.749 58.9534 196.666 58.9768 196.586C59.0034 196.502 59.0318 196.421 59.0618 196.341L60.1668 193.181H61.3168L59.4468 198.291H58.3518ZM64.3738 198.411C63.8905 198.411 63.4738 198.299 63.1238 198.076C62.7738 197.852 62.5055 197.541 62.3188 197.141C62.1321 196.737 62.0388 196.267 62.0388 195.731C62.0388 195.174 62.1355 194.697 62.3288 194.301C62.5221 193.901 62.7938 193.594 63.1438 193.381C63.4938 193.167 63.9038 193.061 64.3738 193.061C64.7771 193.061 65.1438 193.147 65.4738 193.321C65.8071 193.494 66.0721 193.761 66.2688 194.121C66.4655 194.477 66.5638 194.932 66.5638 195.486C66.5638 195.572 66.5621 195.676 66.5588 195.796C66.5555 195.912 66.5455 196.031 66.5288 196.151H63.1538C63.1738 196.411 63.2355 196.637 63.3388 196.831C63.4455 197.024 63.5871 197.176 63.7638 197.286C63.9405 197.392 64.1488 197.446 64.3888 197.446C64.6221 197.446 64.8288 197.407 65.0088 197.331C65.1888 197.251 65.3605 197.124 65.5238 196.951L66.1738 197.636C65.9638 197.866 65.7071 198.052 65.4038 198.196C65.1038 198.339 64.7605 198.411 64.3738 198.411ZM63.1588 195.246H65.4638C65.4538 195.002 65.4038 194.789 65.3138 194.606C65.2271 194.422 65.1038 194.281 64.9438 194.181C64.7838 194.077 64.5888 194.026 64.3588 194.026C64.0388 194.026 63.7655 194.126 63.5388 194.326C63.3155 194.526 63.1888 194.832 63.1588 195.246ZM67.8754 198.291V193.181H68.9954V193.771C69.0954 193.551 69.2454 193.377 69.4454 193.251C69.6488 193.124 69.8721 193.061 70.1154 193.061C70.4588 193.061 70.7488 193.172 70.9854 193.396L70.8304 194.431C70.7038 194.331 70.5771 194.259 70.4504 194.216C70.3238 194.172 70.1838 194.151 70.0304 194.151C69.8171 194.151 69.6338 194.204 69.4804 194.311C69.3271 194.417 69.2071 194.569 69.1204 194.766C69.0371 194.962 68.9954 195.196 68.9954 195.466V198.291H67.8754ZM73.311 198.411C72.751 198.411 72.311 198.259 71.991 197.956C71.671 197.652 71.511 197.241 71.511 196.721C71.511 196.381 71.5927 196.086 71.756 195.836C71.9193 195.582 72.1493 195.387 72.446 195.251C72.7427 195.111 73.0893 195.041 73.486 195.041C73.7193 195.041 73.941 195.064 74.151 195.111C74.3643 195.154 74.5543 195.221 74.721 195.311V194.981C74.721 194.654 74.6377 194.412 74.471 194.256C74.3043 194.096 74.0527 194.016 73.716 194.016C73.4693 194.016 73.2143 194.061 72.951 194.151C72.6877 194.241 72.4293 194.371 72.176 194.541L71.841 193.646C72.121 193.459 72.436 193.316 72.786 193.216C73.136 193.112 73.4877 193.061 73.841 193.061C74.4977 193.061 74.9893 193.221 75.316 193.541C75.646 193.857 75.811 194.334 75.811 194.971V198.291H74.721V197.861C74.541 198.037 74.3293 198.174 74.086 198.271C73.8427 198.364 73.5843 198.411 73.311 198.411ZM73.541 197.456C73.7577 197.456 73.9677 197.409 74.171 197.316C74.3777 197.222 74.561 197.089 74.721 196.916V196.221C74.571 196.137 74.401 196.074 74.211 196.031C74.0243 195.984 73.841 195.961 73.661 195.961C73.3277 195.961 73.066 196.029 72.876 196.166C72.686 196.299 72.591 196.484 72.591 196.721C72.591 196.947 72.6743 197.127 72.841 197.261C73.0077 197.391 73.241 197.456 73.541 197.456ZM79.0829 200.421L78.4829 199.496C78.9595 199.466 79.3345 199.409 79.6079 199.326C79.8845 199.242 80.0795 199.126 80.1929 198.976C80.3095 198.829 80.3679 198.637 80.3679 198.401V197.921C80.0945 198.247 79.7045 198.411 79.1979 198.411C78.7612 198.411 78.3845 198.302 78.0679 198.086C77.7512 197.866 77.5062 197.556 77.3329 197.156C77.1629 196.756 77.0779 196.281 77.0779 195.731C77.0779 195.191 77.1662 194.721 77.3429 194.321C77.5195 193.921 77.7679 193.611 78.0879 193.391C78.4079 193.171 78.7845 193.061 79.2179 193.061C79.4545 193.061 79.6712 193.101 79.8679 193.181C80.0679 193.257 80.2345 193.367 80.3679 193.511V193.181H81.4929V197.941C81.4929 198.361 81.4479 198.721 81.3579 199.021C81.2712 199.324 81.1312 199.572 80.9379 199.766C80.7479 199.962 80.4995 200.112 80.1929 200.216C79.8862 200.319 79.5162 200.387 79.0829 200.421ZM79.3929 197.346C79.5829 197.346 79.7645 197.297 79.9379 197.201C80.1112 197.101 80.2545 196.967 80.3679 196.801V194.651C80.2679 194.494 80.1279 194.367 79.9479 194.271C79.7679 194.171 79.5879 194.121 79.4079 194.121C79.0179 194.121 78.7195 194.259 78.5129 194.536C78.3062 194.809 78.2029 195.207 78.2029 195.731C78.2029 196.067 78.2512 196.356 78.3479 196.596C78.4445 196.836 78.5812 197.021 78.7579 197.151C78.9345 197.281 79.1462 197.346 79.3929 197.346ZM85.0574 198.411C84.5741 198.411 84.1574 198.299 83.8074 198.076C83.4574 197.852 83.1891 197.541 83.0024 197.141C82.8157 196.737 82.7224 196.267 82.7224 195.731C82.7224 195.174 82.8191 194.697 83.0124 194.301C83.2057 193.901 83.4774 193.594 83.8274 193.381C84.1774 193.167 84.5874 193.061 85.0574 193.061C85.4607 193.061 85.8274 193.147 86.1574 193.321C86.4907 193.494 86.7557 193.761 86.9524 194.121C87.1491 194.477 87.2474 194.932 87.2474 195.486C87.2474 195.572 87.2457 195.676 87.2424 195.796C87.2391 195.912 87.2291 196.031 87.2124 196.151H83.8374C83.8574 196.411 83.9191 196.637 84.0224 196.831C84.1291 197.024 84.2707 197.176 84.4474 197.286C84.6241 197.392 84.8324 197.446 85.0724 197.446C85.3057 197.446 85.5124 197.407 85.6924 197.331C85.8724 197.251 86.0441 197.124 86.2074 196.951L86.8574 197.636C86.6474 197.866 86.3907 198.052 86.0874 198.196C85.7874 198.339 85.4441 198.411 85.0574 198.411ZM83.8424 195.246H86.1474C86.1374 195.002 86.0874 194.789 85.9974 194.606C85.9107 194.422 85.7874 194.281 85.6274 194.181C85.4674 194.077 85.2724 194.026 85.0424 194.026C84.7224 194.026 84.4491 194.126 84.2224 194.326C83.9991 194.526 83.8724 194.832 83.8424 195.246Z" fill="black"/>
</g>
<g filter="url(#filter4_bd_1015_1581)">
<path d="M297.177 93.3989H153.169C147.349 93.3989 142.632 98.6142 142.632 105.048C142.632 111.481 147.349 116.696 153.169 116.696H297.177C302.996 116.696 307.714 111.481 307.714 105.048C307.714 98.6142 302.996 93.3989 297.177 93.3989Z" fill="#EBFF25"/>
</g>
<path d="M156.053 108.048V101.048H157.208V104.428L159.888 101.048H161.238L159.238 103.518L161.723 108.048H160.378L158.458 104.488L157.208 106.038V108.048H156.053ZM164.349 108.048V105.308L161.844 101.048H163.144L164.919 104.128L166.699 101.048H167.989L165.494 105.298V108.048H164.349ZM171.227 108.158C170.687 108.158 170.23 108.054 169.857 107.848C169.484 107.641 169.182 107.364 168.952 107.018C168.725 106.668 168.56 106.279 168.457 105.853C168.354 105.423 168.302 104.988 168.302 104.548C168.302 104.124 168.355 103.699 168.462 103.273C168.569 102.846 168.737 102.456 168.967 102.103C169.197 101.749 169.499 101.466 169.872 101.253C170.245 101.036 170.697 100.928 171.227 100.928C171.664 100.928 172.04 100.998 172.357 101.138C172.674 101.278 172.935 101.458 173.142 101.678C173.352 101.898 173.51 102.129 173.617 102.373L172.587 102.863C172.474 102.696 172.355 102.549 172.232 102.423C172.109 102.296 171.965 102.198 171.802 102.128C171.642 102.058 171.45 102.023 171.227 102.023C170.904 102.023 170.63 102.099 170.407 102.253C170.184 102.406 170.005 102.608 169.872 102.858C169.742 103.108 169.647 103.381 169.587 103.678C169.527 103.971 169.497 104.261 169.497 104.548C169.497 104.851 169.53 105.153 169.597 105.453C169.664 105.749 169.767 106.019 169.907 106.263C170.047 106.503 170.225 106.696 170.442 106.843C170.662 106.986 170.924 107.058 171.227 107.058C171.554 107.058 171.824 106.976 172.037 106.813C172.254 106.646 172.442 106.431 172.602 106.168L173.657 106.563C173.517 106.866 173.337 107.138 173.117 107.378C172.897 107.618 172.63 107.808 172.317 107.948C172.007 108.088 171.644 108.158 171.227 108.158ZM178.734 108.048L176.864 102.938H178.019L179.139 106.098C179.166 106.174 179.193 106.254 179.219 106.338C179.246 106.421 179.269 106.506 179.289 106.593C179.313 106.506 179.336 106.423 179.359 106.343C179.386 106.259 179.414 106.178 179.444 106.098L180.549 102.938H181.699L179.829 108.048H178.734ZM184.756 108.168C184.273 108.168 183.856 108.056 183.506 107.833C183.156 107.609 182.888 107.298 182.701 106.898C182.515 106.494 182.421 106.024 182.421 105.488C182.421 104.931 182.518 104.454 182.711 104.058C182.905 103.658 183.176 103.351 183.526 103.138C183.876 102.924 184.286 102.818 184.756 102.818C185.16 102.818 185.526 102.904 185.856 103.078C186.19 103.251 186.455 103.518 186.651 103.878C186.848 104.234 186.946 104.689 186.946 105.243C186.946 105.329 186.945 105.433 186.941 105.553C186.938 105.669 186.928 105.788 186.911 105.908H183.536C183.556 106.168 183.618 106.394 183.721 106.588C183.828 106.781 183.97 106.933 184.146 107.043C184.323 107.149 184.531 107.203 184.771 107.203C185.005 107.203 185.211 107.164 185.391 107.088C185.571 107.008 185.743 106.881 185.906 106.708L186.556 107.393C186.346 107.623 186.09 107.809 185.786 107.953C185.486 108.096 185.143 108.168 184.756 108.168ZM183.541 105.003H185.846C185.836 104.759 185.786 104.546 185.696 104.363C185.61 104.179 185.486 104.038 185.326 103.938C185.166 103.834 184.971 103.783 184.741 103.783C184.421 103.783 184.148 103.883 183.921 104.083C183.698 104.283 183.571 104.589 183.541 105.003ZM188.258 108.048V102.938H189.378V103.528C189.478 103.308 189.628 103.134 189.828 103.008C190.031 102.881 190.255 102.818 190.498 102.818C190.841 102.818 191.131 102.929 191.368 103.153L191.213 104.188C191.086 104.088 190.96 104.016 190.833 103.973C190.706 103.929 190.566 103.908 190.413 103.908C190.2 103.908 190.016 103.961 189.863 104.068C189.71 104.174 189.59 104.326 189.503 104.523C189.42 104.719 189.378 104.953 189.378 105.223V108.048H188.258ZM192.291 108.048V102.938H193.411V108.048H192.291ZM192.846 102.198C192.663 102.198 192.506 102.133 192.376 102.003C192.246 101.873 192.181 101.716 192.181 101.533C192.181 101.346 192.245 101.188 192.371 101.058C192.501 100.924 192.66 100.858 192.846 100.858C193.04 100.858 193.2 100.923 193.326 101.053C193.456 101.183 193.521 101.343 193.521 101.533C193.521 101.719 193.456 101.878 193.326 102.008C193.196 102.134 193.036 102.198 192.846 102.198ZM195.296 108.048V103.923H194.556V102.938H195.296V102.128C195.296 101.741 195.399 101.444 195.606 101.238C195.812 101.031 196.109 100.928 196.496 100.928C196.699 100.928 196.886 100.948 197.056 100.988C197.229 101.028 197.396 101.091 197.556 101.178V102.098C197.416 102.038 197.286 101.993 197.166 101.963C197.049 101.933 196.936 101.918 196.826 101.918C196.686 101.918 196.582 101.951 196.516 102.018C196.449 102.084 196.416 102.193 196.416 102.343V102.938H197.556V103.923H196.416V108.048H195.296ZM198.541 108.048V102.938H199.661V108.048H198.541ZM199.096 102.198C198.913 102.198 198.756 102.133 198.626 102.003C198.496 101.873 198.431 101.716 198.431 101.533C198.431 101.346 198.495 101.188 198.621 101.058C198.751 100.924 198.91 100.858 199.096 100.858C199.29 100.858 199.45 100.923 199.576 101.053C199.706 101.183 199.771 101.343 199.771 101.533C199.771 101.719 199.706 101.878 199.576 102.008C199.446 102.134 199.286 102.198 199.096 102.198ZM203.221 108.168C202.757 108.168 202.359 108.061 202.026 107.848C201.692 107.631 201.436 107.323 201.256 106.923C201.076 106.523 200.986 106.048 200.986 105.498C200.986 104.948 201.077 104.473 201.261 104.073C201.444 103.669 201.704 103.359 202.041 103.143C202.377 102.926 202.779 102.818 203.246 102.818C203.742 102.818 204.159 102.934 204.496 103.168C204.832 103.398 205.077 103.736 205.231 104.183L204.166 104.553C204.082 104.336 203.962 104.169 203.806 104.053C203.652 103.936 203.469 103.878 203.256 103.878C202.902 103.878 202.626 104.021 202.426 104.308C202.226 104.594 202.126 104.991 202.126 105.498C202.126 105.998 202.224 106.389 202.421 106.673C202.617 106.956 202.887 107.098 203.231 107.098C203.464 107.098 203.664 107.034 203.831 106.908C203.997 106.778 204.119 106.593 204.196 106.353L205.256 106.678C205.112 107.164 204.866 107.534 204.516 107.788C204.169 108.041 203.737 108.168 203.221 108.168ZM207.971 108.168C207.411 108.168 206.971 108.016 206.651 107.713C206.331 107.409 206.171 106.998 206.171 106.478C206.171 106.138 206.253 105.843 206.416 105.593C206.579 105.339 206.809 105.144 207.106 105.008C207.403 104.868 207.749 104.798 208.146 104.798C208.379 104.798 208.601 104.821 208.811 104.868C209.024 104.911 209.214 104.978 209.381 105.068V104.738C209.381 104.411 209.298 104.169 209.131 104.013C208.964 103.853 208.713 103.773 208.376 103.773C208.129 103.773 207.874 103.818 207.611 103.908C207.348 103.998 207.089 104.128 206.836 104.298L206.501 103.403C206.781 103.216 207.096 103.073 207.446 102.973C207.796 102.869 208.148 102.818 208.501 102.818C209.158 102.818 209.649 102.978 209.976 103.298C210.306 103.614 210.471 104.091 210.471 104.728V108.048H209.381V107.618C209.201 107.794 208.989 107.931 208.746 108.028C208.503 108.121 208.244 108.168 207.971 108.168ZM208.201 107.213C208.418 107.213 208.628 107.166 208.831 107.073C209.038 106.979 209.221 106.846 209.381 106.673V105.978C209.231 105.894 209.061 105.831 208.871 105.788C208.684 105.741 208.501 105.718 208.321 105.718C207.988 105.718 207.726 105.786 207.536 105.923C207.346 106.056 207.251 106.241 207.251 106.478C207.251 106.704 207.334 106.884 207.501 107.018C207.668 107.148 207.901 107.213 208.201 107.213ZM213.253 108.168C212.866 108.168 212.575 108.058 212.378 107.838C212.181 107.618 212.083 107.296 212.083 106.873V103.923H211.308V102.938H212.083V101.363L213.203 100.828V102.938H214.393V103.923H213.203V106.628C213.203 106.811 213.238 106.948 213.308 107.038C213.381 107.124 213.493 107.168 213.643 107.168C213.886 107.168 214.151 107.088 214.438 106.928L214.313 107.938C214.156 108.014 213.991 108.071 213.818 108.108C213.645 108.148 213.456 108.168 213.253 108.168ZM215.485 108.048V102.938H216.605V108.048H215.485ZM216.04 102.198C215.856 102.198 215.7 102.133 215.57 102.003C215.44 101.873 215.375 101.716 215.375 101.533C215.375 101.346 215.438 101.188 215.565 101.058C215.695 100.924 215.853 100.858 216.04 100.858C216.233 100.858 216.393 100.923 216.52 101.053C216.65 101.183 216.715 101.343 216.715 101.533C216.715 101.719 216.65 101.878 216.52 102.008C216.39 102.134 216.23 102.198 216.04 102.198ZM220.229 108.168C219.516 108.168 218.954 107.929 218.544 107.453C218.134 106.976 217.929 106.324 217.929 105.498C217.929 104.948 218.023 104.473 218.209 104.073C218.396 103.673 218.661 103.364 219.004 103.148C219.351 102.928 219.759 102.818 220.229 102.818C220.703 102.818 221.111 102.926 221.454 103.143C221.798 103.359 222.063 103.668 222.249 104.068C222.436 104.468 222.529 104.943 222.529 105.493C222.529 106.043 222.436 106.518 222.249 106.918C222.063 107.318 221.798 107.626 221.454 107.843C221.111 108.059 220.703 108.168 220.229 108.168ZM220.229 107.103C220.599 107.103 220.888 106.961 221.094 106.678C221.301 106.394 221.404 105.999 221.404 105.493C221.404 104.983 221.299 104.586 221.089 104.303C220.883 104.019 220.596 103.878 220.229 103.878C219.863 103.878 219.574 104.021 219.364 104.308C219.158 104.591 219.054 104.988 219.054 105.498C219.054 106.001 219.158 106.394 219.364 106.678C219.574 106.961 219.863 107.103 220.229 107.103ZM223.766 108.048V102.938H224.886V103.438C225.046 103.228 225.237 103.073 225.461 102.973C225.687 102.869 225.946 102.818 226.236 102.818C226.826 102.818 227.274 102.998 227.581 103.358C227.887 103.718 228.041 104.246 228.041 104.943V108.048H226.916V105.148C226.916 104.721 226.834 104.403 226.671 104.193C226.511 103.983 226.267 103.878 225.941 103.878C225.587 103.878 225.322 103.981 225.146 104.188C224.972 104.394 224.886 104.708 224.886 105.128V108.048H223.766ZM232.047 108.048V102.938H233.167V108.048H232.047ZM232.602 102.198C232.419 102.198 232.262 102.133 232.132 102.003C232.002 101.873 231.937 101.716 231.937 101.533C231.937 101.346 232.001 101.188 232.127 101.058C232.257 100.924 232.416 100.858 232.602 100.858C232.796 100.858 232.956 100.923 233.082 101.053C233.212 101.183 233.277 101.343 233.277 101.533C233.277 101.719 233.212 101.878 233.082 102.008C232.952 102.134 232.792 102.198 232.602 102.198ZM234.772 108.048V102.938H235.892V103.438C236.052 103.228 236.243 103.073 236.467 102.973C236.693 102.869 236.952 102.818 237.242 102.818C237.832 102.818 238.28 102.998 238.587 103.358C238.893 103.718 239.047 104.246 239.047 104.943V108.048H237.922V105.148C237.922 104.721 237.84 104.403 237.677 104.193C237.517 103.983 237.273 103.878 236.947 103.878C236.593 103.878 236.328 103.981 236.152 104.188C235.978 104.394 235.892 104.708 235.892 105.128V108.048H234.772ZM245.183 108.168C244.596 108.168 244.093 108.026 243.673 107.743C243.253 107.459 242.94 107.054 242.733 106.528L243.783 106.098C244.083 106.748 244.55 107.073 245.183 107.073C245.566 107.073 245.868 106.979 246.088 106.793C246.308 106.606 246.418 106.354 246.418 106.038C246.418 105.721 246.308 105.471 246.088 105.288C245.868 105.104 245.57 105.013 245.193 105.013H244.578V103.918H245.163C245.47 103.918 245.713 103.831 245.893 103.658C246.076 103.481 246.168 103.249 246.168 102.963C246.168 102.679 246.076 102.451 245.893 102.278C245.71 102.104 245.47 102.018 245.173 102.018C244.923 102.018 244.696 102.083 244.493 102.213C244.293 102.343 244.13 102.536 244.003 102.793L242.953 102.388C243.153 101.924 243.448 101.566 243.838 101.313C244.231 101.056 244.68 100.928 245.183 100.928C245.603 100.928 245.975 101.011 246.298 101.178C246.621 101.341 246.875 101.568 247.058 101.858C247.241 102.144 247.333 102.476 247.333 102.853C247.333 103.173 247.256 103.468 247.103 103.738C246.953 104.008 246.741 104.223 246.468 104.383C246.818 104.523 247.091 104.746 247.288 105.053C247.485 105.359 247.583 105.713 247.583 106.113C247.583 106.513 247.48 106.868 247.273 107.178C247.07 107.484 246.788 107.726 246.428 107.903C246.068 108.079 245.653 108.168 245.183 108.168ZM251.372 108.168C250.886 108.168 250.479 108.063 250.152 107.853C249.826 107.639 249.567 107.358 249.377 107.008C249.187 106.654 249.051 106.264 248.967 105.838C248.887 105.408 248.847 104.978 248.847 104.548C248.847 104.218 248.871 103.883 248.917 103.543C248.967 103.199 249.049 102.873 249.162 102.563C249.276 102.249 249.429 101.971 249.622 101.728C249.816 101.481 250.056 101.286 250.342 101.143C250.632 100.999 250.976 100.928 251.372 100.928C251.862 100.928 252.269 101.033 252.592 101.243C252.919 101.453 253.177 101.734 253.367 102.088C253.561 102.438 253.697 102.826 253.777 103.253C253.861 103.679 253.902 104.111 253.902 104.548C253.902 104.874 253.877 105.209 253.827 105.553C253.777 105.893 253.694 106.219 253.577 106.533C253.464 106.843 253.311 107.121 253.117 107.368C252.924 107.614 252.684 107.809 252.397 107.953C252.111 108.096 251.769 108.168 251.372 108.168ZM251.372 107.078C251.642 107.078 251.866 107.004 252.042 106.858C252.219 106.708 252.356 106.509 252.452 106.263C252.552 106.016 252.622 105.744 252.662 105.448C252.702 105.148 252.722 104.848 252.722 104.548C252.722 104.234 252.701 103.928 252.657 103.628C252.617 103.324 252.547 103.051 252.447 102.808C252.347 102.564 252.209 102.371 252.032 102.228C251.859 102.081 251.639 102.008 251.372 102.008C251.102 102.008 250.877 102.083 250.697 102.233C250.521 102.383 250.382 102.581 250.282 102.828C250.182 103.074 250.111 103.348 250.067 103.648C250.027 103.948 250.007 104.248 250.007 104.548C250.007 104.861 250.029 105.169 250.072 105.473C250.116 105.773 250.187 106.044 250.287 106.288C250.391 106.528 250.531 106.719 250.707 106.863C250.884 107.006 251.106 107.078 251.372 107.078ZM259.497 108.168C259.114 108.168 258.745 108.086 258.392 107.923C258.039 107.756 257.755 107.534 257.542 107.258L258.292 106.618C258.469 106.801 258.667 106.946 258.887 107.053C259.107 107.159 259.322 107.213 259.532 107.213C259.799 107.213 260.005 107.166 260.152 107.073C260.299 106.976 260.372 106.841 260.372 106.668C260.372 106.561 260.339 106.464 260.272 106.378C260.205 106.288 260.089 106.199 259.922 106.113C259.755 106.026 259.525 105.928 259.232 105.818C258.659 105.608 258.252 105.381 258.012 105.138C257.772 104.891 257.652 104.583 257.652 104.213C257.652 103.796 257.819 103.459 258.152 103.203C258.485 102.946 258.919 102.818 259.452 102.818C259.815 102.818 260.15 102.888 260.457 103.028C260.767 103.164 261.034 103.363 261.257 103.623L260.512 104.238C260.209 103.928 259.849 103.773 259.432 103.773C259.209 103.773 259.03 103.816 258.897 103.903C258.764 103.986 258.697 104.098 258.697 104.238C258.697 104.378 258.774 104.503 258.927 104.613C259.084 104.719 259.37 104.844 259.787 104.988C260.167 105.114 260.477 105.256 260.717 105.413C260.96 105.569 261.137 105.749 261.247 105.953C261.36 106.156 261.417 106.391 261.417 106.658C261.417 107.128 261.245 107.498 260.902 107.768C260.562 108.034 260.094 108.168 259.497 108.168ZM264.688 108.168C264.205 108.168 263.788 108.056 263.438 107.833C263.088 107.609 262.82 107.298 262.633 106.898C262.446 106.494 262.353 106.024 262.353 105.488C262.353 104.931 262.45 104.454 262.643 104.058C262.836 103.658 263.108 103.351 263.458 103.138C263.808 102.924 264.218 102.818 264.688 102.818C265.091 102.818 265.458 102.904 265.788 103.078C266.121 103.251 266.386 103.518 266.583 103.878C266.78 104.234 266.878 104.689 266.878 105.243C266.878 105.329 266.876 105.433 266.873 105.553C266.87 105.669 266.86 105.788 266.843 105.908H263.468C263.488 106.168 263.55 106.394 263.653 106.588C263.76 106.781 263.901 106.933 264.078 107.043C264.255 107.149 264.463 107.203 264.703 107.203C264.936 107.203 265.143 107.164 265.323 107.088C265.503 107.008 265.675 106.881 265.838 106.708L266.488 107.393C266.278 107.623 266.021 107.809 265.718 107.953C265.418 108.096 265.075 108.168 264.688 108.168ZM263.473 105.003H265.778C265.768 104.759 265.718 104.546 265.628 104.363C265.541 104.179 265.418 104.038 265.258 103.938C265.098 103.834 264.903 103.783 264.673 103.783C264.353 103.783 264.08 103.883 263.853 104.083C263.63 104.283 263.503 104.589 263.473 105.003ZM270.272 108.168C269.808 108.168 269.41 108.061 269.077 107.848C268.743 107.631 268.487 107.323 268.307 106.923C268.127 106.523 268.037 106.048 268.037 105.498C268.037 104.948 268.128 104.473 268.312 104.073C268.495 103.669 268.755 103.359 269.092 103.143C269.428 102.926 269.83 102.818 270.297 102.818C270.793 102.818 271.21 102.934 271.547 103.168C271.883 103.398 272.128 103.736 272.282 104.183L271.217 104.553C271.133 104.336 271.013 104.169 270.857 104.053C270.703 103.936 270.52 103.878 270.307 103.878C269.953 103.878 269.677 104.021 269.477 104.308C269.277 104.594 269.177 104.991 269.177 105.498C269.177 105.998 269.275 106.389 269.472 106.673C269.668 106.956 269.938 107.098 270.282 107.098C270.515 107.098 270.715 107.034 270.882 106.908C271.048 106.778 271.17 106.593 271.247 106.353L272.307 106.678C272.163 107.164 271.917 107.534 271.567 107.788C271.22 108.041 270.788 108.168 270.272 108.168ZM275.62 108.168C274.906 108.168 274.345 107.929 273.935 107.453C273.525 106.976 273.32 106.324 273.32 105.498C273.32 104.948 273.413 104.473 273.6 104.073C273.786 103.673 274.051 103.364 274.395 103.148C274.741 102.928 275.15 102.818 275.62 102.818C276.093 102.818 276.501 102.926 276.845 103.143C277.188 103.359 277.453 103.668 277.64 104.068C277.826 104.468 277.92 104.943 277.92 105.493C277.92 106.043 277.826 106.518 277.64 106.918C277.453 107.318 277.188 107.626 276.845 107.843C276.501 108.059 276.093 108.168 275.62 108.168ZM275.62 107.103C275.99 107.103 276.278 106.961 276.485 106.678C276.691 106.394 276.795 105.999 276.795 105.493C276.795 104.983 276.69 104.586 276.48 104.303C276.273 104.019 275.986 103.878 275.62 103.878C275.253 103.878 274.965 104.021 274.755 104.308C274.548 104.591 274.445 104.988 274.445 105.498C274.445 106.001 274.548 106.394 274.755 106.678C274.965 106.961 275.253 107.103 275.62 107.103ZM279.156 108.048V102.938H280.276V103.438C280.436 103.228 280.628 103.073 280.851 102.973C281.078 102.869 281.336 102.818 281.626 102.818C282.216 102.818 282.665 102.998 282.971 103.358C283.278 103.718 283.431 104.246 283.431 104.943V108.048H282.306V105.148C282.306 104.721 282.225 104.403 282.061 104.193C281.901 103.983 281.658 103.878 281.331 103.878C280.978 103.878 280.713 103.981 280.536 104.188C280.363 104.394 280.276 104.708 280.276 105.128V108.048H279.156ZM286.88 108.168C286.223 108.168 285.708 107.929 285.335 107.453C284.962 106.976 284.775 106.321 284.775 105.488C284.775 104.951 284.862 104.483 285.035 104.083C285.212 103.679 285.457 103.368 285.77 103.148C286.087 102.928 286.458 102.818 286.885 102.818C287.358 102.818 287.75 102.981 288.06 103.308V101.343L289.185 100.828V108.048H288.06V107.638C287.787 107.991 287.393 108.168 286.88 108.168ZM287.055 107.103C287.278 107.103 287.473 107.058 287.64 106.968C287.81 106.878 287.95 106.746 288.06 106.573V104.398C287.95 104.238 287.805 104.111 287.625 104.018C287.448 103.924 287.258 103.878 287.055 103.878C286.688 103.878 286.403 104.016 286.2 104.293C286 104.569 285.9 104.968 285.9 105.488C285.9 105.821 285.947 106.108 286.04 106.348C286.133 106.588 286.267 106.774 286.44 106.908C286.613 107.038 286.818 107.103 287.055 107.103ZM292.388 108.168C292.004 108.168 291.636 108.086 291.283 107.923C290.929 107.756 290.646 107.534 290.433 107.258L291.183 106.618C291.359 106.801 291.558 106.946 291.778 107.053C291.998 107.159 292.213 107.213 292.423 107.213C292.689 107.213 292.896 107.166 293.043 107.073C293.189 106.976 293.263 106.841 293.263 106.668C293.263 106.561 293.229 106.464 293.163 106.378C293.096 106.288 292.979 106.199 292.813 106.113C292.646 106.026 292.416 105.928 292.123 105.818C291.549 105.608 291.143 105.381 290.903 105.138C290.663 104.891 290.543 104.583 290.543 104.213C290.543 103.796 290.709 103.459 291.043 103.203C291.376 102.946 291.809 102.818 292.343 102.818C292.706 102.818 293.041 102.888 293.348 103.028C293.658 103.164 293.924 103.363 294.148 103.623L293.403 104.238C293.099 103.928 292.739 103.773 292.323 103.773C292.099 103.773 291.921 103.816 291.788 103.903C291.654 103.986 291.588 104.098 291.588 104.238C291.588 104.378 291.664 104.503 291.818 104.613C291.974 104.719 292.261 104.844 292.678 104.988C293.058 105.114 293.368 105.256 293.608 105.413C293.851 105.569 294.028 105.749 294.138 105.953C294.251 106.156 294.308 106.391 294.308 106.658C294.308 107.128 294.136 107.498 293.793 107.768C293.453 108.034 292.984 108.168 292.388 108.168Z" fill="black"/>
<g clip-path="url(#clip1_1015_1581)" filter="url(#filter5_d_1015_1581)">
<path d="M203.87 224.766C205.103 222.68 209.235 216.312 217.25 213.757C220.489 212.725 223.407 212.619 225.526 212.75C227.803 212.995 235.178 214.081 241.197 220.29C245.134 224.351 246.728 228.786 247.39 231.155H251.445C249.728 220.767 242.13 212.464 232.388 210.223C221.141 207.635 209.089 213.603 203.87 224.766Z" fill="#EBFF25" stroke="#EBFF25" stroke-miterlimit="10"/>
<path d="M245.149 231.265L253.628 231.155L249.825 238.492L245.149 231.265Z" fill="#EBFF25" stroke="#EBFF25" stroke-miterlimit="10"/>
<path d="M250.252 244.125C249.27 245.964 245.342 252.794 237.059 255.459C233.571 256.581 230.44 256.601 228.298 256.414C226.084 256.285 218.754 255.581 212.551 249.87C208.344 245.997 206.608 241.618 205.898 239.376C204.527 239.424 203.157 239.472 201.786 239.52C203.884 249.702 211.874 257.62 221.829 259.483C233.324 261.634 245.342 255.32 250.252 244.125Z" fill="#EBFF25" stroke="#EBFF25" stroke-miterlimit="10"/>
<path d="M208.168 240.187L199.572 240.597L203.178 233.225L208.168 240.187Z" fill="#EBFF25" stroke="#EBFF25" stroke-miterlimit="10"/>
<g clip-path="url(#clip2_1015_1581)">
<path d="M211.852 238.266C211.852 237.663 211.936 237.132 212.105 236.671C212.274 236.207 212.503 235.8 212.792 235.449C213.085 235.099 213.419 234.791 213.792 234.526C214.17 234.258 214.565 234.015 214.979 233.799C215.254 233.648 215.514 233.492 215.759 233.329C216.003 233.166 216.201 232.982 216.352 232.779C216.508 232.575 216.585 232.339 216.585 232.07C216.585 231.723 216.452 231.44 216.185 231.22C215.919 230.996 215.561 230.884 215.112 230.884C214.654 230.884 214.285 230.984 214.005 231.184C213.725 231.379 213.512 231.642 213.365 231.972L211.999 231.404C212.225 230.854 212.619 230.41 213.179 230.071C213.739 229.733 214.385 229.564 215.119 229.564C215.75 229.564 216.29 229.672 216.739 229.888C217.192 230.104 217.536 230.401 217.772 230.78C218.012 231.155 218.132 231.581 218.132 232.058C218.132 232.555 218.025 232.974 217.812 233.316C217.603 233.655 217.323 233.95 216.972 234.203C216.621 234.451 216.234 234.689 215.812 234.918C215.416 235.129 215.072 235.335 214.779 235.535C214.485 235.73 214.243 235.938 214.052 236.158C213.861 236.378 213.723 236.627 213.639 236.904H218.212V238.266H211.852ZM224.104 238.266V236.372H219.337V235.504L224.151 229.711H225.617V235.083H226.837V236.372H225.617V238.266H224.104ZM221.337 235.083H224.104V231.673L221.337 235.083ZM227.407 239.855L232.661 229.564H234.181L228.941 239.855H227.407ZM236.695 238.266C236.699 237.342 236.788 236.472 236.962 235.657C237.139 234.838 237.413 234.05 237.782 233.292C238.155 232.534 238.642 231.785 239.242 231.043H234.848V229.711H241.015V230.89C240.477 231.448 240.028 232.058 239.668 232.718C239.313 233.373 239.031 234.038 238.822 234.71C238.613 235.378 238.464 236.02 238.375 236.635C238.286 237.246 238.239 237.79 238.235 238.266H236.695Z" fill="#EBFF25"/>
</g>
</g>
<defs>
<filter id="filter0_d_1015_1581" x="-3.63672" y="0.631836" width="98" height="98" filterUnits="userSpaceOnUse" color-interpolation-filters="sRGB">
<feFlood flood-opacity="0" result="BackgroundImageFix"/>
<feColorMatrix in="SourceAlpha" type="matrix" values="0 0 0 0 0 0 0 0 0 0 0 0 0 0 0 0 0 0 127 0" result="hardAlpha"/>
<feOffset dy="4"/>
<feGaussianBlur stdDeviation="2"/>
<feComposite in2="hardAlpha" operator="out"/>
<feColorMatrix type="matrix" values="0 0 0 0 0 0 0 0 0 0 0 0 0 0 0 0 0 0 0.25 0"/>
<feBlend mode="normal" in2="BackgroundImageFix" result="effect1_dropShadow_1015_1581"/>
<feBlend mode="normal" in="SourceGraphic" in2="effect1_dropShadow_1015_1581" result="shape"/>
</filter>
<filter id="filter1_d_1015_1581" x="11.6545" y="8.7085" width="70.7324" height="81.8464" filterUnits="userSpaceOnUse" color-interpolation-filters="sRGB">
<feFlood flood-opacity="0" result="BackgroundImageFix"/>
<feColorMatrix in="SourceAlpha" type="matrix" values="0 0 0 0 0 0 0 0 0 0 0 0 0 0 0 0 0 0 127 0" result="hardAlpha"/>
<feOffset dy="4"/>
<feGaussianBlur stdDeviation="2"/>
<feComposite in2="hardAlpha" operator="out"/>
<feColorMatrix type="matrix" values="0 0 0 0 0 0 0 0 0 0 0 0 0 0 0 0 0 0 0.25 0"/>
<feBlend mode="normal" in2="BackgroundImageFix" result="effect1_dropShadow_1015_1581"/>
<feBlend mode="normal" in="SourceGraphic" in2="effect1_dropShadow_1015_1581" result="shape"/>
</filter>
<filter id="filter2_d_1015_1581" x="48.311" y="56.0894" width="37.3757" height="45.8826" filterUnits="userSpaceOnUse" color-interpolation-filters="sRGB">
<feFlood flood-opacity="0" result="BackgroundImageFix"/>
<feColorMatrix in="SourceAlpha" type="matrix" values="0 0 0 0 0 0 0 0 0 0 0 0 0 0 0 0 0 0 127 0" result="hardAlpha"/>
<feOffset dy="4"/>
<feGaussianBlur stdDeviation="2"/>
<feComposite in2="hardAlpha" operator="out"/>
<feColorMatrix type="matrix" values="0 0 0 0 0 0 0 0 0 0 0 0 0 0 0 0 0 0 0.25 0"/>
<feBlend mode="normal" in2="BackgroundImageFix" result="effect1_dropShadow_1015_1581"/>
<feBlend mode="normal" in="SourceGraphic" in2="effect1_dropShadow_1015_1581" result="shape"/>
</filter>
<filter id="filter3_d_1015_1581" x="3.27271" y="184.721" width="108" height="31" filterUnits="userSpaceOnUse" color-interpolation-filters="sRGB">
<feFlood flood-opacity="0" result="BackgroundImageFix"/>
<feColorMatrix in="SourceAlpha" type="matrix" values="0 0 0 0 0 0 0 0 0 0 0 0 0 0 0 0 0 0 127 0" result="hardAlpha"/>
<feOffset dy="4"/>
<feGaussianBlur stdDeviation="2"/>
<feComposite in2="hardAlpha" operator="out"/>
<feColorMatrix type="matrix" values="0 0 0 0 0 0 0 0 0 0 0 0 0 0 0 0 0 0 0.25 0"/>
<feBlend mode="normal" in2="BackgroundImageFix" result="effect1_dropShadow_1015_1581"/>
<feBlend mode="normal" in="SourceGraphic" in2="effect1_dropShadow_1015_1581" result="shape"/>
</filter>
<filter id="filter4_bd_1015_1581" x="134.632" y="85.3989" width="181.082" height="39.2974" filterUnits="userSpaceOnUse" color-interpolation-filters="sRGB">
<feFlood flood-opacity="0" result="BackgroundImageFix"/>
<feGaussianBlur in="BackgroundImageFix" stdDeviation="4"/>
<feComposite in2="SourceAlpha" operator="in" result="effect1_backgroundBlur_1015_1581"/>
<feColorMatrix in="SourceAlpha" type="matrix" values="0 0 0 0 0 0 0 0 0 0 0 0 0 0 0 0 0 0 127 0" result="hardAlpha"/>
<feOffset dy="4"/>
<feGaussianBlur stdDeviation="2"/>
<feComposite in2="hardAlpha" operator="out"/>
<feColorMatrix type="matrix" values="0 0 0 0 0 0 0 0 0 0 0 0 0 0 0 0 0 0 0.25 0"/>
<feBlend mode="normal" in2="effect1_backgroundBlur_1015_1581" result="effect2_dropShadow_1015_1581"/>
<feBlend mode="normal" in="SourceGraphic" in2="effect2_dropShadow_1015_1581" result="shape"/>
</filter>
<filter id="filter5_d_1015_1581" x="194.585" y="208.9" width="64" height="60" filterUnits="userSpaceOnUse" color-interpolation-filters="sRGB">
<feFlood flood-opacity="0" result="BackgroundImageFix"/>
<feColorMatrix in="SourceAlpha" type="matrix" values="0 0 0 0 0 0 0 0 0 0 0 0 0 0 0 0 0 0 127 0" result="hardAlpha"/>
<feOffset dy="4"/>
<feGaussianBlur stdDeviation="2"/>
<feComposite in2="hardAlpha" operator="out"/>
<feColorMatrix type="matrix" values="0 0 0 0 0 0 0 0 0 0 0 0 0 0 0 0 0 0 0.25 0"/>
<feBlend mode="normal" in2="BackgroundImageFix" result="effect1_dropShadow_1015_1581"/>
<feBlend mode="normal" in="SourceGraphic" in2="effect1_dropShadow_1015_1581" result="shape"/>
</filter>
<linearGradient id="paint0_linear_1015_1581" x1="204.461" y1="73.7695" x2="143.611" y2="247.21" gradientUnits="userSpaceOnUse">
<stop stop-color="#E2FF6F"/>
<stop offset="1" stop-color="#E2FF6F" stop-opacity="0"/>
</linearGradient>
<linearGradient id="paint1_linear_1015_1581" x1="204.461" y1="73.7695" x2="143.611" y2="247.21" gradientUnits="userSpaceOnUse">
<stop stop-color="#E2FF6F"/>
<stop offset="1" stop-color="#E2FF6F" stop-opacity="0"/>
</linearGradient>
<linearGradient id="paint2_linear_1015_1581" x1="204.461" y1="73.7695" x2="143.611" y2="247.21" gradientUnits="userSpaceOnUse">
<stop stop-color="#E2FF6F"/>
<stop offset="1" stop-color="#E2FF6F" stop-opacity="0"/>
</linearGradient>
<linearGradient id="paint3_linear_1015_1581" x1="204.461" y1="73.7695" x2="143.611" y2="247.21" gradientUnits="userSpaceOnUse">
<stop stop-color="#E2FF6F"/>
<stop offset="1" stop-color="#E2FF6F" stop-opacity="0"/>
</linearGradient>
<linearGradient id="paint4_linear_1015_1581" x1="204.461" y1="73.7695" x2="143.611" y2="247.21" gradientUnits="userSpaceOnUse">
<stop stop-color="#E2FF6F"/>
<stop offset="1" stop-color="#E2FF6F" stop-opacity="0"/>
</linearGradient>
<linearGradient id="paint5_linear_1015_1581" x1="204.461" y1="73.7695" x2="143.611" y2="247.21" gradientUnits="userSpaceOnUse">
<stop stop-color="#E2FF6F"/>
<stop offset="1" stop-color="#E2FF6F" stop-opacity="0"/>
</linearGradient>
<linearGradient id="paint6_linear_1015_1581" x1="204.461" y1="73.7695" x2="143.611" y2="247.21" gradientUnits="userSpaceOnUse">
<stop stop-color="#E2FF6F"/>
<stop offset="1" stop-color="#E2FF6F" stop-opacity="0"/>
</linearGradient>
<linearGradient id="paint7_linear_1015_1581" x1="204.461" y1="73.7695" x2="143.611" y2="247.21" gradientUnits="userSpaceOnUse">
<stop stop-color="#E2FF6F"/>
<stop offset="1" stop-color="#E2FF6F" stop-opacity="0"/>
</linearGradient>
<linearGradient id="paint8_linear_1015_1581" x1="204.461" y1="73.7695" x2="143.611" y2="247.21" gradientUnits="userSpaceOnUse">
<stop stop-color="#E2FF6F"/>
<stop offset="1" stop-color="#E2FF6F" stop-opacity="0"/>
</linearGradient>
<linearGradient id="paint9_linear_1015_1581" x1="204.461" y1="73.7695" x2="143.611" y2="247.21" gradientUnits="userSpaceOnUse">
<stop stop-color="#E2FF6F"/>
<stop offset="1" stop-color="#E2FF6F" stop-opacity="0"/>
</linearGradient>
<linearGradient id="paint10_linear_1015_1581" x1="204.461" y1="73.7695" x2="143.611" y2="247.21" gradientUnits="userSpaceOnUse">
<stop stop-color="#E2FF6F"/>
<stop offset="1" stop-color="#E2FF6F" stop-opacity="0"/>
</linearGradient>
<linearGradient id="paint11_linear_1015_1581" x1="204.461" y1="73.7695" x2="143.611" y2="247.21" gradientUnits="userSpaceOnUse">
<stop stop-color="#E2FF6F"/>
<stop offset="1" stop-color="#E2FF6F" stop-opacity="0"/>
</linearGradient>
<linearGradient id="paint12_linear_1015_1581" x1="204.461" y1="73.7695" x2="143.611" y2="247.21" gradientUnits="userSpaceOnUse">
<stop stop-color="#E2FF6F"/>
<stop offset="1" stop-color="#E2FF6F" stop-opacity="0"/>
</linearGradient>
<linearGradient id="paint13_linear_1015_1581" x1="204.461" y1="73.7695" x2="143.611" y2="247.21" gradientUnits="userSpaceOnUse">
<stop stop-color="#E2FF6F"/>
<stop offset="1" stop-color="#E2FF6F" stop-opacity="0"/>
</linearGradient>
<linearGradient id="paint14_linear_1015_1581" x1="204.461" y1="73.7695" x2="143.611" y2="247.21" gradientUnits="userSpaceOnUse">
<stop stop-color="#E2FF6F"/>
<stop offset="1" stop-color="#E2FF6F" stop-opacity="0"/>
</linearGradient>
<linearGradient id="paint15_linear_1015_1581" x1="204.461" y1="73.7695" x2="143.611" y2="247.21" gradientUnits="userSpaceOnUse">
<stop stop-color="#E2FF6F"/>
<stop offset="1" stop-color="#E2FF6F" stop-opacity="0"/>
</linearGradient>
<linearGradient id="paint16_linear_1015_1581" x1="204.461" y1="73.7695" x2="143.611" y2="247.21" gradientUnits="userSpaceOnUse">
<stop stop-color="#E2FF6F"/>
<stop offset="1" stop-color="#E2FF6F" stop-opacity="0"/>
</linearGradient>
<linearGradient id="paint17_linear_1015_1581" x1="204.461" y1="73.7695" x2="143.611" y2="247.21" gradientUnits="userSpaceOnUse">
<stop stop-color="#E2FF6F"/>
<stop offset="1" stop-color="#E2FF6F" stop-opacity="0"/>
</linearGradient>
<linearGradient id="paint18_linear_1015_1581" x1="204.461" y1="73.7695" x2="143.611" y2="247.21" gradientUnits="userSpaceOnUse">
<stop stop-color="#E2FF6F"/>
<stop offset="1" stop-color="#E2FF6F" stop-opacity="0"/>
</linearGradient>
<linearGradient id="paint19_linear_1015_1581" x1="204.461" y1="73.7695" x2="143.611" y2="247.21" gradientUnits="userSpaceOnUse">
<stop stop-color="#E2FF6F"/>
<stop offset="1" stop-color="#E2FF6F" stop-opacity="0"/>
</linearGradient>
<linearGradient id="paint20_linear_1015_1581" x1="204.461" y1="73.7695" x2="143.611" y2="247.21" gradientUnits="userSpaceOnUse">
<stop stop-color="#E2FF6F"/>
<stop offset="1" stop-color="#E2FF6F" stop-opacity="0"/>
</linearGradient>
<linearGradient id="paint21_linear_1015_1581" x1="204.461" y1="73.7695" x2="143.611" y2="247.21" gradientUnits="userSpaceOnUse">
<stop stop-color="#E2FF6F"/>
<stop offset="1" stop-color="#E2FF6F" stop-opacity="0"/>
</linearGradient>
<clipPath id="clip0_1015_1581">
<rect width="90" height="90" fill="white" transform="translate(0.363281 0.631836)"/>
</clipPath>
<clipPath id="clip1_1015_1581">
<rect width="56" height="52" fill="white" transform="translate(198.585 208.9)"/>
</clipPath>
<clipPath id="clip2_1015_1581">
<rect width="30" height="11" fill="white" transform="translate(211.585 229.323)"/>
</clipPath>
</defs>
</svg>
