<svg width="91" height="94" viewBox="0 0 91 94" fill="none" xmlns="http://www.w3.org/2000/svg">
<path d="M47.3369 81.7291C64.3838 81.7291 78.2031 68.2982 78.2031 51.7303C78.2031 35.1625 64.3838 21.7316 47.3369 21.7316C30.2899 21.7316 16.4706 35.1625 16.4706 51.7303C16.4706 68.2982 30.2899 81.7291 47.3369 81.7291Z" fill="#50E281" stroke="#231F20" stroke-miterlimit="10"/>
<path d="M47.3366 75.6899C60.9517 75.6899 71.9889 64.9628 71.9889 51.7304C71.9889 38.498 60.9517 27.771 47.3366 27.771C33.7215 27.771 22.6843 38.498 22.6843 51.7304C22.6843 64.9628 33.7215 75.6899 47.3366 75.6899Z" fill="#EBFF25" stroke="#231F20" stroke-miterlimit="10"/>
<path d="M42.4299 8.88257H51.1616V14.6303H49.0617L49.1474 21.159H44.9691V15.0156H42.4299V8.88257Z" fill="black" stroke="black" stroke-miterlimit="10"/>
<path d="M63.0754 25.626L66.8895 18.9307L71.9893 24.2203L66.2253 28.125" fill="black"/>
<path d="M63.0754 25.626L66.8895 18.9307L71.9893 24.2203L66.2253 28.125" stroke="black" stroke-miterlimit="10"/>
<path d="M31.6305 25.3968L27.8271 18.7015L22.7167 23.9912L28.4807 27.8959" fill="black"/>
<path d="M31.6305 25.3968L27.8271 18.7015L22.7167 23.9912L28.4807 27.8959" stroke="black" stroke-miterlimit="10"/>
<line x1="47.2958" y1="27.896" x2="47.2958" y2="33.1023" stroke="black"/>
<line x1="71.9889" y1="51.0789" x2="66.632" y2="51.0789" stroke="black"/>
<line x1="28.0736" y1="51.0789" x2="22.7167" y2="51.0789" stroke="black"/>
<line x1="47.6193" y1="75.6908" x2="47.6193" y2="71.2246" stroke="black"/>
<circle cx="47.3369" cy="51.7303" r="2.51154" fill="black"/>
<line x1="40.1389" y1="48.9851" x2="45.4455" y2="51.5393" stroke="black" stroke-linecap="round"/>
<line x1="57.79" y1="35.4079" x2="48.7971" y2="52.0052" stroke="black" stroke-linecap="round"/>
<path d="M79.0959 56.2637H64.6377L53.6018 71.6254H61.8569C62.8653 71.7777 63.1235 72.1153 62.7329 73.4079L54.8995 93.2927L80.7952 67.4105H73.0896C72.4594 67.4105 71.9461 67.208 72.4594 66.0408L79.0959 56.2637Z" fill="#2AB763" stroke="black"/>
</svg>
