<svg width="458" height="79" viewBox="0 0 458 79" fill="none" xmlns="http://www.w3.org/2000/svg">
<g clip-path="url(#clip0_527_2683)">
<path d="M115.021 0.334961V61.6707H108.998L108.163 54.502C105.236 59.5037 99.2936 62.5028 92.6808 62.5028C81.5508 62.5028 72.5166 54.7512 72.5166 40.7523C72.5166 26.7533 81.7208 18.668 92.6808 18.668C99.4588 18.668 105.231 21.5872 108.163 26.4196V0.334961H115.026H115.021ZM107.993 40.7523C107.993 30.9182 101.715 24.6709 93.7664 24.7508C85.3977 24.8354 79.625 31.0028 79.625 40.7523C79.625 50.5017 85.4827 56.4999 93.7664 56.4999C102.05 56.4999 107.993 50.6662 107.993 40.7523Z" fill="#EBFF25"/>
<path d="M160.541 42.5009H126.571C126.736 51.832 132.849 56.6691 140.462 56.6691C146.155 56.6691 150.922 53.9191 153.013 48.4192H160.041C157.615 56.8336 150.337 62.4181 140.292 62.4181C127.827 62.4181 119.543 53.67 119.543 40.5031C119.543 27.3362 127.827 18.668 140.212 18.668C152.598 18.668 160.546 27.0024 160.546 39.5018V42.5009H160.541ZM126.651 37.4194H153.513C153.013 28.6712 147.321 24.2525 140.207 24.2525C133.094 24.2525 127.487 28.5866 126.651 37.4194Z" fill="#EBFF25"/>
<path d="M202.045 36.4181V61.666H195.182V37.833C195.182 29.0849 190.58 24.9153 183.717 24.9153C175.768 24.9153 171.501 30.5797 171.501 38.8343V61.666H164.638V19.5H170.661L171.416 26.0012C173.843 21.3333 178.78 18.668 185.308 18.668C195.852 18.668 202.045 25.6674 202.045 36.4181Z" fill="#EBFF25"/>
<path d="M211.669 49.2514C211.835 54.253 216.186 57.1675 222.714 57.1675C229.242 57.1675 233.259 54.5821 233.259 50.1681C233.259 46.4168 231.253 44.419 226.316 43.7515L217.532 42.3366C209.498 41.0015 205.816 37.1704 205.816 30.8385C205.816 23.4206 212.93 18.6729 222.219 18.6729C232.178 18.6729 239.372 23.4206 239.456 31.8397H232.678C232.513 26.7582 228.242 24.0082 222.304 24.0082C216.366 24.0082 212.599 26.509 212.599 30.6739C212.599 34.2559 214.94 36.0093 220.213 36.7567L228.832 38.1717C236.53 39.4221 240.212 43.0887 240.212 49.5899C240.212 57.9243 232.598 62.5076 222.889 62.5076C211.759 62.5076 204.896 57.3414 204.731 49.2561H211.674L211.669 49.2514Z" fill="#EBFF25"/>
<path d="M244.719 2.41748H253.253V10.4182H244.719V2.41748ZM245.555 19.5001H252.418V61.6661H245.555V19.5001Z" fill="#EBFF25"/>
<path d="M262.373 51.0843V25.6672H254.759V19.4998H258.776C261.452 19.4998 262.373 18.334 262.373 15.7486V8.5H269.236V19.4998H279.195V25.6672H269.236V50.1677C269.236 53.2514 270.241 55.5031 274.338 55.5031H279.105V61.6705H272.747C266.47 61.6705 262.373 58.253 262.373 51.089V51.0843Z" fill="#EBFF25"/>
<path d="M303.541 57.0873L316.342 19.4199L323.62 19.5045L305.882 68.5054C302.871 76.6707 298.269 78.3395 292.076 78.3395H283.707V72.1721H292.161C296.513 72.1721 299.189 69.8405 299.189 65.088C299.189 63.9222 298.939 62.7564 298.434 61.4214L282.202 19.5045H289.65L303.541 57.0873Z" fill="#EBFF25"/>
<path d="M6.67615 12.5664H1.42741C0.984253 12.5664 0.625 12.9242 0.625 13.3655V18.5928C0.625 19.0342 0.984253 19.3919 1.42741 19.3919H6.67615C7.11931 19.3919 7.47856 19.0342 7.47856 18.5928V13.3655C7.47856 12.9242 7.11931 12.5664 6.67615 12.5664Z" fill="#EBFF25"/>
<path d="M16.1494 19.3918H11.0423C10.5986 19.3918 10.2399 19.0345 10.2399 18.5926V13.3607C10.2399 12.9188 10.5986 12.5615 11.0423 12.5615H16.1494C16.6686 12.5615 17.0934 12.9846 17.0934 13.5017V18.4469C17.0934 18.964 16.6686 19.3871 16.1494 19.3871V19.3918Z" fill="#EBFF25"/>
<path d="M25.901 12.5664H20.6523C20.2091 12.5664 19.8499 12.9242 19.8499 13.3655V18.5928C19.8499 19.0342 20.2091 19.3919 20.6523 19.3919H25.901C26.3442 19.3919 26.7034 19.0342 26.7034 18.5928V13.3655C26.7034 12.9242 26.3442 12.5664 25.901 12.5664Z" fill="#EBFF25"/>
<path d="M35.5206 12.5664H30.2719C29.8287 12.5664 29.4695 12.9242 29.4695 13.3655V18.5928C29.4695 19.0342 29.8287 19.3919 30.2719 19.3919H35.5206C35.9638 19.3919 36.323 19.0342 36.323 18.5928V13.3655C36.323 12.9242 35.9638 12.5664 35.5206 12.5664Z" fill="#EBFF25"/>
<path d="M45.1589 22.0806H39.9102C39.467 22.0806 39.1078 22.4384 39.1078 22.8797V28.107C39.1078 28.5483 39.467 28.9061 39.9102 28.9061H45.1589C45.6021 28.9061 45.9614 28.5483 45.9614 28.107V22.8797C45.9614 22.4384 45.6021 22.0806 45.1589 22.0806Z" fill="#EBFF25"/>
<path d="M35.5206 22.0806H30.2719C29.8287 22.0806 29.4695 22.4384 29.4695 22.8797V28.107C29.4695 28.5483 29.8287 28.9061 30.2719 28.9061H35.5206C35.9638 28.9061 36.323 28.5483 36.323 28.107V22.8797C36.323 22.4384 35.9638 22.0806 35.5206 22.0806Z" fill="#EBFF25"/>
<path d="M25.901 22.0806H20.6523C20.2091 22.0806 19.8499 22.4384 19.8499 22.8797V28.107C19.8499 28.5483 20.2091 28.9061 20.6523 28.9061H25.901C26.3442 28.9061 26.7034 28.5483 26.7034 28.107V22.8797C26.7034 22.4384 26.3442 22.0806 25.901 22.0806Z" fill="#EBFF25"/>
<path d="M11.1839 22.0806H16.291C16.7347 22.0806 17.0934 22.4378 17.0934 22.8797V28.1117C17.0934 28.5535 16.7347 28.9108 16.291 28.9108H11.1839C10.6647 28.9108 10.2399 28.4877 10.2399 27.9706V23.0254C10.2399 22.5083 10.6647 22.0853 11.1839 22.0853V22.0806Z" fill="#EBFF25"/>
<path d="M6.67615 22.0806H1.42741C0.984253 22.0806 0.625 22.4384 0.625 22.8797V28.107C0.625 28.5483 0.984253 28.9061 1.42741 28.9061H6.67615C7.11931 28.9061 7.47856 28.5483 7.47856 28.107V22.8797C7.47856 22.4384 7.11931 22.0806 6.67615 22.0806Z" fill="#EBFF25"/>
<path d="M6.53454 31.5903H1.56902C1.04765 31.5903 0.625 32.0113 0.625 32.5305V37.4757C0.625 37.9949 1.04765 38.4159 1.56902 38.4159H6.53454C7.05591 38.4159 7.47856 37.9949 7.47856 37.4757V32.5305C7.47856 32.0113 7.05591 31.5903 6.53454 31.5903Z" fill="#EBFF25"/>
<path d="M16.2957 38.4159H11.1885C10.6693 38.4159 10.2445 37.9928 10.2445 37.4757V32.5305C10.2445 32.0134 10.6693 31.5903 11.1885 31.5903H16.2957C16.7393 31.5903 17.0981 31.9476 17.0981 32.3895V37.6214C17.0981 38.0633 16.7393 38.4206 16.2957 38.4206V38.4159Z" fill="#EBFF25"/>
<path d="M25.901 31.5903H20.6523C20.2091 31.5903 19.8499 31.9481 19.8499 32.3895V37.6167C19.8499 38.0581 20.2091 38.4159 20.6523 38.4159H25.901C26.3442 38.4159 26.7034 38.0581 26.7034 37.6167V32.3895C26.7034 31.9481 26.3442 31.5903 25.901 31.5903Z" fill="#EBFF25"/>
<path d="M35.5206 31.5903H30.2719C29.8287 31.5903 29.4695 31.9481 29.4695 32.3895V37.6167C29.4695 38.0581 29.8287 38.4159 30.2719 38.4159H35.5206C35.9638 38.4159 36.323 38.0581 36.323 37.6167V32.3895C36.323 31.9481 35.9638 31.5903 35.5206 31.5903Z" fill="#EBFF25"/>
<path d="M45.1589 31.5903H39.9102C39.467 31.5903 39.1078 31.9481 39.1078 32.3895V37.6167C39.1078 38.0581 39.467 38.4159 39.9102 38.4159H45.1589C45.6021 38.4159 45.9614 38.0581 45.9614 37.6167V32.3895C45.9614 31.9481 45.6021 31.5903 45.1589 31.5903Z" fill="#EBFF25"/>
<path d="M54.7738 31.5903H49.5251C49.0819 31.5903 48.7227 31.9481 48.7227 32.3895V37.6167C48.7227 38.0581 49.0819 38.4159 49.5251 38.4159H54.7738C55.217 38.4159 55.5762 38.0581 55.5762 37.6167V32.3895C55.5762 31.9481 55.217 31.5903 54.7738 31.5903Z" fill="#EBFF25"/>
<path d="M54.7738 41.1045H49.5251C49.0819 41.1045 48.7227 41.4623 48.7227 41.9036V47.1309C48.7227 47.5722 49.0819 47.93 49.5251 47.93H54.7738C55.217 47.93 55.5762 47.5722 55.5762 47.1309V41.9036C55.5762 41.4623 55.217 41.1045 54.7738 41.1045Z" fill="#EBFF25"/>
<path d="M45.1589 41.1045H39.9102C39.467 41.1045 39.1078 41.4623 39.1078 41.9036V47.1309C39.1078 47.5722 39.467 47.93 39.9102 47.93H45.1589C45.6021 47.93 45.9614 47.5722 45.9614 47.1309V41.9036C45.9614 41.4623 45.6021 41.1045 45.1589 41.1045Z" fill="#EBFF25"/>
<path d="M35.5206 41.1045H30.2719C29.8287 41.1045 29.4695 41.4623 29.4695 41.9036V47.1309C29.4695 47.5722 29.8287 47.93 30.2719 47.93H35.5206C35.9638 47.93 36.323 47.5722 36.323 47.1309V41.9036C36.323 41.4623 35.9638 41.1045 35.5206 41.1045Z" fill="#EBFF25"/>
<path d="M25.901 41.1045H20.6523C20.2091 41.1045 19.8499 41.4623 19.8499 41.9036V47.1309C19.8499 47.5722 20.2091 47.93 20.6523 47.93H25.901C26.3442 47.93 26.7034 47.5722 26.7034 47.1309V41.9036C26.7034 41.4623 26.3442 41.1045 25.901 41.1045Z" fill="#EBFF25"/>
<path d="M11.1839 41.1045H16.291C16.7347 41.1045 17.0934 41.4617 17.0934 41.9036V47.1356C17.0934 47.5775 16.7347 47.9347 16.291 47.9347H11.1839C10.6647 47.9347 10.2399 47.5117 10.2399 46.9946V42.0493C10.2399 41.5323 10.6647 41.1092 11.1839 41.1092V41.1045Z" fill="#EBFF25"/>
<path d="M6.67615 41.1045H1.42741C0.984253 41.1045 0.625 41.4623 0.625 41.9036V47.1309C0.625 47.5722 0.984253 47.93 1.42741 47.93H6.67615C7.11931 47.93 7.47856 47.5722 7.47856 47.1309V41.9036C7.47856 41.4623 7.11931 41.1045 6.67615 41.1045Z" fill="#EBFF25"/>
<path d="M6.67615 50.6143H1.42741C0.984253 50.6143 0.625 50.972 0.625 51.4134V56.6407C0.625 57.082 0.984253 57.4398 1.42741 57.4398H6.67615C7.11931 57.4398 7.47856 57.082 7.47856 56.6407V51.4134C7.47856 50.972 7.11931 50.6143 6.67615 50.6143Z" fill="#EBFF25"/>
<path d="M16.2957 57.4398H11.1885C10.6693 57.4398 10.2445 57.0167 10.2445 56.4996V51.5544C10.2445 51.0373 10.6693 50.6143 11.1885 50.6143H16.2957C16.7393 50.6143 17.0981 50.9715 17.0981 51.4134V56.6454C17.0981 57.0872 16.7393 57.4445 16.2957 57.4445V57.4398Z" fill="#EBFF25"/>
<path d="M25.901 50.6143H20.6523C20.2091 50.6143 19.8499 50.972 19.8499 51.4134V56.6407C19.8499 57.082 20.2091 57.4398 20.6523 57.4398H25.901C26.3442 57.4398 26.7034 57.082 26.7034 56.6407V51.4134C26.7034 50.972 26.3442 50.6143 25.901 50.6143Z" fill="#EBFF25"/>
<path d="M35.5206 50.6143H30.2719C29.8287 50.6143 29.4695 50.972 29.4695 51.4134V56.6407C29.4695 57.082 29.8287 57.4398 30.2719 57.4398H35.5206C35.9638 57.4398 36.323 57.082 36.323 56.6407V51.4134C36.323 50.972 35.9638 50.6143 35.5206 50.6143Z" fill="#EBFF25"/>
<path d="M45.1589 50.6143H39.9102C39.467 50.6143 39.1078 50.972 39.1078 51.4134V56.6407C39.1078 57.082 39.467 57.4398 39.9102 57.4398H45.1589C45.6021 57.4398 45.9614 57.082 45.9614 56.6407V51.4134C45.9614 50.972 45.6021 50.6143 45.1589 50.6143Z" fill="#EBFF25"/>
<path d="M35.5206 60.1289H30.2719C29.8287 60.1289 29.4695 60.4867 29.4695 60.928V66.1553C29.4695 66.5967 29.8287 66.9544 30.2719 66.9544H35.5206C35.9638 66.9544 36.323 66.5967 36.323 66.1553V60.928C36.323 60.4867 35.9638 60.1289 35.5206 60.1289Z" fill="#EBFF25"/>
<path d="M25.901 60.1289H20.6523C20.2091 60.1289 19.8499 60.4867 19.8499 60.928V66.1553C19.8499 66.5967 20.2091 66.9544 20.6523 66.9544H25.901C26.3442 66.9544 26.7034 66.5967 26.7034 66.1553V60.928C26.7034 60.4867 26.3442 60.1289 25.901 60.1289Z" fill="#EBFF25"/>
<path d="M11.1839 60.1289H16.291C16.7347 60.1289 17.0934 60.4862 17.0934 60.928V66.16C17.0934 66.6019 16.7347 66.9591 16.291 66.9591H11.1839C10.6647 66.9591 10.2399 66.5361 10.2399 66.019V61.0738C10.2399 60.5567 10.6647 60.1336 11.1839 60.1336V60.1289Z" fill="#EBFF25"/>
<path d="M6.67615 60.1289H1.42741C0.984253 60.1289 0.625 60.4867 0.625 60.928V66.1553C0.625 66.5967 0.984253 66.9544 1.42741 66.9544H6.67615C7.11931 66.9544 7.47856 66.5967 7.47856 66.1553V60.928C7.47856 60.4867 7.11931 60.1289 6.67615 60.1289Z" fill="#EBFF25"/>
</g>
<defs>
<clipPath id="clip0_527_2683">
<rect width="323" height="78" fill="white" transform="translate(0.625 0.334961)"/>
</clipPath>
</defs>
</svg>
