<svg version="1.2" xmlns="http://www.w3.org/2000/svg" viewBox="0 0 658 707" width="658" height="707">
	<title>final-svg</title>
	<defs>
		<clipPath clipPathUnits="userSpaceOnUse" id="cp1">
			<path d="m0.5 0h657v707h-657z"/>
		</clipPath>
		<linearGradient id="g1" x1="347.5" y1="420.2" x2="347.5" y2="511.8" gradientUnits="userSpaceOnUse">
			<stop offset=".4" stop-color="#d4f938"/>
			<stop offset="1" stop-color="#32d875" stop-opacity="1"/>
		</linearGradient>
		<linearGradient id="g2" x1="456.1" y1="496.2" x2="456.1" y2="591.5" gradientUnits="userSpaceOnUse">
			<stop offset="0" stop-color="#ffffff" stop-opacity=".8"/>
			<stop offset="1" stop-color="#ffffff" stop-opacity="0"/>
		</linearGradient>
		<linearGradient id="g3" x1="348.2" y1="328" x2="304.4" y2="520.9" gradientUnits="userSpaceOnUse">
			<stop offset=".2" stop-color="#fefefe" stop-opacity="0"/>
			<stop offset=".4" stop-color="#e9fe92" stop-opacity=".4"/>
			<stop offset="1" stop-color="#ccff00"/>
		</linearGradient>
		<linearGradient id="g4" x1="126.4" y1="305.5" x2="407.3" y2="168.4" gradientUnits="userSpaceOnUse">
			<stop offset="0" stop-color="#92e60a" stop-opacity=".5"/>
			<stop offset="1" stop-color="#ffffff"/>
		</linearGradient>
		<clipPath clipPathUnits="userSpaceOnUse" id="cp2">
			<path d="m415.36 89.49l32.25-18.87 18.61 32.69-32.24 18.86z"/>
		</clipPath>
		<linearGradient id="g5" x1="92.9" y1="524.9" x2="607.7" y2="464.5" gradientUnits="userSpaceOnUse">
			<stop offset=".3" stop-color="#fefefe" stop-opacity="0"/>
			<stop offset=".6" stop-color="#e9fe92" stop-opacity="0"/>
			<stop offset="1" stop-color="#ccff00" stop-opacity=".4"/>
		</linearGradient>
		<clipPath clipPathUnits="userSpaceOnUse" id="cp3">
			<path d="m210.07 381.11l15.98-25.74 25.39 16.2-15.98 25.73z"/>
		</clipPath>
		<clipPath clipPathUnits="userSpaceOnUse" id="cp4">
			<path d="m288.11 200.95l22.29 12.91-12.74 22.59-22.29-12.91z"/>
		</clipPath>
	</defs>
	<style>
		.s0 { fill: #ffffff;stroke: #ffffff;stroke-width: .4 } 
		.s1 { fill: #6cc481;stroke: #6cc481 } 
		.s2 { fill: #485945;stroke: #485945 } 
		.s3 { fill: #ebff27;stroke: #ebff27 } 
		.s4 { fill: #085125 } 
		.s5 { fill: #274b23 } 
		.s6 { fill: #559b49 } 
		.s7 { opacity: .9;fill: url(#g1) } 
		.s8 { fill: #55a565 } 
		.s9 { fill: #faffca } 
		.s10 { fill: #3e7037 } 
		.s11 { fill: url(#g2) } 
		.s12 { fill: #faffc5 } 
		.s13 { fill: #d4f938 } 
		.s14 { fill: #2ca85e } 
		.s15 { fill: #1a8244 } 
		.s16 { opacity: .2;fill: #3ea668 } 
		.s17 { fill: #ffffff;stroke: #ffffff;stroke-width: .2 } 
		.s18 { fill: #2ca85e;stroke: #ffffff;stroke-width: .2 } 
		.s19 { fill: #c3dc5e } 
		.s20 { fill: #77853e } 
		.s21 { fill: #e2ff6f } 
		.s22 { fill: #ffffff } 
		.s23 { fill: none;stroke: #274b23;stroke-width: 1 } 
		.s24 { opacity: .9;fill: url(#g3) } 
		.s25 { opacity: .4;fill: url(#g4) } 
		.s26 { fill: #0d5e2d } 
		.s27 { opacity: .3;fill: url(#g5) } 
		.s28 { opacity: .6;fill: #ffffff } 
		.s29 { fill: #daf760 } 
		.s30 { fill: #50e281 } 
		.s31 { fill: #2f5326 } 
	</style>
	<g id="Clip-Path" clip-path="url(#cp1)">
		<g id="Layer">
			<path id="Layer" class="s0" d="m496.9 521.9c0 0 1.9 3.8 2.5 4.6 0.6 0.8 1.4 2.6 3.5 1.9 0 0 2.4-0.9 2.9-1.3 0 0-2.3 1.2-2.8 1.7-0.4 0.6-1.6 1.4 0 4.9l1.8 3.8c0 0-2-3.9-2.5-4.6-0.5-0.7-1.5-2.6-3.7-1.8l-2.6 1.2c0 0 2.1-1 3-2 1-1 0.5-3.3-2.1-8.4z"/>
			<path id="Layer" fill-rule="evenodd" class="s1" d="m469.7 288.5l11.1 0.8-6.1 9.7-11.2-0.7 0.1-0.2z"/>
			<path id="Layer" fill-rule="evenodd" class="s2" d="m480.7 289l0.1 0.1v0.1l-11.1-0.7-4.8-10.4 11.1 0.7z"/>
			<path id="Layer" fill-rule="evenodd" class="s3" d="m464.9 278.1l4.9 10.4-6.3 9.7-4.8-10.4z"/>
			<path id="Layer" class="s4" d="m211.6 567.7c0-23.5 86.5-42.5 193.3-42.5 106.7 0 193.3 19 193.3 42.5 0 23.5-86.6 42.6-193.3 42.6-106.8 0-193.3-19.1-193.3-42.6z"/>
			<path id="Layer" class="s5" d="m142.1 552.8c0-27.7 92-50.1 205.4-50.1 113.4 0 205.3 22.4 205.3 50.1 0 27.7-91.9 50.1-205.3 50.1-113.4 0-205.4-22.4-205.4-50.1z"/>
			<path id="Layer" class="s6" d="m552.8 552.3v4.3c0.5 13-19.5 26-60.1 35.9-80.2 19.6-210.2 19.6-290.4 0-39.6-9.6-59.7-22.3-60.2-34.9v-4.4c0.5 12.7 20.6 25.4 60.2 35 80.2 19.6 210.2 19.6 290.4 0 40.6-9.9 60.6-22.9 60.1-35.9z"/>
			<path id="Layer" class="s7" d="m159.8 466c0-25.3 84-45.8 187.7-45.8 103.6 0 187.6 20.5 187.6 45.8 0 25.3-84 45.8-187.6 45.8-103.7 0-187.7-20.5-187.7-45.8z"/>
			<path id="Layer" class="s8" d="m535.1 465.5v81c0.5 11.9-17.8 23.8-54.9 32.8-73.3 17.9-192.1 17.9-265.4 0-36.2-8.8-54.5-20.4-55-31.9v-81c0.5 11.6 18.8 23.1 55 32 73.3 17.9 192.1 17.9 265.4 0 37.1-9.1 55.4-21 54.9-32.9z"/>
			<path id="Layer" class="s9" d="m202 459.3c0-19.6 65.1-35.5 145.5-35.5 80.3 0 145.5 15.9 145.5 35.5 0 19.6-65.2 35.5-145.5 35.5-80.4 0-145.5-15.9-145.5-35.5z"/>
			<path id="Layer" class="s8" d="m493 459v7.8c0.3 9.2-13.9 18.4-42.6 25.4-56.9 13.9-149 13.9-205.8 0-28.1-6.8-42.3-15.8-42.6-24.7v-7.9c0.3 9 14.5 18 42.6 24.8 56.8 13.9 148.9 13.9 205.8 0 28.7-7 42.9-16.2 42.6-25.4z"/>
			<path id="Layer" class="s10" d="m303.4 459.3c0-5.9 19.8-10.7 44.1-10.7 24.3 0 44 4.8 44 10.7 0 5.9-19.7 10.8-44 10.8-24.3 0-44.1-4.9-44.1-10.8z"/>
			<path id="Layer" class="s11" d="m376.8 591.5l158-95.3 0.6 22.3-108.9 69.4c-16.1 2.1-32.8 3.4-49.7 3.6z"/>
			<path id="Layer" class="s12" d="m527.5 182.6c-4.2 2.6-13.8-0.7-22.7-7.9-8.8-7.2-14-15.9-12.6-20.7 1.6-0.7 7.3-2.4 18 4.4 3.3 2.1 6.5 4.7 9.3 7.6 8.5 8.8 8.4 14.6 8 16.6z"/>
			<path id="Layer" fill-rule="evenodd" class="s13" d="m534 185.3c-3.6 3.9-9.9 3.5-16.8 0.7h-0.1l-0.2-0.1c-4.9-2.2-9.7-5.2-14-8.7-5.8-4.8-10.5-10.2-13.2-15-3.1-5.4-3.8-10.6-0.8-14.3q-0.4 0.3-0.7 0.6c4.6-4.9 17.9-0.8 30.2 9.2 12 9.8 18.7 21.8 15.6 27.6zm-5.4-3.5c1.9-2.4 1-6.7-1.9-11.4q-1.1-1.6-2.2-3c-4.5-5.6-10.2-10.3-16.6-13.5q-3.1-1.7-6.5-2.6c-2.7-0.7-5-0.7-6.7 0.1q-0.4 0.2-0.7 0.4-0.6 0.3-1 0.9-0.5 0.6-0.8 1.5c-1.4 4.7 3.8 13.4 12.6 20.6 8.9 7.3 18.5 10.5 22.7 7.9q0.7-0.4 1.1-0.9z"/>
			<path id="Layer" class="s14" d="m534.2 184.9c-3.5 3.9-9.9 3.5-16.8 0.7l-0.2-0.1c-10.5-4.4-22.2-14.4-27.3-23.7-3-5.5-3.8-10.6-0.8-14.3q-0.4 0.3-0.7 0.6c-16.9 14.3 29.3 53.9 43.3 40.1l2.4-3.1q0.1-0.1 0.1-0.2z"/>
			<path id="Layer" class="s15" d="m528.6 181.7q-0.4 0.6-1.1 1c0.4-1.9 0.5-7.8-8-16.6-2.8-2.9-5.9-5.4-9.3-7.6-10.7-6.8-16.4-5.1-17.9-4.3 0.2-1.1 0.9-1.9 1.7-2.5q0.3-0.2 0.7-0.3c1.7-0.8 4-0.8 6.7-0.1q3.4 0.9 6.5 2.5c6.4 3.3 12.1 7.9 16.6 13.6q1.2 1.4 2.2 3c2.9 4.7 3.9 9 1.9 11.3z"/>
			<path id="Layer" class="s13" d="m500.8 170.1l0.7-10.9 12.4 11.4z"/>
			<path id="Layer" class="s15" d="m513.9 170.6l-12.4-11.4 16.9 6.7z"/>
			<path id="Layer" class="s13" d="m515 171.9l3 5.2-16.1-5.8z"/>
			<path id="Layer" class="s15" d="m519.5 167.1l-1.5 10-3-5.2z"/>
			<path id="Layer" class="s16" d="m500.8 170.1l6.8-5.3 10.8 1.1-4.5 4.7z"/>
			<path id="Layer" class="s12" d="m229.4 324.9c-1.4 1.7-5.9 1.7-10.7-0.1-4.7-1.8-8.1-4.7-8.1-6.9 0.5-0.5 2.7-2.1 8.1-0.7q2.6 0.6 5 1.8c4.8 2.5 5.6 5 5.7 5.9z"/>
			<path id="Layer" fill-rule="evenodd" class="s13" d="m232.5 325.1c-0.9 2.1-3.6 2.9-7 2.7h-0.1c-2.4-0.3-4.8-0.8-7.1-1.7-3.1-1.2-5.8-2.8-7.7-4.4-2-1.9-3.1-3.9-2.3-5.9q-0.1 0.2-0.2 0.3c1.2-2.7 7.4-2.9 14-0.4 6.5 2.4 11 6.5 10.4 9.4zm-2.7-0.7c0.5-1.3-0.5-3-2.4-4.6q-0.7-0.5-1.4-0.9c-2.7-1.7-5.7-2.9-8.9-3.3q-1.5-0.3-3-0.2c-1.3 0.1-2.3 0.5-2.9 1q-0.1 0.1-0.2 0.3-0.2 0.2-0.3 0.5-0.1 0.4-0.1 0.7c0 2.2 3.4 5.2 8.2 6.9 4.7 1.8 9.2 1.8 10.6 0.1q0.3-0.2 0.4-0.5z"/>
			<path id="Layer" class="s14" d="m232.6 324.9c-1 2.1-3.7 2.9-7 2.7h-0.1c-5.1-0.4-11.4-2.9-14.8-6.1-2.1-1.9-3.1-3.9-2.4-5.9q-0.1 0.2-0.2 0.3c-5.1 8.5 19.9 18.6 23.9 10.7l0.6-1.6q0-0.1 0-0.1z"/>
			<path id="Layer" class="s15" d="m229.8 324.3q-0.1 0.4-0.4 0.6c-0.1-0.9-0.9-3.3-5.7-5.8q-2.4-1.3-5-1.9c-5.4-1.3-7.6 0.2-8.1 0.7q0-0.7 0.4-1.2 0.1-0.2 0.2-0.3c0.6-0.5 1.6-0.9 2.9-1q1.5-0.1 3 0.2c3.2 0.4 6.3 1.6 8.9 3.3q0.7 0.4 1.4 0.9c1.9 1.6 2.9 3.3 2.4 4.5z"/>
			<path id="Layer" class="s13" d="m216.4 323.4l-1.2-4.7 6.8 3.1z"/>
			<path id="Layer" class="s15" d="m222 321.8l-6.8-3.1 8.1 0.5z"/>
			<path id="Layer" class="s13" d="m222.7 322.1l1.9 1.8-7.6-0.1z"/>
			<path id="Layer" class="s15" d="m223.9 319.5l0.7 4.4-1.9-1.8z"/>
			<path id="Layer" class="s16" d="m216.4 323.4l2.1-3.2 4.8-1-1.3 2.6z"/>
			<path id="Layer" class="s17" d="m317.2 331.9c0 0 9.3 19 12.6 22.7 3.2 3.7 6.8 12.9 20.2 8.2 0 0 15.3-5.9 18.8-8.3 0 0-14.8 7.7-18.2 10.6-3.3 3-10.7 7.9-3.2 25.8l8.8 19c0 0-10.1-19.5-12.7-23-2.6-3.5-7.5-13-21.3-7.6l-16.6 7.4c0 0 13.2-6.3 19.5-12 6.3-5.8 4.7-17.3-7.9-42.8z"/>
			<path id="Layer" class="s18" d="m377.4 40.1c0 0-2.6 9.9-2.6 12.3 0 2.4-1.6 6.8 4.8 9.5 0 0 7.3 2.8 9.4 3 0 0-7.8-2-9.9-2-2.2 0-6.4-0.6-9.3 8.3l-2.8 9.8c0 0 2.5-10.4 2.6-12.5 0.2-2.1 1.4-7.1-5.3-9.6l-8.4-2.7c0 0 6.8 2 10.9 2 4.1-0.1 7.1-4.8 10.6-18.1z"/>
			<path id="Layer" class="s19" d="m257.4 346.9l90.7 53 90.6-53-90.6 107.1z"/>
			<path id="Layer" class="s20" d="m257.4 346.9l90.7-53.1 90.6 53.1-90.6 53z"/>
			<path id="Layer" class="s21" d="m438.7 346.9l-90.6 107.1v-54.1z"/>
			<path id="Layer" class="s21" d="m348.1 384.5v-182.6l90.6 129.6z"/>
			<path id="Layer" class="s19" d="m257.4 331.5l90.7-129.6v182.6z"/>
			<path id="Layer" class="s5" d="m438.7 178.8c-7.4 0-13.3-6-13.3-13.5 0-7.4 5.9-13.4 13.3-13.4 7.3 0 13.2 6 13.2 13.4 0 7.5-5.9 13.5-13.2 13.5z"/>
			<path id="Layer" class="s22" d="m428 165.1c-1-0.5-0.9-2.8 0.3-5 1.1-2.3 2.8-3.7 3.8-3.1 1.1 0.5 1 2.7-0.2 5-1.1 2.2-2.9 3.6-3.9 3.1z"/>
			<path id="Layer" class="s5" d="m495.9 235.9c-1.8 3.4-6.1 4.7-9.5 2.9-3.5-1.9-4.8-6.3-2.9-9.7 1.9-3.5 6.1-4.8 9.6-2.9 3.4 1.8 4.7 6.2 2.8 9.7z"/>
			<path id="Layer" class="s22" d="m486.9 237.5c-0.5 0.3-1.5-0.3-2.3-1.4-0.7-1.1-0.9-2.3-0.4-2.7 0.5-0.3 1.5 0.3 2.2 1.4 0.8 1.1 1 2.3 0.5 2.7z"/>
			<path id="Layer" class="s5" d="m540.8 314.5c-1.3 2.6-4.5 3.6-7.1 2.2-2.5-1.4-3.4-4.6-2.1-7.2 1.4-2.6 4.6-3.5 7.1-2.1 2.6 1.3 3.5 4.6 2.1 7.1z"/>
			<path id="Layer" class="s22" d="m534.4 315.3c-0.3 0.2-1-0.2-1.5-0.9-0.5-0.7-0.6-1.5-0.3-1.7 0.3-0.3 1 0.2 1.5 0.9 0.5 0.7 0.6 1.5 0.3 1.7z"/>
			<path id="Layer" class="s5" d="m531.2 383.6c1.1 5.1-2.1 10.1-7.2 11.1-5 1.1-9.9-2.2-11-7.3-1-5.1 2.2-10.1 7.2-11.1 5.1-1.1 10 2.2 11 7.3z"/>
			<path id="Layer" class="s22" d="m523.3 392.1c-0.2 0.7-1.5 1-3 0.5-1.5-0.4-2.6-1.3-2.4-2 0.2-0.7 1.6-0.9 3.1-0.5 1.5 0.4 2.5 1.3 2.3 2z"/>
			<path id="Layer" class="s23" d="m525.8 377.1l11.4-61.4"/>
			<path id="Layer" class="s23" d="m535.8 309.6l-43.9-71.3"/>
			<path id="Layer" class="s23" d="m485.2 228l-46.9-58.7"/>
			<path id="Layer" class="s5" d="m135.3 315.3c-6.8 0-12.3-5.6-12.3-12.5 0-6.9 5.5-12.6 12.3-12.6 6.9 0 12.4 5.7 12.4 12.6 0 6.9-5.5 12.5-12.4 12.5z"/>
			<path id="Layer" class="s5" d="m194.1 264.1c-6.9 0-12.4-5.6-12.4-12.6 0-6.9 5.5-12.5 12.4-12.5 6.8 0 12.3 5.6 12.3 12.5 0 7-5.5 12.6-12.3 12.6z"/>
			<path id="Layer" class="s5" d="m159.9 186.3c-5.7 0-10.4-4.7-10.4-10.5 0-5.9 4.7-10.6 10.4-10.6 5.8 0 10.4 4.7 10.4 10.6 0 5.8-4.6 10.5-10.4 10.5z"/>
			<path id="Layer" class="s22" d="m162.1 167c0.7-0.7 2.5 0 4 1.5 1.6 1.5 2.4 3.3 1.7 4-0.6 0.7-2.4 0-4-1.6-1.5-1.5-2.3-3.3-1.7-3.9z"/>
			<path id="Layer" class="s22" d="m191.5 241.9c0-0.9 1.9-1.5 4-1.4 2.2 0.2 3.9 1 3.9 1.9-0.1 1-1.9 1.6-4.1 1.5-2.1-0.2-3.9-1-3.8-2z"/>
			<path id="Layer" class="s22" d="m136 292.6c0.4-0.9 2.3-0.9 4.3 0 2 0.9 3.3 2.4 2.9 3.2-0.3 0.9-2.2 0.8-4.2-0.1-2-0.9-3.4-2.3-3-3.1z"/>
			<path id="Layer" class="s5" d="m259.8 67c-4.2 0-7.7-3.5-7.7-7.9 0-4.3 3.5-7.8 7.7-7.8 4.3 0 7.8 3.5 7.8 7.8 0 4.4-3.5 7.9-7.8 7.9z"/>
			<path id="Layer" class="s22" d="m260.5 52.7c0.3-0.5 1.6-0.2 2.8 0.6 1.3 0.8 2 1.9 1.7 2.5-0.4 0.5-1.7 0.2-2.9-0.6-1.2-0.8-2-1.9-1.6-2.5z"/>
			<path id="Layer" class="s5" d="m172.4 399.9c-3.3 0-5.9-2.7-5.9-5.9 0-3.3 2.6-6 5.9-6 3.2 0 5.8 2.7 5.8 6 0 3.2-2.6 5.9-5.8 5.9z"/>
			<path id="Layer" class="s5" d="m188.2 332.6c-3.2 0-5.8-2.6-5.8-5.9 0-3.3 2.6-5.9 5.8-5.9 3.2 0 5.9 2.6 5.9 5.9 0 3.3-2.7 5.9-5.9 5.9z"/>
			<path id="Layer" class="s23" d="m165.5 167.8l89-104.3"/>
			<path id="Layer" class="s23" d="m162.3 184.6l27.1 58.1"/>
			<path id="Layer" class="s23" d="m142.9 297.6l46.6-42.1"/>
			<path id="Layer" class="s23" d="m134 293l23.1-110.1"/>
			<path id="Layer" class="s23" d="m139.4 312.8l30 78.9"/>
			<path id="Layer" class="s23" d="m188.7 329.9l-12.5 62.1"/>
			<path id="Layer" class="s22" d="m186.3 322.4c0.2-0.7 1.6-0.9 3.1-0.5 1.5 0.3 2.7 1.2 2.5 1.8-0.2 0.7-1.5 0.9-3.1 0.5-1.5-0.3-2.6-1.2-2.5-1.8z"/>
			<path id="Layer" class="s22" d="m169.5 390.5c0-0.7 1.3-1.2 2.9-1.1 1.6 0 2.8 0.6 2.8 1.3 0 0.6-1.3 1.1-2.9 1.1-1.5-0.1-2.8-0.7-2.8-1.3z"/>
			<path id="Layer" d="m358.6 178.8l38.1-11.7 12.6 42.1-38.1 11.7z"/>
			<path id="Layer" fill-rule="evenodd" class="s1" d="m256.2 110.7l11.7-14.5 7 17.8-11.7 14.5-0.1-0.3z"/>
			<path id="Layer" fill-rule="evenodd" class="s2" d="m267.5 96.1h0.1 0.2l-11.7 14.5-18.5-3.4 11.6-14.5z"/>
			<path id="Layer" fill-rule="evenodd" class="s3" d="m237.6 107.3l18.6 3.3 6.9 18-18.5-3.6z"/>
			<path id="Layer" class="s8" d="m235.5 184.9l-2 3.1c-1.6-2.4-2.5-3.6-5.3-1.6l-1-3c2.8-0.2 3.4-1.3 3.2-4.7l4.5 0.3c-0.5 1.1-1.3 5.1 0.6 5.9z"/>
			<path id="Layer" class="s8" d="m233.2 179.5c-3.3 0-6-2.7-6-6.1 0-3.4 2.7-6.1 6-6.1 3.3 0 6 2.7 6 6.1 0 3.4-2.7 6.1-6 6.1z"/>
			<path id="Layer" class="s8" d="m239.2 195.6c-3.3 0-6-2.8-6-6.2 0-3.3 2.7-6.1 6-6.1 3.4 0 6.1 2.8 6.1 6.1 0 3.4-2.7 6.2-6.1 6.2z"/>
			<path id="Layer" class="s8" d="m222.5 193.3c-3.4 0-6.1-2.7-6.1-6.1 0-3.4 2.7-6.1 6.1-6.1 3.3 0 6 2.7 6 6.1 0 3.4-2.7 6.1-6 6.1z"/>
			<path id="Layer" class="s8" d="m480.6 364.9l-3.6 0.5c0.8-2.8 1-4.3-2.3-5l1.5-2.8c2.1 2 3.3 1.7 5.7-0.7l2.7 3.7c-1.2 0.3-4.6 2.3-4 4.3z"/>
			<path id="Layer" class="s8" d="m483.1 359.6c-2.2-2.6-1.9-6.4 0.6-8.7 2.5-2.2 6.3-2 8.5 0.6 2.2 2.5 1.9 6.4-0.6 8.6-2.5 2.3-6.3 2-8.5-0.5z"/>
			<path id="Layer" class="s8" d="m475.2 374.8c-2.2-2.6-2-6.4 0.5-8.7 2.5-2.2 6.4-1.9 8.6 0.6 2.2 2.5 1.9 6.4-0.6 8.6-2.5 2.3-6.3 2-8.5-0.5z"/>
			<path id="Layer" class="s8" d="m465.8 360.5c-2.2-2.5-2-6.4 0.5-8.6 2.5-2.2 6.3-2 8.5 0.6 2.2 2.5 2 6.4-0.5 8.6-2.5 2.2-6.3 2-8.5-0.6z"/>
			<path id="Layer" class="s24" d="m257.6 438.8l4.5-110.8h176.7v109.1c2.9 25.7-52.6 34.4-80.6 35.5-84.9 1.3-102.4-22-100.6-33.8z"/>
			<path id="Layer" class="s25" d="m345.7 476.5c-135.1 0-244.3-101.5-244.3-227.1 0-125.6 109.2-227.1 244.3-227.1 135.1 0 244.3 101.5 244.3 227.1 0 125.6-109.2 227.1-244.3 227.1z"/>
			<g id="Clip-Path" clip-path="url(#cp2)">
				<g id="Layer">
					<path id="Layer" fill-rule="evenodd" class="s26" d="m457 96.4c0 0.5-0.5 1-1.2 1.5-1.7 1-5.1 1.6-9.1 2 2.4 5.2 3.7 9.8 2.2 10.7-1 0.5-2.5-0.5-4.3-2.4q-0.5 0.1-0.9 0-0.5-0.2-0.8-0.5-0.3-0.4-0.4-0.8 0-0.5 0.2-0.9-0.9-1.3-1.9-2.7c-2.3 3.3-4.6 6-6.3 7-0.7 0.4-1.3 0.6-1.8 0.3-1.5-0.9-0.3-5.5 2.2-10.7q-1.6-0.2-3.1-0.4-0.2 0.4-0.5 0.6-0.3 0.2-0.6 0.2-0.3 0.1-0.6 0-0.3-0.1-0.6-0.3-0.2-0.2-0.4-0.5-0.1-0.2-0.1-0.5c-2.7-0.6-4.4-1.5-4.4-2.6 0-1.8 4.6-3 10.3-3.5-2.5-5.2-3.7-9.8-2.2-10.7 1.6-0.9 4.9 2.5 8.1 7.3q0.9-1.3 1.7-2.5-0.1-0.3-0.1-0.8 0.1-0.4 0.3-0.7 0.3-0.3 0.7-0.4 0.4-0.2 0.8-0.1c2-2.2 3.7-3.4 4.7-2.8 1.5 0.9 0.2 5.5-2.2 10.7 5.7 0.5 10.3 1.7 10.3 3.5zm-14-8.8q-0.8 1.2-1.8 2.5 0.9 1.3 1.7 2.6 1.5 0.1 3 0.2c2.7-5.7 3.4-9.6 2.6-10.1q-0.3-0.1-1 0.3c-0.7 0.4-1.6 1.1-2.6 2.3q0.1 0.1 0.2 0.3 0.3 0.4 0.2 1-0.1 0.5-0.5 0.8-0.3 0.4-0.8 0.4-0.6 0-1-0.3zm1.1 8.8q-0.3-0.7-0.8-1.5-0.4-0.7-0.8-1.4-0.8-0.1-1.7-0.1-0.8 0-1.7 0.1-0.4 0.7-0.8 1.4-0.5 0.8-0.8 1.5 0.3 0.7 0.8 1.5 0.4 0.7 0.8 1.4 0.8 0.1 1.7 0.1 0.9 0 1.7-0.1 0.4-0.7 0.8-1.4 0.4-0.8 0.8-1.5zm0.5 0.8q0 0 0 0 0 0 0 0zm0 0q-0.3 0.5-0.6 1-0.3 0.6-0.7 1.1 1.2 0 2.3-0.1-0.5-1-1-2zm-3.8 2.9q-0.6 0-1.2 0 0.6 1 1.2 1.9 0.6-0.9 1.2-1.9-0.6 0-1.2 0zm-3.2-1.9q-0.3-0.5-0.6-1-0.5 1-1 2 1.1 0.1 2.3 0.1-0.4-0.5-0.7-1.1zm0-3.7q0.3-0.5 0.6-1-1.1 0-2.2 0.1 0.5 1 1 2 0.3-0.5 0.6-1.1zm3.2-1.8q0.6 0 1.2 0-0.6-1-1.2-1.9-0.6 0.9-1.2 1.9 0.6 0 1.2 0zm3.2 1.8q0.3 0.6 0.6 1.1 0.5-1 1-2-1.1-0.1-2.3-0.1 0.4 0.5 0.7 1zm-8.3-1.6q1.5-0.1 3-0.2 0.8-1.3 1.7-2.6c-3.6-5.2-6.5-7.7-7.3-7.2-0.8 0.4-0.1 4.3 2.6 10zm-3.7 5.9q0 0 0 0 0 0 0 0zm0 0q1.5 0.2 3.2 0.3 0.7-1.3 1.4-2.7-0.7-1.4-1.4-2.7c-4.6 0.3-7.8 1.1-9.1 1.9q-0.7 0.4-0.7 0.8c0 0.6 1.3 1.3 3.6 1.8 0.2-0.3 0.4-0.6 0.7-0.8 0.3-0.2 0.7-0.3 1.1-0.2 0.3 0.1 0.7 0.3 0.9 0.6 0.2 0.2 0.3 0.6 0.3 1zm8.3 3.8q-0.8-1.2-1.6-2.5-1.6-0.1-3-0.2c-2.7 5.7-3.5 9.5-2.6 10 0.8 0.5 3.7-2 7.2-7.3zm8.2 7.3c0.8-0.5 0.1-4.3-2.6-10q-1.5 0.1-3 0.1-0.8 1.4-1.7 2.6 1.1 1.5 2 2.7 0.1 0 0.1 0c0.3-0.2 0.7-0.3 1.1-0.2 0.3 0.1 0.7 0.3 0.9 0.6 0.2 0.3 0.3 0.6 0.3 1 0 0.4-0.1 0.7-0.4 1 1.6 1.7 2.8 2.5 3.3 2.2zm7.7-13.5c0-1-3.6-2.3-9.8-2.8q-0.6 1.4-1.4 2.8 0.7 1.3 1.4 2.7c6.2-0.5 9.9-1.8 9.9-2.7z"/>
					<path id="Layer" class="s26" d="m439.3 97.3c-0.5-0.9-0.2-2 0.6-2.5 0.9-0.5 1.9-0.2 2.4 0.7 0.5 0.9 0.2 2-0.6 2.5-0.9 0.5-2 0.2-2.4-0.7z"/>
				</g>
			</g>
			<path id="Layer" class="s27" d="m345.7 22.3c134.9 0 244.3 101.7 244.3 227.1 0 125.4-109.4 227.1-244.3 227.1-134.9 0-244.3-101.7-244.3-227.1 0-125.4 109.4-227.1 244.3-227.1z"/>
			<path id="Layer" class="s28" d="m147.3 243.8l89.5 148.6-30.2-13-66.7-104.6c1.1-10.6 3.6-21.1 7.4-31z"/>
			<path id="Layer" class="s28" d="m154.5 224.8l102.3 176.4-8.7-3.7-97.6-163.1c0 0 1.8-5 4-9.6z"/>
			<g id="Layer">
			</g>
			<path id="Layer" class="s5" d="m228.5 531.1c0 2-0.7 3.4-1.8 4.1l-3.2 1.9c-1.1 0.6-0.4-0.8-2.1-1.8-3.5-2.1-6.3-7-6.3-11 0-2-1.8-2.1-0.7-2.7l3.4-1.9c1.1-0.7 2.7-0.5 4.4 0.5 3.5 2 6.3 6.9 6.3 10.9z"/>
			<path id="Layer" class="s29" d="m225.1 533.1c0 4-2.8 5.7-6.2 3.6-3.5-2-6.3-6.9-6.3-11 0-4 2.8-5.6 6.3-3.6 3.4 2 6.2 7 6.2 11z"/>
			<path id="Layer" class="s30" d="m3.5 720.4q-0.8 0-1.5-0.4-0.7-0.4-1.1-1c-0.4-0.6-0.5-1.4-0.3-2.1 0.2-0.7 0.7-1.4 1.4-1.7l127-67.5c1.4-0.8 2.6-1.9 3.4-3.3 0.9-1.3 1.3-2.8 1.3-4.4 0-1.5-0.4-3-1.3-4.4-0.8-1.3-2-2.4-3.4-3.2l-3.6-1.9c-2.4-1.3-4.4-3.1-5.7-5.3-1.4-2.2-2.1-4.7-2.1-7.2-0.1-2.5 0.7-5 2-7.2 1.4-2.2 3.3-4 5.7-5.3l54.9-29.5c1.5-0.8 2.7-1.9 3.5-3.2 0.8-1.4 1.3-2.9 1.3-4.4v-14.9c0-2.4 0.6-4.8 1.9-6.9 1.3-2.2 3.2-4 5.4-5.3l23.3-13.4c0.7-0.4 1.5-0.5 2.3-0.3 0.7 0.2 1.4 0.6 1.8 1.2 0.4 0.6 0.6 1.4 0.4 2.1-0.1 0.7-0.6 1.3-1.2 1.7l-23.4 13.5c-1.3 0.8-2.5 1.9-3.3 3.2-0.7 1.3-1.1 2.7-1.1 4.2v14.9c0 2.5-0.8 5-2.1 7.2-1.4 2.1-3.3 4-5.7 5.2l-54.9 29.6c-1.5 0.8-2.7 1.9-3.5 3.2-0.8 1.4-1.3 2.9-1.3 4.4 0 1.6 0.5 3.1 1.3 4.4 0.9 1.4 2.1 2.5 3.5 3.2l3.6 1.9c2.4 1.3 4.4 3.1 5.7 5.3 1.4 2.2 2.1 4.7 2.1 7.2 0 2.6-0.7 5.1-2.1 7.3-1.3 2.2-3.3 4-5.7 5.2l-126.9 67.6q-0.8 0.3-1.6 0.3z"/>
			<path id="Layer" class="s19" d="m322 106.7l7.6-0.8 3.2-7-1 10.3z"/>
			<path id="Layer" class="s20" d="m322 106.7l3.1-7.1 7.7-0.7-3.2 7z"/>
			<path id="Layer" class="s21" d="m332.8 98.9l-1 10.3-2.2-3.3z"/>
			<path id="Layer" class="s21" d="m328.9 105l-7.6-10.8 10.8 3.8z"/>
			<path id="Layer" class="s19" d="m321.3 105.8v-11.6l7.6 10.8z"/>
			<g id="Clip-Path" clip-path="url(#cp3)">
				<g id="Layer">
					<path id="Layer" class="s26" d="m241.6 371.6q0.2-0.4 0.6-0.5 0.3-0.2 0.7-0.1 0.3 0.1 0.6 0.3 0.3 0.3 0.4 0.6 0 0.4-0.1 0.7-0.1 0.4-0.4 0.6-0.3 0.2-0.6 0.2-0.4 0.1-0.7-0.1l-2.7 3.9q0.2 0.3 0.3 0.6l1.4-0.5q-0.1-0.3-0.1-0.5 0-0.3 0.2-0.5 0.2-0.4 0.5-0.5 0.4-0.2 0.7-0.1 0.4 0.1 0.7 0.3 0.2 0.3 0.3 0.7 0.1 0.3 0 0.7-0.2 0.3-0.5 0.5-0.3 0.2-0.7 0.3-0.3 0-0.6-0.2-0.2-0.2-0.4-0.4l-1.5 0.5q0.1 0.4-0.1 0.7-0.1 0.4-0.3 0.7-0.3 0.2-0.6 0.4-0.4 0.1-0.7 0.1l-1.1 3.2q0.2 0.2 0.3 0.4l2.3-1.5q-0.2-0.5-0.1-0.9 0.1-0.5 0.4-0.8 0.4-0.2 0.9-0.2 0.5 0 0.8 0.4 0.3 0.3 0.3 0.8 0 0.5-0.3 0.8-0.3 0.4-0.7 0.5-0.5 0-0.9-0.2-0.1-0.1-0.2-0.2l-2.3 1.6q0.1 0.4 0.1 0.8-0.1 0.4-0.3 0.7-0.2 0.4-0.6 0.6-0.3 0.2-0.7 0.2-0.4 0-0.8-0.1-0.4-0.2-0.6-0.5-0.3-0.4-0.4-0.8-0.1-0.4 0-0.8l-2.7-1.1h-0.1q-0.1 0.3-0.4 0.5l0.4 1.2q0.4 0 0.7 0.2 0.4 0.2 0.5 0.7 0.1 0.4 0 0.8-0.2 0.4-0.5 0.6-0.4 0.2-0.8 0.1-0.4 0-0.7-0.3-0.3-0.3-0.4-0.8 0-0.4 0.2-0.8 0.2-0.3 0.6-0.4l-0.3-1.1q-0.4 0.2-0.8 0.1-0.5 0-0.8-0.2 0 0 0 0l-0.9 0.7q0.3 0.4 0.2 0.9-0.1 0.4-0.5 0.7-0.4 0.3-0.8 0.3-0.5-0.1-0.8-0.4-0.3-0.3-0.4-0.8 0-0.5 0.3-0.9 0.3-0.3 0.8-0.4 0.4-0.1 0.8 0.2 0.1 0 0.2 0.1l0.8-0.7c-0.3-0.2-0.4-0.6-0.5-1l-2.9-0.3q-0.1 0.3-0.2 0.5-0.2 0.3-0.6 0.5-0.3 0.2-0.7 0.3-0.4 0-0.7-0.1-0.4-0.2-0.7-0.5-0.3-0.2-0.4-0.6-0.1-0.4 0-0.8 0-0.4 0.2-0.7 0.2-0.3 0.6-0.5l-1.1-2.1q-0.5 0.2-0.9 0.1-0.5-0.2-0.7-0.5-0.3-0.4-0.2-0.9 0-0.5 0.4-0.8 0.3-0.3 0.8-0.3 0.4 0 0.8 0.3 0.3 0.3 0.4 0.8 0.1 0.4-0.2 0.8-0.1 0.1-0.1 0.2l1.1 2.2q0.4-0.1 0.8-0.1l0.4-3.2q-0.5-0.1-0.8-0.3-0.4-0.2-0.6-0.6-0.2-0.4-0.2-0.8 0-0.4 0.2-0.8l-1.2-0.7q-0.3 0.3-0.7 0.4c-0.3 0-0.6-0.1-0.9-0.2-0.2-0.2-0.4-0.5-0.5-0.8 0-0.3 0-0.6 0.2-0.9q0.3-0.4 0.7-0.5c0.3-0.1 0.6-0.1 0.9 0.1 0.3 0.1 0.5 0.4 0.6 0.7 0.1 0.3 0.1 0.6-0.1 0.9l1.2 0.7c0.2-0.4 0.6-0.6 1-0.7l-0.6-2.6q-0.4 0.1-0.8 0-0.4-0.1-0.8-0.4-0.3-0.3-0.4-0.7-0.2-0.4-0.1-0.8 0.1-0.5 0.3-0.8 0.3-0.4 0.7-0.5 0.4-0.2 0.8-0.2 0.4 0 0.8 0.3 0.2 0.1 0.3 0.3l1.2-1.3c-0.3-0.2-0.4-0.4-0.5-0.7q-0.1-0.5 0.1-0.9 0.2-0.5 0.7-0.6 0.4-0.2 0.8 0 0.5 0.2 0.7 0.7c0.1 0.2 0.1 0.6 0 0.8q-0.2 0.5-0.6 0.7-0.4 0.2-0.8 0.1l-1.3 1.5q0.1 0.3 0.2 0.7l3.1-0.6q-0.1-0.4 0-0.7 0.1-0.4 0.4-0.7 0.2-0.3 0.6-0.5 0.3-0.1 0.7-0.1l0.1-0.8q-0.5 0-0.8-0.4c-0.2-0.2-0.3-0.5-0.3-0.8q0.1-0.5 0.4-0.8 0.3-0.4 0.8-0.4 0.5 0 0.8 0.3 0.4 0.4 0.4 0.8c0 0.3 0 0.6-0.2 0.9q-0.3 0.4-0.8 0.4v0.9q0.4 0.1 0.7 0.4 0.4 0.3 0.5 0.7 0.1 0.4 0 0.9-0.1 0.4-0.3 0.8-0.3 0.3-0.7 0.5-0.5 0.1-0.9 0-0.4 0-0.8-0.3-0.3-0.3-0.5-0.7l-3.2 0.5q-0.1 0.4-0.2 0.6l0.8 0.5c0.2-0.2 0.4-0.4 0.7-0.4 0.3 0 0.7 0 0.9 0.2 0.2 0.2 0.4 0.5 0.5 0.8q0.1 0.5-0.2 0.9-0.2 0.4-0.7 0.5c-0.3 0.1-0.6 0.1-0.9-0.1q-0.4-0.2-0.6-0.7c-0.1-0.3-0.1-0.6 0.1-0.9l-0.8-0.5q-0.2 0.3-0.5 0.5l0.6 2.7c0.4 0 0.8 0.2 1.1 0.5 0.3 0.3 0.5 0.7 0.5 1.2 0 0.4-0.1 0.8-0.4 1.2-0.2 0.3-0.6 0.5-1.1 0.6l-0.4 3.3q0.2 0.1 0.4 0.2 0.2 0.2 0.4 0.4l0.8-0.7q-0.3-0.4-0.2-0.9 0-0.5 0.4-0.8 0.4-0.3 0.8-0.3 0.5 0.1 0.8 0.4 0.4 0.3 0.4 0.8 0 0.5-0.3 0.8-0.3 0.4-0.7 0.5-0.5 0.1-0.9-0.2 0 0-0.1-0.1l-0.8 0.8q0.1 0.4 0.1 0.9l2.9 0.2q0-0.3 0.2-0.6 0.2-0.4 0.5-0.6 0.3-0.2 0.6-0.3 0.4-0.1 0.8 0 0.3 0.1 0.6 0.3 0.3 0.2 0.5 0.5 0.2 0.4 0.2 0.7 0 0.4-0.1 0.8l2.8 1.1q0-0.1 0.1-0.1 0.3-0.5 0.8-0.7l-0.4-0.8q-0.4 0.2-0.8 0-0.4-0.1-0.7-0.5-0.2-0.4-0.2-0.8 0.1-0.5 0.5-0.8 0.3-0.3 0.8-0.3 0.4 0 0.8 0.3 0.3 0.3 0.4 0.8 0 0.4-0.2 0.8-0.1 0.2-0.2 0.3l0.3 0.9c0.4-0.1 0.8 0 1.1 0.2l1-3.1q-0.3 0-0.5-0.2c-0.3-0.2-0.6-0.5-0.7-0.9-0.1-0.3-0.1-0.7 0-1.1 0.2-0.4 0.4-0.7 0.7-0.9 0.4-0.2 0.7-0.3 1.1-0.2l0.1-2q-0.4-0.1-0.7-0.3-0.3-0.3-0.4-0.7 0-0.4 0.2-0.8 0.2-0.4 0.5-0.5 0.4-0.2 0.8-0.1 0.4 0.1 0.7 0.4 0.2 0.3 0.3 0.7 0 0.4-0.2 0.7-0.2 0.3-0.4 0.4-0.2 0.2-0.5 0.2v2q0.2 0.1 0.3 0.2 0.1 0.1 0.2 0.2l2.7-4q-0.3-0.3-0.3-0.7-0.1-0.4 0.1-0.8z"/>
				</g>
			</g>
			<g id="Clip-Path" clip-path="url(#cp4)">
				<g id="Layer">
					<path id="Layer" class="s31" d="m288.4 216.1c0.4-0.8 1.4-1.1 2.1-0.6 0.8 0.4 1 1.4 0.6 2.1-0.4 0.8-1.4 1.1-2.1 0.6-0.8-0.4-1-1.4-0.6-2.1z"/>
					<path id="Layer" class="s31" d="m294.7 219.7c0.4-0.8 1.4-1 2.1-0.6 0.8 0.5 1 1.4 0.6 2.2-0.4 0.8-1.4 1-2.1 0.6-0.8-0.5-1-1.4-0.6-2.2z"/>
					<path id="Layer" class="s31" d="m288.4 219.7c0.4-0.7 1.4-1 2.1-0.6 0.8 0.5 1.1 1.5 0.6 2.2-0.4 0.8-1.4 1-2.1 0.6-0.8-0.4-1-1.4-0.6-2.2z"/>
					<path id="Layer" class="s31" d="m294.7 216c0.4-0.7 1.4-1 2.1-0.6 0.8 0.5 1 1.4 0.6 2.2-0.4 0.8-1.4 1-2.1 0.6-0.8-0.4-1.1-1.4-0.6-2.2z"/>
					<path id="Layer" class="s31" d="m291.6 221.6c0.4-0.8 1.3-1.1 2.1-0.6 0.7 0.4 1 1.4 0.6 2.1-0.5 0.8-1.4 1.1-2.2 0.6-0.7-0.4-1-1.4-0.5-2.1z"/>
					<path id="Layer" class="s31" d="m291.5 214.2c0.5-0.8 1.4-1 2.2-0.6 0.7 0.5 1 1.4 0.5 2.2-0.4 0.7-1.3 1-2.1 0.6-0.7-0.5-1-1.4-0.6-2.2z"/>
					<path id="Layer" class="s31" d="m299.1 222.3c0.3-0.4 0.8-0.5 1.2-0.3 0.3 0.2 0.5 0.7 0.3 1.1-0.3 0.4-0.8 0.6-1.2 0.4-0.4-0.3-0.5-0.8-0.3-1.2z"/>
					<path id="Layer" class="s31" d="m285.2 214.3c0.2-0.4 0.7-0.6 1.1-0.4 0.4 0.3 0.6 0.8 0.3 1.2-0.2 0.4-0.7 0.5-1.1 0.3-0.4-0.2-0.5-0.7-0.3-1.1z"/>
					<path id="Layer" class="s31" d="m282.9 212.9c0.2-0.2 0.5-0.3 0.8-0.2 0.2 0.2 0.3 0.5 0.1 0.8-0.1 0.2-0.4 0.3-0.7 0.2-0.2-0.2-0.3-0.5-0.2-0.8z"/>
					<path id="Layer" class="s31" d="m301.9 223.9c0.2-0.2 0.5-0.3 0.7-0.2 0.3 0.2 0.4 0.5 0.2 0.8-0.1 0.2-0.4 0.3-0.7 0.2-0.2-0.2-0.3-0.5-0.2-0.8z"/>
					<path id="Layer" class="s31" d="m299.1 214.2c0.2-0.4 0.7-0.5 1.1-0.3 0.4 0.2 0.6 0.7 0.3 1.1-0.2 0.4-0.7 0.6-1.1 0.3-0.4-0.2-0.5-0.7-0.3-1.1z"/>
					<path id="Layer" class="s31" d="m285.2 222.4c0.3-0.4 0.8-0.6 1.2-0.3 0.4 0.2 0.5 0.7 0.3 1.1-0.3 0.4-0.8 0.5-1.2 0.3-0.3-0.2-0.5-0.7-0.3-1.1z"/>
					<path id="Layer" class="s31" d="m283 224c0.1-0.2 0.4-0.3 0.7-0.2 0.2 0.2 0.3 0.5 0.2 0.7-0.2 0.3-0.5 0.4-0.7 0.2-0.3-0.1-0.4-0.4-0.2-0.7z"/>
					<path id="Layer" class="s31" d="m301.9 212.9c0.1-0.3 0.4-0.4 0.7-0.2 0.2 0.1 0.3 0.4 0.2 0.7-0.2 0.2-0.5 0.3-0.7 0.2-0.3-0.2-0.4-0.5-0.2-0.7z"/>
					<path id="Layer" class="s31" d="m292.1 210.2c0.3-0.4 0.8-0.6 1.2-0.4 0.4 0.3 0.5 0.8 0.3 1.2-0.3 0.4-0.8 0.5-1.2 0.3-0.4-0.2-0.5-0.7-0.3-1.1z"/>
					<path id="Layer" class="s31" d="m292.2 226.4c0.2-0.4 0.7-0.5 1.1-0.3 0.4 0.2 0.6 0.7 0.3 1.1-0.2 0.4-0.7 0.6-1.1 0.4-0.4-0.3-0.5-0.8-0.3-1.2z"/>
					<path id="Layer" class="s31" d="m292.5 229.5c0.1-0.2 0.4-0.3 0.7-0.2 0.2 0.2 0.3 0.5 0.2 0.7-0.2 0.3-0.5 0.4-0.7 0.2-0.3-0.1-0.4-0.4-0.2-0.7z"/>
					<path id="Layer" class="s31" d="m292.4 207.4c0.1-0.3 0.4-0.4 0.7-0.2 0.2 0.1 0.3 0.4 0.2 0.7-0.2 0.2-0.5 0.3-0.7 0.2-0.3-0.2-0.4-0.5-0.2-0.7z"/>
					<path id="Layer" class="s31" d="m295.2 212.7c0.2-0.5 0.8-0.6 1.3-0.4 0.4 0.3 0.6 0.9 0.3 1.4-0.2 0.4-0.8 0.6-1.3 0.3-0.4-0.3-0.6-0.8-0.3-1.3z"/>
					<path id="Layer" class="s31" d="m297.3 209.6c0.2-0.4 0.6-0.5 0.9-0.3 0.3 0.2 0.4 0.6 0.2 0.9-0.2 0.3-0.6 0.4-0.9 0.3-0.3-0.2-0.4-0.6-0.2-0.9z"/>
					<path id="Layer" class="s31" d="m288.9 223.7c0.3-0.4 0.9-0.6 1.3-0.3 0.5 0.3 0.7 0.8 0.4 1.3-0.3 0.5-0.8 0.6-1.3 0.4-0.5-0.3-0.6-0.9-0.4-1.4z"/>
					<path id="Layer" class="s31" d="m287.4 227.2c0.1-0.3 0.5-0.4 0.8-0.3 0.3 0.2 0.5 0.6 0.3 0.9-0.2 0.4-0.6 0.5-0.9 0.3-0.3-0.2-0.4-0.6-0.2-0.9z"/>
					<path id="Layer" class="s31" d="m288.9 212.7c0.3-0.4 0.8-0.6 1.3-0.3 0.4 0.2 0.6 0.8 0.3 1.3-0.2 0.4-0.8 0.6-1.2 0.3-0.5-0.2-0.7-0.8-0.4-1.3z"/>
					<path id="Layer" class="s31" d="m287.3 209.6c0.2-0.3 0.6-0.4 0.9-0.2 0.3 0.1 0.4 0.5 0.2 0.9-0.2 0.3-0.6 0.4-0.9 0.2-0.3-0.2-0.4-0.6-0.2-0.9z"/>
					<path id="Layer" class="s31" d="m295.2 223.7c0.3-0.4 0.9-0.6 1.3-0.3 0.5 0.2 0.6 0.8 0.4 1.3-0.3 0.4-0.9 0.6-1.3 0.3-0.5-0.2-0.6-0.8-0.4-1.3z"/>
					<path id="Layer" class="s31" d="m297.4 227.1c0.1-0.3 0.5-0.4 0.9-0.2 0.3 0.2 0.4 0.6 0.2 0.9-0.2 0.3-0.6 0.4-0.9 0.2-0.3-0.1-0.4-0.5-0.2-0.9z"/>
					<path id="Layer" class="s31" d="m285.8 218.3c0.2-0.5 0.8-0.7 1.3-0.4 0.4 0.3 0.6 0.8 0.3 1.3-0.2 0.5-0.8 0.6-1.3 0.4-0.4-0.3-0.6-0.9-0.3-1.4z"/>
					<path id="Layer" class="s31" d="m282.3 218.4c0.2-0.3 0.6-0.4 0.9-0.2 0.3 0.2 0.4 0.6 0.2 0.9-0.1 0.3-0.5 0.4-0.9 0.2-0.3-0.2-0.4-0.6-0.2-0.9z"/>
					<path id="Layer" class="s31" d="m298.3 218.2c0.3-0.5 0.9-0.6 1.3-0.4 0.5 0.3 0.6 0.9 0.4 1.4-0.3 0.4-0.9 0.6-1.3 0.3-0.5-0.3-0.6-0.8-0.4-1.3z"/>
					<path id="Layer" class="s31" d="m302.3 218.3c0.2-0.3 0.6-0.4 0.9-0.2 0.3 0.2 0.4 0.6 0.3 0.9-0.2 0.3-0.6 0.4-0.9 0.2-0.3-0.2-0.4-0.6-0.3-0.9z"/>
				</g>
			</g>
			<path id="Layer" class="s17" d="m299.4 524.2c0 0-15 9.6-17.8 12.7-2.8 3.1-10 7-5 18.1 0 0 6.3 12.5 8.6 15.2 0 0-7.7-11.9-10.4-14.5-2.8-2.6-7.6-8.4-21.7-0.5l-15 9.3c0 0 15.3-10.4 17.9-12.9 2.7-2.6 10.1-7.6 4.4-18.9l-7.7-13.5c0 0 6.5 10.7 11.8 15.6 5.4 4.8 14.8 2.4 34.9-10.6z"/>
		</g>
	</g>
</svg>