<svg width="846" height="707" viewBox="0 0 846 707" fill="none" xmlns="http://www.w3.org/2000/svg">
<path opacity="0.8" d="M-119.37 -328.018C-108.859 -272.765 -96.4912 -214.311 -49.4461 -175.796C3.33266 -132.587 94.5401 -119.199 124.312 -62.6836C147.719 -18.2829 123.678 36.1949 125.687 86.0729C128.712 162.195 196.043 225.344 282.338 251.261C343.288 269.514 415.514 272.671 462.947 307.135C546.92 368.077 509.15 491.132 572.918 566.624C628.394 632.263 742.569 643.721 845.388 650.148M-162.488 -296.644C-147.494 -236.961 -129.982 -174.598 -78.8361 -131.713C-25.2894 -86.8065 66.2615 -71.3414 101.174 -18.6702C128.495 22.4359 112.016 71.4821 118.018 118.868C127.094 190.571 194.089 253.413 276.547 281.776C336.603 302.418 403.538 311.795 448.288 347.884C524.694 409.57 491.626 525.473 549.738 599.992C602.575 667.643 712.429 685.9 815.567 695.537M-205.596 -265.301C-186.126 -201.159 -163.429 -134.913 -108.246 -87.6188C-53.8812 -41.0686 37.6963 -23.5528 78.0325 25.3709C109.176 63.116 100.308 106.676 110.359 151.633C125.352 218.803 192.135 281.627 270.835 312.34C330.024 335.476 391.425 350.685 433.686 388.695C502.636 450.766 474.008 560.042 526.644 633.455C576.822 703.47 682.202 728.204 785.852 741.007M-248.644 -233.851C-224.628 -165.317 -196.823 -95.0921 -137.602 -43.4622C-82.3757 4.70518 9.18322 24.2979 54.9502 69.4453C89.8163 103.865 88.5757 141.881 102.76 184.504C123.586 247.046 190.21 310.064 265.198 343.026C323.533 368.673 372.863 394.476 419.264 429.711C491.094 484.203 456.36 594.99 503.692 667.119C551.024 739.248 652.235 770.617 756.289 786.65M-291.846 -202.575C-263.375 -129.568 -230.341 -55.5592 -167.057 0.585166C-110.962 50.341 -19.5696 72.0281 31.7901 113.471C70.308 144.561 76.66 176.955 95.0896 217.298C121.531 275.151 188.199 338.555 259.476 373.62C317.018 401.959 358.626 434.433 404.694 470.599C472.069 523.463 438.456 630.022 480.623 700.613C525.361 775.48 622.02 812.937 726.614 832.169M-334.962 -171.202C-302.009 -93.7656 -263.759 -15.9151 -196.467 44.6804C-139.446 96.0145 -48.2769 119.805 8.59192 157.449C50.6834 185.231 64.5802 211.912 87.3892 250.015C119.176 303.171 186.061 367.124 253.7 404.149C310.316 435.14 344.5 473.839 390.079 511.395C452.739 562.934 420.137 664.991 457.429 734.112C499.32 811.579 591.809 855.183 696.807 877.646M-378.091 -139.846C-340.647 -58.008 -297.134 23.7026 -225.841 88.778C-167.909 141.674 -77.242 167.739 -14.5711 201.43C30.9941 225.941 58.8401 243.831 79.7497 282.841C107.823 335.475 183.944 395.9 248.01 434.774C303.697 468.564 330.613 512.954 375.561 552.301C433.112 602.853 401.793 700.268 434.454 767.6C473.355 847.802 561.704 897.512 667.213 923.141M-421.188 -108.486C-379.199 -22.1089 -330.489 63.3082 -255.267 132.858C-196.366 187.306 -106.245 215.671 -37.7023 245.488C11.328 266.83 46.7381 278.169 72.0525 315.605C105.047 364.406 181.686 424.711 242.231 465.305C296.918 501.962 331.551 543.232 361.007 593.059C396.035 652.564 383.171 735.493 411.394 800.992C447.119 884.018 531.57 939.663 637.49 968.568M-464.317 -77.1299C-417.865 13.6172 -363.82 102.9 -284.676 176.953C-224.82 232.938 -135.268 263.688 -60.8445 289.53C-8.49074 307.692 27.4528 317.127 64.3872 348.398C110.775 387.7 179.395 453.738 236.662 495.88C290.269 535.501 320.126 581.293 346.512 633.953C375.683 692.218 364.448 770.975 388.371 834.534C420.761 920.503 501.458 982.021 607.911 1014.08M-507.433 -45.7578C-456.498 49.4199 -397.152 142.492 -314.017 221.127C-253.185 278.635 -164.28 311.869 -83.9253 333.607C-28.1998 348.681 14.8267 352.439 56.8101 381.259C107.611 416.113 176.994 482.759 230.912 526.59C283.366 569.242 308.791 619.348 331.913 674.957C355.541 731.815 345.374 806.62 365.273 868.144C394.095 957.127 471.314 1024.42 578.206 1059.71M-550.608 -14.4495C-495.176 85.1745 -430.5 181.994 -343.506 265.097C-281.762 324.168 -193.471 359.961 -107.148 377.523C-48.0797 389.551 1.93586 387.714 49.0413 413.941C104.216 444.639 174.372 511.715 225.105 557.087C276.278 602.849 297.721 657.069 317.267 715.72C335.708 771.053 326.073 842.084 342.097 901.556C367.044 993.615 441.036 1066.63 548.418 1105.1M-593.662 16.9559C-533.747 121.01 -463.749 221.606 -372.876 309.238C-311.949 367.894 -226.956 407.255 -130.264 421.595C-67.8111 430.624 -10.8921 423.317 41.4375 446.768C100.97 473.367 171.778 540.923 219.426 587.726C269.233 636.649 287.254 694.912 302.748 756.625C316.293 810.428 306.686 877.747 319.071 935.096C329.019 982.337 352.044 1026.11 386.536 1063.34C421.027 1100.58 466.151 1130.38 518.751 1150.66M-636.792 48.3127C-572.38 156.814 -497.017 261.159 -402.287 353.334C-338.49 415.415 -251.529 456.583 -153.421 465.621C-87.5778 471.697 -23.7522 459.038 33.7683 479.563C97.5209 502.317 173.483 567.505 213.706 618.32C257.21 673.322 277.1 732.591 288.2 797.501C297.126 849.751 287.095 913.365 296.017 968.607C311.92 1067.14 380.795 1151.26 489.078 1196.18M-679.908 79.6847C-611.013 192.616 -530.263 300.699 -431.697 397.429C-366.903 461.021 -280.55 504.939 -176.542 509.65C-107.308 512.772 -36.5831 494.863 26.1231 512.344C94.2359 531.338 169.796 597.304 207.986 648.913C250.656 706.56 267.494 770.327 273.641 838.36C278.174 889.09 267.306 948.982 272.929 1002.11C283.721 1103.89 350.639 1193.57 459.349 1241.64M-723.037 111.041C-649.581 228.38 -563.322 340.004 -461.093 441.54C-395.123 506.509 -309.509 553.331 -199.7 553.676C-126.998 553.895 -49.3731 530.81 18.4566 545.139C91.0775 560.429 163.309 628.484 202.259 679.536C247.21 738.207 258.389 808.15 259.03 879.274C259.48 928.687 247.326 984.569 249.778 1035.59C254.899 1140.61 320.434 1235.86 429.606 1287.15M-766.155 142.414C-688.539 264.528 -596.263 379.41 -490.483 485.622C-423.587 552.17 -338.44 601.754 -222.837 597.689C-146.688 595.017 -62.1164 566.85 10.7887 577.933C87.9155 589.667 160.282 657.689 196.581 710.103C239.531 772.15 249.948 846.054 244.526 920.123C240.952 968.474 227.305 1020.03 226.788 1069.13C225.679 1177.32 290.335 1278.16 400.031 1332.71M-809.209 173.82C-726.783 300.143 -629.963 419.243 -519.838 529.779C-451.994 597.892 -367.288 650.271 -245.925 641.793C-166.273 636.221 -74.7063 602.988 3.11098 610.828C84.8854 619.017 157.176 686.988 190.831 740.811C231.794 806.175 241.92 884.316 229.935 961.097C222.556 1008.37 207.091 1055.54 203.703 1102.76C195.708 1214 260.169 1320.57 370.312 1378.32" stroke="url(#paint0_linear_523_1568)" stroke-width="1.65164" stroke-miterlimit="10"/>
<defs>
<linearGradient id="paint0_linear_523_1568" x1="-5.14102" y1="662.372" x2="410.679" y2="180.773" gradientUnits="userSpaceOnUse">
<stop stop-color="#8A8A8A"/>
<stop offset="1" stop-color="#8A8A8A" stop-opacity="0"/>
</linearGradient>
</defs>
</svg>
