<svg width="717" height="797" viewBox="0 0 717 797" fill="none" xmlns="http://www.w3.org/2000/svg">
<path d="M3.00256 585.818L717.884 355.361" stroke="#E2FF6F" stroke-opacity="0.43" stroke-width="0.5"/>
<path d="M3.00256 715.266L718.031 410.973" stroke="#E2FF6F" stroke-opacity="0.43" stroke-width="0.5"/>
<line x1="52.9202" y1="569.788" x2="52.9202" y2="-0.728821" stroke="#E2FF6F" stroke-opacity="0.43" stroke-width="0.5"/>
<line x1="254.875" y1="-0.728516" x2="254.875" y2="504.474" stroke="#E2FF6F" stroke-opacity="0.43" stroke-width="0.5"/>
<line x1="465.29" y1="-0.728516" x2="465.29" y2="436.539" stroke="#E2FF6F" stroke-opacity="0.43" stroke-width="0.5"/>
<line x1="374.11" y1="-0.728516" x2="374.11" y2="466.772" stroke="#E2FF6F" stroke-opacity="0.43" stroke-width="0.5"/>
<line x1="540.69" y1="-0.728516" x2="540.69" y2="412.103" stroke="#E2FF6F" stroke-opacity="0.43" stroke-width="0.5"/>
<line x1="602.061" y1="-0.728516" x2="602.061" y2="392.795" stroke="#E2FF6F" stroke-opacity="0.43" stroke-width="0.5"/>
<line x1="654.666" y1="-0.728516" x2="654.666" y2="375.871" stroke="#E2FF6F" stroke-opacity="0.43" stroke-width="0.5"/>
<line x1="698.502" y1="-2.18066" x2="698.502" y2="361.195" stroke="#E2FF6F" stroke-opacity="0.43" stroke-width="0.5"/>
<line y1="-0.25" x2="74.9879" y2="-0.25" transform="matrix(0.950406 0.311013 -0.430681 0.902504 646.657 -0.728516)" stroke="#E2FF6F" stroke-opacity="0.43" stroke-width="0.5"/>
<line y1="-0.25" x2="724.542" y2="-0.25" transform="matrix(0.99003 0.140856 -0.203148 0.979148 0.607422 4.85303)" stroke="#E2FF6F" stroke-opacity="0.43" stroke-width="0.5"/>
<line x1="3.00256" y1="188.773" x2="717.031" y2="188.773" stroke="#E2FF6F" stroke-opacity="0.43" stroke-width="0.5"/>
<line y1="-0.25" x2="724.333" y2="-0.25" transform="matrix(0.985774 -0.168076 0.24129 0.970453 3.00256 396.666)" stroke="#E2FF6F" stroke-opacity="0.43" stroke-width="0.5"/>
<line x1="698.252" y1="361.995" x2="717.884" y2="361.995" stroke="#E2FF6F" stroke-opacity="0.43" stroke-width="0.5"/>
<line x1="654.416" y1="375.621" x2="717.885" y2="375.621" stroke="#E2FF6F" stroke-opacity="0.43" stroke-width="0.5"/>
<line x1="603.204" y1="392.545" x2="717.885" y2="392.545" stroke="#E2FF6F" stroke-opacity="0.43" stroke-width="0.5"/>
<line x1="540.44" y1="412.79" x2="717.886" y2="412.79" stroke="#E2FF6F" stroke-opacity="0.43" stroke-width="0.5"/>
<line x1="465.04" y1="436.023" x2="717.885" y2="436.023" stroke="#E2FF6F" stroke-opacity="0.43" stroke-width="0.5"/>
<line x1="373.86" y1="466.521" x2="717.885" y2="466.522" stroke="#E2FF6F" stroke-opacity="0.43" stroke-width="0.5"/>
<line y1="-0.25" x2="462.106" y2="-0.25" transform="matrix(1 -0.000340613 0.000496704 1 254.625 505.383)" stroke="#E2FF6F" stroke-opacity="0.43" stroke-width="0.5"/>
<line y1="-0.25" x2="664.715" y2="-0.25" transform="matrix(0.999999 0.00161933 -0.0023614 0.999997 53.1702 569.946)" stroke="#E2FF6F" stroke-opacity="0.43" stroke-width="0.5"/>
<line x1="3.00256" y1="671.587" x2="718.031" y2="671.587" stroke="#E2FF6F" stroke-opacity="0.43" stroke-width="0.5"/>
<line x1="3.00256" y1="744.189" x2="718.031" y2="744.189" stroke="#E2FF6F" stroke-opacity="0.43" stroke-width="0.5"/>
<line y1="-0.25" x2="518.788" y2="-0.25" transform="matrix(0.768163 -0.640255 0.772228 0.635345 341.681 836.088)" stroke="#E2FF6F" stroke-opacity="0.43" stroke-width="0.5"/>
</svg>
