<svg width="91" height="90" viewBox="0 0 91 90" fill="none" xmlns="http://www.w3.org/2000/svg">
<g clip-path="url(#clip0_956_3545)">
<path d="M4.2491 40.5749H42.7154C43.1822 40.5383 44.134 40.5291 45.1224 41.0508C47.0078 42.0392 47.4196 44.0801 47.4745 44.3638V72.8178C47.383 73.1472 47.1634 73.7787 46.5868 74.3279C45.5892 75.298 44.3079 75.2705 44.0516 75.2614H4.23996C3.88302 75.2248 3.06849 75.0875 2.2814 74.4743C1.33874 73.7421 1.03671 72.7812 0.94519 72.4608V43.5219C1.05502 43.1466 1.30213 42.4694 1.89702 41.8379C2.78477 40.8952 3.86472 40.6572 4.23996 40.5932L4.2491 40.5749Z" fill="#50E281" stroke="black" stroke-miterlimit="10"/>
<path d="M12.66 40.575C12.5685 36.3651 12.4862 32.1642 12.3946 27.9543C12.4953 26.9109 12.898 24.1653 15.0671 21.7949C17.8584 18.7472 21.5925 18.5184 22.883 18.4361C23.908 18.372 27.459 18.1981 30.7446 20.5502C33.8014 22.7284 35.5037 25.6662 35.5037 27.881V40.5842H42.7064V28.2471C42.5966 26.3618 42.0383 21.502 38.3134 17.3836C32.7306 11.1967 24.4297 11.7825 22.1233 11.9381C19.7621 12.1028 14.8382 12.4323 10.5001 16.2945C6.35424 19.9828 5.27429 24.6595 4.98142 26.2977C4.96312 31.0568 4.94482 35.8251 4.92651 40.5842H12.66V40.575Z" fill="#EBFF25" stroke="#231F20" stroke-miterlimit="10"/>
<path d="M17.108 33.1892L20.7414 37.5731" stroke="#231F20" stroke-miterlimit="10"/>
<path d="M23.5144 30.2791V36.5574" stroke="#231F20" stroke-miterlimit="10"/>
<path d="M26.5532 37.4358L30.7449 32.9971" stroke="#231F20" stroke-miterlimit="10"/>
<path d="M22.9842 67.5011V66.0771C22.2429 65.9117 21.6162 65.5917 21.1042 65.1171C20.5976 64.6371 20.2296 64.0584 20.0002 63.3811L21.6962 62.7571C21.9149 63.2477 22.2242 63.6504 22.6242 63.9651C23.0296 64.2797 23.4936 64.4371 24.0162 64.4371C24.5496 64.4371 24.9762 64.3037 25.2962 64.0371C25.6162 63.7704 25.7762 63.3837 25.7762 62.8771C25.7762 62.5197 25.6749 62.2211 25.4722 61.9811C25.2696 61.7357 25.0002 61.5251 24.6642 61.3491C24.3336 61.1731 23.9682 61.0077 23.5682 60.8531C23.1896 60.7037 22.8109 60.5437 22.4322 60.3731C22.0589 60.1971 21.7176 59.9864 21.4082 59.7411C21.1042 59.4904 20.8589 59.1837 20.6722 58.8211C20.4909 58.4584 20.4002 58.0184 20.4002 57.5011C20.4002 56.8291 20.6242 56.2291 21.0722 55.7011C21.5202 55.1677 22.1576 54.8317 22.9842 54.6931V53.4211H24.8002V54.7091C25.4456 54.8477 25.9709 55.1197 26.3762 55.5251C26.7816 55.9251 27.0616 56.3971 27.2162 56.9411L25.5522 57.4931C25.4242 57.1731 25.2109 56.9037 24.9122 56.6851C24.6136 56.4611 24.2296 56.3491 23.7602 56.3491C23.3016 56.3491 22.9442 56.4504 22.6882 56.6531C22.4322 56.8504 22.3042 57.1331 22.3042 57.5011C22.3042 57.7837 22.3976 58.0237 22.5842 58.2211C22.7762 58.4184 23.0296 58.5944 23.3442 58.7491C23.6589 58.8984 24.0029 59.0424 24.3762 59.1811C24.7442 59.3197 25.1202 59.4824 25.5042 59.6691C25.8936 59.8557 26.2509 60.0851 26.5762 60.3571C26.9069 60.6291 27.1736 60.9677 27.3762 61.3731C27.5789 61.7784 27.6802 62.2717 27.6802 62.8531C27.6802 63.4717 27.5522 64.0077 27.2962 64.4611C27.0456 64.9144 26.7042 65.2824 26.2722 65.5651C25.8402 65.8424 25.3496 66.0264 24.8002 66.1171V67.5011H22.9842Z" fill="black"/>
</g>
<defs>
<clipPath id="clip0_956_3545">
<rect width="90" height="90" fill="white" transform="translate(0.94519)"/>
</clipPath>
</defs>
</svg>
