<svg width="125" height="31" viewBox="0 0 125 31" fill="none" xmlns="http://www.w3.org/2000/svg">
<g clip-path="url(#clip0_979_4519)">
<path d="M44.2708 0.5V24.0907H41.94L41.6167 21.3335C40.4842 23.2572 38.1844 24.4107 35.6253 24.4107C31.318 24.4107 27.8218 21.4293 27.8218 16.0451C27.8218 10.6609 31.3838 7.55117 35.6253 7.55117C38.2483 7.55117 40.4823 8.67393 41.6167 10.5325V0.5H44.2727H44.2708ZM41.5509 16.0451C41.5509 12.2628 39.1215 9.85997 36.0454 9.89071C32.8067 9.92325 30.5727 12.2953 30.5727 16.0451C30.5727 19.7949 32.8396 22.1019 36.0454 22.1019C39.2512 22.1019 41.5509 19.8582 41.5509 16.0451Z" fill="white"/>
<path d="M61.8871 16.7178H48.7406C48.8046 20.3066 51.1701 22.1671 54.1165 22.1671C56.3194 22.1671 58.1644 21.1094 58.9736 18.994H61.6935C60.7546 22.2304 57.9379 24.3782 54.0507 24.3782C49.2265 24.3782 46.0208 21.0136 46.0208 15.9494C46.0208 10.8852 49.2265 7.55127 54.0197 7.55127C58.8128 7.55127 61.8889 10.7568 61.8889 15.5643V16.7178H61.8871ZM48.7717 14.7633H59.1672C58.9736 11.3987 56.7706 9.69916 54.0179 9.69916C51.2651 9.69916 49.095 11.3661 48.7717 14.7633Z" fill="white"/>
<path d="M77.9489 14.3782V24.089H75.293V14.9224C75.293 11.5578 73.512 9.95409 70.856 9.95409C67.7799 9.95409 66.1286 12.1327 66.1286 15.3076V24.089H63.4727V7.87128H65.8035L66.0957 10.3717C67.0346 8.5764 68.9453 7.55127 71.4716 7.55127C75.5523 7.55127 77.9489 10.2434 77.9489 14.3782Z" fill="white"/>
<path d="M81.6735 19.314C81.7374 21.2377 83.4216 22.3586 85.9478 22.3586C88.4741 22.3586 90.0286 21.3642 90.0286 19.6665C90.0286 18.2237 89.2523 17.4553 87.3416 17.1986L83.9422 16.6544C80.8332 16.1409 79.4084 14.6674 79.4084 12.2321C79.4084 9.37905 82.1612 7.55298 85.756 7.55298C89.6103 7.55298 92.3941 9.37905 92.427 12.6172H89.8039C89.74 10.6627 88.0869 9.60505 85.7889 9.60505C83.491 9.60505 82.0333 10.5669 82.0333 12.1688C82.0333 13.5465 82.9393 14.2209 84.9797 14.5083L88.3152 15.0525C91.2945 15.5335 92.7193 16.9437 92.7193 19.4441C92.7193 22.6497 89.7729 24.4125 86.0154 24.4125C81.7082 24.4125 79.0522 22.4255 78.9883 19.3158H81.6753L81.6735 19.314Z" fill="white"/>
<path d="M94.4637 1.30103H97.7663V4.37823H94.4637V1.30103ZM94.7871 7.87127H97.443V24.0889H94.7871V7.87127Z" fill="white"/>
<path d="M101.295 20.019V10.2432H98.349V7.87108H99.9035C100.939 7.87108 101.295 7.4227 101.295 6.4283V3.64038H103.951V7.87108H107.806V10.2432H103.951V19.6664C103.951 20.8525 104.34 21.7185 105.926 21.7185H107.771V24.0906H105.31C102.881 24.0906 101.295 22.7762 101.295 20.0208V20.019Z" fill="white"/>
<path d="M117.228 22.3278L122.181 7.84033L124.998 7.87288L118.134 26.7194C116.968 29.8599 115.187 30.5017 112.791 30.5017H109.552V28.1296H112.823C114.508 28.1296 115.543 27.2328 115.543 25.405C115.543 24.9566 115.447 24.5082 115.251 23.9947L108.969 7.87288H111.852L117.228 22.3278Z" fill="white"/>
<path d="M2.34177 5.20459H0.310532C0.13903 5.20459 0 5.3422 0 5.51195V7.52243C0 7.69218 0.13903 7.82979 0.310532 7.82979H2.34177C2.51328 7.82979 2.65231 7.69218 2.65231 7.52243V5.51195C2.65231 5.3422 2.51328 5.20459 2.34177 5.20459Z" fill="white"/>
<path d="M6.00792 7.82965H4.03148C3.85977 7.82965 3.72095 7.69224 3.72095 7.52229V5.51C3.72095 5.34004 3.85977 5.20264 4.03148 5.20264H6.00792C6.20885 5.20264 6.37325 5.36536 6.37325 5.56423V7.46624C6.37325 7.66512 6.20885 7.82784 6.00792 7.82784V7.82965Z" fill="white"/>
<path d="M9.78172 5.20435H7.75047C7.57897 5.20435 7.43994 5.34195 7.43994 5.5117V7.52219C7.43994 7.69194 7.57897 7.82955 7.75047 7.82955H9.78172C9.95322 7.82955 10.0922 7.69194 10.0922 7.52219V5.5117C10.0922 5.34195 9.95322 5.20435 9.78172 5.20435Z" fill="white"/>
<path d="M13.5045 5.20435H11.4733C11.3017 5.20435 11.1627 5.34195 11.1627 5.5117V7.52219C11.1627 7.69194 11.3017 7.82955 11.4733 7.82955H13.5045C13.676 7.82955 13.815 7.69194 13.815 7.52219V5.5117C13.815 5.34195 13.676 5.20435 13.5045 5.20435Z" fill="white"/>
<path d="M17.2345 8.86377H15.2032C15.0317 8.86377 14.8927 9.00138 14.8927 9.17113V11.1816C14.8927 11.3514 15.0317 11.489 15.2032 11.489H17.2345C17.406 11.489 17.545 11.3514 17.545 11.1816V9.17113C17.545 9.00138 17.406 8.86377 17.2345 8.86377Z" fill="white"/>
<path d="M13.5045 8.86377H11.4733C11.3017 8.86377 11.1627 9.00138 11.1627 9.17113V11.1816C11.1627 11.3514 11.3017 11.489 11.4733 11.489H13.5045C13.676 11.489 13.815 11.3514 13.815 11.1816V9.17113C13.815 9.00138 13.676 8.86377 13.5045 8.86377Z" fill="white"/>
<path d="M9.78172 8.86377H7.75047C7.57897 8.86377 7.43994 9.00138 7.43994 9.17113V11.1816C7.43994 11.3514 7.57897 11.489 7.75047 11.489H9.78172C9.95322 11.489 10.0922 11.3514 10.0922 11.1816V9.17113C10.0922 9.00138 9.95322 8.86377 9.78172 8.86377Z" fill="white"/>
<path d="M4.08628 8.86377H6.06272C6.23443 8.86377 6.37325 9.00118 6.37325 9.17113V11.1834C6.37325 11.3534 6.23443 11.4908 6.06272 11.4908H4.08628C3.88535 11.4908 3.72095 11.3281 3.72095 11.1292V9.22718C3.72095 9.0283 3.88535 8.86558 4.08628 8.86558V8.86377Z" fill="white"/>
<path d="M2.34177 8.86377H0.310532C0.13903 8.86377 0 9.00138 0 9.17113V11.1816C0 11.3514 0.13903 11.489 0.310532 11.489H2.34177C2.51328 11.489 2.65231 11.3514 2.65231 11.1816V9.17113C2.65231 9.00138 2.51328 8.86377 2.34177 8.86377Z" fill="white"/>
<path d="M2.28698 12.5215H0.365332C0.163564 12.5215 0 12.6834 0 12.8831V14.7851C0 14.9848 0.163564 15.1467 0.365332 15.1467H2.28698C2.48874 15.1467 2.65231 14.9848 2.65231 14.7851V12.8831C2.65231 12.6834 2.48874 12.5215 2.28698 12.5215Z" fill="white"/>
<path d="M6.06455 15.1467H4.08811C3.88718 15.1467 3.72278 14.984 3.72278 14.7851V12.8831C3.72278 12.6842 3.88718 12.5215 4.08811 12.5215H6.06455C6.23626 12.5215 6.37509 12.6589 6.37509 12.8288V14.8411C6.37509 15.0111 6.23626 15.1485 6.06455 15.1485V15.1467Z" fill="white"/>
<path d="M9.78172 12.5215H7.75047C7.57897 12.5215 7.43994 12.6591 7.43994 12.8288V14.8393C7.43994 15.0091 7.57897 15.1467 7.75047 15.1467H9.78172C9.95322 15.1467 10.0922 15.0091 10.0922 14.8393V12.8288C10.0922 12.6591 9.95322 12.5215 9.78172 12.5215Z" fill="white"/>
<path d="M13.5045 12.5215H11.4733C11.3017 12.5215 11.1627 12.6591 11.1627 12.8288V14.8393C11.1627 15.0091 11.3017 15.1467 11.4733 15.1467H13.5045C13.676 15.1467 13.815 15.0091 13.815 14.8393V12.8288C13.815 12.6591 13.676 12.5215 13.5045 12.5215Z" fill="white"/>
<path d="M17.2345 12.5215H15.2032C15.0317 12.5215 14.8927 12.6591 14.8927 12.8288V14.8393C14.8927 15.0091 15.0317 15.1467 15.2032 15.1467H17.2345C17.406 15.1467 17.545 15.0091 17.545 14.8393V12.8288C17.545 12.6591 17.406 12.5215 17.2345 12.5215Z" fill="white"/>
<path d="M20.9554 12.5215H18.9242C18.7527 12.5215 18.6136 12.6591 18.6136 12.8288V14.8393C18.6136 15.0091 18.7527 15.1467 18.9242 15.1467H20.9554C21.1269 15.1467 21.266 15.0091 21.266 14.8393V12.8288C21.266 12.6591 21.1269 12.5215 20.9554 12.5215Z" fill="white"/>
<path d="M20.9554 16.1807H18.9242C18.7527 16.1807 18.6136 16.3183 18.6136 16.488V18.4985C18.6136 18.6683 18.7527 18.8059 18.9242 18.8059H20.9554C21.1269 18.8059 21.266 18.6683 21.266 18.4985V16.488C21.266 16.3183 21.1269 16.1807 20.9554 16.1807Z" fill="white"/>
<path d="M17.2345 16.1807H15.2032C15.0317 16.1807 14.8927 16.3183 14.8927 16.488V18.4985C14.8927 18.6683 15.0317 18.8059 15.2032 18.8059H17.2345C17.406 18.8059 17.545 18.6683 17.545 18.4985V16.488C17.545 16.3183 17.406 16.1807 17.2345 16.1807Z" fill="white"/>
<path d="M13.5045 16.1807H11.4733C11.3017 16.1807 11.1627 16.3183 11.1627 16.488V18.4985C11.1627 18.6683 11.3017 18.8059 11.4733 18.8059H13.5045C13.676 18.8059 13.815 18.6683 13.815 18.4985V16.488C13.815 16.3183 13.676 16.1807 13.5045 16.1807Z" fill="white"/>
<path d="M9.78172 16.1807H7.75047C7.57897 16.1807 7.43994 16.3183 7.43994 16.488V18.4985C7.43994 18.6683 7.57897 18.8059 7.75047 18.8059H9.78172C9.95322 18.8059 10.0922 18.6683 10.0922 18.4985V16.488C10.0922 16.3183 9.95322 16.1807 9.78172 16.1807Z" fill="white"/>
<path d="M4.08628 16.1807H6.06272C6.23443 16.1807 6.37325 16.3181 6.37325 16.488V18.5003C6.37325 18.6703 6.23443 18.8077 6.06272 18.8077H4.08628C3.88535 18.8077 3.72095 18.645 3.72095 18.4461V16.5441C3.72095 16.3452 3.88535 16.1825 4.08628 16.1825V16.1807Z" fill="white"/>
<path d="M2.34177 16.1807H0.310532C0.13903 16.1807 0 16.3183 0 16.488V18.4985C0 18.6683 0.13903 18.8059 0.310532 18.8059H2.34177C2.51328 18.8059 2.65231 18.6683 2.65231 18.4985V16.488C2.65231 16.3183 2.51328 16.1807 2.34177 16.1807Z" fill="white"/>
<path d="M2.34177 19.8384H0.310532C0.13903 19.8384 0 19.976 0 20.1457V22.1562C0 22.326 0.13903 22.4636 0.310532 22.4636H2.34177C2.51328 22.4636 2.65231 22.326 2.65231 22.1562V20.1457C2.65231 19.976 2.51328 19.8384 2.34177 19.8384Z" fill="white"/>
<path d="M6.06455 22.4636H4.08811C3.88718 22.4636 3.72278 22.3009 3.72278 22.102V20.2C3.72278 20.0011 3.88718 19.8384 4.08811 19.8384H6.06455C6.23626 19.8384 6.37509 19.9758 6.37509 20.1457V22.158C6.37509 22.328 6.23626 22.4654 6.06455 22.4654V22.4636Z" fill="white"/>
<path d="M9.78172 19.8384H7.75047C7.57897 19.8384 7.43994 19.976 7.43994 20.1457V22.1562C7.43994 22.326 7.57897 22.4636 7.75047 22.4636H9.78172C9.95322 22.4636 10.0922 22.326 10.0922 22.1562V20.1457C10.0922 19.976 9.95322 19.8384 9.78172 19.8384Z" fill="white"/>
<path d="M13.5045 19.8384H11.4733C11.3017 19.8384 11.1627 19.976 11.1627 20.1457V22.1562C11.1627 22.326 11.3017 22.4636 11.4733 22.4636H13.5045C13.676 22.4636 13.815 22.326 13.815 22.1562V20.1457C13.815 19.976 13.676 19.8384 13.5045 19.8384Z" fill="white"/>
<path d="M17.2345 19.8384H15.2032C15.0317 19.8384 14.8927 19.976 14.8927 20.1457V22.1562C14.8927 22.326 15.0317 22.4636 15.2032 22.4636H17.2345C17.406 22.4636 17.545 22.326 17.545 22.1562V20.1457C17.545 19.976 17.406 19.8384 17.2345 19.8384Z" fill="white"/>
<path d="M13.5045 23.4978H11.4733C11.3017 23.4978 11.1627 23.6354 11.1627 23.8052V25.8156C11.1627 25.9854 11.3017 26.123 11.4733 26.123H13.5045C13.676 26.123 13.815 25.9854 13.815 25.8156V23.8052C13.815 23.6354 13.676 23.4978 13.5045 23.4978Z" fill="white"/>
<path d="M9.78172 23.4978H7.75047C7.57897 23.4978 7.43994 23.6354 7.43994 23.8052V25.8156C7.43994 25.9854 7.57897 26.123 7.75047 26.123H9.78172C9.95322 26.123 10.0922 25.9854 10.0922 25.8156V23.8052C10.0922 23.6354 9.95322 23.4978 9.78172 23.4978Z" fill="white"/>
<path d="M4.08628 23.4978H6.06272C6.23443 23.4978 6.37325 23.6352 6.37325 23.8052V25.8175C6.37325 25.9874 6.23443 26.1248 6.06272 26.1248H4.08628C3.88535 26.1248 3.72095 25.9621 3.72095 25.7632V23.8612C3.72095 23.6623 3.88535 23.4996 4.08628 23.4996V23.4978Z" fill="white"/>
<path d="M2.34177 23.4978H0.310532C0.13903 23.4978 0 23.6354 0 23.8052V25.8156C0 25.9854 0.13903 26.123 0.310532 26.123H2.34177C2.51328 26.123 2.65231 25.9854 2.65231 25.8156V23.8052C2.65231 23.6354 2.51328 23.4978 2.34177 23.4978Z" fill="white"/>
</g>
<defs>
<clipPath id="clip0_979_4519">
<rect width="125" height="30" fill="white" transform="translate(0 0.5)"/>
</clipPath>
</defs>
</svg>
