<svg width="103" height="103" viewBox="0 0 103 103" fill="none" xmlns="http://www.w3.org/2000/svg">
<g clip-path="url(#clip0_956_3571)">
<path d="M40.1298 19.3925C36.6851 22.4825 32.7596 26.5681 29.0058 31.8097C22.9059 40.3358 19.6672 48.5872 17.8818 54.5727C17.6072 55.4539 14.3798 66.5092 21.7615 75.5275C27.6554 82.726 36.0671 83.447 37.5434 83.55C47.3284 85.0149 56.8502 80.5172 61.3478 72.426C66.8183 62.5952 62.0803 52.4326 61.6111 51.4712C59.4595 46.264 56.3352 39.981 51.7803 33.3661C47.8205 27.6096 43.7463 22.9975 40.1298 19.3925Z" fill="#50E281" stroke="#231F20" stroke-miterlimit="10"/>
<path d="M74.8524 24.7372C73.2387 26.1906 71.3847 28.1133 69.6223 30.5738C66.7611 34.5794 65.2276 38.4591 64.3921 41.2744C64.2663 41.6864 62.7441 46.8822 66.2118 51.1281C68.9814 54.5156 72.9297 54.8475 73.6278 54.8933C78.2285 55.58 82.7033 53.4627 84.8205 49.6632C87.3955 45.0396 85.1638 40.2673 84.9464 39.8095C83.9278 37.3604 82.4629 34.4077 80.3228 31.2948C78.4688 28.594 76.8507 26.7694 75.1569 25.0756L74.8524 24.7372Z" fill="#50E281" stroke="#231F20" stroke-miterlimit="10"/>
<path d="M82.8943 47.373C83.4091 45.8797 83.5263 44.7838 83.4855 43.9836C83.4855 43.9734 83.4855 43.9632 83.4855 43.9632C83.4193 42.847 83.1746 42.0315 82.8994 41.4352" fill="white"/>
<path d="M82.8943 47.373C83.4091 45.8797 83.5263 44.7838 83.4855 43.9836C83.4855 43.9734 83.4855 43.9632 83.4855 43.9632C83.4193 42.847 83.1746 42.0315 82.8994 41.4352" stroke="#EBFF25" stroke-miterlimit="10"/>
<path d="M80.9786 50.676L82.5434 48.4181" stroke="#EBFF25" stroke-miterlimit="10"/>
<path d="M60.1807 68.3748C61.3366 65.0215 61.5998 62.561 61.5082 60.7642C61.5082 60.7413 61.5082 60.7184 61.5082 60.7184C61.3594 58.2121 60.8101 56.381 60.1921 55.042" stroke="#EBFF25" stroke-miterlimit="10"/>
<path d="M55.8776 75.7908L59.391 70.7209" stroke="#EBFF25" stroke-miterlimit="10"/>
<path d="M38.4932 63.2413V61.8173C37.7518 61.652 37.1252 61.332 36.6132 60.8573C36.1065 60.3773 35.7385 59.7986 35.5092 59.1213L37.2052 58.4973C37.4238 58.988 37.7332 59.3906 38.1332 59.7053C38.5385 60.02 39.0025 60.1773 39.5252 60.1773C40.0585 60.1773 40.4852 60.044 40.8052 59.7773C41.1252 59.5106 41.2852 59.124 41.2852 58.6173C41.2852 58.26 41.1838 57.9613 40.9812 57.7213C40.7785 57.476 40.5092 57.2653 40.1732 57.0893C39.8425 56.9133 39.4772 56.748 39.0772 56.5933C38.6985 56.444 38.3198 56.284 37.9412 56.1133C37.5678 55.9373 37.2265 55.7266 36.9172 55.4813C36.6132 55.2306 36.3678 54.924 36.1812 54.5613C35.9998 54.1986 35.9092 53.7586 35.9092 53.2413C35.9092 52.5693 36.1332 51.9693 36.5812 51.4413C37.0292 50.908 37.6665 50.572 38.4932 50.4333V49.1613H40.3092V50.4493C40.9545 50.588 41.4798 50.86 41.8852 51.2653C42.2905 51.6653 42.5705 52.1373 42.7252 52.6813L41.0612 53.2333C40.9332 52.9133 40.7198 52.644 40.4212 52.4253C40.1225 52.2013 39.7385 52.0893 39.2692 52.0893C38.8105 52.0893 38.4532 52.1906 38.1972 52.3933C37.9412 52.5906 37.8132 52.8733 37.8132 53.2413C37.8132 53.524 37.9065 53.764 38.0932 53.9613C38.2852 54.1586 38.5385 54.3346 38.8532 54.4893C39.1678 54.6386 39.5118 54.7826 39.8852 54.9213C40.2532 55.06 40.6292 55.2226 41.0132 55.4093C41.4025 55.596 41.7598 55.8253 42.0852 56.0973C42.4158 56.3693 42.6825 56.708 42.8852 57.1133C43.0878 57.5186 43.1892 58.012 43.1892 58.5933C43.1892 59.212 43.0612 59.748 42.8052 60.2013C42.5545 60.6546 42.2132 61.0226 41.7812 61.3053C41.3492 61.5826 40.8585 61.7666 40.3092 61.8573V63.2413H38.4932Z" fill="black"/>
<path d="M73.7918 47.682V46.614C73.2358 46.49 72.7658 46.25 72.3818 45.894C72.0018 45.534 71.7258 45.1 71.5538 44.592L72.8258 44.124C72.9898 44.492 73.2218 44.794 73.5218 45.03C73.8258 45.266 74.1738 45.384 74.5658 45.384C74.9658 45.384 75.2858 45.284 75.5258 45.084C75.7658 44.884 75.8858 44.594 75.8858 44.214C75.8858 43.946 75.8098 43.722 75.6578 43.542C75.5058 43.358 75.3038 43.2 75.0518 43.068C74.8038 42.936 74.5298 42.812 74.2298 42.696C73.9458 42.584 73.6618 42.464 73.3778 42.336C73.0978 42.204 72.8418 42.046 72.6098 41.862C72.3818 41.674 72.1978 41.444 72.0578 41.172C71.9218 40.9 71.8538 40.57 71.8538 40.182C71.8538 39.678 72.0218 39.228 72.3578 38.832C72.6938 38.432 73.1718 38.18 73.7918 38.076V37.122H75.1538V38.088C75.6378 38.192 76.0318 38.396 76.3358 38.7C76.6398 39 76.8498 39.354 76.9658 39.762L75.7178 40.176C75.6218 39.936 75.4618 39.734 75.2378 39.57C75.0138 39.402 74.7258 39.318 74.3738 39.318C74.0298 39.318 73.7618 39.394 73.5698 39.546C73.3778 39.694 73.2818 39.906 73.2818 40.182C73.2818 40.394 73.3518 40.574 73.4918 40.722C73.6358 40.87 73.8258 41.002 74.0618 41.118C74.2978 41.23 74.5558 41.338 74.8358 41.442C75.1118 41.546 75.3938 41.668 75.6818 41.808C75.9738 41.948 76.2418 42.12 76.4858 42.324C76.7338 42.528 76.9338 42.782 77.0858 43.086C77.2378 43.39 77.3138 43.76 77.3138 44.196C77.3138 44.66 77.2178 45.062 77.0258 45.402C76.8378 45.742 76.5818 46.018 76.2578 46.23C75.9338 46.438 75.5658 46.576 75.1538 46.644V47.682H73.7918Z" fill="black"/>
</g>
<defs>
<clipPath id="clip0_956_3571">
<rect width="70.2574" height="65.7941" fill="white" transform="translate(16.3713 18.6029)"/>
</clipPath>
</defs>
</svg>
