<svg width="372" height="228" viewBox="0 0 372 228" fill="none" xmlns="http://www.w3.org/2000/svg">
<ellipse cx="88.6311" cy="64.0863" rx="12.3832" ry="12.5506" transform="rotate(56.8003 88.6311 64.0863)" fill="#22B57B"/>
<ellipse cx="208.396" cy="15.1122" rx="10.404" ry="10.5446" transform="rotate(56.8003 208.396 15.1122)" fill="#22B57B"/>
<ellipse rx="1.66636" ry="3.97689" transform="matrix(-0.984106 -0.177581 0.190767 -0.981635 216.211 16.0244)" fill="white"/>
<ellipse rx="1.67696" ry="3.95141" transform="matrix(-0.868517 0.49566 -0.494224 -0.869335 172.248 81.1824)" fill="white"/>
<ellipse rx="1.67337" ry="3.96007" transform="matrix(-0.986262 0.16519 -0.155348 -0.98786 98.1873 62.9512)" fill="white"/>
<ellipse cx="360.686" cy="34.8503" rx="7.73056" ry="7.83506" transform="rotate(56.8003 360.686 34.8503)" fill="#22B57B"/>
<ellipse rx="1.13809" ry="2.70334" transform="matrix(-0.999997 0.00226308 0.0100824 -0.999949 366.35 34.5711)" fill="white"/>
<ellipse cx="32.6292" cy="144.979" rx="5.85057" ry="5.92965" transform="rotate(56.8003 32.6292 144.979)" fill="#22B57B"/>
<ellipse cx="97.5863" cy="121.405" rx="5.85057" ry="5.92965" transform="rotate(56.8003 97.5863 121.405)" fill="#22B57B"/>
<line y1="-0.5" x2="137.185" y2="-0.5" transform="matrix(0.991962 0.126538 -0.139706 0.990193 217.992 15.8937)" stroke="#50E281"/>
<line y1="-0.5" x2="112.448" y2="-0.5" transform="matrix(0.931145 -0.364648 0.35957 0.933118 96.2998 58.0833)" stroke="#50E281"/>
<line y1="-0.5" x2="84.3941" y2="-0.5" transform="matrix(-0.586992 0.809593 -0.814857 -0.579662 82.0496 72.6786)" stroke="#50E281"/>
<line y1="-0.5" x2="63.3198" y2="-0.5" transform="matrix(-0.928332 0.371753 -0.366867 -0.930274 94.9854 123.108)" stroke="#50E281"/>
<ellipse rx="1.2117" ry="2.85891" transform="matrix(-0.939326 0.343026 -0.337368 -0.941373 101.135 120.171)" fill="white"/>
<ellipse rx="1.21254" ry="2.85689" transform="matrix(-0.853592 0.520943 -0.520212 -0.854038 35.4593 143.127)" fill="white"/>
</svg>
