<svg width="91" height="91" viewBox="0 0 91 91" fill="none" xmlns="http://www.w3.org/2000/svg">
<path d="M18.1022 44.0992C22.0036 44.3313 27.0509 44.0992 32.5913 42.4458C49.0964 37.5001 57.2619 23.5621 59.4085 19.5881L53.578 16.1217C59.4085 13.9752 65.2389 11.8287 71.0694 9.68213C71.548 15.295 72.0266 20.9079 72.5052 26.5208C70.7503 25.7376 68.9954 24.9689 67.2404 24.1858C65.7756 26.985 59.452 38.2833 45.3835 43.5771C32.5043 48.4213 21.322 45.158 18.0876 44.0847L18.1022 44.0992Z" fill="#50E281" stroke="#231F20" stroke-miterlimit="10"/>
<path d="M30.9095 60.4594H21.3806C20.2031 60.4594 19.2485 61.4139 19.2485 62.5914V78.4148C19.2485 79.5923 20.2031 80.5469 21.3806 80.5469H30.9095C32.0869 80.5469 33.0415 79.5923 33.0415 78.4148V62.5914C33.0415 61.4139 32.0869 60.4594 30.9095 60.4594Z" fill="#EBFF25" stroke="#231F20" stroke-miterlimit="10"/>
<path d="M49.4595 51.235H39.9306C38.7531 51.235 37.7986 52.1895 37.7986 53.367V77.8926C37.7986 79.0701 38.7531 80.0247 39.9306 80.0247H49.4595C50.637 80.0247 51.5915 79.0701 51.5915 77.8926V53.367C51.5915 52.1895 50.637 51.235 49.4595 51.235Z" fill="#EBFF25" stroke="#231F20" stroke-miterlimit="10"/>
<path d="M69.938 39.9658H60.4091C59.2316 39.9658 58.2771 40.9204 58.2771 42.0979V77.8928C58.2771 79.0703 59.2316 80.0248 60.4091 80.0248H69.938C71.1155 80.0248 72.07 79.0703 72.07 77.8928V42.0979C72.07 40.9204 71.1155 39.9658 69.938 39.9658Z" fill="#EBFF25" stroke="#231F20" stroke-miterlimit="10"/>
</svg>
