<svg width="26" height="26" viewBox="0 0 26 26" fill="none" xmlns="http://www.w3.org/2000/svg">
<g clip-path="url(#clip0_527_2728)">
<path d="M13.1347 25.3544C20.0437 25.3544 25.6445 19.7536 25.6445 12.8447C25.6445 5.93576 20.0437 0.334961 13.1347 0.334961C6.2258 0.334961 0.625 5.93576 0.625 12.8447C0.625 19.7536 6.2258 25.3544 13.1347 25.3544Z" fill="#DEDEDE"/>
<path fill-rule="evenodd" clip-rule="evenodd" d="M6.27578 12.7084C9.91958 11.1105 12.3553 10.0778 13.5829 9.57118C17.0513 8.12924 17.7723 7.87593 18.2399 7.85645C18.3374 7.85645 18.5712 7.87593 18.7271 7.99284C18.844 8.09027 18.8829 8.22667 18.9024 8.3241C18.9219 8.42153 18.9414 8.63587 18.9219 8.81124C18.7271 10.7793 17.9282 15.5922 17.4995 17.7941C17.3241 18.7294 16.9734 19.0412 16.6421 19.0801C15.9211 19.1386 15.3561 18.593 14.6546 18.1448C13.5634 17.4239 12.9398 16.9757 11.8681 16.2742C10.6405 15.4558 11.4395 15.0077 12.1409 14.2867C12.3163 14.0918 15.5314 11.1885 15.5899 10.9157C15.5899 10.8767 15.6094 10.7598 15.5314 10.7013C15.4535 10.6429 15.3561 10.6624 15.2781 10.6819C15.1612 10.7013 13.4075 11.8705 9.99752 14.1698C9.4909 14.5205 9.04273 14.6764 8.63353 14.6764C8.18536 14.6764 7.328 14.4231 6.68498 14.2087C5.90555 13.9554 5.28201 13.819 5.34047 13.3904C5.37944 13.176 5.69121 12.9422 6.27578 12.7084Z" fill="#181818"/>
</g>
<defs>
<clipPath id="clip0_527_2728">
<rect width="25" height="25" fill="white" transform="translate(0.625 0.334961)"/>
</clipPath>
</defs>
</svg>
