<svg width="24" height="20" viewBox="0 0 24 20" fill="none" xmlns="http://www.w3.org/2000/svg">
<path d="M7.89376 19.2427C16.6255 19.2427 21.4035 12.0017 21.4035 5.73297C21.4035 5.52926 21.4035 5.32555 21.3942 5.12184C22.3202 4.45516 23.1257 3.61253 23.7646 2.6588C22.9128 3.03844 21.9961 3.28845 21.0331 3.40883C22.0146 2.82547 22.7646 1.89026 23.1257 0.779109C22.209 1.32542 21.1905 1.71432 20.1071 1.92729C19.2367 1.00134 18.0052 0.427246 16.644 0.427246C14.0236 0.427246 11.8939 2.55694 11.8939 5.1774C11.8939 5.54778 11.9402 5.90891 12.0143 6.26077C8.06969 6.06632 4.56957 4.16811 2.2269 1.29765C1.81948 2.00137 1.58799 2.81621 1.58799 3.68661C1.58799 5.33481 2.43061 6.78857 3.69917 7.64044C2.92137 7.61267 2.18987 7.39969 1.55096 7.04783C1.55096 7.06635 1.55096 7.08487 1.55096 7.11265C1.55096 9.40902 3.1899 11.335 5.35664 11.7702C4.95847 11.8813 4.54179 11.9369 4.1066 11.9369C3.80103 11.9369 3.50472 11.9091 3.21768 11.8535C3.81955 13.7425 5.57887 15.1129 7.65301 15.1499C6.02332 16.4278 3.97696 17.1871 1.75467 17.1871C1.37502 17.1871 0.995382 17.1685 0.625 17.1222C2.71766 18.4556 5.21774 19.2427 7.89376 19.2427Z" fill="#DEDEDE"/>
</svg>
