<svg version="1.2" xmlns="http://www.w3.org/2000/svg" viewBox="0 0 138 80" width="138" height="80">
	<title>2 502-svg</title>
	<defs>
		<clipPath clipPathUnits="userSpaceOnUse" id="cp1">
			<path d="m0.69 22.95l57-79.7 79.7 57.01-57 79.69z"/>
		</clipPath>
	</defs>
	<style>
		.s0 { fill: #d4f938 } 
		.s1 { fill: #faffc5 } 
		.s2 { fill: #1a8244 } 
		.s3 { fill: #0d5e2d } 
		.s4 { fill: #ffffff } 
		.s5 { opacity: .2;fill: #3ea668 } 
		.s6 { opacity: .2;fill: #ffffff } 
		.s7 { opacity: .2;fill: #fec110 } 
	</style>
	<g id="Clip-Path" clip-path="url(#cp1)">
		<g id="Layer">
			<path id="Layer" class="s0" d="m100.6-65.3q0.7 0.6 1.4 1.2 0.7 0.6 1.4 1.2 0.6 0.7 1.3 1.4 0.6 0.7 1.1 1.5 0.6 0.8 1.1 1.6 0.5 0.8 0.9 1.7 0.5 0.9 0.8 1.9 0.4 0.9 0.8 1.9 0.3 1 0.6 2 0.3 1 0.5 2.1 0.2 1.1 0.4 2.2 0.2 1.2 0.3 2.3 0.1 1.2 0.1 2.4 0.1 1.2 0.1 2.4-0.1 1.3-0.1 2.5-0.1 1.3-0.2 2.6-0.1 1.3-0.3 2.6-0.2 1.3-0.5 2.7-0.2 1.3-0.5 2.7-0.3 1.3-0.6 2.7-0.4 1.4-0.8 2.8-0.4 1.4-0.9 2.7-0.4 1.4-1 2.8-0.5 1.4-1.1 2.8-0.5 1.4-1.1 2.8-0.7 1.4-1.3 2.8-0.7 1.4-1.4 2.8-0.7 1.4-1.5 2.8-0.8 1.4-1.6 2.7-0.8 1.4-1.6 2.7-0.9 1.4-1.8 2.7-0.9 1.3-1.8 2.6-0.9 1.3-1.9 2.6-0.9 1.2-1.9 2.5-1 1.2-2 2.4-1.1 1.2-2.1 2.4-1.1 1.1-2.2 2.3-1 1.1-2.1 2.2-1.2 1.1-2.3 2.1-1.1 1-2.2 2-1.2 1-2.3 2-1.2 0.9-2.4 1.8-1.1 0.9-2.3 1.7-1.2 0.9-2.4 1.6-1.2 0.8-2.4 1.5-1.2 0.8-2.3 1.4-1.2 0.7-2.4 1.3-1.2 0.6-2.4 1.1-1.2 0.6-2.4 1-1.1 0.5-2.3 0.9-1.2 0.4-2.3 0.8-1.2 0.3-2.3 0.6-1.2 0.3-2.3 0.5-1.1 0.2-2.2 0.3-1.1 0.2-2.2 0.2-1 0.1-2.1 0.1-1 0-2-0.1-1.1 0-2-0.2-1-0.1-2-0.3-0.9-0.2-1.8-0.5-1-0.3-1.8-0.6-0.9-0.3-1.7-0.7-0.9-0.5-1.7-0.9-0.8-0.5-1.5-1-0.8-0.6-1.5-1.2-0.7-0.6-1.3-1.2-0.7-0.7-1.3-1.4-0.6-0.7-1.1-1.5-0.6-0.8-1.1-1.6-0.5-0.8-0.9-1.7-0.5-0.9-0.9-1.9-0.4-0.9-0.7-1.9-0.3-1-0.6-2-0.3-1.1-0.5-2.1-0.2-1.1-0.4-2.2-0.2-1.2-0.3-2.3-0.1-1.2-0.1-2.4-0.1-1.2-0.1-2.4 0-1.3 0.1-2.5 0.1-1.3 0.2-2.6 0.1-1.3 0.3-2.6 0.2-1.3 0.4-2.7 0.3-1.3 0.6-2.7 0.3-1.3 0.6-2.7 0.4-1.4 0.8-2.8 0.4-1.4 0.9-2.8 0.4-1.4 0.9-2.8 0.6-1.4 1.1-2.8 0.6-1.4 1.2-2.8 0.6-1.4 1.3-2.7 0.7-1.4 1.4-2.8 0.7-1.4 1.5-2.8 0.7-1.4 1.5-2.7 0.9-1.4 1.7-2.7 0.9-1.4 1.7-2.7 0.9-1.3 1.9-2.6 0.9-1.3 1.8-2.6 1-1.2 2-2.5 1-1.2 2-2.4 1.1-1.2 2.1-2.4 1.1-1.2 2.1-2.3 1.1-1.1 2.2-2.2 1.1-1.1 2.3-2.1 1.1-1.1 2.2-2 1.2-1 2.3-2 1.2-0.9 2.3-1.8 1.2-0.9 2.4-1.7 1.2-0.9 2.4-1.7 1.2-0.7 2.3-1.5 1.2-0.7 2.4-1.3 1.2-0.7 2.4-1.3 1.2-0.6 2.4-1.1 1.2-0.6 2.3-1.1 1.2-0.4 2.4-0.8 1.1-0.4 2.3-0.8 1.2-0.3 2.3-0.6 1.1-0.3 2.2-0.5 1.2-0.2 2.3-0.3 1.1-0.2 2.1-0.2 1.1-0.1 2.1-0.1 1.1 0 2.1 0.1 1 0 2 0.2 1 0.1 1.9 0.3 1 0.2 1.9 0.5 0.9 0.3 1.8 0.6 0.9 0.3 1.7 0.7 0.9 0.4 1.6 0.9 0.8 0.5 1.6 1z"/>
			<path id="Layer" class="s1" d="m93.4-55.2q0.6 0.4 1.2 0.9 0.5 0.5 1.1 1 0.5 0.6 1 1.1 0.5 0.6 0.9 1.3 0.5 0.6 0.9 1.3 0.4 0.6 0.7 1.4 0.4 0.7 0.7 1.4 0.3 0.8 0.6 1.6 0.3 0.8 0.5 1.6 0.2 0.9 0.4 1.8 0.2 0.8 0.3 1.7 0.2 0.9 0.2 1.9 0.1 0.9 0.2 1.9 0 1 0 2 0 1-0.1 2 0 1-0.1 2.1-0.1 1-0.3 2.1-0.1 1.1-0.3 2.1-0.2 1.1-0.5 2.2-0.2 1.1-0.5 2.2-0.3 1.2-0.6 2.3-0.3 1.1-0.7 2.2-0.4 1.2-0.8 2.3-0.4 1.1-0.9 2.3-0.4 1.1-0.9 2.2-0.5 1.2-1.1 2.3-0.5 1.1-1.1 2.2-0.6 1.2-1.2 2.3-0.6 1.1-1.3 2.2-0.6 1.1-1.3 2.2-0.7 1.1-1.4 2.1-0.7 1.1-1.5 2.1-0.7 1.1-1.5 2.1-0.8 1-1.6 2-0.8 1-1.6 2-0.9 1-1.7 1.9-0.9 1-1.8 1.9-0.8 0.9-1.7 1.8-0.9 0.9-1.8 1.7-0.9 0.8-1.9 1.6-0.9 0.8-1.8 1.6-1 0.8-1.9 1.5-1 0.7-1.9 1.4-1 0.7-1.9 1.3-1 0.6-1.9 1.2-1 0.6-2 1.1-0.9 0.6-1.9 1-1 0.5-1.9 1-1 0.4-1.9 0.8-1 0.4-1.9 0.7-1 0.3-1.9 0.6-0.9 0.3-1.9 0.5-0.9 0.2-1.8 0.4-0.9 0.2-1.8 0.3-0.9 0.1-1.7 0.1-0.9 0.1-1.7 0.1-0.9 0-1.7-0.1-0.8 0-1.6-0.1-0.8-0.1-1.6-0.3-0.8-0.2-1.5-0.4-0.7-0.2-1.5-0.5-0.7-0.2-1.3-0.6-0.7-0.3-1.4-0.7-0.6-0.4-1.2-0.8-0.6-0.4-1.2-0.9-0.5-0.5-1.1-1-0.5-0.6-1-1.2-0.5-0.5-0.9-1.2-0.5-0.6-0.9-1.3-0.4-0.6-0.8-1.4-0.3-0.7-0.6-1.4-0.3-0.8-0.6-1.6-0.3-0.8-0.5-1.6-0.2-0.9-0.4-1.8-0.2-0.8-0.3-1.7-0.2-1-0.3-1.9-0.1-0.9-0.1-1.9 0-1 0-2 0-1 0-2 0.1-1 0.2-2.1 0.1-1 0.2-2.1 0.2-1.1 0.4-2.2 0.2-1 0.4-2.1 0.3-1.1 0.6-2.3 0.2-1.1 0.6-2.2 0.3-1.1 0.7-2.2 0.4-1.2 0.8-2.3 0.4-1.1 0.9-2.3 0.4-1.1 0.9-2.2 0.5-1.2 1.1-2.3 0.5-1.1 1.1-2.2 0.6-1.2 1.2-2.3 0.6-1.1 1.3-2.2 0.6-1.1 1.3-2.2 0.7-1.1 1.4-2.1 0.7-1.1 1.5-2.1 0.7-1.1 1.5-2.1 0.8-1 1.6-2 0.8-1.1 1.6-2 0.9-1 1.7-1.9 0.9-1 1.7-1.9 0.9-0.9 1.8-1.8 0.9-0.9 1.8-1.7 0.9-0.8 1.8-1.6 1-0.9 1.9-1.6 0.9-0.8 1.9-1.5 0.9-0.7 1.9-1.4 0.9-0.7 1.9-1.3 1-0.6 1.9-1.2 1-0.6 1.9-1.1 1-0.6 2-1.1 0.9-0.4 1.9-0.9 1-0.4 1.9-0.8 1-0.4 1.9-0.7 0.9-0.3 1.9-0.6 0.9-0.3 1.8-0.5 1-0.2 1.9-0.4 0.9-0.2 1.7-0.3 0.9-0.1 1.8-0.2 0.9 0 1.7 0 0.9 0 1.7 0 0.8 0.1 1.6 0.2 0.8 0.1 1.6 0.3 0.7 0.1 1.5 0.4 0.7 0.2 1.4 0.5 0.7 0.2 1.4 0.6 0.7 0.3 1.3 0.7 0.7 0.4 1.3 0.8z"/>
			<path id="Layer" class="s2" d="m34.9 31.8c-8-3.9-12.4-13.3-11.1-26.6 2.3-23.5 21.6-50.6 43.2-60.4 12.2-5.5 22.5-4.3 28.7 2-6.1-3-14.4-2.7-23.8 1.6-21.5 9.8-40.9 36.8-43.2 60.4-1 10.2 1.4 18.1 6.2 23z"/>
			<path id="Layer" class="s2" d="m100.6-65.3l12.1 8.6c7.8 5.6 11.9 16.3 10.5 30.9-2.9 29.1-26.8 62.6-53.4 74.7-13.4 6-24.8 5.6-32.6 0l-12.1-8.6c7.8 5.5 19.3 6 32.6-0.1 26.6-12.1 50.6-45.5 53.4-74.6 1.4-14.6-2.7-25.3-10.5-30.9z"/>
			<path id="Layer" class="s3" d="m87 37.8q-0.8 0.7-1.6 1.3l-12-8.7c0.5-0.4 1-0.8 1.5-1.3z"/>
			<path id="Layer" class="s3" d="m91.7 33.6q-0.7 0.7-1.4 1.3l-12.1-8.6c0.5-0.4 1-0.9 1.5-1.4z"/>
			<path id="Layer" class="s3" d="m104.1 19.6c-0.4 0.5-0.8 1-1.2 1.6l-12.1-8.7c0.4-0.5 0.8-1 1.2-1.5z"/>
			<path id="Layer" class="s3" d="m55.2 53c-1 0.1-2.1 0.2-3.1 0.2l-12.1-8.6q1.6-0.1 3.2-0.2z"/>
			<path id="Layer" class="s3" d="m96.2 29.1q-0.7 0.7-1.4 1.5l-12.1-8.7q0.7-0.7 1.4-1.4z"/>
			<path id="Layer" class="s3" d="m100.3 24.5c-0.4 0.5-0.9 1-1.3 1.5l-12.1-8.7c0.5-0.5 0.9-1 1.3-1.5z"/>
			<path id="Layer" class="s3" d="m63.4 51.3c-0.8 0.3-1.6 0.5-2.4 0.7l-12.1-8.7q1.2-0.3 2.4-0.7z"/>
			<path id="Layer" class="s3" d="m69.8 48.9c-0.6 0.2-1.1 0.4-1.6 0.6l-12.1-8.6q0.8-0.3 1.6-0.7 0.3-0.1 0.5-0.2l12.1 8.6c-0.2 0.1-0.4 0.2-0.5 0.3z"/>
			<path id="Layer" class="s3" d="m76.4 45.3q-1 0.6-1.9 1.2l-12.1-8.7q1-0.5 1.9-1.1z"/>
			<path id="Layer" class="s3" d="m81.9 41.7q-0.8 0.7-1.7 1.2l-12.1-8.6q0.9-0.6 1.7-1.2z"/>
			<path id="Layer" class="s3" d="m107.7 14.5c-0.4 0.6-0.7 1.1-1.1 1.7l-12.1-8.6c0.4-0.6 0.7-1.1 1.1-1.7z"/>
			<path id="Layer" class="s3" d="m113.9 3.8q-0.5 0.9-0.9 1.8l-12.1-8.6q0.5-0.9 0.9-1.8z"/>
			<path id="Layer" class="s3" d="m110.9 9.3c-0.3 0.6-0.6 1.1-1 1.7l-12.1-8.6c0.4-0.6 0.7-1.2 1.1-1.7z"/>
			<path id="Layer" class="s0" d="m61.4 11.2l-26.8-10.9 39.2-21.9z"/>
			<path id="Layer" class="s2" d="m73.8-21.6l-39.2 21.9 31.4-37.3z"/>
			<path id="Layer" class="s0" d="m77.9-23.4l15.7-3.1-28.5 35.9z"/>
			<path id="Layer" class="s4" d="m101.9-30.3c0 0-0.1 0.6-0.2 1.5-0.2 1-0.2 2.4-0.6 4.2q-0.3 1.3-0.6 2.9c-0.3 1.1-0.6 2.2-1 3.4-0.3 1.2-0.8 2.5-1.2 3.8-0.5 1.4-1 2.8-1.7 4.2-0.6 1.4-1.2 2.9-2 4.4-0.8 1.5-1.6 3.1-2.5 4.6-0.9 1.5-1.9 3.1-2.9 4.7-1 1.6-2.2 3.1-3.4 4.6-2.3 3.1-5 6.1-7.9 9.1-2.9 2.8-6 5.6-9.5 8-1.6 1.3-3.5 2.2-5.3 3.3q-1.3 0.8-2.7 1.5c-0.9 0.4-1.9 0.9-2.9 1.2-3.6 1.7-7.7 2.7-11.6 3-4 0.3-7.9-0.3-11.1-2-3.3-1.6-5.8-4.1-7.5-6.8-1.8-2.6-2.5-5.4-3.1-7.9-0.2-1.2-0.4-2.4-0.5-3.5-0.1-1.1-0.1-2.1-0.2-3-0.1-1.8 0.2-3.2 0.2-4.2 0.1-1 0.1-1.5 0.1-1.5q0 0-0.1 1.5c0.1 1-0.1 2.4 0 4.2 0.1 0.9 0.1 1.9 0.3 3 0.2 1 0.3 2.2 0.6 3.4 0.7 2.4 1.5 5.2 3.3 7.7 1.7 2.5 4.1 4.9 7.3 6.4 3.1 1.5 6.9 1.9 10.6 1.7 3.9-0.4 7.7-1.3 11.4-3 1.9-0.6 3.7-1.7 5.5-2.6 1.7-1.1 3.5-2.1 5.1-3.4 3.4-2.3 6.5-5 9.4-7.8 2.9-2.9 5.6-5.8 7.9-8.9 1.2-1.5 2.3-3 3.4-4.6q1.6-2.2 2.9-4.5c1-1.5 1.8-3 2.6-4.5 0.8-1.5 1.5-2.9 2.1-4.3 0.7-1.4 1.2-2.8 1.7-4.1 0.6-1.3 1-2.6 1.4-3.8 0.4-1.2 0.8-2.3 1.1-3.3 0.2-1.1 0.5-2.1 0.7-3 0.4-1.7 0.5-3.1 0.7-4.1 0.1-0.9 0.2-1.5 0.2-1.5z"/>
			<path id="Layer" class="s5" d="m61.4 11.2l-7.6-21.6 12.2-26.6 7.8 15.4z"/>
			<path id="Layer" class="s6" d="m105.4-12.4c0 0-0.6 1.4-1.7 3.9-0.5 1.3-1.2 2.8-2 4.5-0.9 1.6-1.8 3.5-3 5.5-1.1 2.1-2.5 4.2-3.9 6.4-1.5 2.2-3.1 4.5-5 6.8-3.6 4.5-7.8 9-12.5 13.2-4.6 4-9.7 7.7-14.8 10.5-5.1 2.7-10.3 4.7-14.9 5.6-4.5 1-8.5 0.9-11.1 0.5-1.4-0.2-2.4-0.4-3.1-0.6-0.7-0.2-1.1-0.3-1.1-0.3 0 0 0.4 0.1 1.1 0.3 0.7 0.1 1.7 0.3 3 0.4 2.7 0.3 6.6 0.1 11.1-0.9 4.5-1.1 9.5-3.1 14.5-5.9 5-2.8 10-6.4 14.6-10.5 4.6-4 8.8-8.5 12.5-13 1.8-2.2 3.5-4.4 5-6.6 1.5-2.2 2.9-4.2 4.1-6.2 1.2-1.9 2.2-3.8 3.1-5.4q1.3-2.5 2.3-4.3c1.1-2.5 1.8-3.9 1.8-3.9z"/>
			<path id="Layer" class="s6" d="m62.6 37.6l10.1 7.6-10.4-7.2z"/>
			<path id="Layer" class="s6" d="m78.4 26.1l10.1 7.5-10.5-7.1z"/>
			<path id="Layer" class="s6" d="m49.1 43.1l10.1 7.6-10.4-7.1z"/>
			<path id="Layer" class="s6" d="m103.9 19.8l-8.1-6.2 8.5 5.7z"/>
			<path id="Layer" class="s6" d="m81.8 42l-8.2-6.2 8.5 5.7z"/>
			<path id="Layer" class="s6" d="m73.8-21.6c-6.4 3.8-12.9 7.5-19.4 11.2q-9.8 5.5-19.6 10.9l-0.1-0.4c6.9 2.8 13.8 5.7 20.7 8.6-7-2.6-13.9-5.4-20.8-8.2l-0.5-0.1 0.4-0.3q9.8-5.5 19.6-10.9c6.6-3.7 13.1-7.3 19.7-10.8z"/>
			<path id="Layer" class="s6" d="m83.3-24.5c3.4-0.7 6.8-1.5 10.2-2.1l0.5-0.1-0.3 0.3c-3.7 4.7-7.3 9.5-11.1 14.1-3.7 4.6-7.4 9.3-11.3 13.9 3.6-4.8 7.3-9.5 10.9-14.2 3.7-4.8 7.5-9.4 11.2-14l0.2 0.3c-3.4 0.7-6.9 1.3-10.3 1.8z"/>
			<path id="Layer" class="s4" d="m22.6 38.2c-6.2-6-9.3-15.9-8-28.8 0.3-3.3 0.9-6.6 1.8-9.9l42.8-59.9c2.9-1.9 5.8-3.5 8.8-4.9 11.8-5.3 22.2-5.6 29.8-1.7l-7.3 10.1c-6.1-2.8-14.2-2.5-23.5 1.7-21.5 9.8-40.9 36.8-43.2 60.4-1 10.1 1.3 17.9 6 22.8z"/>
			<path id="Layer" class="s4" d="m37.4 44.5q-5.3-0.4-9.5-2.5l7.2-10.2c3 1.4 6.3 2 10.1 1.8z"/>
			<path id="Layer" class="s7" d="m100.6-65.3l12.1 8.6c7.7 5.6 11.9 16.3 10.4 30.9-1.5 16.2-9.7 33.8-21.2 48.3l-3.5-21.1c6.9-11.6 11.5-24 12.7-35.8 1.4-14.6-2.7-25.3-10.5-30.9z"/>
			<path id="Layer" class="s3" d="m103.1 20.4q0.1 0 0.1 0 0 0.1 0 0.1 0.1 0.1 0 0.1 0 0.1 0 0.1-0.1 0-0.1 0-0.1 0-0.1-0.1 0 0 0-0.1 0 0 0.1 0v-0.1z"/>
			<path id="Layer" class="s3" d="m102.7 19.7q0 0-0.1 0 0 0 0 0-0.1 0-0.1-0.1 0 0-0.1 0 0 0 0 0 0 0.1 0 0.1 0 0.1-0.1 0.1 0 0-0.1-0.1h0.1q0 0 0-0.1 0-0.1 0.1-0.1 0-0.1 0.1-0.1v0.1l0.1-0.1q0.1 0 0.1 0 0.1 0 0.1 0 0 0.1 0 0.1 0 0.1 0 0.1-0.1 0.1-0.1 0.1z"/>
			<path id="Layer" class="s3" d="m102.2 20.6q0 0 0.1 0 0 0 0 0 0 0 0 0.1 0.1 0 0.1 0 0 0.1 0 0.1-0.1 0.1-0.1 0.1 0 0-0.1 0 0 0 0 0-0.1 0-0.1 0 0 0 0-0.1 0 0 0 0 0-0.1 0-0.1v-0.1q0.1 0 0.1 0z"/>
			<path id="Layer" class="s3" d="m102.5 21.5q0 0 0 0-0.1 0.1-0.1 0.1 0 0-0.1 0 0 0 0 0-0.1 0-0.1 0 0 0-0.1 0h0.1q0 0-0.1 0-0.1 0-0.1 0 0-0.1 0-0.1v-0.1q0.1 0 0.1 0 0-0.1 0.1-0.1 0 0 0 0l0.1 0.1q0.1-0.1 0.1-0.1l0.1 0.1q0 0.1 0 0.1z"/>
			<path id="Layer" class="s3" d="m102.9 19.1q0.1 0 0.1 0 0 0 0 0.1 0 0 0 0.1 0 0.1-0.1 0.1 0 0 0 0-0.1-0.1-0.1-0.1 0 0 0-0.1 0 0 0.1-0.1z"/>
			<path id="Layer" class="s3" d="m102.5 18.3q-0.1 0.1-0.1 0.1 0 0-0.1-0.1 0 0 0 0-0.1 0-0.1-0.1 0 0.1 0 0.1 0 0.1 0 0.1 0 0.1-0.1 0.1-0.1-0.1-0.1-0.1 0.1-0.1 0.1-0.1v-0.1q0 0 0.1-0.1 0 0 0.1 0h0.1q0-0.1 0.1-0.1 0.1 0.1 0 0.1h0.1q0 0 0 0.1 0 0 0 0.1-0.1 0-0.1 0z"/>
			<path id="Layer" class="s3" d="m102 19.3q0-0.1 0 0 0.1 0 0.1 0 0 0 0 0 0.1 0.1 0.1 0.1 0 0 0 0.1-0.1 0-0.1 0 0 0.1-0.1 0.1 0 0 0 0-0.1 0-0.1 0 0-0.1 0-0.1-0.1 0-0.1-0.1 0.1 0 0.1 0v-0.1q0 0 0.1 0z"/>
			<path id="Layer" class="s3" d="m102.3 20.2q0 0-0.1 0 0 0 0 0-0.1 0-0.1 0 0 0-0.1 0.1 0 0 0 0-0.1-0.1-0.1-0.1l0.1 0.1q-0.1 0-0.1 0h-0.1q0 0 0-0.1 0 0 0-0.1 0-0.1 0.1-0.1 0 0 0 0 0.1 0 0.1 0h0.1q0.1 0 0.1 0h0.1v0.1q0 0 0 0.1z"/>
			<path id="Layer" class="s3" d="m102.8 19.5q0 0 0.1 0 0 0.1 0 0.1 0 0.1 0 0.1-0.1 0.1-0.1 0.1 0 0-0.1 0 0 0 0-0.1 0 0 0-0.1 0 0 0 0l0.1-0.1z"/>
			<path id="Layer" class="s3" d="m102.3 18.8q0 0 0 0-0.1 0-0.1 0 0-0.1 0-0.1-0.1 0-0.1-0.1 0 0.1 0 0.1 0 0.1 0 0.1-0.1 0.1-0.1 0.1h-0.1q0 0 0-0.1 0 0 0.1-0.1 0-0.1 0-0.1 0.1-0.1 0.1-0.1h0.1v0.1-0.1q0.1-0.1 0.2 0 0 0 0 0h0.1q0 0.1 0 0.1 0 0.1-0.1 0.1 0 0-0.1 0.1z"/>
			<path id="Layer" class="s3" d="m101.8 19.7q0.1 0 0.1 0 0 0 0.1 0 0 0 0 0.1 0 0 0 0 0 0.1 0 0.1 0 0 0 0.1-0.1 0-0.1 0-0.1 0-0.1 0 0 0 0 0-0.1 0-0.1-0.1 0 0 0 0 0-0.1 0-0.1l0.1-0.1q0 0 0 0z"/>
			<path id="Layer" class="s3" d="m102.1 20.6q0 0 0 0 0 0-0.1 0 0 0.1 0 0-0.1 0.1-0.1 0.1 0 0-0.1 0 0 0 0-0.1v0.1q0 0-0.1 0 0 0 0-0.1-0.1 0 0 0v-0.1q0 0 0-0.1 0.1 0 0.1 0 0.1 0 0.1 0v0.1q0.1-0.1 0.2-0.1v0.1h0.1q0 0-0.1 0.1z"/>
			<path id="Layer" class="s3" d="m102.6 18.1q0 0 0 0.1 0.1 0 0.1 0.1 0 0-0.1 0.1 0 0 0 0.1-0.1 0-0.1-0.1 0 0 0 0-0.1-0.1 0-0.1 0 0 0-0.1l0.1-0.1z"/>
			<path id="Layer" class="s3" d="m102.1 17.4q0 0 0 0-0.1 0-0.1 0 0 0-0.1 0 0 0 0-0.1 0 0 0 0.1 0 0-0.1 0.1 0 0-0.1 0.1v-0.1q0 0 0 0 0-0.1 0-0.1v-0.1q0 0 0.1-0.1 0 0 0.1 0h0.1q0.1-0.1 0.2-0.1 0 0 0 0v0.1q0.1 0 0 0.1 0 0 0 0.1 0 0-0.1 0z"/>
			<path id="Layer" class="s3" d="m101.6 18.3q0.1 0 0.1 0 0 0 0 0.1 0.1 0 0 0 0.1 0 0.1 0.1 0 0 0 0.1 0 0-0.1 0 0 0.1 0 0.1-0.1 0-0.1 0 0 0-0.1-0.1 0 0 0 0 0 0 0-0.1 0 0 0-0.1h0.1q0-0.1 0-0.1z"/>
			<path id="Layer" class="s3" d="m101.9 19.2q0 0.1 0 0.1-0.1 0-0.1 0 0 0-0.1 0 0 0 0 0-0.1 0-0.1 0 0 0 0 0 0 0.1-0.1 0.1 0-0.1-0.1-0.1 0 0 0-0.1h0.1q0-0.1 0-0.1 0 0 0.1 0 0 0 0.1 0 0.1 0 0.2 0l0.1 0.1q0 0-0.1 0z"/>
			<path id="Layer" class="s3" d="m103.7 19.9q0 0 0.1 0 0 0 0 0.1 0 0 0 0.1-0.1 0-0.1 0.1 0 0-0.1 0 0-0.1 0-0.1 0 0 0-0.1 0 0 0-0.1h0.1z"/>
			<path id="Layer" class="s3" d="m103.3 19.1q-0.1 0.1-0.1 0.1-0.1 0-0.1-0.1 0 0 0 0-0.1 0-0.1-0.1 0 0.1 0 0.1 0 0.1 0 0.1-0.1 0-0.1 0.1h-0.1q0-0.1 0-0.1 0-0.1 0.1-0.1v-0.1q0 0 0-0.1 0.1 0 0.1 0h0.1q0.1-0.1 0.2-0.1 0 0.1 0 0.1h0.1q0 0 0 0.1 0 0-0.1 0.1 0 0 0 0z"/>
			<path id="Layer" class="s3" d="m102.7 20q0.1 0 0.1 0 0 0.1 0.1 0.1 0 0 0 0 0 0.1 0.1 0.1-0.1 0-0.1 0.1 0 0 0 0-0.1 0.1-0.1 0.1 0 0-0.1 0 0 0 0 0-0.1-0.1-0.1-0.1 0 0 0-0.1 0 0 0 0l0.1-0.1q0 0 0-0.1z"/>
			<path id="Layer" class="s3" d="m103.1 20.9q-0.1 0.1-0.1 0.1 0 0-0.1 0 0 0 0 0-0.1 0-0.1 0.1 0 0-0.1 0 0-0.1 0-0.1l0.1 0.1q-0.1 0-0.2 0 0 0 0-0.1 0 0 0-0.1 0-0.1 0-0.1 0.1 0 0.1 0 0.1 0 0.1 0 0.1 0 0.2 0l0.1 0.1q0 0 0 0z"/>
			<path id="Layer" class="s3" d="m103.5 18.5q0 0 0 0.1 0.1 0 0.1 0.1 0 0 0 0.1-0.1 0-0.1 0-0.1 0-0.1 0 0 0 0 0 0-0.1 0-0.1 0-0.1 0-0.1l0.1-0.1z"/>
			<path id="Layer" class="s3" d="m103 17.8q0 0 0 0-0.1 0-0.1 0 0 0-0.1 0 0-0.1 0-0.1 0 0 0 0.1 0 0-0.1 0.1 0 0 0 0h-0.1q0 0 0 0v-0.1q0 0 0 0v-0.1q0.1-0.1 0.1-0.1 0 0 0.1 0h0.1v-0.1q0.1 0 0.2 0 0 0 0 0v0.1q0.1 0 0 0.1 0 0 0 0.1 0 0-0.1 0z"/>
			<path id="Layer" class="s3" d="m102.5 18.7q0.1 0 0.1 0 0 0 0 0.1 0.1 0 0.1 0 0 0 0 0.1 0 0 0 0 0 0.1-0.1 0.1 0 0 0 0-0.1 0.1-0.1 0 0 0-0.1 0 0 0 0 0 0-0.1 0-0.1 0 0 0-0.1h0.1q0-0.1 0-0.1z"/>
			<path id="Layer" class="s3" d="m102.8 19.6q0 0 0 0.1-0.1 0-0.1 0 0 0-0.1 0 0 0 0 0-0.1 0-0.1 0 0 0 0 0 0 0.1-0.1 0.1v-0.1q0 0-0.1 0 0-0.1 0-0.1h0.1q0-0.1 0-0.1 0.1 0 0.1-0.1 0 0 0.1 0.1 0.1 0 0.2 0h0.1q0 0.1-0.1 0.1z"/>
			<path id="Layer" class="s3" d="m102.5 16q0.1 0 0.1 0 0 0.1 0 0.1 0 0.1 0 0.1 0 0.1-0.1 0.1 0 0-0.1 0 0 0 0-0.1 0 0 0 0 0-0.1 0-0.1l0.1-0.1z"/>
			<path id="Layer" class="s3" d="m102.1 15.3q-0.1 0-0.1 0 0 0-0.1 0 0 0 0-0.1-0.1 0-0.1 0 0 0 0 0 0 0.1 0 0.2-0.1 0-0.1 0-0.1 0-0.1 0v-0.1q0 0 0.1-0.1 0-0.1 0-0.1 0.1-0.1 0.1-0.1l0.1 0.1 0.1-0.1q0 0 0.1 0 0 0 0 0h0.1q0 0.1 0 0.1 0 0.1-0.1 0.1 0 0.1 0 0.1z"/>
			<path id="Layer" class="s3" d="m101.6 16.2q0 0 0 0 0.1 0 0.1 0 0 0.1 0 0.1 0 0 0.1 0.1 0 0-0.1 0 0 0.1 0 0.1-0.1 0-0.1 0 0 0-0.1 0 0 0 0 0 0 0-0.1 0 0-0.1 0-0.1 0-0.1 0.1-0.1v-0.1q0 0 0.1 0z"/>
			<path id="Layer" class="s3" d="m101.9 17.1q-0.1 0-0.1 0.1 0 0-0.1 0 0 0 0 0 0 0-0.1 0 0 0 0 0-0.1 0-0.1 0h0.1q-0.1 0-0.1 0.1l-0.1-0.1q0 0 0 0 0-0.1 0-0.1v-0.1q0 0 0.1 0 0-0.1 0-0.1 0.1 0 0.1 0l0.1 0.1q0-0.1 0.1 0h0.1q0 0.1 0 0.1z"/>
			<path id="Layer" class="s3" d="m102.3 14.7q0 0 0.1 0 0 0.1 0 0.1 0 0.1 0 0.1-0.1 0.1-0.1 0.1 0 0-0.1 0 0-0.1 0-0.1 0 0 0-0.1 0 0 0 0l0.1-0.1z"/>
			<path id="Layer" class="s3" d="m101.9 14q-0.1 0-0.1 0-0.1 0-0.1 0 0-0.1 0-0.1-0.1 0-0.1-0.1 0 0.1 0 0.1 0 0.1 0 0.1-0.1 0.1-0.1 0.1h-0.1q0 0 0-0.1 0-0.1 0.1-0.1 0-0.1 0-0.1 0.1-0.1 0.1-0.1h0.1v0.1-0.1q0.1-0.1 0.2 0 0 0 0 0h0.1q0 0.1 0 0.1 0 0.1-0.1 0.1 0 0 0 0.1z"/>
			<path id="Layer" class="s3" d="m101.3 14.9q0.1 0 0.1 0 0 0 0.1 0 0 0 0 0.1 0 0 0.1 0-0.1 0.1-0.1 0.1 0 0 0 0.1-0.1 0-0.1 0 0 0-0.1 0 0 0 0 0-0.1 0-0.1-0.1 0 0 0 0 0-0.1 0-0.1l0.1-0.1q0 0 0 0z"/>
			<path id="Layer" class="s3" d="m101.6 15.8q0 0 0 0 0 0-0.1 0 0 0.1 0 0-0.1 0.1-0.1 0.1 0 0-0.1 0 0 0 0-0.1v0.1q0 0-0.1 0 0 0 0-0.1-0.1 0 0-0.1 0 0 0-0.1 0.1 0 0.1 0 0.1 0 0.1 0v0.1q0.1-0.1 0.2-0.1l0.1 0.1q0 0-0.1 0.1z"/>
			<path id="Layer" class="s3" d="m102.1 15.1q0.1 0 0.1 0 0.1 0.1 0.1 0.1 0 0.1-0.1 0.1 0 0.1 0 0.1-0.1 0-0.1 0 0 0-0.1-0.1 0 0 0-0.1 0.1 0 0.1 0v-0.1z"/>
			<path id="Layer" class="s3" d="m101.7 14.4q0 0-0.1 0 0 0 0 0-0.1 0-0.1-0.1 0 0-0.1 0 0.1 0 0.1 0-0.1 0.1-0.1 0.1 0 0.1-0.1 0.1 0 0-0.1-0.1h0.1q0 0 0-0.1 0-0.1 0.1-0.1 0-0.1 0.1-0.1v0.1h0.1v-0.1q0.1 0 0.1 0 0.1 0 0.1 0 0 0.1 0 0.1 0 0.1 0 0.1 0 0.1-0.1 0.1z"/>
			<path id="Layer" class="s3" d="m101.2 15.3q0 0 0.1 0 0 0 0 0 0 0 0 0.1 0.1 0 0.1 0 0 0.1 0 0.1 0 0.1-0.1 0.1 0 0-0.1 0 0 0 0 0-0.1 0-0.1 0 0 0 0-0.1 0 0 0 0 0-0.1 0-0.1v-0.1q0.1 0 0.1 0z"/>
			<path id="Layer" class="s3" d="m101.5 16.2q0 0 0 0-0.1 0.1-0.1 0.1 0 0-0.1 0 0 0 0 0-0.1 0-0.1 0 0 0 0 0 0 0-0.1 0-0.1 0-0.1-0.1 0 0 0 0v-0.1q0.1 0 0.1-0.1 0 0 0.1 0 0 0 0 0l0.1 0.1q0.1-0.1 0.2-0.1v0.1q0 0.1 0 0.1z"/>
			<path id="Layer" class="s3" d="m101.9 13.8q0.1 0 0.1 0 0 0 0 0.1 0 0 0 0.1 0 0-0.1 0.1 0 0 0 0-0.1-0.1-0.1-0.1 0 0 0-0.1 0 0 0.1-0.1z"/>
			<path id="Layer" class="s3" d="m101.5 13q0 0.1-0.1 0.1 0 0-0.1-0.1 0 0 0 0-0.1 0-0.1-0.1 0 0.1 0 0.1 0 0.1 0 0.1 0 0-0.1 0.1-0.1-0.1-0.1-0.1h0.1q0-0.1 0-0.1v-0.1q0 0 0.1-0.1 0 0 0.1 0h0.1q0.1-0.1 0.1-0.1 0.1 0.1 0.1 0.1 0 0 0 0.1 0 0 0 0.1-0.1 0-0.1 0z"/>
			<path id="Layer" class="s3" d="m101 14q0-0.1 0.1-0.1 0 0.1 0 0.1 0 0 0 0 0.1 0.1 0.1 0.1 0 0 0 0.1-0.1 0-0.1 0 0 0.1-0.1 0.1 0 0 0 0-0.1 0-0.1 0 0-0.1 0-0.1-0.1 0 0-0.1 0 0 0 0v-0.1q0.1 0 0.1 0z"/>
			<path id="Layer" class="s3" d="m101.3 14.8q0 0.1-0.1 0.1 0 0 0 0-0.1 0-0.1 0 0 0-0.1 0.1 0 0 0 0-0.1-0.1-0.1-0.1l0.1 0.1q-0.1 0-0.1 0-0.1 0-0.1-0.1 0 0 0-0.1 0-0.1 0.1-0.1 0 0 0.1 0 0 0 0 0h0.1q0.1 0 0.1 0h0.1v0.1q0 0 0 0z"/>
			<path id="Layer" class="s3" d="m103.1 15.5q0 0 0 0 0.1 0.1 0.1 0.1 0 0.1-0.1 0.1 0 0.1 0 0.1-0.1 0-0.1 0 0-0.1-0.1-0.1 0 0 0-0.1 0.1 0 0.1-0.1z"/>
			<path id="Layer" class="s3" d="m102.6 14.8q0 0-0.1 0 0 0 0 0-0.1-0.1-0.1-0.1 0 0-0.1-0.1 0.1 0.1 0.1 0.1 0 0.1-0.1 0.1 0 0.1-0.1 0.1 0 0 0-0.1 0-0.1 0-0.1 0-0.1 0.1-0.1 0-0.1 0.1-0.1l0.1 0.1v-0.1q0.1-0.1 0.2 0 0 0 0 0 0 0.1 0 0.1 0 0.1 0 0.1 0 0-0.1 0.1z"/>
			<path id="Layer" class="s3" d="m102.1 15.7q0 0 0.1 0 0 0 0 0 0 0 0 0.1 0.1 0 0.1 0 0 0.1 0 0.1 0 0-0.1 0.1 0 0 0 0-0.1 0-0.1 0 0 0-0.1 0 0 0 0-0.1 0 0 0-0.1 0 0 0 0l0.1-0.1q0 0 0 0z"/>
			<path id="Layer" class="s3" d="m102.4 16.6q0 0 0 0-0.1 0-0.1 0 0 0-0.1 0 0 0.1 0 0.1-0.1 0-0.1 0 0 0 0-0.1v0.1q0 0-0.1 0-0.1 0-0.1-0.1 0 0 0-0.1 0.1 0 0.1-0.1 0 0 0.1 0 0 0 0.1 0v0.1q0.1-0.1 0.2-0.1v0.1q0 0 0 0.1z"/>
			<path id="Layer" class="s3" d="m102.8 14.1q0.1 0 0.1 0.1 0 0 0 0.1 0 0 0 0.1 0 0-0.1 0.1 0 0 0-0.1-0.1 0-0.1 0 0-0.1 0-0.1 0-0.1 0.1-0.1v-0.1z"/>
			<path id="Layer" class="s3" d="m102.4 13.4q0 0-0.1 0 0 0 0 0-0.1 0-0.1 0 0 0-0.1-0.1 0 0 0 0.1 0 0 0 0.1 0 0-0.1 0.1v-0.1q-0.1 0-0.1 0h0.1q0-0.1 0-0.1v-0.1q0 0 0.1-0.1 0 0 0.1 0h0.1q0.1-0.1 0.1-0.1 0.1 0 0.1 0v0.1q0 0 0 0.1 0 0 0 0.1-0.1 0-0.1 0z"/>
			<path id="Layer" class="s3" d="m101.9 14.3q0 0 0.1 0 0 0 0 0.1 0 0 0 0 0.1 0 0.1 0.1 0 0 0 0.1-0.1 0-0.1 0 0 0-0.1 0.1 0 0 0 0-0.1 0-0.1-0.1 0 0 0 0 0 0 0-0.1 0 0 0-0.1 0.1-0.1 0.1-0.1z"/>
			<path id="Layer" class="s3" d="m102.2 15.2q0 0.1-0.1 0.1 0 0 0 0-0.1 0-0.1 0 0 0-0.1 0 0 0 0 0 0 0-0.1 0h0.1q-0.1 0.1-0.1 0.1-0.1-0.1-0.1-0.1 0 0 0-0.1 0-0.1 0.1-0.1 0 0 0.1 0 0 0 0 0h0.1q0.1 0 0.1 0h0.1v0.1q0 0 0 0z"/>
			<path id="Layer" class="s3" d="m104.2 17.6q0.1 0 0.1 0.1 0 0 0 0.1 0 0 0 0.1 0 0-0.1 0.1 0 0 0-0.1-0.1 0-0.1 0 0-0.1 0-0.1 0-0.1 0.1-0.1v-0.1z"/>
			<path id="Layer" class="s3" d="m103.8 16.9q-0.1 0-0.1 0 0 0-0.1 0 0 0 0 0-0.1 0-0.1-0.1 0 0 0 0.1 0 0 0 0.1-0.1 0-0.1 0.1v-0.1q-0.1 0-0.1 0 0.1-0.1 0.1-0.1v-0.1q0 0 0-0.1 0.1 0 0.1 0h0.1 0.1q0-0.1 0.1-0.1 0 0 0 0l0.1 0.1q0 0 0 0.1 0 0-0.1 0.1 0 0 0 0z"/>
			<path id="Layer" class="s3" d="m103.3 17.8q0 0 0 0 0.1 0 0.1 0.1 0 0 0 0 0.1 0 0.1 0.1 0 0-0.1 0.1 0 0 0 0 0 0-0.1 0.1 0 0-0.1 0 0 0 0-0.1 0 0-0.1 0 0 0 0-0.1 0 0 0.1-0.1 0-0.1 0.1-0.1z"/>
			<path id="Layer" class="s3" d="m103.6 18.7q0 0.1-0.1 0.1 0 0 0 0-0.1 0-0.1 0 0 0-0.1 0 0 0 0 0-0.1 0-0.1 0h0.1q-0.1 0.1-0.1 0.1h-0.1q0-0.1 0-0.1 0 0 0-0.1 0-0.1 0.1-0.1 0 0 0 0 0.1 0 0.1 0h0.1q0 0 0.1 0l0.1 0.1q0 0 0 0z"/>
			<path id="Layer" class="s3" d="m104 16.3q0 0 0.1 0 0 0.1 0 0.1 0 0.1 0 0.1 0 0.1-0.1 0.1 0 0-0.1 0 0 0 0-0.1 0 0 0 0 0-0.1 0-0.1l0.1-0.1z"/>
			<path id="Layer" class="s3" d="m103.6 15.6q-0.1 0-0.1 0-0.1 0-0.1 0 0 0 0-0.1-0.1 0-0.1 0 0 0 0 0 0 0.1 0 0.1-0.1 0.1-0.1 0.1h-0.1q0 0 0 0v-0.1q0 0 0.1-0.1 0-0.1 0-0.1 0.1-0.1 0.1-0.1l0.1 0.1 0.1-0.1q0 0 0.1 0 0 0 0 0h0.1q0 0.1 0 0.1 0 0.1-0.1 0.1 0 0.1 0 0.1z"/>
			<path id="Layer" class="s3" d="m103.1 16.5q0 0 0 0 0 0 0.1 0 0 0.1 0 0.1 0 0 0.1 0 0 0.1-0.1 0.1 0 0.1 0 0.1-0.1 0-0.1 0 0 0-0.1 0 0 0 0 0-0.1 0-0.1 0 0-0.1 0-0.1 0-0.1 0-0.1l0.1-0.1q0 0 0.1 0z"/>
			<path id="Layer" class="s3" d="m103.4 17.4q-0.1 0-0.1 0 0 0.1-0.1 0.1 0 0 0 0-0.1 0-0.1 0 0 0-0.1 0 0 0 0 0h0.1q-0.1 0-0.1 0h-0.1q0 0 0 0 0-0.1 0-0.1v-0.1q0 0 0 0 0.1-0.1 0.1-0.1 0.1 0 0.1 0l0.1 0.1q0-0.1 0.1 0h0.1q0 0.1 0 0.1z"/>
			<path id="Layer" class="s3" d="m103.9 16.7q0 0 0 0.1 0.1 0 0.1 0.1 0 0-0.1 0.1 0 0 0 0-0.1 0-0.1 0 0 0-0.1 0 0-0.1 0.1-0.1 0-0.1 0-0.1v-0.1z"/>
			<path id="Layer" class="s3" d="m103.4 16q0 0-0.1 0 0 0 0 0 0 0-0.1 0 0-0.1-0.1-0.1 0.1 0 0.1 0.1 0 0-0.1 0.1 0 0-0.1 0 0 0 0 0v-0.1q0 0 0 0v-0.1q0-0.1 0.1-0.1 0 0 0.1 0h0.1v-0.1q0.1 0 0.2 0 0 0 0 0v0.1q0.1 0 0 0.1 0 0 0 0 0 0.1-0.1 0.1z"/>
			<path id="Layer" class="s3" d="m102.9 16.9q0.1 0 0.1 0 0 0 0 0 0 0.1 0 0.1 0.1 0 0.1 0.1 0 0 0 0 0 0.1-0.1 0.1 0 0 0 0-0.1 0.1-0.1 0 0 0-0.1 0 0 0 0 0 0-0.1 0-0.1 0 0 0-0.1h0.1q0-0.1 0-0.1z"/>
			<path id="Layer" class="s3" d="m103.2 17.8q0 0 0 0.1-0.1 0-0.1 0 0 0-0.1 0 0 0 0 0-0.1 0-0.1 0 0 0 0 0 0 0.1-0.1 0.1v-0.1q0 0-0.1 0 0-0.1 0-0.1h0.1q0-0.1 0-0.1 0-0.1 0.1-0.1 0 0 0.1 0.1 0.1 0 0.2 0h0.1q-0.1 0.1-0.1 0.1z"/>
			<path id="Layer" class="s3" d="m103.6 15.4q0.1 0 0.1 0 0 0.1 0 0.1 0 0.1 0 0.1 0 0.1-0.1 0.1 0 0 0 0-0.1 0-0.1-0.1 0 0 0-0.1 0 0 0.1 0v-0.1z"/>
			<path id="Layer" class="s3" d="m103.2 14.7q0 0-0.1 0 0 0 0 0-0.1 0-0.1-0.1 0 0-0.1 0 0 0 0 0 0 0.1 0 0.1 0 0.1-0.1 0.1 0 0-0.1-0.1h0.1q0 0 0-0.1 0-0.1 0.1-0.1 0-0.1 0.1-0.1v0.1l0.1-0.1q0.1 0 0.1 0 0.1 0 0.1 0 0 0.1 0 0.1 0 0.1 0 0.1-0.1 0-0.1 0.1z"/>
			<path id="Layer" class="s3" d="m102.7 15.6q0 0 0.1 0 0 0 0 0 0 0 0 0.1 0.1 0 0.1 0 0 0.1 0 0.1-0.1 0-0.1 0.1 0 0-0.1 0 0 0 0 0-0.1 0-0.1 0 0 0 0-0.1 0 0 0 0 0-0.1 0-0.1v-0.1q0.1 0 0.1 0z"/>
			<path id="Layer" class="s3" d="m103 16.5q0 0-0.1 0 0 0.1 0 0.1-0.1 0-0.1 0 0 0 0 0-0.1 0-0.1 0 0 0-0.1 0h0.1q0 0-0.1 0-0.1 0-0.1-0.1 0 0 0 0v-0.1q0 0 0.1-0.1 0 0 0.1 0 0 0 0 0l0.1 0.1q0.1-0.1 0.1-0.1l0.1 0.1q0 0 0 0.1z"/>
			<path id="Layer" class="s3" d="m104.8 17.1q0 0 0 0 0.1 0.1 0.1 0.1 0 0.1-0.1 0.1 0 0.1 0 0.1-0.1 0-0.1 0 0 0 0-0.1-0.1 0 0 0 0-0.1 0-0.1l0.1-0.1z"/>
			<path id="Layer" class="s3" d="m104.3 16.4q0 0 0 0-0.1 0-0.1 0 0 0-0.1-0.1 0 0 0 0 0 0 0 0 0 0.1-0.1 0.1 0 0.1-0.1 0.1 0 0 0 0v-0.1q0 0 0-0.1 0-0.1 0.1-0.1 0-0.1 0.1-0.1v0.1h0.1v-0.1q0.1 0 0.2 0 0 0 0 0 0.1 0.1 0 0.1 0 0.1 0 0.1 0 0.1-0.1 0.1z"/>
			<path id="Layer" class="s3" d="m103.8 17.3q0.1 0 0.1 0 0 0 0 0 0.1 0.1 0 0.1 0.1 0 0.1 0 0 0.1 0 0.1 0 0.1-0.1 0.1 0 0 0 0-0.1 0-0.1 0 0 0-0.1 0 0 0 0 0 0-0.1 0-0.1 0-0.1 0-0.1l0.1-0.1q0 0 0 0z"/>
			<path id="Layer" class="s3" d="m104.1 18.2q0 0 0 0-0.1 0.1-0.1 0.1 0 0-0.1 0 0 0 0 0-0.1 0-0.1 0 0 0 0 0 0 0-0.1 0 0 0-0.1 0 0-0.1 0-0.1l0.1-0.1q0 0 0 0 0-0.1 0.1-0.1 0 0 0.1 0v0.1q0.1-0.1 0.2 0h0.1q-0.1 0.1-0.1 0.1z"/>
			<path id="Layer" class="s3" d="m104.5 15.8q0.1 0 0.1 0 0.1 0 0.1 0.1 0 0.1-0.1 0.1 0 0.1 0 0.1-0.1 0-0.1 0-0.1-0.1-0.1-0.1 0 0 0-0.1 0.1 0 0.1-0.1z"/>
			<path id="Layer" class="s3" d="m104.1 15q0 0.1-0.1 0.1 0 0 0-0.1-0.1 0-0.1 0 0 0-0.1-0.1 0 0.1 0.1 0.1-0.1 0.1-0.1 0.1 0 0.1-0.1 0.1 0 0-0.1-0.1h0.1q0-0.1 0-0.1v-0.1q0 0 0.1-0.1 0 0 0.1 0l0.1 0.1v-0.1q0.1-0.1 0.1-0.1 0.1 0.1 0.1 0.1 0 0 0 0.1 0 0.1 0 0.1-0.1 0-0.1 0z"/>
			<path id="Layer" class="s3" d="m103.6 16q0-0.1 0.1 0 0 0 0 0 0 0 0 0.1 0.1 0 0.1 0 0 0.1 0 0.1-0.1 0-0.1 0 0 0.1-0.1 0.1 0 0 0 0-0.1 0-0.1 0 0 0 0-0.1 0 0 0-0.1 0 0 0 0v-0.1q0.1 0 0.1 0z"/>
			<path id="Layer" class="s3" d="m103.9 16.9q0 0 0 0-0.1 0-0.1 0 0 0-0.1 0 0 0.1 0 0.1-0.1 0-0.1 0 0 0-0.1-0.1l0.1 0.1q0 0-0.1 0-0.1 0-0.1-0.1 0 0 0-0.1 0.1 0 0.1-0.1 0 0 0.1 0 0 0 0 0h0.1q0.1 0 0.1 0h0.1v0.1q0 0 0 0.1z"/>
			<path id="Layer" class="s3" d="m101.9 12.4q0 0 0.1 0 0 0 0 0.1 0 0.1 0 0.1-0.1 0.1-0.1 0.1-0.1 0-0.1 0 0-0.1 0-0.1 0 0 0-0.1 0 0 0-0.1h0.1z"/>
			<path id="Layer" class="s3" d="m102.1 5.2q0 0 0 0 0.1 0 0.1 0 0 0 0 0.1 0 0 0.1 0 0 0.1-0.1 0.1 0 0 0 0.1-0.1 0-0.1 0 0 0-0.1 0 0 0 0 0-0.1 0-0.1-0.1 0 0 0 0 0-0.1 0.1-0.1v-0.1q0 0 0.1 0z"/>
			<path id="Layer" class="s3" d="m102.4 6.1q-0.1 0-0.1 0 0 0-0.1 0.1 0 0 0-0.1 0 0.1-0.1 0.1 0 0 0 0-0.1 0-0.1-0.1l0.1 0.1q-0.1 0-0.1 0h-0.1q0 0 0-0.1 0 0 0 0v-0.1q0 0 0.1-0.1 0 0 0 0 0.1 0 0.1 0l0.1 0.1q0-0.1 0.1-0.1v0.1h0.1q0 0 0 0.1z"/>
			<path id="Layer" class="s3" d="m102.8 3.6q0 0.1 0.1 0.1 0 0 0 0.1 0 0 0 0.1-0.1 0-0.1 0.1 0 0-0.1-0.1 0 0 0 0 0-0.1 0-0.1 0 0 0-0.1l0.1-0.1z"/>
			<path id="Layer" class="s3" d="m102.3 2.9q0 0 0 0-0.1 0-0.1 0 0 0 0 0-0.1 0-0.1-0.1 0 0 0 0.1 0 0 0 0.1-0.1 0-0.1 0.1l-0.1-0.1q0 0 0 0 0-0.1 0.1-0.1v-0.1q0 0 0-0.1 0.1 0 0.1 0h0.1q0.1-0.1 0.2-0.1 0 0 0 0l0.1 0.1q0 0 0 0.1 0 0-0.1 0.1 0 0-0.1 0z"/>
			<path id="Layer" class="s3" d="m101.8 3.8q0.1 0 0.1 0 0 0 0.1 0.1 0 0 0 0 0 0 0 0.1 0 0 0 0.1 0 0 0 0-0.1 0.1-0.1 0.1-0.1 0-0.1 0 0 0 0 0-0.1-0.1-0.1-0.1 0 0 0-0.1 0 0 0-0.1h0.1q0-0.1 0-0.1z"/>
			<path id="Layer" class="s3" d="m102.1 4.7q0 0.1 0 0.1 0 0-0.1 0 0 0 0 0-0.1 0-0.1 0 0 0-0.1 0 0 0 0 0v0.1q0 0-0.1 0 0-0.1 0-0.1-0.1 0 0-0.1 0-0.1 0-0.1 0.1 0 0.1 0 0.1 0 0.1 0 0.1 0 0.2 0l0.1 0.1q0 0-0.1 0z"/>
			<path id="Layer" class="s3" d="m105.9 11.2q0 0 0.1 0 0 0 0 0.1 0 0 0 0.1 0 0-0.1 0.1 0 0-0.1-0.1 0 0 0 0 0-0.1 0-0.1 0 0 0-0.1h0.1z"/>
			<path id="Layer" class="s3" d="m105.5 10.4q-0.1 0.1-0.1 0.1 0 0-0.1-0.1 0 0 0 0-0.1 0-0.1-0.1 0 0.1 0 0.1 0 0 0 0.1-0.1 0-0.1 0.1v-0.1q-0.1 0-0.1 0 0-0.1 0.1-0.1v-0.1q0 0 0-0.1 0.1 0 0.1 0h0.1 0.1q0-0.1 0.1-0.1 0 0.1 0 0l0.1 0.1q0 0 0 0.1 0 0-0.1 0.1 0 0 0 0z"/>
			<path id="Layer" class="s3" d="m105 11.3q0 0 0 0 0.1 0.1 0.1 0.1 0 0 0 0 0 0 0.1 0.1 0 0-0.1 0.1 0 0 0 0-0.1 0.1-0.1 0.1 0 0-0.1 0 0 0 0 0-0.1-0.1-0.1-0.1 0 0 0-0.1 0 0 0 0l0.1-0.1q0 0 0.1-0.1z"/>
			<path id="Layer" class="s3" d="m105.3 12.2q-0.1 0.1-0.1 0.1 0 0-0.1 0 0 0 0 0-0.1 0-0.1 0 0 0.1-0.1 0 0 0 0 0l0.1 0.1q-0.1 0-0.1 0h-0.1q0-0.1 0-0.1 0 0 0-0.1 0-0.1 0-0.1 0.1 0 0.1 0 0.1 0 0.1 0h0.1q0 0 0.1 0l0.1 0.1q0 0 0 0z"/>
			<path id="Layer" class="s3" d="m105.7 9.8q0 0 0.1 0.1 0 0 0 0.1 0 0 0 0.1-0.1 0-0.1 0-0.1 0-0.1 0 0 0 0 0 0-0.1 0-0.1 0-0.1 0-0.1l0.1-0.1z"/>
			<path id="Layer" class="s3" d="m105.2 9.1q0 0 0 0-0.1 0-0.1 0 0 0 0-0.1-0.1 0-0.1 0 0 0 0 0.1 0 0-0.1 0.1 0 0 0 0h-0.1q0 0 0 0v-0.1q0 0 0.1 0l-0.1-0.1q0.1-0.1 0.1-0.1 0.1 0 0.1 0h0.1v-0.1q0.1 0 0.2 0 0 0 0 0l0.1 0.1q0 0 0 0.1-0.1 0-0.1 0 0 0.1-0.1 0.1z"/>
			<path id="Layer" class="s3" d="m104.7 10q0.1 0 0.1 0 0 0 0 0 0.1 0.1 0.1 0.1 0 0 0 0.1 0 0 0 0 0 0.1-0.1 0.1 0 0 0 0-0.1 0.1-0.1 0 0 0 0 0-0.1 0-0.1 0 0-0.1 0-0.1 0 0 0-0.1l0.1-0.1q0 0 0 0z"/>
			<path id="Layer" class="s3" d="m105 10.9q0 0 0 0.1 0 0-0.1 0 0 0 0 0-0.1 0-0.1 0 0 0-0.1 0 0 0 0 0 0 0.1-0.1 0.1v-0.1q0 0 0 0-0.1-0.1-0.1-0.1h0.1q0-0.1 0-0.1 0.1-0.1 0.1-0.1 0 0 0.1 0.1 0.1 0 0.2 0h0.1q0 0.1-0.1 0.1z"/>
			<path id="Layer" class="s3" d="m105.5 10.2q0.1 0 0.1 0.1 0.1 0 0.1 0.1 0 0-0.1 0.1 0 0 0 0.1-0.1 0-0.1-0.1-0.1 0-0.1 0 0-0.1 0-0.1 0.1-0.1 0.1-0.1v-0.1z"/>
			<path id="Layer" class="s3" d="m105.1 9.5q0 0-0.1 0 0 0 0 0-0.1 0-0.1 0 0 0-0.1-0.1 0 0 0 0.1 0 0 0 0.1 0 0-0.1 0 0 0-0.1 0h0.1q0-0.1 0-0.1v-0.1q0 0 0.1-0.1 0 0 0.1 0h0.1q0.1-0.1 0.1-0.1 0.1 0 0.1 0v0.1q0 0 0 0.1 0 0 0 0.1-0.1 0-0.1 0z"/>
			<path id="Layer" class="s3" d="m104.6 10.4q0 0 0.1 0 0 0 0 0.1 0 0 0 0 0.1 0 0.1 0.1 0 0 0 0.1-0.1 0-0.1 0 0 0-0.1 0.1 0 0 0 0-0.1 0-0.1-0.1 0 0 0 0 0 0 0-0.1 0 0 0-0.1 0.1-0.1 0.1-0.1z"/>
			<path id="Layer" class="s3" d="m104.9 11.3q0 0.1 0 0.1-0.1 0-0.1 0 0 0-0.1 0 0 0 0 0-0.1 0-0.1 0 0 0-0.1 0h0.1q0 0.1-0.1 0.1-0.1-0.1-0.1-0.1 0 0 0-0.1 0.1-0.1 0.1-0.1 0 0 0.1 0 0 0 0 0h0.1q0.1 0 0.1 0h0.1v0.1q0 0 0 0z"/>
			<path id="Layer" class="s3" d="m105.3 8.9q0.1 0 0.1 0 0 0.1 0 0.1 0 0.1 0 0.1 0 0.1-0.1 0.1 0 0 0 0-0.1 0-0.1-0.1 0 0 0 0 0-0.1 0.1-0.1v-0.1z"/>
			<path id="Layer" class="s3" d="m104.9 8.2q0 0-0.1 0 0 0-0.1 0 0 0 0-0.1-0.1 0-0.1 0 0 0 0 0 0 0.1 0 0.1 0 0.1-0.1 0.1-0.1 0-0.1 0v-0.1q0.1 0 0.1-0.1 0-0.1 0.1-0.1 0-0.1 0.1-0.1v0.1l0.1-0.1q0 0 0.1 0 0.1 0 0 0h0.1q0 0.1 0 0.1 0 0.1 0 0.1-0.1 0.1-0.1 0.1z"/>
			<path id="Layer" class="s3" d="m104.4 9.1q0 0 0 0 0.1 0 0.1 0 0 0.1 0 0.1 0.1 0 0.1 0 0 0.1 0 0.1-0.1 0.1-0.1 0.1 0 0-0.1 0 0 0 0 0-0.1 0-0.1 0 0 0 0 0-0.1-0.1-0.1-0.1 0.1-0.1 0.1-0.1v-0.1q0 0 0.1 0z"/>
			<path id="Layer" class="s3" d="m104.7 10q0 0-0.1 0 0 0.1 0 0.1-0.1 0-0.1 0 0 0-0.1 0 0 0 0 0-0.1 0-0.1 0h0.1q-0.1 0-0.1 0h-0.1q0 0 0 0 0-0.1 0-0.1v-0.1q0 0 0.1 0 0-0.1 0-0.1 0.1 0 0.1 0l0.1 0.1q0.1-0.1 0.1 0h0.1q0 0.1 0 0.1z"/>
			<path id="Layer" class="s3" d="m106.4 10.6q0.1 0 0.1 0.1 0.1 0 0.1 0 0 0.1-0.1 0.2 0 0 0 0-0.1 0-0.1 0 0 0-0.1 0 0-0.1 0-0.1 0.1-0.1 0.1-0.1v-0.1z"/>
			<path id="Layer" class="s3" d="m106 9.9q0 0-0.1 0 0 0 0 0-0.1 0-0.1-0.1 0 0-0.1 0 0.1 0 0.1 0.1-0.1 0-0.1 0.1 0 0-0.1 0 0 0-0.1 0l0.1-0.1q0 0 0 0v-0.1q0-0.1 0.1-0.1 0 0 0.1-0.1v0.1h0.1v-0.1q0.1 0 0.1 0 0.1 0 0.1 0v0.1q0 0 0 0 0 0.1 0 0.1-0.1 0.1-0.1 0.1z"/>
			<path id="Layer" class="s3" d="m105.5 10.8q0 0 0.1 0 0 0 0 0 0 0.1 0 0.1 0.1 0 0.1 0.1 0 0 0 0 0 0.1-0.1 0.1 0 0-0.1 0 0 0 0 0-0.1 0-0.1 0 0 0 0 0 0-0.1 0-0.1 0 0 0-0.1v-0.1q0.1 0 0.1 0z"/>
			<path id="Layer" class="s3" d="m105.8 11.7q0 0 0 0.1-0.1 0-0.1 0 0 0-0.1 0 0 0 0 0-0.1 0-0.1 0 0 0 0 0 0 0.1-0.1 0.1v-0.1q-0.1 0-0.1 0 0-0.1 0-0.1 0.1-0.1 0.1-0.1 0-0.1 0.1-0.1 0 0 0 0.1h0.1q0.1 0 0.1 0h0.1q0 0.1 0 0.1z"/>
			<path id="Layer" class="s3" d="m106.2 9.3q0.1 0 0.1 0 0 0.1 0 0.1 0 0.1 0 0.1 0 0.1-0.1 0.1 0 0 0 0-0.1 0-0.1-0.1 0 0 0-0.1 0 0 0.1 0v-0.1z"/>
			<path id="Layer" class="s3" d="m105.8 8.6q0 0-0.1 0 0 0-0.1 0 0-0.1 0-0.1-0.1 0-0.1 0 0 0 0 0 0 0.1 0 0.1 0 0.1-0.1 0.1-0.1 0-0.1-0.1 0.1 0 0.1-0.1 0-0.1 0.1-0.1 0-0.1 0.1-0.1v0.1l0.1-0.1q0.1 0 0.1 0 0.1 0 0 0h0.1q0 0.1 0 0.1 0 0.1 0 0.1-0.1 0-0.1 0.1z"/>
			<path id="Layer" class="s3" d="m105.3 9.5q0 0 0 0 0.1 0 0.1 0 0 0 0 0.1 0.1 0 0.1 0 0 0.1 0 0.1-0.1 0-0.1 0.1 0 0-0.1 0 0 0 0 0-0.1 0-0.1 0 0 0 0-0.1-0.1 0 0 0 0-0.1 0-0.1v-0.1q0.1 0 0.1 0z"/>
			<path id="Layer" class="s3" d="m105.6 10.4q0 0-0.1 0 0 0 0 0.1-0.1 0-0.1-0.1 0 0.1-0.1 0.1 0 0 0 0-0.1 0-0.1-0.1l0.1 0.1q-0.1 0-0.1 0h-0.1q0 0 0-0.1 0 0 0 0v-0.1q0 0 0.1-0.1 0 0 0.1 0 0 0 0 0l0.1 0.1q0.1-0.1 0.1-0.1l0.1 0.1q0 0 0 0.1z"/>
			<path id="Layer" class="s3" d="m106 15.2q0 0 0.1 0 0 0 0 0.1 0 0 0 0.1 0 0.1-0.1 0.1 0 0-0.1 0 0-0.1 0-0.1 0 0 0-0.1 0 0 0-0.1h0.1z"/>
			<path id="Layer" class="s3" d="m105.6 14.4q-0.1 0.1-0.1 0.1 0 0-0.1-0.1 0 0 0 0-0.1 0-0.1-0.1 0 0.1 0 0.1 0 0.1 0 0.1-0.1 0.1-0.1 0.1-0.1-0.1-0.1-0.1 0-0.1 0.1-0.1v-0.1q0 0 0-0.1 0.1 0 0.1 0h0.1 0.1q0-0.1 0.1-0.1 0 0.1 0 0.1h0.1q0 0 0 0.1 0 0-0.1 0.1 0 0 0 0z"/>
			<path id="Layer" class="s3" d="m105.1 15.4q0-0.1 0 0 0.1 0 0.1 0 0 0 0 0 0 0.1 0.1 0.1 0 0-0.1 0.1 0 0 0 0-0.1 0.1-0.1 0.1 0 0-0.1 0 0 0 0 0-0.1-0.1-0.1-0.1 0 0 0-0.1 0 0 0 0l0.1-0.1q0 0 0.1 0z"/>
			<path id="Layer" class="s3" d="m105.4 16.3q-0.1 0-0.1 0 0 0-0.1 0 0 0 0 0-0.1 0-0.1 0.1 0 0-0.1 0 0-0.1 0-0.1l0.1 0.1q-0.1 0-0.1 0h-0.1q0 0 0-0.1 0 0 0-0.1 0-0.1 0-0.1 0.1 0 0.1 0 0.1 0 0.1 0h0.1q0 0 0.1 0l0.1 0.1q0 0 0 0.1z"/>
			<path id="Layer" class="s3" d="m105.8 13.8q0 0 0.1 0.1 0 0 0 0.1 0 0 0 0.1-0.1 0-0.1 0.1-0.1-0.1-0.1-0.1 0 0 0 0 0-0.1 0-0.1 0-0.1 0-0.1l0.1-0.1z"/>
			<path id="Layer" class="s3" d="m105.3 13.1q0 0 0 0-0.1 0-0.1 0 0 0 0 0-0.1-0.1-0.1-0.1 0 0 0 0.1 0 0-0.1 0.1 0 0 0 0h-0.1q0 0 0 0v-0.1q0 0 0.1 0l-0.1-0.1q0.1-0.1 0.1-0.1 0.1 0 0.1 0h0.1v-0.1q0.1 0 0.2 0 0 0 0 0l0.1 0.1q0 0 0 0.1-0.1 0-0.1 0.1 0 0-0.1 0z"/>
			<path id="Layer" class="s3" d="m104.8 14q0.1 0 0.1 0 0 0 0 0.1 0.1 0 0.1 0 0 0 0 0.1 0 0 0 0.1 0 0-0.1 0 0 0 0 0-0.1 0.1-0.1 0.1 0-0.1-0.1-0.1 0 0 0 0 0-0.1 0-0.1 0 0 0-0.1h0.1q0-0.1 0-0.1z"/>
			<path id="Layer" class="s3" d="m105.1 14.9q0 0 0 0.1 0 0-0.1 0 0 0 0 0-0.1 0-0.1 0 0 0-0.1 0 0 0 0 0 0 0.1-0.1 0.1v-0.1q0 0 0 0-0.1-0.1-0.1-0.1h0.1q0-0.1 0-0.1 0.1 0 0.1 0 0-0.1 0.1 0 0.1 0 0.2 0h0.1q0 0.1-0.1 0.1z"/>
			<path id="Layer" class="s3" d="m105.6 14.2q0.1 0 0.1 0.1 0.1 0 0.1 0.1 0 0-0.1 0.1 0 0 0 0.1-0.1 0-0.1-0.1-0.1 0-0.1 0 0-0.1 0-0.1 0.1 0 0.1-0.1v-0.1z"/>
			<path id="Layer" class="s3" d="m105.2 13.5q0 0-0.1 0 0 0 0 0-0.1 0-0.1 0 0 0-0.1-0.1 0 0 0 0.1 0 0 0 0.1 0 0-0.1 0.1v-0.1q0 0-0.1 0h0.1q0-0.1 0-0.1v-0.1q0 0 0.1-0.1 0 0 0.1 0h0.1q0.1-0.1 0.1-0.1 0.1 0 0.1 0v0.1q0 0 0 0.1 0 0 0 0.1-0.1 0-0.1 0z"/>
			<path id="Layer" class="s3" d="m104.7 14.4q0 0 0.1 0 0 0 0 0.1 0 0 0 0 0.1 0 0.1 0.1 0 0 0 0.1-0.1 0-0.1 0 0 0.1-0.1 0.1 0 0 0 0-0.1 0-0.1-0.1 0 0 0 0 0 0 0-0.1 0 0 0-0.1 0.1-0.1 0.1-0.1z"/>
			<path id="Layer" class="s3" d="m105 15.3q0 0.1 0 0.1-0.1 0-0.1 0 0 0-0.1 0 0 0 0 0-0.1 0-0.1 0 0 0-0.1 0h0.1q0 0.1-0.1 0.1-0.1-0.1-0.1-0.1 0 0 0-0.1 0.1-0.1 0.1-0.1 0 0 0.1 0 0 0 0 0h0.1q0.1 0 0.1 0h0.1v0.1q0 0 0 0z"/>
			<path id="Layer" class="s3" d="m105.4 12.9q0.1 0 0.1 0.1 0 0 0 0 0 0.1 0 0.1 0 0.1-0.1 0.1 0 0 0 0-0.1 0-0.1-0.1 0 0 0 0 0-0.1 0.1-0.1v-0.1z"/>
			<path id="Layer" class="s3" d="m105 12.2q0 0-0.1 0 0 0-0.1 0 0 0 0-0.1-0.1 0-0.1 0 0 0 0 0.1 0 0 0 0.1 0 0-0.1 0-0.1 0-0.1 0v-0.1q0.1 0 0.1 0v-0.1q0-0.1 0.1-0.1 0-0.1 0.1-0.1v0.1l0.1-0.1q0 0 0.1 0 0.1 0 0 0h0.1q0 0.1 0 0.1 0 0.1 0 0.1-0.1 0.1-0.1 0.1z"/>
			<path id="Layer" class="s3" d="m104.5 13.1q0 0 0 0 0.1 0 0.1 0 0 0.1 0 0.1 0.1 0 0.1 0.1 0 0 0 0-0.1 0.1-0.1 0.1 0 0-0.1 0 0 0 0 0-0.1 0-0.1 0 0 0 0 0-0.1-0.1-0.1-0.1 0.1-0.1 0.1-0.1v-0.1q0 0 0.1 0z"/>
			<path id="Layer" class="s3" d="m104.8 14q0 0-0.1 0.1 0 0 0 0-0.1 0-0.1 0 0 0-0.1 0 0 0 0 0-0.1 0-0.1 0h0.1q-0.1 0.1-0.1 0.1l-0.1-0.1q0 0 0 0 0-0.1 0-0.1v-0.1q0 0 0.1 0 0-0.1 0-0.1 0.1 0 0.1 0.1h0.1q0.1-0.1 0.1 0h0.1q0 0.1 0 0.1z"/>
			<path id="Layer" class="s3" d="m106.5 14.6q0.1 0 0.1 0.1 0.1 0 0.1 0.1 0 0-0.1 0.1 0 0 0 0-0.1 0-0.1 0 0 0-0.1 0 0-0.1 0-0.1 0.1-0.1 0.1-0.1v-0.1z"/>
			<path id="Layer" class="s3" d="m106.1 13.9q0 0-0.1 0 0 0 0 0-0.1 0-0.1 0 0-0.1-0.1-0.1 0.1 0 0.1 0.1-0.1 0-0.1 0.1 0 0-0.1 0 0 0-0.1 0l0.1-0.1q0 0 0 0v-0.1q0-0.1 0.1-0.1 0 0 0.1 0h0.1v-0.1q0.1 0 0.1 0 0.1 0 0.1 0v0.1q0 0 0 0.1 0 0 0 0.1-0.1 0-0.1 0z"/>
			<path id="Layer" class="s3" d="m105.6 14.8q0 0 0.1 0 0 0 0 0 0 0.1 0 0.1 0.1 0 0.1 0.1 0 0 0 0 0 0.1-0.1 0.1 0 0-0.1 0 0 0.1 0 0-0.1 0-0.1 0 0 0 0 0 0-0.1 0-0.1 0 0 0-0.1 0.1-0.1 0.1-0.1z"/>
			<path id="Layer" class="s3" d="m105.9 15.7q0 0 0 0.1-0.1 0-0.1 0 0 0-0.1 0 0 0 0 0-0.1 0-0.1 0 0 0 0 0 0 0.1-0.1 0.1v-0.1q-0.1 0-0.1 0 0-0.1 0-0.1 0.1-0.1 0.1-0.1 0 0 0.1-0.1 0 0 0 0.1h0.1q0.1 0 0.1 0h0.1q0 0.1 0 0.1z"/>
			<path id="Layer" class="s3" d="m106.3 13.3q0.1 0 0.1 0 0 0.1 0 0.1 0 0.1 0 0.1 0 0.1-0.1 0.1 0 0 0 0-0.1 0-0.1-0.1 0 0 0-0.1 0 0 0.1 0v-0.1z"/>
			<path id="Layer" class="s3" d="m105.9 12.6q0 0-0.1 0 0 0-0.1 0 0 0 0-0.1-0.1 0-0.1 0 0 0 0 0 0 0.1 0 0.1 0 0.1-0.1 0.1-0.1 0-0.1-0.1 0.1 0 0.1-0.1 0-0.1 0.1-0.1 0-0.1 0.1-0.1v0.1l0.1-0.1q0.1 0 0.1 0 0.1 0 0 0h0.1q0 0.1 0 0.1 0 0.1 0 0.1-0.1 0.1-0.1 0.1z"/>
			<path id="Layer" class="s3" d="m105.4 13.5q0 0 0 0 0.1 0 0.1 0 0 0 0 0.1 0.1 0 0.1 0 0 0.1 0 0.1-0.1 0.1-0.1 0.1 0 0-0.1 0 0 0 0 0-0.1 0-0.1 0 0 0 0-0.1-0.1 0-0.1 0 0.1-0.1 0.1-0.1v-0.1q0.1 0 0.1 0z"/>
			<path id="Layer" class="s3" d="m105.7 14.4q0 0-0.1 0 0 0.1 0 0.1-0.1 0-0.1 0 0 0-0.1 0 0 0 0 0-0.1 0-0.1 0h0.1q-0.1 0-0.1 0h-0.1q0 0 0-0.1 0 0 0 0v-0.1q0 0 0.1-0.1 0 0 0.1 0 0 0 0 0l0.1 0.1q0.1-0.1 0.1-0.1l0.1 0.1q0 0 0 0.1z"/>
			<g id="Layer">
			</g>
		</g>
	</g>
</svg>