<svg width="848" height="700" viewBox="0 0 848 700" fill="none" xmlns="http://www.w3.org/2000/svg">
<path opacity="0.8" d="M-117.37 -308.619C-106.859 -256.634 -94.4912 -201.637 -47.4461 -165.4C5.33267 -124.746 96.5401 -112.149 126.312 -58.9765C149.719 -17.2016 125.678 34.0543 127.687 80.9825C130.712 152.603 198.043 212.017 284.338 236.402C345.289 253.575 417.514 256.546 464.947 288.971C548.92 346.309 511.15 462.087 574.918 533.114C630.395 594.871 744.569 605.651 847.388 611.698M-160.488 -279.101C-145.494 -222.948 -127.982 -164.273 -76.836 -123.924C-23.2894 -81.6728 68.2615 -67.1223 103.174 -17.5661C130.495 21.109 114.016 67.2546 120.019 111.838C129.094 179.301 196.089 238.426 278.547 265.112C338.603 284.533 405.538 293.355 450.288 327.31C526.694 385.348 493.626 494.397 551.738 564.509C604.575 628.159 714.429 645.336 817.567 654.403M-203.596 -249.611C-184.126 -189.262 -161.429 -126.934 -106.246 -82.4371C-51.8812 -38.6399 39.6963 -22.1599 80.0325 23.8705C111.176 59.3833 102.308 100.367 112.359 142.665C127.352 205.863 194.135 264.972 272.835 293.868C332.024 315.636 393.425 329.946 435.686 365.708C504.636 424.108 476.008 526.921 528.644 595.992C578.822 661.867 684.202 685.139 787.852 697.184M-246.644 -220.021C-222.628 -155.54 -194.823 -89.4684 -135.602 -40.8919C-80.3757 4.42689 11.1832 22.8609 56.9502 65.3383C91.8163 97.7229 90.5757 133.49 104.76 173.593C125.586 232.436 192.21 291.727 267.198 322.74C325.533 346.87 374.863 371.147 421.264 404.298C493.094 455.568 458.36 559.803 505.692 627.666C553.024 695.529 654.235 725.043 758.289 740.128M-289.846 -190.594C-261.375 -121.906 -228.341 -52.2735 -165.057 0.550526C-108.962 47.3638 -17.5696 67.7683 33.7902 106.761C72.3081 136.012 78.66 166.49 97.0896 204.447C123.531 258.878 190.199 318.533 261.476 351.524C319.018 378.187 360.626 408.741 406.694 442.768C474.069 492.506 440.456 592.763 482.623 659.179C527.361 729.619 624.02 764.86 728.614 782.954M-332.962 -161.078C-300.009 -88.2203 -261.759 -14.9739 -194.467 42.038C-137.446 90.3362 -46.2769 112.72 10.5919 148.138C52.6834 174.277 66.5802 199.38 89.3892 235.23C121.176 285.241 188.061 345.412 255.7 380.248C312.316 409.406 346.5 445.816 392.079 481.151C454.739 529.642 422.137 625.664 459.429 690.697C501.32 763.582 593.809 804.608 698.807 825.742M-376.091 -131.576C-338.647 -54.5774 -295.134 22.3008 -223.841 83.5276C-165.909 133.296 -75.2419 157.819 -12.571 189.517C32.9941 212.579 60.8402 229.411 81.7498 266.114C109.823 315.636 185.944 372.487 250.01 409.062C305.697 440.853 332.613 482.618 377.561 519.638C435.112 567.2 403.793 658.854 436.455 722.204C475.355 797.663 563.704 844.434 669.213 868.547M-419.188 -102.07C-377.198 -20.8014 -328.489 59.5641 -253.267 125.001C-194.366 176.229 -104.245 202.916 -35.7023 230.97C13.328 251.05 48.7382 261.718 74.0525 296.94C107.047 342.855 183.686 399.594 244.231 437.787C298.918 472.276 333.551 511.105 363.007 557.986C398.035 613.971 385.171 691.996 413.394 753.622C449.119 831.737 533.57 884.092 639.49 911.287M-462.317 -72.5685C-415.865 12.8119 -361.82 96.8146 -282.676 166.488C-222.82 219.162 -133.268 248.094 -58.8445 272.407C-6.4907 289.495 29.4528 298.372 66.3872 327.794C112.775 364.772 181.395 426.904 238.662 466.554C292.269 503.831 322.126 546.916 348.512 596.461C377.683 651.28 366.448 725.379 390.371 785.18C422.761 866.065 503.458 923.944 609.911 954.106M-505.433 -43.0517C-454.498 46.4972 -395.152 134.065 -312.017 208.049C-251.185 262.157 -162.28 293.425 -81.9253 313.877C-26.1998 328.06 16.8267 331.596 58.8101 358.711C109.611 391.504 178.994 454.208 232.912 495.448C285.366 535.577 310.791 582.72 333.913 635.04C357.541 688.536 347.374 758.917 367.273 816.802C396.095 900.523 473.314 963.837 580.207 997.041M-548.608 -13.5951C-493.176 80.1373 -428.5 171.231 -341.506 249.419C-279.762 304.997 -191.471 338.673 -105.148 355.197C-46.0797 366.513 3.9359 364.785 51.0414 389.461C106.216 418.343 176.372 481.452 227.105 524.141C278.278 567.196 299.721 618.21 319.267 673.392C337.708 725.453 328.073 792.284 344.098 848.238C369.044 934.853 443.036 1003.55 550.418 1039.75M-591.662 15.953C-531.747 113.854 -461.749 208.5 -370.876 290.95C-309.949 346.137 -224.956 383.17 -128.264 396.662C-65.8111 405.157 -8.89203 398.282 43.4375 420.347C102.97 445.372 173.778 508.933 221.427 552.968C271.233 598.998 289.254 653.815 304.748 711.878C318.293 762.499 308.686 825.837 321.071 879.795C331.019 924.242 354.045 965.423 388.536 1000.46C423.027 1035.49 468.151 1063.53 520.751 1082.61M-634.792 45.4554C-570.38 147.54 -495.017 245.714 -400.287 332.438C-336.49 390.848 -249.529 429.581 -151.421 438.084C-85.5778 443.801 -21.7521 431.891 35.7684 451.202C99.521 472.61 175.484 533.943 215.706 581.753C259.21 633.502 279.1 689.266 290.2 750.337C299.126 799.497 289.095 859.349 298.018 911.324C313.92 1004.03 382.795 1083.17 491.078 1125.44M-677.908 74.9721C-609.013 181.225 -528.263 282.916 -429.697 373.925C-364.903 433.756 -278.55 475.077 -174.542 479.509C-105.308 482.446 -34.583 465.597 28.1232 482.044C96.2359 499.915 171.796 561.979 209.986 610.537C252.656 664.774 269.494 724.77 275.641 788.779C280.174 836.51 269.306 892.859 274.929 942.85C285.721 1038.61 352.639 1122.98 461.349 1168.21M-721.037 104.474C-647.581 214.873 -561.322 319.896 -459.093 415.427C-393.123 476.554 -307.509 520.607 -197.7 520.932C-124.997 521.137 -47.3731 499.418 20.4566 512.899C93.0776 527.285 165.31 591.315 204.259 639.348C249.21 694.549 260.389 760.356 261.031 827.274C261.48 873.765 249.326 926.341 251.778 974.343C256.899 1073.15 322.435 1162.77 431.606 1211.03M-764.154 133.991C-686.539 248.883 -594.263 356.972 -488.483 456.902C-421.586 519.514 -336.44 566.167 -220.837 562.342C-144.688 559.828 -60.1163 533.326 12.7887 543.754C89.9156 554.794 162.282 618.793 198.581 668.108C241.531 726.485 251.948 796.019 246.527 865.707C242.952 911.198 229.305 959.709 228.788 1005.9C227.679 1107.69 292.335 1202.57 402.031 1253.89M-807.209 163.54C-724.783 282.393 -627.963 394.449 -517.838 498.448C-449.994 562.533 -365.288 611.814 -243.925 603.837C-164.273 598.595 -72.7063 567.328 5.11103 574.704C86.8854 582.409 159.176 646.36 192.831 696.999C233.794 758.498 243.92 832.018 231.936 904.258C224.556 948.739 209.091 993.117 205.704 1037.54C197.708 1142.2 262.17 1242.47 372.312 1296.81" stroke="url(#paint0_linear_1170_18077)" stroke-width="1.65164" stroke-miterlimit="10"/>
<defs>
<linearGradient id="paint0_linear_1170_18077" x1="-3.14099" y1="623.199" x2="383.925" y2="146.724" gradientUnits="userSpaceOnUse">
<stop stop-color="#8A8A8A"/>
<stop offset="1" stop-color="#8A8A8A" stop-opacity="0"/>
</linearGradient>
</defs>
</svg>
