<svg width="1101" height="707" viewBox="0 0 1101 707" fill="none" xmlns="http://www.w3.org/2000/svg">
<path opacity="0.8" d="M1114.53 932.182C1094.25 878.943 1071.6 822.779 1018.97 790.767C959.933 754.853 869.096 753.334 829.926 701.32C799.136 660.458 812.49 603.549 801.438 554.528C784.61 479.709 707.829 425.963 619.466 411.435C557.064 401.227 486.491 407.38 434.231 379.42C341.724 329.99 355.865 203.565 280.283 137.167C214.536 79.4389 101.793 82.7763 0.97474 89.6262M1150.59 895.65C1125.16 838.609 1096.8 779.244 1039.41 743.44C979.314 705.947 887.766 702.421 844.315 654.865C810.333 617.761 817.35 567.188 802.883 521.143C780.998 451.466 704.599 397.98 619.507 380.543C557.536 367.86 490.955 367.189 440.998 337.278C355.69 286.143 366.579 167.387 296.656 101.224C233.1 41.1689 123.304 37.2341 21.5896 40.9541M1186.64 859.15C1156.06 798.278 1121.97 735.742 1059.86 696.1C998.674 657.089 906.725 651.54 858.703 608.383C821.63 575.089 822.272 530.914 804.324 487.788C777.532 423.35 701.342 369.854 619.463 349.614C557.877 334.354 495.595 327.211 447.699 295.083C369.546 242.61 377.342 130.972 312.929 65.199C251.517 2.46672 144.874 -8.44185 42.0865 -7.78427M1222.62 822.551C1186.83 757.924 1147.07 692.112 1080.25 648.706C1017.93 608.207 925.623 600.604 873.027 561.875C832.953 532.344 827.216 494.626 805.688 454.336C774.088 395.219 698.015 341.512 619.325 318.573C558.108 300.723 505.59 281.563 454.189 252.708C374.628 208.093 388.065 94.1782 329.027 28.9925C269.988 -36.1931 166.174 -54.1914 62.4045 -56.6742M1258.78 786.104C1217.86 717.63 1172.33 648.752 1100.75 601.406C1037.31 559.45 944.775 549.756 887.435 515.404C844.43 489.633 832.361 458.444 807.135 420.951C770.949 367.189 694.763 313.105 619.285 287.612C558.345 267.001 512.093 240.259 460.845 210.441C385.899 166.862 399.021 57.2687 345.269 -7.06069C288.245 -75.2846 187.731 -99.8821 82.8548 -105.455M1294.84 749.574C1248.76 677.298 1197.48 605.294 1121.21 554.065C1056.57 510.668 963.875 498.868 901.889 468.977C856.025 446.932 837.686 422.356 808.625 387.639C768.116 339.203 691.62 284.606 619.31 256.708C558.783 233.358 518.59 199.513 467.562 168.26C397.427 125.384 410.391 20.3683 361.633 -43.1345C306.892 -114.292 209.297 -145.499 103.44 -154.212M1330.91 713.058C1279.68 637.01 1222.6 561.868 1141.62 506.727C1075.82 461.903 983.195 447.792 916.308 422.551C867.675 404.184 837.422 390.084 810.036 354.227C773.221 305.829 688.419 255.903 619.233 225.721C559.096 199.486 524.908 159.085 474.163 125.981C409.161 83.4254 421.729 -16.8396 377.784 -79.169C325.443 -153.413 230.746 -191.184 123.815 -202.96M1366.95 676.542C1310.49 596.593 1247.69 518.456 1162.09 459.399C1095.07 413.166 1002.55 396.713 930.683 376.053C879.269 361.262 842.882 354.605 811.515 320.869C770.63 276.89 685.347 227.149 619.26 194.815C559.57 165.62 518.471 129.292 480.828 83.8449C436.018 29.5521 433.347 -54.0323 394.037 -115.121C344.258 -192.563 252.255 -236.697 144.328 -251.657M1403.03 640.026C1341.44 556.332 1272.77 475.061 1182.55 412.058C1114.32 364.43 1021.91 345.546 945.071 329.569C891.017 318.347 854.46 313.639 812.957 287.486C760.826 254.611 682.269 198.176 619.075 163.892C559.891 131.63 522.595 90.2211 487.41 41.5816C448.503 -12.238 445.014 -91.4908 410.227 -151.215C363.142 -231.993 273.705 -282.411 164.686 -300.418M1439.08 603.495C1372.35 516 1297.84 431.666 1202.92 364.648C1133.46 315.641 1041.24 294.22 959.393 283.059C902.635 275.321 860.251 277.131 814.302 254.047C758.706 226.134 679.298 169.196 619.042 132.813C560.421 97.4082 526.634 51.1684 494.073 -0.803856C460.795 -53.9457 456.992 -129.157 426.476 -187.387C382.3 -271.6 295.179 -328.172 185.143 -349.317M1475.21 567.021C1403.3 475.71 1322.95 388.357 1223.47 317.421C1152.85 266.987 1060.75 242.959 973.881 236.689C914.441 232.389 866.304 240.625 815.864 220.76C756.789 197.515 676.553 140.251 619.103 101.937C561.155 63.2955 530.476 12.4798 500.827 -42.9569C472.853 -95.2581 469.224 -166.672 442.837 -223.372C401.854 -311.122 316.817 -373.763 205.725 -397.986M1511.2 530.465C1434.14 435.353 1347.94 344.953 1243.87 270.04C1174.12 219.911 1084.56 191.934 988.239 190.18C926.065 189.276 872.236 203.803 817.241 187.351C754.69 168.715 673.735 111.061 619.013 70.9377C561.812 28.9966 533.712 -26.252 507.43 -85.2345C484.481 -136.652 481.502 -204.395 459.03 -259.465C440.765 -304.861 410.46 -345.149 370.236 -377.509C330.012 -409.869 280.84 -433.52 226.159 -446.809M1547.28 493.948C1465.05 395.02 1372.96 301.604 1264.33 222.699C1191.17 169.553 1099.37 140.044 1002.64 143.71C937.724 146.16 878.179 166.86 818.687 153.966C752.748 139.67 667.229 85.0181 618.972 39.9766C566.77 -8.7793 536.673 -64.7821 514.066 -127.487C495.877 -177.964 493.987 -242.101 475.254 -295.533C441.855 -390.843 359.75 -465.104 246.608 -495.589M1583.34 457.418C1495.95 354.689 1397.96 258.271 1284.78 175.358C1210.38 120.848 1118.67 88.5434 1017.01 97.242C949.347 103.046 884.074 129.818 820.112 120.598C750.633 110.576 665.363 55.1037 618.93 9.01708C567.054 -42.4587 539.094 -103.298 520.717 -169.724C507.063 -219.263 506.663 -279.83 491.513 -331.602C462.475 -430.771 381.251 -510.777 267.121 -544.314M1619.41 420.902C1526.8 314.403 1422.83 215.195 1305.22 128.003C1229.42 72.2836 1137.9 37.0155 1031.42 50.7719C960.921 59.8893 889.907 92.6613 821.555 87.2132C748.384 81.4296 665.957 23.4657 618.89 -21.9724C564.616 -74.1677 541.014 -141.835 527.408 -212.022C517.952 -260.784 519.529 -317.554 507.839 -367.645C483.705 -470.744 402.803 -556.439 287.638 -593.099M1655.47 384.371C1557.96 273.689 1447.56 172.033 1325.65 80.6776C1248.67 23.5178 1157.1 -14.5399 1045.81 4.31757C972.497 16.733 895.678 55.4194 822.999 53.8289C746.111 52.1373 663.56 -5.7769 618.812 -52.9017C565.862 -108.689 542.275 -180.368 534.007 -254.242C528.645 -302.471 532.458 -355.163 523.996 -403.738C505.321 -510.765 424.251 -602.094 307.984 -641.903M1691.46 347.815C1588.52 233.591 1472.95 128.353 1346.04 33.2824C1267.86 -25.3022 1176.2 -66.1769 1060.13 -42.2201C983.955 -26.4895 901.282 18.0985 824.435 20.343C743.689 22.7503 661.222 -35.1234 618.78 -83.9783C567.148 -143.298 543.07 -219.2 540.668 -296.597C539.189 -344.252 545.566 -392.839 540.23 -439.923C527.672 -550.851 445.744 -647.869 328.458 -690.787" stroke="url(#paint0_linear_504_2162)" stroke-width="1.65164" stroke-miterlimit="10"/>
<defs>
<linearGradient id="paint0_linear_504_2162" x1="823.023" y1="-31.6402" x2="490.074" y2="486.054" gradientUnits="userSpaceOnUse">
<stop stop-color="#8A8A8A"/>
<stop offset="1" stop-color="#8A8A8A" stop-opacity="0"/>
</linearGradient>
</defs>
</svg>
