<svg width="58" height="59" viewBox="0 0 58 59" fill="none" xmlns="http://www.w3.org/2000/svg">
<g filter="url(#filter0_d_1038_2020)">
<circle cx="28.8285" cy="24.3742" r="24.3741" transform="rotate(-180 28.8285 24.3742)" fill="#EBFF25"/>
<path d="M38.4302 14.7725H19.2272C18.7642 14.7725 18.3201 14.9564 17.9928 15.2838C17.6654 15.6112 17.4814 16.0552 17.4814 16.5182V30.484C17.4814 30.947 17.6654 31.391 17.9928 31.7184C18.3201 32.0458 18.7642 32.2297 19.2272 32.2297H25.7191L27.3339 34.9247C27.4893 35.1822 27.7085 35.3952 27.9704 35.5431C28.2323 35.691 28.5279 35.7687 28.8287 35.7687C29.1294 35.7687 29.4251 35.691 29.687 35.5431C29.9489 35.3952 30.1681 35.1822 30.3235 34.9247L31.9383 32.2297H38.4302C38.8932 32.2297 39.3372 32.0458 39.6646 31.7184C39.992 31.391 40.1759 30.947 40.1759 30.484V16.5182C40.1759 16.0552 39.992 15.6112 39.6646 15.2838C39.3372 14.9564 38.8932 14.7725 38.4302 14.7725ZM23.5915 24.8104C23.3325 24.8104 23.0794 24.7336 22.8641 24.5897C22.6488 24.4459 22.481 24.2414 22.3819 24.0021C22.2828 23.7629 22.2568 23.4996 22.3074 23.2457C22.3579 22.9917 22.4826 22.7584 22.6657 22.5753C22.8488 22.3922 23.0821 22.2675 23.3361 22.217C23.59 22.1664 23.8533 22.1924 24.0925 22.2915C24.3318 22.3906 24.5363 22.5584 24.6801 22.7737C24.824 22.989 24.9008 23.2421 24.9008 23.5011C24.9008 23.8483 24.7628 24.1814 24.5173 24.4269C24.2718 24.6725 23.9387 24.8104 23.5915 24.8104ZM28.8287 24.8104C28.5697 24.8104 28.3166 24.7336 28.1013 24.5897C27.886 24.4459 27.7181 24.2414 27.619 24.0021C27.5199 23.7629 27.494 23.4996 27.5445 23.2457C27.5951 22.9917 27.7198 22.7584 27.9029 22.5753C28.086 22.3922 28.3193 22.2675 28.5732 22.217C28.8272 22.1664 29.0905 22.1924 29.3297 22.2915C29.569 22.3906 29.7734 22.5584 29.9173 22.7737C30.0612 22.989 30.138 23.2421 30.138 23.5011C30.138 23.8483 30 24.1814 29.7545 24.4269C29.5089 24.6725 29.1759 24.8104 28.8287 24.8104ZM34.0659 24.8104C33.8069 24.8104 33.5538 24.7336 33.3385 24.5897C33.1231 24.4459 32.9553 24.2414 32.8562 24.0021C32.7571 23.7629 32.7312 23.4996 32.7817 23.2457C32.8322 22.9917 32.9569 22.7584 33.14 22.5753C33.3232 22.3922 33.5564 22.2675 33.8104 22.217C34.0644 22.1664 34.3277 22.1924 34.5669 22.2915C34.8061 22.3906 35.0106 22.5584 35.1545 22.7737C35.2984 22.989 35.3752 23.2421 35.3752 23.5011C35.3752 23.8483 35.2372 24.1814 34.9917 24.4269C34.7461 24.6725 34.4131 24.8104 34.0659 24.8104Z" fill="black"/>
</g>
<defs>
<filter id="filter0_d_1038_2020" x="0.454346" y="0" width="56.7483" height="58.7483" filterUnits="userSpaceOnUse" color-interpolation-filters="sRGB">
<feFlood flood-opacity="0" result="BackgroundImageFix"/>
<feColorMatrix in="SourceAlpha" type="matrix" values="0 0 0 0 0 0 0 0 0 0 0 0 0 0 0 0 0 0 127 0" result="hardAlpha"/>
<feOffset dy="6"/>
<feGaussianBlur stdDeviation="2"/>
<feComposite in2="hardAlpha" operator="out"/>
<feColorMatrix type="matrix" values="0 0 0 0 0 0 0 0 0 0 0 0 0 0 0 0 0 0 0.66 0"/>
<feBlend mode="normal" in2="BackgroundImageFix" result="effect1_dropShadow_1038_2020"/>
<feBlend mode="normal" in="SourceGraphic" in2="effect1_dropShadow_1038_2020" result="shape"/>
</filter>
</defs>
</svg>
