<svg width="58" height="59" viewBox="0 0 58 59" fill="none" xmlns="http://www.w3.org/2000/svg">
<g filter="url(#filter0_d_1038_2025)">
<circle cx="28.8285" cy="24.3742" r="24.3741" transform="rotate(-180 28.8285 24.3742)" fill="#EBFF25"/>
<path d="M40.7488 24.374V33.413C40.7458 34.6107 40.2687 35.7586 39.4217 36.6055C38.5748 37.4524 37.427 37.9295 36.2293 37.9325H29.7325C29.4928 37.9325 29.2628 37.8373 29.0933 37.6678C28.9238 37.4983 28.8286 37.2683 28.8286 37.0286C28.8286 36.7889 28.9238 36.559 29.0933 36.3895C29.2628 36.2199 29.4928 36.1247 29.7325 36.1247H36.2293C36.9475 36.1217 37.6355 35.8351 38.1434 35.3272C38.6513 34.8193 38.938 34.1313 38.941 33.413V33.2548C38.6511 33.3594 38.3452 33.4129 38.0371 33.413H36.2293C35.5101 33.413 34.8203 33.1273 34.3118 32.6188C33.8033 32.1102 33.5176 31.4205 33.5176 30.7013V26.1818C33.5176 25.4626 33.8033 24.7729 34.3118 24.2644C34.8203 23.7558 35.5101 23.4701 36.2293 23.4701H38.8958C38.6692 20.9869 37.5178 18.6795 35.6699 17.0053C33.822 15.3311 31.4124 14.4123 28.919 14.4311H28.9077C26.4127 14.407 24.0003 15.324 22.1513 16.9992C20.3023 18.6745 19.1524 20.9849 18.9309 23.4701H21.5974C22.3157 23.4731 23.0037 23.7597 23.5116 24.2676C24.0195 24.7755 24.3061 25.4635 24.3091 26.1818V30.7013C24.3061 31.4196 24.0195 32.1076 23.5116 32.6155C23.0037 33.1234 22.3157 33.41 21.5974 33.413H19.7896C19.0713 33.41 18.3833 33.1234 17.8754 32.6155C17.3675 32.1076 17.0809 31.4196 17.0779 30.7013V24.374C17.0778 22.8242 17.3844 21.2897 17.9799 19.8589C18.5753 18.428 19.448 17.1291 20.5475 16.0369C21.647 14.9447 22.9518 14.0808 24.3866 13.495C25.8214 12.9091 27.3579 12.6129 28.9077 12.6233H28.9981C32.1136 12.6263 35.1007 13.8653 37.3038 16.0683C39.5068 18.2714 40.7458 21.2585 40.7488 24.374Z" fill="black"/>
</g>
<defs>
<filter id="filter0_d_1038_2025" x="0.454346" y="0" width="56.7483" height="58.7483" filterUnits="userSpaceOnUse" color-interpolation-filters="sRGB">
<feFlood flood-opacity="0" result="BackgroundImageFix"/>
<feColorMatrix in="SourceAlpha" type="matrix" values="0 0 0 0 0 0 0 0 0 0 0 0 0 0 0 0 0 0 127 0" result="hardAlpha"/>
<feOffset dy="6"/>
<feGaussianBlur stdDeviation="2"/>
<feComposite in2="hardAlpha" operator="out"/>
<feColorMatrix type="matrix" values="0 0 0 0 0 0 0 0 0 0 0 0 0 0 0 0 0 0 0.66 0"/>
<feBlend mode="normal" in2="BackgroundImageFix" result="effect1_dropShadow_1038_2025"/>
<feBlend mode="normal" in="SourceGraphic" in2="effect1_dropShadow_1038_2025" result="shape"/>
</filter>
</defs>
</svg>
