<svg width="25" height="25" viewBox="0 0 25 25" fill="none" xmlns="http://www.w3.org/2000/svg">
<path d="M14.625 10.135V13.035H17.225C17.425 13.035 17.525 13.235 17.525 13.435L17.125 15.335C17.125 15.435 16.925 15.535 16.825 15.535H14.625V22.835H11.625V15.635H9.925C9.725 15.635 9.625 15.535 9.625 15.335V13.435C9.625 13.235 9.725 13.135 9.925 13.135H11.625V9.83496C11.625 8.13496 12.925 6.83496 14.625 6.83496H17.325C17.525 6.83496 17.625 6.93496 17.625 7.13496V9.53496C17.625 9.73496 17.525 9.83496 17.325 9.83496H14.925C14.725 9.83496 14.625 9.93496 14.625 10.135Z" stroke="white" stroke-miterlimit="10" stroke-linecap="round"/>
<path d="M15.625 22.835H9.625C4.625 22.835 2.625 20.835 2.625 15.835V9.83496C2.625 4.83496 4.625 2.83496 9.625 2.83496H15.625C20.625 2.83496 22.625 4.83496 22.625 9.83496V15.835C22.625 20.835 20.625 22.835 15.625 22.835Z" stroke="white" stroke-linecap="round" stroke-linejoin="round"/>
</svg>
