<svg width="1440" height="281" viewBox="0 0 1440 281" fill="none" xmlns="http://www.w3.org/2000/svg">
<g opacity="0.85">
<g clip-path="url(#clip0_517_1447)">
<path d="M1415.55 456.744H1414.71V1.3418H1415.55V456.744Z" fill="url(#paint0_diamond_517_1447)"/>
<path d="M1347.91 456.744H1347.07V1.3418H1347.91V456.744Z" fill="url(#paint1_diamond_517_1447)"/>
<path d="M1280.29 456.744H1279.45V1.3418H1280.29V456.744Z" fill="url(#paint2_diamond_517_1447)"/>
<path d="M1212.67 456.744H1211.83V1.3418H1212.67V456.744Z" fill="url(#paint3_diamond_517_1447)"/>
<path d="M1145.05 456.744H1144.21V1.3418H1145.05V456.744Z" fill="url(#paint4_diamond_517_1447)"/>
<path d="M1077.43 456.744H1076.59V1.3418H1077.43V456.744Z" fill="url(#paint5_diamond_517_1447)"/>
<path d="M1009.79 456.744H1008.95V1.3418H1009.79V456.744Z" fill="url(#paint6_diamond_517_1447)"/>
<path d="M942.167 456.744H941.328V1.3418H942.167V456.744Z" fill="url(#paint7_diamond_517_1447)"/>
<path d="M874.545 456.744H873.707V1.3418H874.545V456.744Z" fill="url(#paint8_diamond_517_1447)"/>
<path d="M806.924 456.744H806.085V1.3418H806.924V456.744Z" fill="url(#paint9_diamond_517_1447)"/>
<path d="M739.286 456.744H738.448V1.3418H739.286V456.744Z" fill="url(#paint10_diamond_517_1447)"/>
<path d="M671.665 456.744H670.827V1.3418H671.665V456.744Z" fill="url(#paint11_diamond_517_1447)"/>
<path d="M604.044 456.744H603.206V1.3418H604.044V456.744Z" fill="url(#paint12_diamond_517_1447)"/>
<path d="M536.422 456.744H535.584V1.3418H536.422V456.744Z" fill="url(#paint13_diamond_517_1447)"/>
<path d="M468.784 456.744H467.946V1.3418H468.784V456.744Z" fill="url(#paint14_diamond_517_1447)"/>
<path d="M401.163 456.744H400.325V1.3418H401.163V456.744Z" fill="url(#paint15_diamond_517_1447)"/>
<path d="M333.542 456.744H332.704V1.3418H333.542V456.744Z" fill="url(#paint16_diamond_517_1447)"/>
<path d="M265.921 456.744H265.083V1.3418H265.921V456.744Z" fill="url(#paint17_diamond_517_1447)"/>
<path d="M198.283 456.744H197.445V1.3418H198.283V456.744Z" fill="url(#paint18_diamond_517_1447)"/>
<path d="M130.662 456.744H129.823V1.3418H130.662V456.744Z" fill="url(#paint19_diamond_517_1447)"/>
<path d="M63.0404 456.744H62.2023V1.3418H63.0404V456.744Z" fill="url(#paint20_diamond_517_1447)"/>
<path d="M401.599 456.744H399.906L1482.75 264.857V265.16L401.599 456.744Z" fill="url(#paint21_diamond_517_1447)"/>
<path d="M266.34 456.744H264.647L1482.75 240.892V241.19L266.34 456.744Z" fill="url(#paint22_diamond_517_1447)"/>
<path d="M131.098 456.744H129.405L1482.75 216.926V217.225L131.098 456.744Z" fill="url(#paint23_diamond_517_1447)"/>
<path d="M-4.1451 456.744H-5V456.594L1482.75 192.956V193.259L-4.1451 456.744Z" fill="url(#paint24_diamond_517_1447)"/>
<path d="M-4.99988 432.928V432.629L1482.75 168.991V169.289L-4.99988 432.928Z" fill="url(#paint25_diamond_517_1447)"/>
<path d="M-4.99988 408.957V408.659L1482.75 145.025V145.324L-4.99988 408.957Z" fill="url(#paint26_diamond_517_1447)"/>
<path d="M-4.99988 384.992V384.693L1482.75 121.055V121.353L-4.99988 384.992Z" fill="url(#paint27_diamond_517_1447)"/>
<path d="M-4.99988 361.027V360.723L1482.75 97.0897V97.388L-4.99988 361.027Z" fill="url(#paint28_diamond_517_1447)"/>
<path d="M-4.99988 337.056V336.758L1482.75 73.1244V73.4228L-4.99988 337.056Z" fill="url(#paint29_diamond_517_1447)"/>
<path d="M-4.99988 313.091V312.793L1482.75 49.154V49.4575L-4.99988 313.091Z" fill="url(#paint30_diamond_517_1447)"/>
<path d="M-4.99988 289.126V288.827L1482.75 25.1887V25.4871L-4.99988 289.126Z" fill="url(#paint31_diamond_517_1447)"/>
<path d="M1482.75 1.52188L-4.99988 265.155V264.857L1482.06 1.3418H1482.75V1.52188Z" fill="url(#paint32_diamond_517_1447)"/>
<path d="M-4.99988 241.19V240.892L1346.82 1.34177H1348.51L-4.99988 241.19Z" fill="url(#paint33_diamond_517_1447)"/>
<path d="M-4.99988 217.225V216.921L1211.56 1.3418H1213.25L-4.99988 217.225Z" fill="url(#paint34_diamond_517_1447)"/>
<path d="M-4.99988 193.254V192.956L1076.32 1.34172H1078.01L-4.99988 193.254Z" fill="url(#paint35_diamond_517_1447)"/>
<path d="M-4.99988 169.289V168.991L941.06 1.34184H942.753L-4.99988 169.289Z" fill="url(#paint36_diamond_517_1447)"/>
<path d="M-4.99988 145.324V145.02L805.817 1.34178H807.51L-4.99988 145.324Z" fill="url(#paint37_diamond_517_1447)"/>
<path d="M-4.99988 121.353V121.055L670.558 1.34176H672.251L-4.99988 121.353Z" fill="url(#paint38_diamond_517_1447)"/>
<path d="M-4.99988 97.3881V97.0897L535.316 1.34183H537.009L-4.99988 97.3881Z" fill="url(#paint39_diamond_517_1447)"/>
<path d="M-4.99988 73.4229V73.1244L400.073 1.34182H401.767L-4.99988 73.4229Z" fill="url(#paint40_diamond_517_1447)"/>
<path d="M-4.99988 49.4576V49.1541L264.814 1.34188H266.507L-4.99988 49.4576Z" fill="url(#paint41_diamond_517_1447)"/>
<path d="M-4.99988 25.4872V25.1888L129.572 1.34185H131.248L-4.99988 25.4872Z" fill="url(#paint42_diamond_517_1447)"/>
<path d="M1482.75 25.4872L1346.5 1.34185H1348.2L1482.75 25.1888V25.4872Z" fill="url(#paint43_diamond_517_1447)"/>
<path d="M1482.75 49.4525L1211.24 1.34184H1212.94L1482.75 49.154V49.4525Z" fill="url(#paint44_diamond_517_1447)"/>
<path d="M1482.75 73.4229L1076 1.34181H1077.69L1482.75 73.1193V73.4229Z" fill="url(#paint45_diamond_517_1447)"/>
<path d="M1482.75 97.3881L940.741 1.34183H942.434L1482.75 97.0897V97.3881Z" fill="url(#paint46_diamond_517_1447)"/>
<path d="M1482.75 121.353L805.499 1.34176H807.192L1482.75 121.055V121.353Z" fill="url(#paint47_diamond_517_1447)"/>
<path d="M1482.75 145.324L670.24 1.34178H671.933L1482.75 145.02V145.324Z" fill="url(#paint48_diamond_517_1447)"/>
<path d="M1482.75 169.289L534.998 1.34184H536.691L1482.75 168.991V169.289Z" fill="url(#paint49_diamond_517_1447)"/>
<path d="M1482.75 193.254L399.738 1.34172H401.431L1482.75 192.956V193.254Z" fill="url(#paint50_diamond_517_1447)"/>
<path d="M1482.75 217.225L264.496 1.3418H266.189L1482.75 216.921V217.225Z" fill="url(#paint51_diamond_517_1447)"/>
<path d="M1482.75 241.19L129.237 1.34177H130.93L1482.75 240.892V241.19Z" fill="url(#paint52_diamond_517_1447)"/>
<path d="M1482.75 265.155L-4.99988 1.52188V1.3418H-4.3126L1482.75 264.857V265.155Z" fill="url(#paint53_diamond_517_1447)"/>
<path d="M1482.75 289.126L-4.99988 25.4871V25.1887L1482.75 288.822V289.126Z" fill="url(#paint54_diamond_517_1447)"/>
<path d="M1482.75 313.091L-4.99988 49.4524V49.154L1482.75 312.793V313.091Z" fill="url(#paint55_diamond_517_1447)"/>
<path d="M1482.75 337.056L-4.99988 73.4228V73.1193L1482.75 336.758V337.056Z" fill="url(#paint56_diamond_517_1447)"/>
<path d="M1482.75 361.027L-4.99988 97.388V97.0897L1482.75 360.723V361.027Z" fill="url(#paint57_diamond_517_1447)"/>
<path d="M1482.75 384.992L-4.99988 121.353V121.055L1482.75 384.693V384.992Z" fill="url(#paint58_diamond_517_1447)"/>
<path d="M1482.75 408.957L-4.99988 145.324V145.02L1482.75 408.659V408.957Z" fill="url(#paint59_diamond_517_1447)"/>
<path d="M1482.75 432.928L-4.99988 169.289V168.991L1482.75 432.624V432.928Z" fill="url(#paint60_diamond_517_1447)"/>
<path d="M1482.75 456.744H1481.91L-5 193.254V192.956L1482.75 456.594V456.744Z" fill="url(#paint61_diamond_517_1447)"/>
<path d="M1346.65 456.744L-5 217.225V216.926L1348.35 456.744H1346.65Z" fill="url(#paint62_diamond_517_1447)"/>
<path d="M1211.41 456.744L-5 241.19V240.892L1213.1 456.744H1211.41Z" fill="url(#paint63_diamond_517_1447)"/>
<path d="M1076.15 456.744L-5 265.155V264.857L1077.84 456.744H1076.15Z" fill="url(#paint64_diamond_517_1447)"/>
</g>
<rect width="1487.75" height="455.402" transform="matrix(1 0 0 -1 -5 456.744)" stroke="url(#paint65_diamond_517_1447)"/>
</g>
<defs>
<radialGradient id="paint0_diamond_517_1447" cx="0" cy="0" r="1" gradientUnits="userSpaceOnUse" gradientTransform="translate(1415.13 229.043) rotate(-90) scale(227.701 0.41907)">
<stop stop-color="#7FCA9F"/>
<stop offset="1" stop-color="#178144" stop-opacity="0.6"/>
</radialGradient>
<radialGradient id="paint1_diamond_517_1447" cx="0" cy="0" r="1" gradientUnits="userSpaceOnUse" gradientTransform="translate(1347.49 229.043) rotate(-90) scale(227.701 0.41907)">
<stop stop-color="#7FCA9F"/>
<stop offset="1" stop-color="#178144" stop-opacity="0.6"/>
</radialGradient>
<radialGradient id="paint2_diamond_517_1447" cx="0" cy="0" r="1" gradientUnits="userSpaceOnUse" gradientTransform="translate(1279.87 229.043) rotate(-90) scale(227.701 0.41907)">
<stop stop-color="#7FCA9F"/>
<stop offset="1" stop-color="#178144" stop-opacity="0.6"/>
</radialGradient>
<radialGradient id="paint3_diamond_517_1447" cx="0" cy="0" r="1" gradientUnits="userSpaceOnUse" gradientTransform="translate(1212.25 229.043) rotate(-90) scale(227.701 0.41907)">
<stop stop-color="#7FCA9F"/>
<stop offset="1" stop-color="#178144" stop-opacity="0.6"/>
</radialGradient>
<radialGradient id="paint4_diamond_517_1447" cx="0" cy="0" r="1" gradientUnits="userSpaceOnUse" gradientTransform="translate(1144.63 229.043) rotate(-90) scale(227.701 0.41907)">
<stop stop-color="#7FCA9F"/>
<stop offset="1" stop-color="#178144" stop-opacity="0.6"/>
</radialGradient>
<radialGradient id="paint5_diamond_517_1447" cx="0" cy="0" r="1" gradientUnits="userSpaceOnUse" gradientTransform="translate(1077.01 229.043) rotate(-90) scale(227.701 0.41907)">
<stop stop-color="#7FCA9F"/>
<stop offset="1" stop-color="#178144" stop-opacity="0.6"/>
</radialGradient>
<radialGradient id="paint6_diamond_517_1447" cx="0" cy="0" r="1" gradientUnits="userSpaceOnUse" gradientTransform="translate(1009.37 229.043) rotate(-90) scale(227.701 0.41907)">
<stop stop-color="#7FCA9F"/>
<stop offset="1" stop-color="#178144" stop-opacity="0.6"/>
</radialGradient>
<radialGradient id="paint7_diamond_517_1447" cx="0" cy="0" r="1" gradientUnits="userSpaceOnUse" gradientTransform="translate(941.747 229.043) rotate(-90) scale(227.701 0.41907)">
<stop stop-color="#7FCA9F"/>
<stop offset="1" stop-color="#178144" stop-opacity="0.6"/>
</radialGradient>
<radialGradient id="paint8_diamond_517_1447" cx="0" cy="0" r="1" gradientUnits="userSpaceOnUse" gradientTransform="translate(874.126 229.043) rotate(-90) scale(227.701 0.41907)">
<stop stop-color="#7FCA9F"/>
<stop offset="1" stop-color="#178144" stop-opacity="0.6"/>
</radialGradient>
<radialGradient id="paint9_diamond_517_1447" cx="0" cy="0" r="1" gradientUnits="userSpaceOnUse" gradientTransform="translate(806.505 229.043) rotate(-90) scale(227.701 0.41907)">
<stop stop-color="#7FCA9F"/>
<stop offset="1" stop-color="#178144" stop-opacity="0.6"/>
</radialGradient>
<radialGradient id="paint10_diamond_517_1447" cx="0" cy="0" r="1" gradientUnits="userSpaceOnUse" gradientTransform="translate(738.867 229.043) rotate(-90) scale(227.701 0.41907)">
<stop stop-color="#7FCA9F"/>
<stop offset="1" stop-color="#178144" stop-opacity="0.6"/>
</radialGradient>
<radialGradient id="paint11_diamond_517_1447" cx="0" cy="0" r="1" gradientUnits="userSpaceOnUse" gradientTransform="translate(671.246 229.043) rotate(-90) scale(227.701 0.41907)">
<stop stop-color="#7FCA9F"/>
<stop offset="1" stop-color="#178144" stop-opacity="0.6"/>
</radialGradient>
<radialGradient id="paint12_diamond_517_1447" cx="0" cy="0" r="1" gradientUnits="userSpaceOnUse" gradientTransform="translate(603.625 229.043) rotate(-90) scale(227.701 0.41907)">
<stop stop-color="#7FCA9F"/>
<stop offset="1" stop-color="#178144" stop-opacity="0.6"/>
</radialGradient>
<radialGradient id="paint13_diamond_517_1447" cx="0" cy="0" r="1" gradientUnits="userSpaceOnUse" gradientTransform="translate(536.003 229.043) rotate(-90) scale(227.701 0.41907)">
<stop stop-color="#7FCA9F"/>
<stop offset="1" stop-color="#178144" stop-opacity="0.6"/>
</radialGradient>
<radialGradient id="paint14_diamond_517_1447" cx="0" cy="0" r="1" gradientUnits="userSpaceOnUse" gradientTransform="translate(468.365 229.043) rotate(-90) scale(227.701 0.41907)">
<stop stop-color="#7FCA9F"/>
<stop offset="1" stop-color="#178144" stop-opacity="0.6"/>
</radialGradient>
<radialGradient id="paint15_diamond_517_1447" cx="0" cy="0" r="1" gradientUnits="userSpaceOnUse" gradientTransform="translate(400.744 229.043) rotate(-90) scale(227.701 0.41907)">
<stop stop-color="#7FCA9F"/>
<stop offset="1" stop-color="#178144" stop-opacity="0.6"/>
</radialGradient>
<radialGradient id="paint16_diamond_517_1447" cx="0" cy="0" r="1" gradientUnits="userSpaceOnUse" gradientTransform="translate(333.123 229.043) rotate(-90) scale(227.701 0.41907)">
<stop stop-color="#7FCA9F"/>
<stop offset="1" stop-color="#178144" stop-opacity="0.6"/>
</radialGradient>
<radialGradient id="paint17_diamond_517_1447" cx="0" cy="0" r="1" gradientUnits="userSpaceOnUse" gradientTransform="translate(265.502 229.043) rotate(-90) scale(227.701 0.41907)">
<stop stop-color="#7FCA9F"/>
<stop offset="1" stop-color="#178144" stop-opacity="0.6"/>
</radialGradient>
<radialGradient id="paint18_diamond_517_1447" cx="0" cy="0" r="1" gradientUnits="userSpaceOnUse" gradientTransform="translate(197.864 229.043) rotate(-90) scale(227.701 0.41907)">
<stop stop-color="#7FCA9F"/>
<stop offset="1" stop-color="#178144" stop-opacity="0.6"/>
</radialGradient>
<radialGradient id="paint19_diamond_517_1447" cx="0" cy="0" r="1" gradientUnits="userSpaceOnUse" gradientTransform="translate(130.243 229.043) rotate(-90) scale(227.701 0.41907)">
<stop stop-color="#7FCA9F"/>
<stop offset="1" stop-color="#178144" stop-opacity="0.6"/>
</radialGradient>
<radialGradient id="paint20_diamond_517_1447" cx="0" cy="0" r="1" gradientUnits="userSpaceOnUse" gradientTransform="translate(62.6213 229.043) rotate(-90) scale(227.701 0.41907)">
<stop stop-color="#7FCA9F"/>
<stop offset="1" stop-color="#178144" stop-opacity="0.6"/>
</radialGradient>
<radialGradient id="paint21_diamond_517_1447" cx="0" cy="0" r="1" gradientUnits="userSpaceOnUse" gradientTransform="translate(941.328 360.8) rotate(-90) scale(95.9434 541.422)">
<stop stop-color="#7FCA9F"/>
<stop offset="1" stop-color="#178144" stop-opacity="0.6"/>
</radialGradient>
<radialGradient id="paint22_diamond_517_1447" cx="0" cy="0" r="1" gradientUnits="userSpaceOnUse" gradientTransform="translate(873.699 348.818) rotate(-90) scale(107.926 609.052)">
<stop stop-color="#7FCA9F"/>
<stop offset="1" stop-color="#178144" stop-opacity="0.6"/>
</radialGradient>
<radialGradient id="paint23_diamond_517_1447" cx="0" cy="0" r="1" gradientUnits="userSpaceOnUse" gradientTransform="translate(806.077 336.835) rotate(-90) scale(119.909 676.673)">
<stop stop-color="#7FCA9F"/>
<stop offset="1" stop-color="#178144" stop-opacity="0.6"/>
</radialGradient>
<radialGradient id="paint24_diamond_517_1447" cx="0" cy="0" r="1" gradientUnits="userSpaceOnUse" gradientTransform="translate(738.875 324.85) rotate(-90) scale(131.894 743.875)">
<stop stop-color="#7FCA9F"/>
<stop offset="1" stop-color="#178144" stop-opacity="0.6"/>
</radialGradient>
<radialGradient id="paint25_diamond_517_1447" cx="0" cy="0" r="1" gradientUnits="userSpaceOnUse" gradientTransform="translate(738.875 300.959) rotate(-90) scale(131.968 743.875)">
<stop stop-color="#7FCA9F"/>
<stop offset="1" stop-color="#178144" stop-opacity="0.6"/>
</radialGradient>
<radialGradient id="paint26_diamond_517_1447" cx="0" cy="0" r="1" gradientUnits="userSpaceOnUse" gradientTransform="translate(738.875 276.991) rotate(-90) scale(131.966 743.875)">
<stop stop-color="#7FCA9F"/>
<stop offset="1" stop-color="#178144" stop-opacity="0.6"/>
</radialGradient>
<radialGradient id="paint27_diamond_517_1447" cx="0" cy="0" r="1" gradientUnits="userSpaceOnUse" gradientTransform="translate(738.875 253.023) rotate(-90) scale(131.968 743.875)">
<stop stop-color="#7FCA9F"/>
<stop offset="1" stop-color="#178144" stop-opacity="0.6"/>
</radialGradient>
<radialGradient id="paint28_diamond_517_1447" cx="0" cy="0" r="1" gradientUnits="userSpaceOnUse" gradientTransform="translate(738.875 229.058) rotate(-90) scale(131.968 743.875)">
<stop stop-color="#7FCA9F"/>
<stop offset="1" stop-color="#178144" stop-opacity="0.6"/>
</radialGradient>
<radialGradient id="paint29_diamond_517_1447" cx="0" cy="0" r="1" gradientUnits="userSpaceOnUse" gradientTransform="translate(738.875 205.09) rotate(-90) scale(131.966 743.875)">
<stop stop-color="#7FCA9F"/>
<stop offset="1" stop-color="#178144" stop-opacity="0.6"/>
</radialGradient>
<radialGradient id="paint30_diamond_517_1447" cx="0" cy="0" r="1" gradientUnits="userSpaceOnUse" gradientTransform="translate(738.875 181.122) rotate(-90) scale(131.968 743.875)">
<stop stop-color="#7FCA9F"/>
<stop offset="1" stop-color="#178144" stop-opacity="0.6"/>
</radialGradient>
<radialGradient id="paint31_diamond_517_1447" cx="0" cy="0" r="1" gradientUnits="userSpaceOnUse" gradientTransform="translate(738.875 157.157) rotate(-90) scale(131.968 743.875)">
<stop stop-color="#7FCA9F"/>
<stop offset="1" stop-color="#178144" stop-opacity="0.6"/>
</radialGradient>
<radialGradient id="paint32_diamond_517_1447" cx="0" cy="0" r="1" gradientUnits="userSpaceOnUse" gradientTransform="translate(738.875 133.249) rotate(-90) scale(131.907 743.875)">
<stop stop-color="#7FCA9F"/>
<stop offset="1" stop-color="#178144" stop-opacity="0.6"/>
</radialGradient>
<radialGradient id="paint33_diamond_517_1447" cx="0" cy="0" r="1" gradientUnits="userSpaceOnUse" gradientTransform="translate(671.757 121.266) rotate(-90) scale(119.924 676.757)">
<stop stop-color="#7FCA9F"/>
<stop offset="1" stop-color="#178144" stop-opacity="0.6"/>
</radialGradient>
<radialGradient id="paint34_diamond_517_1447" cx="0" cy="0" r="1" gradientUnits="userSpaceOnUse" gradientTransform="translate(604.127 109.283) rotate(-90) scale(107.941 609.127)">
<stop stop-color="#7FCA9F"/>
<stop offset="1" stop-color="#178144" stop-opacity="0.6"/>
</radialGradient>
<radialGradient id="paint35_diamond_517_1447" cx="0" cy="0" r="1" gradientUnits="userSpaceOnUse" gradientTransform="translate(536.506 97.298) rotate(-90) scale(95.9563 541.506)">
<stop stop-color="#7FCA9F"/>
<stop offset="1" stop-color="#178144" stop-opacity="0.6"/>
</radialGradient>
<radialGradient id="paint36_diamond_517_1447" cx="0" cy="0" r="1" gradientUnits="userSpaceOnUse" gradientTransform="translate(468.877 85.3154) rotate(-90) scale(83.9736 473.876)">
<stop stop-color="#7FCA9F"/>
<stop offset="1" stop-color="#178144" stop-opacity="0.6"/>
</radialGradient>
<radialGradient id="paint37_diamond_517_1447" cx="0" cy="0" r="1" gradientUnits="userSpaceOnUse" gradientTransform="translate(401.255 73.3328) rotate(-90) scale(71.991 406.255)">
<stop stop-color="#7FCA9F"/>
<stop offset="1" stop-color="#178144" stop-opacity="0.6"/>
</radialGradient>
<radialGradient id="paint38_diamond_517_1447" cx="0" cy="0" r="1" gradientUnits="userSpaceOnUse" gradientTransform="translate(333.626 61.3475) rotate(-90) scale(60.0058 338.626)">
<stop stop-color="#7FCA9F"/>
<stop offset="1" stop-color="#178144" stop-opacity="0.6"/>
</radialGradient>
<radialGradient id="paint39_diamond_517_1447" cx="0" cy="0" r="1" gradientUnits="userSpaceOnUse" gradientTransform="translate(266.004 49.365) rotate(-90) scale(48.0231 271.004)">
<stop stop-color="#7FCA9F"/>
<stop offset="1" stop-color="#178144" stop-opacity="0.6"/>
</radialGradient>
<radialGradient id="paint40_diamond_517_1447" cx="0" cy="0" r="1" gradientUnits="userSpaceOnUse" gradientTransform="translate(198.383 37.3823) rotate(-90) scale(36.0405 203.383)">
<stop stop-color="#7FCA9F"/>
<stop offset="1" stop-color="#178144" stop-opacity="0.6"/>
</radialGradient>
<radialGradient id="paint41_diamond_517_1447" cx="0" cy="0" r="1" gradientUnits="userSpaceOnUse" gradientTransform="translate(130.754 25.3998) rotate(-90) scale(24.0579 135.754)">
<stop stop-color="#7FCA9F"/>
<stop offset="1" stop-color="#178144" stop-opacity="0.6"/>
</radialGradient>
<radialGradient id="paint42_diamond_517_1447" cx="0" cy="0" r="1" gradientUnits="userSpaceOnUse" gradientTransform="translate(63.1242 13.4145) rotate(-90) scale(12.0727 68.1241)">
<stop stop-color="#7FCA9F"/>
<stop offset="1" stop-color="#178144" stop-opacity="0.6"/>
</radialGradient>
<radialGradient id="paint43_diamond_517_1447" cx="0" cy="0" r="1" gradientUnits="userSpaceOnUse" gradientTransform="translate(1414.63 13.4145) rotate(-90) scale(12.0727 68.1241)">
<stop stop-color="#7FCA9F"/>
<stop offset="1" stop-color="#178144" stop-opacity="0.6"/>
</radialGradient>
<radialGradient id="paint44_diamond_517_1447" cx="0" cy="0" r="1" gradientUnits="userSpaceOnUse" gradientTransform="translate(1347 25.3971) rotate(-90) scale(24.0553 135.754)">
<stop stop-color="#7FCA9F"/>
<stop offset="1" stop-color="#178144" stop-opacity="0.6"/>
</radialGradient>
<radialGradient id="paint45_diamond_517_1447" cx="0" cy="0" r="1" gradientUnits="userSpaceOnUse" gradientTransform="translate(1279.38 37.3823) rotate(-90) scale(36.0405 203.375)">
<stop stop-color="#7FCA9F"/>
<stop offset="1" stop-color="#178144" stop-opacity="0.6"/>
</radialGradient>
<radialGradient id="paint46_diamond_517_1447" cx="0" cy="0" r="1" gradientUnits="userSpaceOnUse" gradientTransform="translate(1211.75 49.365) rotate(-90) scale(48.0231 271.004)">
<stop stop-color="#7FCA9F"/>
<stop offset="1" stop-color="#178144" stop-opacity="0.6"/>
</radialGradient>
<radialGradient id="paint47_diamond_517_1447" cx="0" cy="0" r="1" gradientUnits="userSpaceOnUse" gradientTransform="translate(1144.12 61.3475) rotate(-90) scale(60.0058 338.626)">
<stop stop-color="#7FCA9F"/>
<stop offset="1" stop-color="#178144" stop-opacity="0.6"/>
</radialGradient>
<radialGradient id="paint48_diamond_517_1447" cx="0" cy="0" r="1" gradientUnits="userSpaceOnUse" gradientTransform="translate(1076.49 73.3328) rotate(-90) scale(71.991 406.255)">
<stop stop-color="#7FCA9F"/>
<stop offset="1" stop-color="#178144" stop-opacity="0.6"/>
</radialGradient>
<radialGradient id="paint49_diamond_517_1447" cx="0" cy="0" r="1" gradientUnits="userSpaceOnUse" gradientTransform="translate(1008.87 85.3154) rotate(-90) scale(83.9736 473.876)">
<stop stop-color="#7FCA9F"/>
<stop offset="1" stop-color="#178144" stop-opacity="0.6"/>
</radialGradient>
<radialGradient id="paint50_diamond_517_1447" cx="0" cy="0" r="1" gradientUnits="userSpaceOnUse" gradientTransform="translate(941.244 97.298) rotate(-90) scale(95.9563 541.506)">
<stop stop-color="#7FCA9F"/>
<stop offset="1" stop-color="#178144" stop-opacity="0.6"/>
</radialGradient>
<radialGradient id="paint51_diamond_517_1447" cx="0" cy="0" r="1" gradientUnits="userSpaceOnUse" gradientTransform="translate(873.623 109.283) rotate(-90) scale(107.941 609.127)">
<stop stop-color="#7FCA9F"/>
<stop offset="1" stop-color="#178144" stop-opacity="0.6"/>
</radialGradient>
<radialGradient id="paint52_diamond_517_1447" cx="0" cy="0" r="1" gradientUnits="userSpaceOnUse" gradientTransform="translate(805.993 121.266) rotate(-90) scale(119.924 676.757)">
<stop stop-color="#7FCA9F"/>
<stop offset="1" stop-color="#178144" stop-opacity="0.6"/>
</radialGradient>
<radialGradient id="paint53_diamond_517_1447" cx="0" cy="0" r="1" gradientUnits="userSpaceOnUse" gradientTransform="translate(738.875 133.249) rotate(-90) scale(131.907 743.875)">
<stop stop-color="#7FCA9F"/>
<stop offset="1" stop-color="#178144" stop-opacity="0.6"/>
</radialGradient>
<radialGradient id="paint54_diamond_517_1447" cx="0" cy="0" r="1" gradientUnits="userSpaceOnUse" gradientTransform="translate(738.875 157.157) rotate(-90) scale(131.968 743.875)">
<stop stop-color="#7FCA9F"/>
<stop offset="1" stop-color="#178144" stop-opacity="0.6"/>
</radialGradient>
<radialGradient id="paint55_diamond_517_1447" cx="0" cy="0" r="1" gradientUnits="userSpaceOnUse" gradientTransform="translate(738.875 181.122) rotate(-90) scale(131.968 743.875)">
<stop stop-color="#7FCA9F"/>
<stop offset="1" stop-color="#178144" stop-opacity="0.6"/>
</radialGradient>
<radialGradient id="paint56_diamond_517_1447" cx="0" cy="0" r="1" gradientUnits="userSpaceOnUse" gradientTransform="translate(738.875 205.088) rotate(-90) scale(131.968 743.875)">
<stop stop-color="#7FCA9F"/>
<stop offset="1" stop-color="#178144" stop-opacity="0.6"/>
</radialGradient>
<radialGradient id="paint57_diamond_517_1447" cx="0" cy="0" r="1" gradientUnits="userSpaceOnUse" gradientTransform="translate(738.875 229.058) rotate(-90) scale(131.968 743.875)">
<stop stop-color="#7FCA9F"/>
<stop offset="1" stop-color="#178144" stop-opacity="0.6"/>
</radialGradient>
<radialGradient id="paint58_diamond_517_1447" cx="0" cy="0" r="1" gradientUnits="userSpaceOnUse" gradientTransform="translate(738.875 253.023) rotate(-90) scale(131.968 743.875)">
<stop stop-color="#7FCA9F"/>
<stop offset="1" stop-color="#178144" stop-opacity="0.6"/>
</radialGradient>
<radialGradient id="paint59_diamond_517_1447" cx="0" cy="0" r="1" gradientUnits="userSpaceOnUse" gradientTransform="translate(738.875 276.989) rotate(-90) scale(131.968 743.875)">
<stop stop-color="#7FCA9F"/>
<stop offset="1" stop-color="#178144" stop-opacity="0.6"/>
</radialGradient>
<radialGradient id="paint60_diamond_517_1447" cx="0" cy="0" r="1" gradientUnits="userSpaceOnUse" gradientTransform="translate(738.875 300.959) rotate(-90) scale(131.968 743.875)">
<stop stop-color="#7FCA9F"/>
<stop offset="1" stop-color="#178144" stop-opacity="0.6"/>
</radialGradient>
<radialGradient id="paint61_diamond_517_1447" cx="0" cy="0" r="1" gradientUnits="userSpaceOnUse" gradientTransform="translate(738.875 324.85) rotate(-90) scale(131.894 743.875)">
<stop stop-color="#7FCA9F"/>
<stop offset="1" stop-color="#178144" stop-opacity="0.6"/>
</radialGradient>
<radialGradient id="paint62_diamond_517_1447" cx="0" cy="0" r="1" gradientUnits="userSpaceOnUse" gradientTransform="translate(671.673 336.835) rotate(-90) scale(119.909 676.673)">
<stop stop-color="#20BD63"/>
<stop offset="1" stop-color="#20BD63" stop-opacity="0.27"/>
</radialGradient>
<radialGradient id="paint63_diamond_517_1447" cx="0" cy="0" r="1" gradientUnits="userSpaceOnUse" gradientTransform="translate(604.052 348.818) rotate(-90) scale(107.926 609.052)">
<stop stop-color="#7FCA9F"/>
<stop offset="1" stop-color="#178144" stop-opacity="0.6"/>
</radialGradient>
<radialGradient id="paint64_diamond_517_1447" cx="0" cy="0" r="1" gradientUnits="userSpaceOnUse" gradientTransform="translate(536.422 360.8) rotate(-90) scale(95.9434 541.422)">
<stop stop-color="#7FCA9F"/>
<stop offset="1" stop-color="#178144" stop-opacity="0.6"/>
</radialGradient>
<radialGradient id="paint65_diamond_517_1447" cx="0" cy="0" r="1" gradientUnits="userSpaceOnUse" gradientTransform="translate(743.875 227.701) rotate(90) scale(227.701 743.875)">
<stop stop-color="white"/>
<stop offset="1" stop-color="white" stop-opacity="0"/>
</radialGradient>
<clipPath id="clip0_517_1447">
<rect width="1487.75" height="455.402" transform="matrix(1 0 0 -1 -5 456.744)" fill="white"/>
</clipPath>
</defs>
</svg>
