<svg width="946" height="416" viewBox="0 0 946 416" fill="none" xmlns="http://www.w3.org/2000/svg">
<path opacity="0.8" d="M-303.913 634.102C-278.302 596.939 -249.931 557.69 -191.501 533.93C-125.949 507.274 -29.1651 503.057 16.4639 466.072C52.3297 437.016 42.4336 398.516 57.9124 364.564C81.4943 312.745 167.28 273.259 262.418 260.22C329.601 251.048 404.238 252.792 461.974 231.82C564.168 194.739 558.706 108.667 644.175 60.5596C718.521 18.7323 838.249 17.0741 945.021 18.238M-339.518 610.349C-308.134 570.403 -273.456 528.762 -209.659 502.239C-142.866 474.465 -45.1725 468.849 4.67413 434.766C43.6513 408.172 40.0186 373.789 58.9064 341.755C87.4798 293.28 172.84 253.985 264.717 239.07C331.628 228.217 402.535 225.429 457.968 203.201C552.631 165.204 550.048 84.27 629.477 36.5213C701.668 -6.82257 818.811 -13.3572 926.774 -14.3677M-375.121 586.618C-337.964 543.868 -296.943 499.856 -227.836 470.54C-159.764 441.688 -61.4912 434.673 -7.11283 403.442C34.8647 379.349 37.531 349.124 59.9017 318.967C93.3001 273.907 178.439 234.613 267.109 217.89C333.806 205.287 400.629 198.218 454.036 174.544C541.186 135.881 541.355 59.7127 614.891 12.4235C685.002 -32.6786 799.319 -43.878 908.657 -47.023M-410.635 562.816C-367.65 517.313 -320.34 470.86 -245.94 438.801C-176.553 408.891 -77.7398 400.457 -18.8298 372.098C26.0558 350.476 35.0218 324.45 60.9865 296.109C99.0989 254.525 184.128 215.09 269.61 196.631C336.111 182.267 393.454 167.311 450.343 145.756C538.395 112.424 532.733 34.8942 600.505 -11.8048C668.277 -58.5037 780.121 -74.4586 890.741 -79.7882M-446.351 539.125C-397.612 490.808 -343.941 442.053 -264.175 407.131C-193.472 376.184 -94.2659 366.31 -30.6393 340.783C17.0806 321.633 32.2903 299.854 61.9783 273.3C104.564 235.222 189.743 195.526 272 175.43C338.415 159.186 389.665 139.257 446.464 117.048C529.527 84.5866 523.872 10.0048 585.953 -35.923C651.812 -84.6319 760.645 -104.99 872.677 -112.474M-481.955 515.373C-427.443 464.273 -367.41 413.177 -282.351 375.432C-210.278 343.456 -110.733 332.134 -42.5008 309.499C7.9796 292.8 29.3593 275.331 62.9185 250.543C109.702 215.961 195.249 175.901 274.317 154.27C340.5 136.165 385.841 111.585 442.515 88.4C520.404 56.5889 514.57 -14.864 571.275 -60.0512C634.925 -110.689 741.153 -135.471 854.467 -145.139M-517.575 491.632C-457.291 437.769 -390.841 384.32 -300.489 343.732C-227.065 310.739 -127.421 297.837 -54.3254 278.214C-1.17678 263.937 32.0873 253.224 63.9504 227.714C106.799 193.288 200.832 156.136 276.748 133.05C342.736 112.983 382.183 84.1239 438.695 59.6818C511.098 28.2694 505.326 -39.9445 556.818 -84.1598C618.15 -136.827 721.791 -166.002 836.481 -177.805M-553.162 467.889C-487.013 411.172 -414.257 355.473 -318.686 312.042C-243.854 278.041 -144.148 263.539 -66.0968 246.879C-10.2612 234.953 28.967 229.122 64.9062 204.925C111.751 173.382 206.281 136.34 279.063 111.889C344.8 89.8103 391.292 63.4986 434.798 31.0633C486.602 -7.67937 495.783 -65.0047 542.248 -108.208C601.095 -162.975 702.352 -196.413 818.343 -210.431M-588.783 444.148C-516.898 384.687 -437.651 326.637 -336.861 280.342C-260.64 245.344 -160.873 229.181 -77.8838 215.554C-19.5088 205.979 19.7518 201.477 65.9028 182.117C123.874 157.784 211.754 116.394 281.605 90.709C347.035 66.5483 389.866 36.8902 430.998 2.35507C476.484 -35.8572 486.207 -90.2453 527.756 -132.356C583.989 -189.314 682.991 -226.964 800.376 -243.107M-624.386 420.396C-546.729 358.152 -461.046 297.8 -354.945 248.592C-277.316 212.606 -177.543 194.713 -89.5987 184.208C-28.6104 176.924 16.3583 176.681 67.0077 159.268C128.29 138.211 217.114 96.4471 283.996 69.4275C349.066 43.1344 388.529 10.2912 427.121 -26.4341C466.566 -63.9854 476.316 -115.617 513.207 -156.556C566.605 -215.763 663.609 -257.546 782.313 -275.873M-660.068 396.684C-576.619 331.647 -484.481 269.024 -373.235 216.973C-294.255 179.97 -194.42 160.296 -101.502 152.965C-37.9182 147.941 12.6845 151.897 67.8688 136.531C132.5 118.548 222.23 76.5319 286.273 48.2882C350.871 19.8024 387.374 -16.0652 423.131 -55.061C456.866 -91.8511 466.143 -140.877 498.524 -180.623C548.792 -242.141 644.039 -288.007 764.1 -308.478M-695.598 372.913C-606.377 305.092 -507.786 240.178 -391.358 185.244C-313.324 148.48 -215.897 126.191 -113.254 121.621C-47.0198 118.828 9.16315 126.891 68.9372 113.703C136.918 98.7549 227.442 56.4462 288.72 27.0588C352.773 -3.65978 386.867 -42.4725 419.309 -83.7783C447.631 -119.787 455.937 -166.277 484.028 -204.771C506.908 -236.493 542.214 -265.139 587.474 -288.703C632.735 -312.268 686.857 -330.182 746.056 -341.194M-731.22 349.171C-636.208 278.557 -531.126 211.372 -409.534 153.544C-327.647 114.595 -227.723 91.1792 -125.061 90.3056C-56.1576 89.7126 5.64073 101.804 69.9304 90.8941C141.187 78.7992 236.34 38.3865 291.111 5.85775C350.362 -29.3523 386.637 -68.7513 415.45 -112.477C438.635 -147.676 445.51 -191.658 469.497 -228.9C512.268 -295.328 605.275 -349.048 727.994 -373.879M-766.823 325.419C-666.039 252.022 -554.447 182.576 -427.71 121.844C-344.397 81.918 -244.354 56.5905 -136.83 58.9909C-65.2574 60.5981 2.17619 76.6466 70.9441 68.0959C145.643 58.8039 240.595 17.8382 293.503 -15.3424C352.613 -52.4034 386.981 -95.0393 411.575 -141.165C429.863 -175.563 434.881 -217.048 454.929 -253.028C493.352 -321.947 585.857 -379.57 709.858 -406.525M-802.444 301.678C-695.813 225.517 -577.64 153.95 -445.868 90.134C-360.982 49.3308 -260.913 21.9809 -148.637 27.6757C-74.3028 31.4527 -1.21382 51.4085 71.9398 45.2874C150.247 38.7679 242.361 -3.80416 295.896 -36.5629C357.612 -74.2004 387.861 -121.359 407.662 -169.894C421.423 -203.612 424.049 -242.429 440.288 -277.136C473.79 -348.575 566.384 -410.081 691.723 -439.211M-838.049 277.925C-725.883 198.728 -600.687 125.261 -464.027 58.4442C-377.77 16.6132 -277.435 -12.6486 -160.426 -3.62924C-83.3488 2.3076 -4.53133 26.1101 72.9338 22.479C154.887 18.6313 247.13 -23.9111 298.323 -57.7435C358.904 -97.7942 389.441 -147.699 403.841 -198.572C413.204 -231.782 413.142 -267.728 425.831 -301.285C453.82 -375.222 547.02 -440.592 673.772 -471.917M-873.58 254.154C-755.367 172.342 -624.392 96.2402 -482.13 26.7049C-394.484 -16.1438 -293.846 -47.3374 -172.141 -34.9935C-92.2658 -26.8868 -7.66521 0.751733 73.9453 -0.399279C159.693 -1.57521 251.844 -44.087 300.715 -79.0234C360.16 -121.447 391.539 -174.261 399.964 -227.34C405.152 -260.022 402.049 -293.068 411.299 -325.493C433.075 -401.888 527.619 -471.184 655.69 -504.673" stroke="url(#paint0_linear_998_9715)" stroke-width="1.65164" stroke-miterlimit="10"/>
<defs>
<linearGradient id="paint0_linear_998_9715" x1="79.3898" y1="-36.0426" x2="251.829" y2="367.705" gradientUnits="userSpaceOnUse">
<stop stop-color="#8A8A8A"/>
<stop offset="1" stop-color="#8A8A8A" stop-opacity="0"/>
</linearGradient>
</defs>
</svg>
