<svg width="91" height="91" viewBox="0 0 91 91" fill="none" xmlns="http://www.w3.org/2000/svg">
<path d="M45.8956 30.9885C46.9414 30.9435 51.3159 30.8535 55.1394 34.0697C59.8625 38.0394 59.885 43.7746 59.8737 44.573C59.9412 44.6967 60.8071 46.406 61.9541 46.3273C62.7413 46.2711 63.2474 45.4277 63.4161 45.1465C65.1591 42.2564 62.8875 35.9252 58.9066 32.113C57.231 30.5049 55.398 29.4928 54.6783 29.0992C53.6437 28.5369 52.1593 27.7385 50.0677 27.2999C48.2684 26.9176 46.9077 26.9738 45.8956 27.1425C44.861 27.3112 43.7252 27.5136 43.0392 28.447C42.9155 28.6157 42.4432 29.2567 42.6232 29.8752C42.8593 30.6848 44.175 31.2471 45.8956 30.9997V30.9885Z" fill="#EBFF25" stroke="#231F20" stroke-miterlimit="10"/>
<path d="M48.2342 23.4877C49.6287 23.4202 55.4538 23.2965 60.548 27.9409C66.8342 33.6761 66.868 41.9865 66.8568 43.1335C66.9355 43.3134 68.0938 45.7875 69.6344 45.675C70.6802 45.5963 71.3549 44.3705 71.5911 43.9544C73.9077 39.7711 70.8826 30.606 65.586 25.0957C63.3482 22.7679 60.9079 21.306 59.952 20.7437C58.5688 19.9228 56.6008 18.7758 53.8007 18.1348C51.4054 17.5838 49.5837 17.6625 48.2342 17.8986C46.8623 18.1348 45.3329 18.4272 44.4332 19.7879C44.2758 20.0353 43.6461 20.9687 43.8822 21.8458C44.1971 23.0153 45.9514 23.825 48.2455 23.4652L48.2342 23.4877Z" fill="#EBFF25" stroke="#231F20" stroke-miterlimit="10"/>
<path d="M31.9512 44.3481C33.1544 46.6984 35.2011 49.9933 38.5411 53.2096C42.4995 57.0218 46.5703 59.0797 49.2018 60.1593C49.2805 59.3833 49.6628 56.7969 51.8332 54.649C53.5313 52.9734 55.4318 52.4336 56.2639 52.2537C57.3885 52.2199 60.0762 52.2762 62.8538 53.9293C66.3287 55.9984 67.6444 59.1809 68.0042 60.1593C68.1504 60.9802 68.7239 64.6125 66.4523 68.0649C63.4386 72.6193 58.1082 72.8554 57.5909 72.8667C54.8358 72.8667 50.1576 72.5968 44.771 70.82C32.9745 66.9066 21.9652 57.2804 19.2663 45.7313C17.9955 40.311 18.5803 35.6104 19.1426 32.844C19.2438 32.023 19.7049 29.2004 22.1339 26.8501C24.4729 24.601 27.1606 24.1849 28.004 24.095C29.2298 24.1175 31.2764 24.3424 33.3906 25.5344C37.99 28.1096 39.0808 33.0689 39.2607 33.9235C39.362 34.4071 40.1154 38.0956 37.5852 41.2331C35.4935 43.8196 32.5922 44.2694 31.9512 44.3481Z" fill="#50E281" stroke="black" stroke-miterlimit="10"/>
</svg>
