<svg width="91" height="90" viewBox="0 0 91 90" fill="none" xmlns="http://www.w3.org/2000/svg">
<g clip-path="url(#clip0_956_3573)">
<g clip-path="url(#clip1_956_3573)">
<path d="M12.1191 59.661C16.1367 58.287 23.5586 56.3455 32.841 57.3013C40.5593 58.0978 46.4579 60.587 49.995 62.409C50.179 62.4588 50.6493 62.6082 51.0275 63.0462C51.5796 63.6835 51.4978 64.4402 51.4773 64.5795C51.4978 64.7289 51.6818 65.9237 50.8026 66.8198C50.2608 67.3773 49.5963 67.5167 49.351 67.5665C43.115 67.3972 36.8688 67.2379 30.6328 67.0687L68.6109 67.5665C68.979 67.6063 69.8581 67.7358 70.6555 68.3929C71.9743 69.4782 71.9743 71.0911 71.9641 71.3301C71.9845 71.5889 72.0561 72.7041 71.2587 73.7396C70.5022 74.7252 69.4492 74.9841 69.1732 75.0439C66.9651 75.7906 64.6445 76.5075 62.2114 77.1945C58.889 78.1403 55.6994 78.917 52.6632 79.5641C47.7766 80.062 41.6736 80.2511 34.7424 79.4944C29.6207 78.9269 25.1022 77.9611 21.3095 76.9057C18.2426 76.3382 15.1758 75.7707 12.1089 75.2032" fill="#FFECD0"/>
<path d="M12.1191 59.661C16.1367 58.287 23.5586 56.3455 32.841 57.3013C40.5593 58.0978 46.4579 60.587 49.995 62.409C50.179 62.4588 50.6493 62.6082 51.0275 63.0462C51.5796 63.6835 51.4978 64.4402 51.4773 64.5795C51.4978 64.7289 51.6818 65.9237 50.8026 66.8198C50.2608 67.3773 49.5963 67.5167 49.351 67.5665C43.115 67.3972 36.8688 67.2379 30.6328 67.0687L68.6109 67.5665C68.979 67.6063 69.8581 67.7358 70.6555 68.3929C71.9743 69.4782 71.9743 71.0911 71.9641 71.3301C71.9845 71.5889 72.0561 72.7041 71.2587 73.7396C70.5022 74.7252 69.4492 74.9841 69.1732 75.0439C66.9651 75.7906 64.6445 76.5075 62.2114 77.1945C58.889 78.1403 55.6994 78.917 52.6632 79.5641C47.7766 80.062 41.6736 80.2511 34.7424 79.4944C29.6207 78.9269 25.1022 77.9611 21.3095 76.9057C18.2426 76.3382 15.1758 75.7707 12.1089 75.2032" stroke="#231F20" stroke-miterlimit="10"/>
<path d="M12.119 56.1364H1.00671V77.981H12.119V56.1364Z" fill="#EBFF25" stroke="#231F20" stroke-miterlimit="10"/>
<ellipse cx="8.37446" cy="74.3907" rx="1.81147" ry="1.76427" fill="black"/>
</g>
<path d="M19.5204 16.2561C23.7727 14.8199 29.0389 13.4681 35.1593 12.8017C46.574 11.5532 56.1207 13.2241 62.4851 14.9232C64.5315 15.599 69.0749 16.763 74.1533 15.1015C75.7585 14.5758 77.0915 13.8718 78.1616 13.1866C77.8237 22.5173 77.4764 31.8387 77.1384 41.1695C73.6183 41.8642 69.3377 42.4274 64.4658 42.4931C58.7679 42.5682 53.8209 41.9487 49.8783 41.1695C40.6601 39.3484 35.7507 39.8835 31.0196 40.8785C25.8003 41.9768 21.8296 44.1264 19.3138 45.7504C19.3889 35.9221 19.4546 26.1032 19.5297 16.2749L19.5204 16.2561Z" fill="#50E281" stroke="#231F20" stroke-miterlimit="10"/>
<path d="M16.7043 19.8325C20.9567 18.3963 26.2228 17.0446 32.3432 16.3781C43.758 15.1296 53.3046 16.8005 59.6691 18.4996C61.7155 19.1754 66.2589 20.3394 71.3373 18.6779C72.9425 18.1522 74.2754 17.4482 75.3456 16.763C75.0076 26.0938 74.6603 35.4152 74.3224 44.7459C70.8022 45.4406 66.5217 46.0038 61.6498 46.0695C55.9518 46.1446 51.0048 45.5251 47.0622 44.7459C37.8441 42.9248 32.9346 43.4599 28.2035 44.4549C22.9843 45.5532 19.0135 47.7029 16.4978 49.3269C16.5729 39.4986 16.6386 29.6796 16.7137 19.8513L16.7043 19.8325Z" fill="#50E281" stroke="#231F20" stroke-miterlimit="10"/>
<path d="M14.104 23.5032C18.3563 22.067 23.6225 20.7152 29.7429 20.0487C41.1576 18.8003 50.7043 20.4711 57.0688 22.1702C59.1152 22.846 63.6585 24.01 68.7369 22.3485C70.3421 21.8229 71.6751 21.1188 72.7452 20.4336C72.4073 29.7644 72.06 39.0858 71.722 48.4165C68.2019 49.1112 63.9214 49.6744 59.0494 49.7401C53.3515 49.8152 48.4045 49.1957 44.4619 48.4165C35.2437 46.5954 30.3343 47.1305 25.6032 48.1255C20.384 49.2238 16.4132 51.3735 13.8975 52.9975C13.9726 43.1692 14.0383 33.3502 14.1134 23.5219L14.104 23.5032Z" fill="#50E281" stroke="#231F20" stroke-miterlimit="10"/>
<path d="M41.7405 41.3133V39.8893C40.9991 39.724 40.3725 39.404 39.8605 38.9293C39.3538 38.4493 38.9858 37.8707 38.7565 37.1933L40.4525 36.5693C40.6711 37.06 40.9805 37.4627 41.3805 37.7773C41.7858 38.092 42.2498 38.2493 42.7725 38.2493C43.3058 38.2493 43.7325 38.116 44.0525 37.8493C44.3725 37.5827 44.5325 37.196 44.5325 36.6893C44.5325 36.332 44.4311 36.0333 44.2285 35.7933C44.0258 35.548 43.7565 35.3373 43.4205 35.1613C43.0898 34.9853 42.7245 34.82 42.3245 34.6653C41.9458 34.516 41.5671 34.356 41.1885 34.1853C40.8151 34.0093 40.4738 33.7987 40.1645 33.5533C39.8605 33.3027 39.6151 32.996 39.4285 32.6333C39.2471 32.2707 39.1565 31.8307 39.1565 31.3133C39.1565 30.6413 39.3805 30.0413 39.8285 29.5133C40.2765 28.98 40.9138 28.644 41.7405 28.5053V27.2333H43.5565V28.5213C44.2018 28.66 44.7271 28.932 45.1325 29.3373C45.5378 29.7373 45.8178 30.2093 45.9725 30.7533L44.3085 31.3053C44.1805 30.9853 43.9671 30.716 43.6685 30.4973C43.3698 30.2733 42.9858 30.1613 42.5165 30.1613C42.0578 30.1613 41.7005 30.2627 41.4445 30.4653C41.1885 30.6627 41.0605 30.9453 41.0605 31.3133C41.0605 31.596 41.1538 31.836 41.3405 32.0333C41.5325 32.2307 41.7858 32.4067 42.1005 32.5613C42.4151 32.7107 42.7591 32.8547 43.1325 32.9933C43.5005 33.132 43.8765 33.2947 44.2605 33.4813C44.6498 33.668 45.0071 33.8973 45.3325 34.1693C45.6631 34.4413 45.9298 34.78 46.1325 35.1853C46.3351 35.5907 46.4365 36.084 46.4365 36.6653C46.4365 37.284 46.3085 37.82 46.0525 38.2733C45.8018 38.7267 45.4605 39.0947 45.0285 39.3773C44.5965 39.6547 44.1058 39.8387 43.5565 39.9293V41.3133H41.7405Z" fill="black"/>
</g>
<defs>
<clipPath id="clip0_956_3573">
<rect width="90" height="90" fill="white" transform="translate(0.495605)"/>
</clipPath>
<clipPath id="clip1_956_3573">
<rect width="72" height="71" fill="white" transform="translate(0.495605 9.5)"/>
</clipPath>
</defs>
</svg>
