<svg width="58" height="59" viewBox="0 0 58 59" fill="none" xmlns="http://www.w3.org/2000/svg">
<g filter="url(#filter0_d_1038_2025)">
<circle cx="28.8285" cy="24.3742" r="24.3741" transform="rotate(-180 28.8285 24.3742)" fill="#EBFF25"/>
<g clip-path="url(#clip0_1038_2025)">
<path fill-rule="evenodd" clip-rule="evenodd" d="M38.0363 15.1545C35.5971 12.7145 32.3447 11.374 28.8814 11.374C21.7498 11.374 15.9403 17.1559 15.9341 24.2536C15.9341 26.5268 16.53 28.7382 17.6596 30.6964L15.8286 37.374L22.6933 35.5826C24.5863 36.608 26.7152 37.1516 28.8814 37.1516H28.8876C36.0191 37.1516 41.8286 31.3697 41.8348 24.2659C41.8286 20.8252 40.4818 17.5883 38.0363 15.1545ZM28.8814 34.9711C26.9449 34.9711 25.0518 34.4522 23.4008 33.4762L23.0098 33.2415L18.9382 34.3039L20.0244 30.3505L19.7699 29.9428C18.6899 28.2379 18.1251 26.2673 18.1251 24.2474C18.1251 18.3543 22.9539 13.5484 28.8876 13.5484C31.7613 13.5484 34.4612 14.6665 36.497 16.6864C38.5266 18.7126 39.6438 21.3997 39.6438 24.2597C39.6376 30.1714 34.8088 34.9711 28.8814 34.9711ZM34.784 26.953C34.4612 26.7924 32.8723 26.0141 32.5744 25.9029C32.2765 25.7979 32.0592 25.7423 31.8482 26.0635C31.631 26.3847 31.0103 27.1136 30.8241 27.3237C30.6379 27.5399 30.4455 27.5646 30.1227 27.404C29.8 27.2434 28.7572 26.9036 27.5221 25.8041C26.5601 24.9516 25.9146 23.8953 25.7221 23.5741C25.5359 23.2529 25.7035 23.0799 25.8649 22.9193C26.0077 22.7772 26.1876 22.5425 26.349 22.3572C26.5104 22.1718 26.5663 22.0359 26.6718 21.8197C26.7773 21.6035 26.7276 21.4182 26.6469 21.2576C26.5663 21.097 25.9208 19.5094 25.6477 18.867C25.387 18.2369 25.1201 18.3234 24.9215 18.3172C24.7353 18.3049 24.518 18.3049 24.3008 18.3049C24.0836 18.3049 23.736 18.3852 23.4381 18.7064C23.1401 19.0276 22.3084 19.806 22.3084 21.3935C22.3084 22.9811 23.4691 24.5068 23.6305 24.723C23.7919 24.9392 25.9083 28.1885 29.1545 29.5845C29.9241 29.9181 30.5262 30.1158 30.9979 30.264C31.7737 30.5111 32.4751 30.474 33.0337 30.3937C33.6543 30.3011 34.9453 29.6154 35.2184 28.8618C35.4853 28.1082 35.4853 27.4657 35.4046 27.3298C35.324 27.1939 35.1067 27.1136 34.784 26.953Z" fill="black"/>
</g>
</g>
<defs>
<filter id="filter0_d_1038_2025" x="0.454346" y="0" width="56.7483" height="58.7483" filterUnits="userSpaceOnUse" color-interpolation-filters="sRGB">
<feFlood flood-opacity="0" result="BackgroundImageFix"/>
<feColorMatrix in="SourceAlpha" type="matrix" values="0 0 0 0 0 0 0 0 0 0 0 0 0 0 0 0 0 0 127 0" result="hardAlpha"/>
<feOffset dy="6"/>
<feGaussianBlur stdDeviation="2"/>
<feComposite in2="hardAlpha" operator="out"/>
<feColorMatrix type="matrix" values="0 0 0 0 0 0 0 0 0 0 0 0 0 0 0 0 0 0 0.66 0"/>
<feBlend mode="normal" in2="BackgroundImageFix" result="effect1_dropShadow_1038_2025"/>
<feBlend mode="normal" in="SourceGraphic" in2="effect1_dropShadow_1038_2025" result="shape"/>
</filter>
<clipPath id="clip0_1038_2025">
<rect width="26" height="26" fill="white" transform="translate(15.8286 11.374)"/>
</clipPath>
</defs>
</svg>
